# Blender 4.2.3 LTS
# www.blender.org
mtllib body.mtl
o Robot_Body
v -0.253455 5.278901 -0.284925
v -0.253455 5.278901 0.018426
v 0.245302 5.278901 -0.284925
v -0.253455 5.323014 -0.284925
v 0.245302 5.323014 -0.284925
v -0.143514 5.418837 -0.193111
v -0.253455 5.323014 0.018427
v 0.245302 5.323014 0.018427
v -0.143514 5.418837 -0.073388
v 0.135361 5.418837 -0.073388
v 0.135361 5.418837 -0.193111
v 0.245302 5.278901 0.018426
v -1.011046 4.351739 -0.549460
v 0.000057 4.351739 -0.549460
v 1.011160 4.351739 -0.549460
v -1.011046 5.306990 -0.549459
v 0.000057 5.306990 -0.549459
v 1.011160 5.306990 -0.549459
v -1.011046 4.351739 0.247762
v 0.000057 4.351739 0.247762
v 1.011160 4.351739 0.247762
v -1.011046 5.306989 0.247762
v 0.000057 5.306989 0.247762
v 1.011160 5.306989 0.247762
v -1.011046 4.351739 -0.345712
v 0.000057 3.435612 -0.383896
v 1.011160 4.351739 -0.345712
v 1.011160 5.306989 -0.345711
v 0.000057 5.306989 -0.345711
v -1.011046 5.306989 -0.345711
v -0.947589 4.351739 -0.486002
v 0.000057 4.351739 -0.486002
v 0.947703 4.351739 -0.486002
v 0.947703 4.351739 -0.345712
v 0.947703 4.351739 0.184304
v 0.000057 4.351739 0.184304
v -0.947589 4.351739 0.184304
v -0.947589 4.351739 -0.345712
v -0.835952 4.010605 -0.486002
v 0.000057 4.010605 -0.486002
v 0.836066 4.010605 -0.486002
v 0.836066 4.010605 -0.345712
v 0.836066 4.010605 0.184304
v 0.000057 4.010605 0.184304
v -0.835952 4.010605 0.184304
v -0.835952 4.010605 -0.345712
v -0.772495 4.010605 -0.422545
v 0.000057 4.010605 -0.422545
v 0.772609 4.010605 -0.422545
v 0.772609 4.010605 -0.345712
v 0.772609 4.010605 0.120847
v 0.000057 4.010605 0.184304
v -0.772495 4.010605 0.120847
v -0.772495 4.010605 -0.345712
v -0.673436 3.435612 -0.422545
v 0.000057 3.435612 -0.422545
v 0.673550 3.435612 -0.422545
v 0.673550 3.435612 -0.345712
v 0.673550 3.435612 0.120847
v 0.282077 3.435612 0.120847
v -0.673436 3.435612 0.120847
v -0.673436 3.435612 -0.345712
v 0.282077 3.435612 -0.345712
v -0.281963 3.435612 -0.345712
v -0.281963 4.010605 0.120847
v 0.282077 4.010605 0.120847
v -0.281963 3.435612 0.120847
v -0.281963 3.478088 0.068498
v -0.281963 3.478089 -0.398061
v 0.282077 3.478089 -0.398061
v 0.282077 3.478088 0.068498
v 0.282077 4.053082 0.068498
v -0.281963 4.053082 0.068498
v -1.040651 5.336595 -0.549459
v -1.048494 4.333015 -0.549460
v -0.967042 4.314664 -0.486002
v -0.867802 3.983430 -0.486002
v -0.793775 3.974549 -0.422545
v -0.714696 3.428504 -0.422545
v -0.714696 3.428504 -0.345712
v -0.799470 3.978586 -0.345712
v -0.860523 3.976706 -0.345712
v -0.972165 4.317843 -0.345712
v -1.040651 4.322134 -0.345712
v -1.040651 5.336594 -0.345711
v 0.000057 5.348857 -0.345711
v 1.040765 5.336594 -0.345711
v 1.040765 4.322134 -0.345712
v 0.972279 4.317843 -0.345712
v 0.860637 3.976706 -0.345712
v 0.799584 3.978586 -0.345712
v 0.714810 3.428504 -0.345712
v 0.714810 3.428504 -0.422545
v 0.793889 3.974549 -0.422545
v 0.867916 3.983430 -0.486002
v 0.967156 4.314664 -0.486002
v 1.048608 4.333015 -0.549460
v 1.040765 5.336595 -0.549459
v 0.000057 5.348857 -0.549459
v -0.320449 4.288616 0.243880
v 0.355451 4.288616 0.243880
v -0.320449 5.305366 0.246114
v -0.320449 4.416523 0.488144
v 0.355451 4.416523 0.488144
v -0.320449 5.123013 0.390165
v 0.355451 5.123013 0.390165
v 0.355451 5.305366 0.246114
v 0.340085 4.318578 0.246771
v 0.340085 5.298374 0.246771
v 0.340085 4.622631 0.389165
v 0.988283 4.831143 0.246771
v 0.988283 5.298374 0.246771
v 0.473617 4.622631 0.389165
v 0.473617 5.111913 0.376194
v 0.340085 5.111913 0.376194
v -0.313127 4.318578 0.246186
v -1.002803 4.831143 0.246186
v -0.313127 5.298374 0.246187
v -0.313127 4.622631 0.389165
v -0.446660 4.622631 0.389165
v -0.313127 5.111913 0.376194
v -0.446660 5.111913 0.376194
v -1.002803 5.298374 0.246187
v -0.345748 3.827084 0.113094
v 0.382810 3.827084 0.113094
v -0.345748 4.314733 0.113094
v -0.268826 3.879723 0.430376
v -0.268852 4.264415 0.430288
v -0.188187 3.954938 0.490323
v 0.305888 3.879723 0.430376
v 0.305914 4.264415 0.430288
v 0.225249 3.954938 0.490323
v 0.225249 4.189698 0.490323
v -0.188187 4.189698 0.490323
v 0.382810 4.314733 0.113094
v -0.246038 4.264577 0.224026
v 0.284242 4.264577 0.224026
v -0.246038 4.366238 0.224026
v -0.246038 4.264577 0.354536
v 0.284242 4.264577 0.354536
v -0.246038 4.366238 0.354536
v 0.284242 4.366238 0.354536
v 0.284242 4.366238 0.224026
v 0.971126 4.655822 -0.474108
v 1.078571 4.655822 -0.474108
v 0.971126 5.224567 -0.474108
v 0.971126 4.655822 0.097386
v 1.078571 4.655822 0.097386
v 0.971126 5.224567 0.097386
v 1.078571 5.224567 0.097386
v 1.141460 5.148188 0.021005
v 1.078571 5.224567 -0.474108
v 1.141460 5.148188 -0.397727
v 1.141460 4.732202 -0.397727
v 1.167103 5.148188 -0.397727
v 1.167103 5.148188 0.021005
v 1.167103 4.732202 -0.397727
v 1.167103 4.732203 0.021005
v 1.141460 4.732203 0.021005
v 1.110742 4.944672 -0.041917
v 1.110742 4.893417 -0.050954
v 1.110742 4.995926 -0.050954
v 1.282569 4.944672 -0.041917
v 1.282569 4.893417 -0.050954
v 1.282569 4.995926 -0.050954
v 1.282569 5.040999 -0.076977
v 1.110742 5.040999 -0.076977
v 1.282569 5.074453 -0.116846
v 1.110742 5.074453 -0.116846
v 1.282569 5.092254 -0.165753
v 1.110742 5.092254 -0.165753
v 1.282569 5.092254 -0.217798
v 1.110742 5.092254 -0.217798
v 1.282569 5.074453 -0.266705
v 1.282569 5.040999 -0.306574
v 1.110742 5.074453 -0.266705
v 1.110742 5.040999 -0.306574
v 1.110742 4.995926 -0.332596
v 1.110742 4.944672 -0.341634
v 1.282569 4.995926 -0.332596
v 1.282569 4.944672 -0.341634
v 1.282569 4.893417 -0.332596
v 1.110742 4.893417 -0.332596
v 1.282569 4.848344 -0.306573
v 1.110742 4.848344 -0.306573
v 1.282569 4.814890 -0.266705
v 1.110742 4.814890 -0.266705
v 1.282569 4.797090 -0.217798
v 1.110742 4.797090 -0.217798
v 1.282569 4.797090 -0.165753
v 1.282569 4.814890 -0.116846
v 1.110742 4.797090 -0.165753
v 1.110742 4.814890 -0.116846
v 1.110742 4.848344 -0.076977
v 1.282569 4.848344 -0.076977
v 1.153444 2.704869 -0.129337
v 1.153444 2.704869 -0.002035
v 0.800631 3.304958 -0.235400
v 1.129867 2.690378 -0.129337
v 1.129867 2.690377 -0.002035
v 0.753788 3.276166 -0.235400
v 0.753788 3.276166 0.104028
v 0.636685 3.466687 -0.192151
v 0.636685 3.466687 0.060779
v 0.683529 3.495480 -0.192151
v 0.683529 3.495480 0.060779
v 0.800631 3.304958 0.104028
v -1.342940 2.859686 -0.129337
v -1.342940 2.859686 -0.002035
v -0.833862 3.334473 -0.235400
v -1.324466 2.839081 -0.129337
v -1.324466 2.839081 -0.002035
v -0.797156 3.293535 -0.235400
v -0.797156 3.293534 0.104028
v -0.630651 3.442825 -0.192151
v -0.630651 3.442825 0.060779
v -0.667357 3.483764 -0.192151
v -0.667357 3.483763 0.060779
v -0.833862 3.334473 0.104028
v 0.814839 3.691016 -0.534003
v 0.907873 3.691016 -0.534003
v 0.814839 3.691016 -0.672260
v 0.814839 4.848831 -0.534003
v 0.814839 5.326484 -0.534003
v 0.907873 4.848831 -0.534003
v 0.814839 4.848832 -0.883613
v 0.907873 4.848832 -0.883613
v 0.814839 4.908790 -1.027899
v 0.814839 3.902369 -0.883613
v 0.814839 5.326484 -0.883613
v 0.907873 5.326484 -0.883613
v 0.814839 5.272262 -1.001429
v 0.907873 5.272262 -1.001429
v 0.814839 5.115131 -1.080221
v 0.907873 5.115131 -1.080221
v 0.907873 4.908790 -1.027899
v 0.907873 5.326484 -0.534003
v 0.907873 3.902369 -0.883613
v 0.907873 3.691016 -0.672260
v -0.632853 4.168046 -0.548976
v -0.632853 4.168046 -0.834808
v -0.632853 5.283529 -0.548976
v -0.214969 4.168046 -0.548976
v -0.536181 3.810453 -0.951752
v -0.536181 3.935785 -1.040521
v -0.311642 3.810453 -0.951752
v -0.311642 3.935785 -1.040521
v -0.214969 4.168046 -0.834808
v 0.202914 4.168046 -0.834808
v -0.365627 5.283529 -0.834808
v -0.131312 4.263762 -0.834808
v 0.119257 4.263762 -0.834808
v -0.256114 5.187812 -0.834808
v -0.131312 4.263762 -0.789789
v -0.256114 5.187812 -0.789789
v 0.119257 4.263762 -0.789789
v 0.244059 5.187812 -0.789789
v 0.244059 5.187812 -0.834808
v 0.353571 5.283529 -0.834808
v 0.353572 5.283529 -0.548976
v 0.620798 5.283529 -0.834808
v 0.620798 5.283529 -0.548976
v 0.620798 4.168046 -0.834808
v 0.620798 4.168046 -0.548976
v 0.524126 3.935785 -1.040521
v 0.524126 3.810453 -0.951752
v 0.299587 3.935785 -1.040521
v 0.299587 3.810453 -0.951752
v 0.202914 4.168046 -0.548976
v -0.365627 5.283529 -0.548976
v -0.632853 5.283529 -0.834808
v -0.895550 3.691016 -0.534003
v -0.802516 3.691016 -0.534003
v -0.895550 3.691016 -0.672260
v -0.895550 4.848831 -0.534003
v -0.895550 4.848832 -0.883613
v -0.802516 4.848831 -0.534003
v -0.895550 5.326484 -0.534003
v -0.895550 5.326484 -0.883613
v -0.802516 5.326484 -0.534003
v -0.802516 5.326484 -0.883613
v -0.802516 4.848832 -0.883613
v -0.802516 5.272262 -1.001429
v -0.802516 5.115131 -1.080221
v -0.895550 5.272262 -1.001429
v -0.895550 5.115131 -1.080221
v -0.895550 4.908790 -1.027899
v -0.802516 4.908790 -1.027899
v -0.802516 3.902369 -0.883613
v -0.895550 3.902369 -0.883613
v -0.802516 3.691016 -0.672260
v -0.968349 4.655822 -0.474108
v -0.968349 5.224567 -0.474108
v -1.075795 4.655822 -0.474108
v -0.968349 4.655822 0.097386
v -1.075795 4.655822 0.097386
v -0.968349 5.224567 0.097386
v -1.075795 5.224567 0.097386
v -1.075795 5.224567 -0.474108
v -1.138683 5.148188 0.021005
v -1.164326 5.148188 0.021005
v -1.138683 5.148188 -0.397727
v -1.138683 4.732203 0.021005
v -1.164326 4.732203 0.021005
v -1.138683 4.732202 -0.397727
v -1.164326 4.732202 -0.397727
v -1.164326 5.148188 -0.397727
v -1.107965 4.944672 -0.041917
v -1.279793 4.944672 -0.041917
v -1.107965 4.995926 -0.050954
v -1.107965 4.893417 -0.050954
v -1.279793 4.893417 -0.050954
v -1.107965 4.848344 -0.076977
v -1.279793 4.848344 -0.076977
v -1.107965 4.814890 -0.116846
v -1.279793 4.814890 -0.116846
v -1.107965 4.797090 -0.165753
v -1.279793 4.797090 -0.165753
v -1.107965 4.797090 -0.217798
v -1.279793 4.797090 -0.217798
v -1.107965 4.814890 -0.266705
v -1.279793 4.814890 -0.266705
v -1.107965 4.848344 -0.306573
v -1.279793 4.848344 -0.306573
v -1.107965 4.893417 -0.332596
v -1.279793 4.893417 -0.332596
v -1.107965 4.944672 -0.341634
v -1.279793 4.944672 -0.341634
v -1.107965 4.995926 -0.332596
v -1.279793 4.995926 -0.332596
v -1.107965 5.040999 -0.306574
v -1.279793 5.040999 -0.306574
v -1.107965 5.074453 -0.266705
v -1.279793 5.074453 -0.266705
v -1.107965 5.092254 -0.217798
v -1.279793 5.092254 -0.217798
v -1.107965 5.092254 -0.165753
v -1.279793 5.092254 -0.165753
v -1.107965 5.074453 -0.116846
v -1.279793 5.074453 -0.116846
v -1.107965 5.040999 -0.076977
v -1.279793 5.040999 -0.076977
v -1.279793 4.995926 -0.050954
v -0.345181 2.836325 -0.769071
v 0.341709 2.836325 -0.769071
v -0.345181 3.420922 -0.642051
v -0.345181 2.875722 -0.950390
v -0.859703 2.957146 -0.742819
v -0.345181 2.442693 -0.854599
v -0.345181 2.470695 -0.983475
v 0.341709 2.442693 -0.854599
v 0.341709 2.470695 -0.983475
v 0.341709 2.890333 -1.046546
v 0.341709 2.973110 -0.933079
v 0.323084 2.901310 -1.031499
v -0.345181 2.890333 -1.046546
v 0.341709 2.875722 -0.950390
v 0.434011 2.923776 -1.015302
v 0.846223 3.041532 -0.859444
v 0.846223 3.013530 -0.730568
v 0.747311 3.333618 -0.795980
v 0.341709 3.448924 -0.770927
v 0.747311 3.305616 -0.667104
v 0.341709 3.420922 -0.642051
v -0.345181 3.448924 -0.770927
v -0.762599 3.279919 -0.807648
v -0.345181 2.973110 -0.933079
v -0.440451 2.913655 -1.017149
v -0.326556 2.962133 -0.948125
v -0.326556 2.901310 -1.031499
v 0.323084 2.962133 -0.948125
v -0.326556 2.893118 -0.897777
v -0.326556 2.832295 -0.981150
v 0.323084 2.893118 -0.897777
v 0.323084 2.832295 -0.981150
v -0.859703 2.985148 -0.871695
v -0.762599 3.251918 -0.678772
v -0.354972 2.583364 -0.360367
v 0.356100 2.583364 -0.360367
v -0.354972 2.601986 -0.453477
v -0.354972 2.583364 -0.229287
v 0.356100 2.583364 -0.229287
v -0.354972 2.601986 -0.136177
v 0.356100 2.601986 -0.136177
v -0.354972 2.657852 -0.080311
v 0.356100 2.657852 -0.080311
v -0.354972 2.750962 -0.061689
v 0.356100 2.750962 -0.061689
v -0.354972 3.441642 -0.061688
v -0.354972 3.441642 -0.527965
v 0.356100 3.441642 -0.061688
v -0.354972 4.020717 -0.158589
v -0.354972 4.020717 -0.431064
v 0.356100 4.020717 -0.158589
v 0.356100 4.020717 -0.431064
v 0.356100 3.441642 -0.527965
v 0.356100 2.750963 -0.527966
v 0.356100 3.289147 -0.682033
v -0.354972 3.289147 -0.682033
v 0.356100 2.903458 -0.682034
v -0.354972 2.903458 -0.682034
v -0.354972 2.750963 -0.527966
v -0.354972 2.657853 -0.509344
v 0.356100 2.657853 -0.509344
v 0.356100 2.601986 -0.453477
v -0.661316 3.314223 -0.018785
v -0.661316 3.300633 -0.032374
v -0.661316 3.457992 -0.018785
v -0.661316 3.314223 0.078356
v -0.661316 3.300633 0.091945
v -0.661316 3.457992 0.078356
v -0.661316 3.471581 0.091945
v -0.661316 3.471581 -0.032374
v -0.562232 3.471581 0.091945
v -0.562232 3.471581 -0.032374
v -0.562232 3.457992 0.078356
v -0.562232 3.300633 0.091945
v -0.562232 3.314223 0.078356
v -0.562232 3.300633 -0.032374
v -0.562232 3.314223 -0.018785
v -0.562232 3.457992 -0.018785
v -0.463148 3.314223 -0.018785
v -0.463148 3.300633 -0.032374
v -0.463148 3.314223 0.078356
v -0.463148 3.457992 -0.018785
v -0.463148 3.457992 0.078356
v -0.463148 3.471581 -0.032374
v -0.463148 3.471581 0.091945
v -0.364064 3.471581 -0.032374
v -0.364064 3.457992 -0.018785
v -0.364064 3.300633 -0.032374
v -0.364064 3.471581 0.091945
v -0.364064 3.457992 0.078356
v -0.364064 3.300633 0.091945
v -0.463148 3.300633 0.091945
v -0.364064 3.314223 0.078356
v -0.364064 3.314223 -0.018785
v 0.360606 3.314223 -0.018785
v 0.360606 3.457992 -0.018785
v 0.360606 3.314223 0.078356
v 0.360606 3.300633 -0.032374
v 0.360606 3.300633 0.091945
v 0.459690 3.300633 -0.032374
v 0.360606 3.471581 -0.032374
v 0.360606 3.471581 0.091945
v 0.459690 3.471581 -0.032374
v 0.459690 3.471581 0.091945
v 0.459690 3.457992 -0.018785
v 0.459690 3.314223 -0.018785
v 0.459690 3.457992 0.078356
v 0.558774 3.457992 -0.018785
v 0.558774 3.314223 -0.018785
v 0.558774 3.457992 0.078356
v 0.558774 3.471581 -0.032374
v 0.558774 3.300633 -0.032374
v 0.558774 3.471581 0.091945
v 0.657858 3.471581 -0.032374
v 0.657858 3.457992 -0.018785
v 0.657858 3.300633 -0.032374
v 0.657858 3.471581 0.091945
v 0.657858 3.457992 0.078356
v 0.657858 3.300633 0.091945
v 0.558774 3.300633 0.091945
v 0.657858 3.314223 0.078356
v 0.657858 3.314223 -0.018785
v 0.558774 3.314223 0.078356
v 0.459690 3.314223 0.078356
v 0.459690 3.300633 0.091945
v 0.360606 3.457992 0.078356
v -0.345181 2.836325 0.174941
v -0.345181 2.875722 0.356259
v -0.859703 2.957146 0.148689
v -0.345181 2.442693 0.260468
v 0.341709 2.836325 0.174941
v -0.345181 3.420922 0.047921
v 0.341709 3.420922 0.047921
v -0.345181 3.448924 0.176797
v -0.762599 3.251917 0.084642
v -0.762599 3.279919 0.213518
v -0.859703 2.985148 0.277565
v -0.440451 2.913655 0.423019
v -0.345181 2.973110 0.338949
v -0.345181 2.890333 0.452415
v 0.341709 2.973110 0.338949
v -0.326556 2.962133 0.353995
v -0.326556 2.901310 0.437369
v 0.323084 2.962133 0.353995
v -0.326556 2.893118 0.303647
v 0.323084 2.893118 0.303647
v -0.326556 2.832295 0.387020
v 0.323084 2.832295 0.387020
v 0.323084 2.901310 0.437369
v 0.341709 2.890333 0.452415
v 0.341709 2.470695 0.389344
v 0.341709 2.875722 0.356259
v 0.434011 2.923776 0.421172
v 0.846223 3.041532 0.265314
v 0.846223 3.013530 0.136438
v 0.747311 3.333618 0.201850
v 0.341709 3.448924 0.176797
v 0.747311 3.305616 0.072974
v 0.341709 2.442693 0.260468
v -0.345181 2.470695 0.389344
vn -0.0000 -1.0000 -0.0000
vn -1.0000 -0.0000 -0.0000
vn -0.0000 -0.0000 -1.0000
vn -0.0000 0.6918 -0.7220
vn -0.6570 0.7539 -0.0000
vn -0.0000 -0.0000 1.0000
vn -0.0000 0.6918 0.7220
vn -0.0000 1.0000 -0.0000
vn 0.6570 0.7539 -0.0000
vn 1.0000 -0.0000 -0.0000
vn 0.9998 0.0039 0.0193
vn 0.0118 0.9999 -0.0000
vn -0.0118 0.9999 -0.0000
vn -0.9998 0.0039 0.0193
vn 0.1245 -0.9921 -0.0125
vn -0.1468 -0.9890 -0.0186
vn -0.1468 -0.9890 -0.0187
vn 0.9542 -0.2990 0.0029
vn 0.9504 -0.3110 -0.0000
vn -0.9504 -0.3110 -0.0000
vn -0.9542 -0.2993 0.0035
vn 0.0258 -0.9997 0.0057
vn 0.0258 -0.9997 0.0056
vn -0.0615 -0.9981 -0.0045
vn -0.0616 -0.9981 -0.0045
vn 0.9885 -0.1478 -0.0328
vn 0.9855 -0.1698 -0.0000
vn -0.9855 -0.1698 -0.0000
vn -0.9885 -0.1477 -0.0324
vn -0.0000 0.7765 0.6301
vn -0.0000 -0.7765 -0.6301
vn 0.5067 -0.5852 -0.6331
vn 0.5742 -0.4998 -0.6484
vn 0.1698 -0.9855 -0.0000
vn -0.1698 -0.9855 -0.0000
vn -0.5764 -0.4843 -0.6582
vn -0.5176 -0.5323 -0.6699
vn -0.0000 -0.8859 0.4639
vn -0.0000 0.0022 -1.0000
vn -0.0000 0.1374 0.9905
vn -0.0000 0.6199 0.7847
vn 0.3125 -0.9494 0.0322
vn 0.3124 -0.9494 0.0322
vn 0.2506 0.0131 0.9680
vn -0.0000 0.0265 0.9996
vn -0.0000 0.5702 0.8215
vn -0.2963 -0.9544 0.0374
vn -0.2963 -0.9543 0.0374
vn -0.0000 0.5719 0.8203
vn -0.2339 0.0132 0.9722
vn -0.0000 -0.9865 0.1637
vn -0.9718 -0.0000 0.2356
vn -0.5968 0.0001 0.8024
vn -0.0000 -0.6233 0.7820
vn 0.9718 -0.0000 0.2356
vn 0.5968 0.0001 0.8024
vn -0.0000 0.6264 0.7795
vn -0.0000 0.9877 0.1567
vn 0.7720 -0.0000 0.6356
vn 0.7720 0.6356 -0.0000
vn 0.7720 -0.0000 -0.6356
vn 0.7720 -0.6356 -0.0000
vn -0.0000 -0.3420 0.9397
vn -0.0000 0.3420 0.9397
vn -0.0000 0.6428 0.7660
vn -0.0000 0.8660 0.5000
vn -0.0000 0.9848 0.1737
vn -0.0000 0.9848 -0.1737
vn -0.0000 0.8660 -0.5000
vn -0.0000 0.6428 -0.7660
vn -0.0000 0.3420 -0.9397
vn -0.0000 -0.3420 -0.9397
vn -0.0000 -0.6428 -0.7660
vn -0.0000 -0.8660 -0.5000
vn -0.0000 -0.9848 -0.1736
vn -0.0000 -0.9848 0.1736
vn -0.0000 -0.8660 0.5000
vn -0.0000 -0.6428 0.7660
vn 0.5236 -0.8519 -0.0000
vn 0.8620 0.5068 -0.0000
vn 0.8571 0.5151 -0.0000
vn -0.0105 0.0170 -0.9998
vn 0.0789 -0.1283 -0.9886
vn -0.8415 -0.5403 -0.0000
vn -0.8467 -0.5321 -0.0000
vn -0.0994 0.1618 -0.9818
vn -0.8519 -0.5236 -0.0000
vn -0.5236 0.8519 -0.0000
vn 0.8519 0.5236 -0.0000
vn -0.0105 0.0170 0.9998
vn -0.0994 0.1618 0.9818
vn -0.0106 0.0172 0.9998
vn 0.0789 -0.1283 0.9886
vn -0.7445 -0.6676 -0.0000
vn -0.6820 0.7313 -0.0000
vn -0.6749 0.7379 -0.0000
vn -0.6747 0.7381 -0.0000
vn 0.0149 0.0133 -0.9998
vn -0.1122 -0.1006 -0.9886
vn 0.6528 -0.7575 -0.0000
vn 0.6601 -0.7512 -0.0000
vn 0.6676 -0.7445 -0.0000
vn 0.1414 0.1268 -0.9818
vn 0.7445 0.6676 -0.0000
vn -0.6676 0.7445 -0.0000
vn 0.0149 0.0133 0.9998
vn 0.1414 0.1268 0.9818
vn -0.1122 -0.1006 0.9886
vn -0.0000 -0.9234 -0.3837
vn -0.0000 0.9768 -0.2140
vn -0.0000 0.9084 -0.4181
vn -0.0000 0.4482 -0.8939
vn -0.0000 -0.2458 -0.9693
vn -0.0000 -0.7071 -0.7071
vn -0.9673 -0.2205 -0.1254
vn -0.9673 -0.2205 -0.1255
vn -0.0000 -0.7478 0.6639
vn -0.0000 -0.5780 -0.8160
vn 0.9663 -0.2467 -0.0735
vn -0.0000 0.6630 -0.7486
vn 0.9910 0.1338 -0.0000
vn -0.9910 0.1338 -0.0000
vn -0.7720 0.6356 -0.0000
vn -0.7720 -0.0000 0.6356
vn -0.7720 -0.6356 -0.0000
vn -0.7720 -0.0000 -0.6356
vn -0.0000 -0.2123 0.9772
vn -0.2337 -0.9502 -0.2064
vn -0.0000 -0.9772 -0.2123
vn -0.0000 -0.1486 -0.9889
vn -0.0000 0.8079 -0.5894
vn 0.3627 -0.1404 -0.9213
vn 0.3382 -0.9196 -0.1998
vn 0.0166 0.3225 -0.9464
vn 0.0366 0.4582 -0.8881
vn 0.0391 0.5841 -0.8107
vn 0.0243 0.4138 -0.9101
vn 0.9494 0.3070 0.0667
vn 0.1411 0.9674 0.2102
vn 0.2793 0.9383 0.2039
vn -0.1951 0.9584 0.2082
vn 0.1174 0.3498 -0.9294
vn -0.3828 0.9028 0.1962
vn -0.0188 0.3414 -0.9397
vn -0.2695 0.2884 -0.9188
vn -0.3299 -0.1796 -0.9268
vn -0.3299 -0.1795 -0.9268
vn -0.0000 -0.5894 -0.8079
vn -0.0000 0.5894 0.8079
vn -0.9519 0.2994 0.0651
vn -0.0000 -0.9806 -0.1961
vn -0.0000 -0.9951 -0.0985
vn -0.0000 -0.9951 0.0985
vn -0.0000 -0.9806 0.1961
vn -0.0000 -0.7071 0.7071
vn -0.0000 -0.0985 0.9951
vn -0.0000 -0.1961 0.9806
vn -0.0000 0.0828 0.9966
vn -0.0000 0.1650 0.9863
vn -0.0000 0.1650 -0.9863
vn -0.0000 0.7107 -0.7035
vn -0.0000 -0.7107 -0.7035
vn -0.0000 -0.1961 -0.9806
vn -0.2337 -0.9502 0.2064
vn -0.0000 -0.2123 -0.9772
vn 0.1411 0.9674 -0.2102
vn -0.1951 0.9584 -0.2082
vn -0.3828 0.9028 -0.1962
vn -0.9519 0.2994 -0.0651
vn -0.0188 0.3414 0.9397
vn 0.1174 0.3517 0.9287
vn 0.1174 0.3498 0.9294
vn -0.2695 0.2884 0.9188
vn -0.3299 -0.1796 0.9268
vn -0.3299 -0.1795 0.9268
vn -0.0000 0.8079 0.5894
vn 0.0243 0.4138 0.9101
vn 0.0166 0.3225 0.9464
vn -0.0000 -0.5894 0.8079
vn -0.0000 0.5894 -0.8079
vn 0.3627 -0.1404 0.9213
vn -0.0000 -0.1486 0.9889
vn 0.3382 -0.9196 0.1998
vn 0.0391 0.5841 0.8107
vn 0.0366 0.4583 0.8881
vn 0.9494 0.3070 -0.0667
vn 0.2793 0.9383 -0.2039
vn -0.0000 -0.9772 0.2123
vt 0.000000 0.000000
vt 1.000000 0.000000
vt 1.000000 1.000000
vt 0.000000 1.000000
vt 0.500000 0.000000
vt 0.500000 0.197766
vt 0.290629 0.500000
vt 0.000000 0.500000
vt 1.000000 0.500000
vt 0.709371 0.500000
vt 0.500000 1.000000
vt 0.682525 1.000000
vt 0.317475 1.000000
vt 0.290629 1.000000
vt 0.709371 1.000000
vt 0.500000 0.500000
vt 1.000000 0.817424
vt 0.000000 0.817424
vt 0.000000 0.817155
vt 0.161464 0.996001
vt 0.837102 0.996001
vt 0.119151 0.908050
vt 0.880849 0.908050
vt 1.000000 0.817155
vt 0.162898 0.996001
vt 0.838536 0.996001
vt 0.117439 0.175457
vt 0.882561 0.175457
vt 0.882561 0.824543
vt 0.117439 0.824543
vt 0.119151 0.907381
vt 0.880849 0.907381
vt 0.750000 0.000000
vt 0.694444 0.000000
vt 0.694444 1.000000
vt 0.750000 1.000000
vt 0.328990 0.969846
vt 0.178606 0.883022
vt 0.066987 0.750000
vt 0.007596 0.586824
vt 0.007596 0.413176
vt 0.066987 0.250000
vt 0.178606 0.116978
vt 0.328990 0.030154
vt 0.500000 0.000000
vt 0.671010 0.030154
vt 0.821394 0.116978
vt 0.933013 0.250000
vt 0.992404 0.413176
vt 0.992404 0.586824
vt 0.933013 0.750000
vt 0.821394 0.883022
vt 0.671010 0.969846
vt 0.500000 1.000000
vt 0.805556 0.000000
vt 0.805556 1.000000
vt 0.861111 0.000000
vt 0.861111 1.000000
vt 0.916667 0.000000
vt 0.916667 1.000000
vt 0.972222 0.000000
vt 0.972222 1.000000
vt 0.027778 0.000000
vt -0.027778 0.000000
vt -0.027778 1.000000
vt 0.027778 1.000000
vt 0.083333 0.000000
vt 0.083333 1.000000
vt 0.138889 0.000000
vt 0.138889 1.000000
vt 0.194444 0.000000
vt 0.194444 1.000000
vt 0.250000 0.000000
vt 0.250000 1.000000
vt 0.305556 0.000000
vt 0.305556 1.000000
vt 0.361111 0.000000
vt 0.361111 1.000000
vt 0.416667 0.000000
vt 0.416667 1.000000
vt 0.472222 0.000000
vt 0.472222 1.000000
vt 0.527778 0.000000
vt 0.527778 1.000000
vt 0.583333 0.000000
vt 0.583333 1.000000
vt 0.638889 0.000000
vt 0.638889 1.000000
vt 1.000000 0.395460
vt 0.000000 0.395460
vt 0.000000 0.091272
vt 0.604540 0.000000
vt 1.000000 0.091272
vt 1.000000 0.778759
vt 0.000000 0.778759
vt 0.999998 -7.556730
vt -0.000002 -7.556730
vt 0.395460 0.000000
vt 0.666667 0.000000
vt 0.666667 1.000000
vt 0.333333 0.000000
vt 0.666667 0.000000
vt 0.333333 1.000000
vt 0.333333 0.000000
vt 0.666667 1.000000
vt 0.333333 1.000000
vt 0.000000 0.644963
vt 1.000000 0.644963
vt 1.000000 -0.108164
vt 1.000000 0.165224
vt 0.006764 1.294259
vt 0.165224 1.000000
vt 0.000000 -0.108164
vt 0.000000 0.165224
vt 0.834776 1.000000
vt 0.842608 0.691840
vt 1.000000 0.215306
vt 1.000000 0.359440
vt 0.000000 0.359440
vt 0.000000 0.215306
vt 1.000000 0.640560
vt 0.000000 0.640560
vt 0.804727 0.000000
vt 0.913212 0.039938
vt 0.978303 0.159751
vt 0.978303 0.840249
vt 0.913212 0.960062
vt 0.804727 1.000000
vt -0.000000 0.784694
vt 1.000000 0.784694
vt -0.000000 0.928828
vt 1.000000 0.928828
vt -0.000000 1.072962
vt 1.000000 1.072962
vt 0.000000 0.195273
vt 1.000000 0.195273
vt 0.021697 0.159751
vt 0.086788 0.039938
vt 0.195273 0.000000
vt 0.195273 1.000000
vt 0.086788 0.960062
vt 0.021697 0.840249
vt 1.000000 -0.072962
vt 1.000000 0.071172
vt 0.000000 0.071172
vt 0.000000 -0.072962
vt 0.333333 0.000000
vt 0.333333 1.000000
vt 0.333333 1.000000
vt 0.333333 0.000000
vt -0.000000 1.000000
vt -0.000000 0.000000
s 1
f 1/1/1 3/2/1 12/3/1 2/4/1
f 4/1/2 1/2/2 2/3/2 7/4/2
f 1/2/3 4/3/3 5/4/3 3/1/3
f 5/1/4 4/2/4 6/2/4 11/1/4
f 4/2/5 7/3/5 9/3/5 6/2/5
f 2/1/6 12/2/6 8/3/6 7/4/6
f 7/3/7 8/4/7 10/4/7 9/3/7
f 11/1/8 6/2/8 9/3/8 10/4/8
f 8/4/9 5/1/9 11/1/9 10/4/9
f 3/1/10 5/2/10 8/3/10 12/4/10
f 55/1/1 56/5/1 26/6/1 64/7/1 62/8/1
f 56/5/1 57/2/1 58/9/1 63/10/1 26/6/1
f 43/3/1 44/11/1 52/11/1 66/12/1 51/3/1
f 44/11/1 45/4/1 53/4/1 65/13/1 52/11/1
f 13/2/3 16/3/3 17/11/3 14/5/3
f 14/5/3 17/11/3 18/4/3 15/1/3
f 19/1/6 20/5/6 23/11/6 22/4/6
f 20/5/6 21/2/6 24/3/6 23/11/6
f 62/8/1 64/7/1 67/14/1 61/4/1
f 63/10/1 58/9/1 59/3/1 60/15/1
f 97/1/11 98/2/11 87/9/11 88/8/11
f 27/8/10 28/9/10 24/3/10 21/4/10
f 98/1/12 99/5/8 86/16/8 87/8/12
f 99/5/8 74/2/13 85/9/13 86/16/8
f 28/8/8 29/16/8 23/11/8 24/4/8
f 29/16/8 30/9/8 22/3/8 23/11/8
f 74/1/14 75/2/14 84/9/14 85/8/14
f 30/8/2 25/9/2 19/3/2 22/4/2
f 13/1/1 14/5/1 32/5/1 31/1/1
f 14/5/1 15/2/1 33/2/1 32/5/1
f 97/2/15 88/9/15 89/9/15 96/2/15
f 27/9/1 21/3/1 35/3/1 34/9/1
f 21/3/1 20/11/1 36/11/1 35/3/1
f 20/11/1 19/4/1 37/4/1 36/11/1
f 19/4/1 25/8/1 38/8/1 37/4/1
f 84/8/16 75/1/17 76/1/17 83/8/17
f 31/1/3 32/5/3 40/5/3 39/1/3
f 32/5/3 33/2/3 41/2/3 40/5/3
f 96/2/18 89/9/18 90/9/18 95/2/18
f 34/9/19 35/3/19 43/3/19 42/9/19
f 35/3/6 36/11/6 44/11/6 43/3/6
f 36/11/6 37/4/6 45/4/6 44/11/6
f 37/4/20 38/8/20 46/8/20 45/4/20
f 83/8/21 76/1/21 77/1/21 82/8/21
f 39/1/1 40/5/1 48/5/1 47/1/1
f 40/5/1 41/2/1 49/2/1 48/5/1
f 95/2/22 90/9/22 91/9/22 94/2/23
f 42/9/1 43/3/1 51/3/1 50/9/1
f 45/4/1 46/8/1 54/8/1 53/4/1
f 82/8/24 77/1/24 78/1/25 81/8/24
f 47/1/3 48/5/3 56/5/3 55/1/3
f 48/5/3 49/2/3 57/2/3 56/5/3
f 94/2/26 91/9/26 92/9/26 93/2/26
f 50/9/27 51/3/27 59/3/27 58/9/27
f 51/3/6 66/12/6 60/15/6 59/3/6
f 65/13/6 53/4/6 61/4/6 67/14/6
f 53/4/28 54/8/28 62/8/28 61/4/28
f 81/8/29 78/1/29 79/1/29 80/8/29
f 26/6/1 63/10/1 64/7/1
f 52/11/1 65/13/1 66/12/1
f 69/7/1 70/10/1 71/15/1 68/14/1
f 72/12/6 73/13/6 68/14/6 71/15/6
f 67/14/10 64/7/10 69/7/10 68/14/10
f 64/7/30 63/10/30 70/10/30 69/7/30
f 63/10/2 60/15/2 71/15/2 70/10/2
f 60/15/2 66/12/2 72/12/2 71/15/2
f 66/12/31 65/13/31 73/13/31 72/12/31
f 65/13/10 67/14/10 68/14/10 73/13/10
f 16/1/3 13/2/3 75/2/3 74/1/3
f 13/1/32 31/1/32 76/1/32 75/1/32
f 31/1/3 39/1/3 77/1/3 76/1/3
f 39/1/33 47/1/33 78/1/33 77/1/33
f 47/1/3 55/1/3 79/1/3 78/1/3
f 55/1/34 62/8/34 80/8/34 79/1/34
f 62/8/6 54/8/6 81/8/6 80/8/6
f 54/8/6 46/8/6 82/8/6 81/8/6
f 46/8/6 38/8/6 83/8/6 82/8/6
f 38/8/6 25/8/6 84/8/6 83/8/6
f 25/9/6 30/8/6 85/8/6 84/9/6
f 30/9/6 29/16/6 86/16/6 85/9/6
f 29/16/6 28/8/6 87/8/6 86/16/6
f 28/9/6 27/8/6 88/8/6 87/9/6
f 27/9/6 34/9/6 89/9/6 88/9/6
f 34/9/6 42/9/6 90/9/6 89/9/6
f 42/9/6 50/9/6 91/9/6 90/9/6
f 50/9/6 58/9/6 92/9/6 91/9/6
f 58/9/35 57/2/35 93/2/35 92/9/35
f 57/2/3 49/2/3 94/2/3 93/2/3
f 49/2/36 41/2/36 95/2/36 94/2/36
f 41/2/3 33/2/3 96/2/3 95/2/3
f 33/2/37 15/2/37 97/2/37 96/2/37
f 15/1/3 18/2/3 98/2/3 97/1/3
f 18/1/3 17/5/3 99/5/3 98/1/3
f 17/5/3 16/2/3 74/2/3 99/5/3
f 100/1/38 101/2/38 104/3/38 103/4/38
f 100/2/39 102/3/39 107/4/39 101/1/39
f 102/1/2 100/2/2 103/3/2 105/4/2
f 103/1/40 104/2/40 106/3/40 105/4/40
f 107/1/41 102/2/41 105/3/41 106/4/41
f 101/1/10 107/2/10 106/3/10 104/4/10
f 109/1/2 108/2/2 110/3/2 115/4/2
f 108/2/3 109/3/3 112/4/3 111/1/3
f 108/1/42 111/2/43 113/3/43 110/4/43
f 111/1/44 112/2/44 114/3/44 113/4/44
f 110/1/45 113/2/45 114/3/45 115/4/45
f 112/1/46 109/2/46 115/3/46 114/4/46
f 116/1/47 119/4/47 120/3/48 117/2/47
f 116/2/3 117/1/3 123/4/3 118/3/3
f 118/1/10 121/4/10 119/3/10 116/2/10
f 119/1/45 121/4/45 122/3/45 120/2/45
f 123/1/49 122/4/49 121/3/49 118/2/49
f 117/1/50 120/4/50 122/3/50 123/2/50
f 124/1/51 125/2/51 130/17/51 127/18/51
f 124/2/3 126/3/3 135/4/3 125/1/3
f 126/1/52 124/2/52 127/17/52 128/19/52
f 134/20/53 128/19/53 127/17/53 129/21/53
f 129/22/54 127/18/54 130/17/54 132/23/54
f 125/1/55 135/2/55 131/24/55 130/18/55
f 132/25/56 130/18/56 131/24/56 133/26/56
f 129/27/6 132/28/6 133/29/6 134/30/6
f 133/31/57 131/19/57 128/24/57 134/32/57
f 135/1/58 126/2/58 128/24/58 131/19/58
f 136/1/1 137/2/1 140/3/1 139/4/1
f 136/2/3 138/3/3 143/4/3 137/1/3
f 138/1/2 136/2/2 139/3/2 141/4/2
f 139/1/6 140/2/6 142/3/6 141/4/6
f 143/1/8 138/2/8 141/3/8 142/4/8
f 137/1/10 143/2/10 142/3/10 140/4/10
f 144/1/1 145/2/1 148/3/1 147/4/1
f 144/2/3 146/3/3 152/4/3 145/1/3
f 146/1/2 144/2/2 147/3/2 149/4/2
f 147/1/6 148/2/6 150/3/6 149/4/6
f 152/1/8 146/2/8 149/3/8 150/4/8
f 150/3/59 148/4/59 159/4/59 151/3/59
f 152/2/60 150/3/60 151/3/60 153/2/60
f 145/1/61 152/2/61 153/2/61 154/1/61
f 154/1/3 153/2/3 155/2/3 157/1/3
f 153/2/8 151/3/8 156/3/8 155/2/8
f 157/1/10 155/2/10 156/3/10 158/4/10
f 159/4/1 154/1/1 157/1/1 158/4/1
f 151/3/6 159/4/6 158/4/6 156/3/6
f 148/4/62 145/1/62 154/1/62 159/4/62
f 160/33/6 161/34/63 164/35/63 163/36/6
f 162/37/2 167/38/2 169/39/2 171/40/2 173/41/2 176/42/2 177/43/2 178/44/2 179/45/2 183/46/2 185/47/2 187/48/2 189/49/2 192/50/2 193/51/2 194/52/2 161/53/2 160/54/2
f 162/55/64 160/33/6 163/36/6 165/56/64
f 163/54/10 164/53/10 195/52/10 191/51/10 190/50/10 188/49/10 186/48/10 184/47/10 182/46/10 181/45/10 180/44/10 175/43/10 174/42/10 172/41/10 170/40/10 168/39/10 166/38/10 165/37/10
f 167/57/65 162/55/64 165/56/64 166/58/65
f 169/59/66 167/57/65 166/58/65 168/60/66
f 171/61/67 169/59/66 168/60/66 170/62/67
f 173/63/68 171/64/67 170/65/67 172/66/68
f 176/67/69 173/63/68 172/66/68 174/68/69
f 177/69/70 176/67/69 174/68/69 175/70/70
f 178/71/71 177/69/70 175/70/70 180/72/71
f 179/73/3 178/71/71 180/72/71 181/74/3
f 183/75/72 179/73/3 181/74/3 182/76/72
f 185/77/73 183/75/72 182/76/72 184/78/73
f 187/79/74 185/77/73 184/78/73 186/80/74
f 189/81/75 187/79/74 186/80/74 188/82/75
f 192/83/76 189/81/75 188/82/75 190/84/76
f 193/85/77 192/83/76 190/84/76 191/86/77
f 194/87/78 193/85/77 191/86/77 195/88/78
f 161/34/63 194/87/78 195/88/78 164/35/63
f 196/1/79 197/2/79 200/3/79 199/4/79
f 196/2/80 198/9/81 207/8/81 197/1/80
f 198/5/82 196/2/83 199/3/83 201/11/82
f 199/1/84 200/2/84 202/9/85 201/8/85
f 205/1/86 198/5/82 201/11/82 203/4/86
f 201/8/85 202/9/85 204/3/87 203/4/87
f 206/1/88 205/2/88 203/3/88 204/4/88
f 198/9/81 205/3/89 206/4/89 207/8/81
f 207/5/90 206/2/91 204/3/91 202/11/92
f 197/1/93 207/5/90 202/11/92 200/4/93
f 208/1/94 211/4/94 212/3/94 209/2/94
f 208/2/95 209/1/95 219/8/96 210/9/97
f 210/5/98 213/11/98 211/3/99 208/2/99
f 211/1/100 213/8/101 214/9/101 212/2/100
f 213/8/101 215/4/102 216/3/102 214/9/101
f 217/1/103 215/4/103 213/11/98 210/5/98
f 218/1/104 216/4/104 215/3/104 217/2/104
f 210/9/97 219/8/96 218/4/105 217/3/105
f 219/5/106 214/11/106 216/3/107 218/2/107
f 209/1/108 212/4/108 214/11/106 219/5/106
f 220/1/6 221/2/6 225/9/6 223/8/6
f 220/2/1 222/89/1 239/90/1 221/1/1
f 229/91/2 222/92/2 220/2/2 223/9/2 226/8/2
f 226/8/2 223/9/2 224/3/2 230/4/2
f 223/8/6 225/9/6 237/3/6 224/4/6
f 227/8/109 226/9/109 228/9/109 236/8/109
f 238/91/3 229/93/3 226/9/3 227/8/3
f 226/9/2 230/3/2 232/3/2 234/94/2 228/9/2
f 224/1/8 237/2/8 231/3/110 230/4/110
f 230/3/110 231/4/110 233/4/111 232/3/111
f 234/94/112 232/3/112 233/4/112 235/95/112
f 236/8/113 228/9/113 234/94/113 235/95/113
f 231/4/10 227/8/10 236/8/10 235/95/10 233/4/10
f 225/8/10 227/9/10 231/3/10 237/4/10
f 222/96/114 229/93/114 238/91/114 239/97/114
f 221/1/10 239/98/10 238/93/10 227/9/10 225/8/10
f 240/2/115 241/3/116 245/3/116 244/2/116
f 241/1/2 240/2/2 242/3/2 271/4/2
f 243/99/117 240/2/117 244/2/117 246/99/117
f 246/99/118 244/2/118 245/3/118 247/100/118
f 248/100/119 243/99/119 246/99/119 247/100/119
f 241/3/120 248/100/120 247/100/120 245/3/120
f 249/101/3 248/102/3 251/102/3 252/101/3
f 248/100/1 249/103/1 269/104/1 243/99/1
f 248/102/3 250/105/3 253/105/3 251/102/3
f 248/102/3 241/2/3 271/3/3 250/105/3
f 252/101/8 251/102/8 254/102/8 256/101/8
f 251/102/121 253/105/121 255/105/121 254/102/121
f 256/101/3 254/102/3 255/105/3 257/106/3
f 258/106/122 252/101/122 256/101/122 257/106/122
f 253/105/1 258/106/1 257/106/1 255/105/1
f 259/106/3 249/101/3 252/101/3 258/106/3
f 250/105/3 259/106/3 258/106/3 253/105/3
f 260/99/8 262/2/8 261/3/8 259/100/8
f 270/104/8 260/99/8 259/100/8 250/103/8
f 259/106/3 261/4/3 263/1/3 249/101/3
f 264/1/10 263/2/10 261/3/10 262/4/10
f 263/4/119 264/1/119 266/1/119 265/4/119
f 249/103/120 263/4/120 265/4/120 267/103/120
f 267/103/118 265/4/118 266/1/118 268/104/118
f 269/104/115 249/103/116 267/103/116 268/104/116
f 264/1/117 269/104/117 268/104/117 266/1/117
f 250/103/8 271/4/8 242/1/8 270/104/8
f 272/1/6 273/2/6 277/9/6 275/8/6
f 272/2/1 274/89/1 291/90/1 273/1/1
f 290/91/2 274/92/2 272/2/2 275/9/2 276/8/2
f 276/8/2 275/9/2 278/3/2 279/4/2
f 275/8/6 277/9/6 280/3/6 278/4/6
f 278/1/8 280/2/8 281/3/110 279/4/110
f 277/8/10 282/9/10 281/3/10 280/4/10
f 279/3/110 281/4/110 283/4/111 285/3/111
f 281/4/10 282/8/10 288/8/10 284/95/10 283/4/10
f 286/94/112 285/3/112 283/4/112 284/95/112
f 276/9/2 279/3/2 285/3/2 286/94/2 287/9/2
f 288/8/113 287/9/113 286/94/113 284/95/113
f 282/8/109 276/9/109 287/9/109 288/8/109
f 273/1/10 291/98/10 289/93/10 282/9/10 277/8/10
f 289/91/3 290/93/3 276/9/3 282/8/3
f 274/96/114 290/93/114 289/91/114 291/97/114
f 293/1/10 297/4/10 295/3/10 292/2/10
f 292/2/3 294/1/3 299/4/3 293/3/3
f 292/1/1 295/4/1 296/3/1 294/2/1
f 295/1/6 297/4/6 298/3/6 296/2/6
f 299/1/8 298/4/8 297/3/8 293/2/8
f 299/2/123 302/2/123 300/3/123 298/3/123
f 298/3/124 300/3/124 303/4/124 296/4/124
f 300/3/6 301/3/6 304/4/6 303/4/6
f 302/2/8 307/2/8 301/3/8 300/3/8
f 303/4/1 304/4/1 306/1/1 305/1/1
f 296/4/125 303/4/125 305/1/125 294/1/125
f 294/1/126 305/1/126 302/2/126 299/2/126
f 305/1/3 306/1/3 307/2/3 302/2/3
f 306/1/2 304/4/2 301/3/2 307/2/2
f 310/55/64 343/56/64 309/36/6 308/33/6
f 308/33/6 309/36/6 312/35/63 311/34/63
f 310/37/10 308/54/10 311/53/10 313/52/10 315/51/10 317/50/10 319/49/10 321/48/10 323/47/10 325/46/10 327/45/10 329/44/10 331/43/10 333/42/10 335/41/10 337/40/10 339/39/10 341/38/10
f 311/34/63 312/35/63 314/88/78 313/87/78
f 313/87/78 314/88/78 316/86/77 315/85/77
f 315/85/77 316/86/77 318/84/76 317/83/76
f 317/83/76 318/84/76 320/82/75 319/81/75
f 319/81/75 320/82/75 322/80/74 321/79/74
f 321/79/74 322/80/74 324/78/73 323/77/73
f 323/77/73 324/78/73 326/76/72 325/75/72
f 325/75/72 326/76/72 328/74/3 327/73/3
f 327/73/3 328/74/3 330/72/71 329/71/71
f 329/71/71 330/72/71 332/70/70 331/69/70
f 331/69/70 332/70/70 334/68/69 333/67/69
f 333/67/69 334/68/69 336/66/68 335/63/68
f 335/63/68 336/66/68 338/65/67 337/64/67
f 337/61/67 338/62/67 340/60/66 339/59/66
f 339/59/66 340/60/66 342/58/65 341/57/65
f 341/57/65 342/58/65 343/56/64 310/55/64
f 309/54/2 343/37/2 342/38/2 340/39/2 338/40/2 336/41/2 334/42/2 332/43/2 330/44/2 328/45/2 326/46/2 324/47/2 322/48/2 320/49/2 318/50/2 316/51/2 314/52/2 312/53/2
f 344/1/127 349/1/127 351/2/127 345/2/127
f 344/2/127 345/1/127 364/4/127 346/3/127
f 346/1/127 377/1/127 348/2/127 344/2/127
f 356/4/2 350/4/2 349/1/2 344/1/2 347/107/2
f 344/2/128 348/2/128 376/3/128 368/3/128 347/108/128
f 349/1/129 350/4/129 352/3/129 351/2/129
f 345/2/10 351/2/10 352/3/10 353/3/10 357/108/10
f 353/3/130 352/3/130 350/4/130 356/4/130
f 353/109/131 355/109/131 371/110/131 354/110/131
f 357/107/132 353/111/132 354/112/132 358/4/132
f 356/113/131 370/113/131 355/109/131 353/109/131
f 358/4/133 359/4/133 360/1/133 345/1/133 357/107/133
f 362/3/134 361/3/135 359/4/136 358/4/136 354/112/137
f 360/1/138 359/4/138 361/3/138 363/2/138
f 364/2/139 363/2/140 361/3/140 362/3/139
f 345/1/127 360/1/127 363/2/127 364/2/127
f 364/1/139 362/4/139 365/3/141 346/2/141
f 367/114/142 365/4/142 362/3/134 354/110/137
f 365/4/141 366/4/143 377/1/143 346/1/141
f 368/3/144 376/3/145 366/4/144 365/4/142 367/115/142
f 367/114/131 369/114/131 370/113/131 356/113/131
f 347/108/146 368/3/147 367/115/146 356/116/146
f 354/110/131 371/110/131 369/114/131 367/114/131
f 369/114/10 372/114/10 373/113/10 370/113/10
f 371/110/148 374/110/148 372/114/148 369/114/148
f 375/109/131 373/113/131 372/114/131 374/110/131
f 355/109/2 375/109/2 374/110/2 371/110/2
f 370/113/149 373/113/149 375/109/149 355/109/149
f 377/1/150 366/4/150 376/3/150 348/2/150
f 405/117/151 379/118/152 378/119/152 380/120/151
f 378/119/152 379/118/152 382/121/153 381/122/153
f 390/1/2 402/123/2 403/124/2 380/125/2 378/118/2 381/121/2 383/126/2 385/127/2 387/128/2 389/4/2
f 383/129/154 381/122/153 382/121/153 384/130/154
f 385/131/155 383/129/155 384/130/155 386/132/155
f 387/133/156 385/131/157 386/132/157 388/134/156
f 387/135/156 388/136/156 391/3/158 389/4/158
f 390/2/2 389/3/2 392/3/2 393/2/2
f 389/3/158 391/4/158 394/4/159 392/3/159
f 395/1/8 393/2/8 392/3/8 394/4/8
f 391/4/10 396/1/10 395/1/10 394/4/10
f 396/1/160 390/2/160 393/2/160 395/1/160
f 396/4/10 397/135/10 400/135/10 398/4/10
f 379/119/10 405/137/10 404/138/10 397/139/10 396/2/10 391/3/10 388/140/10 386/141/10 384/142/10 382/122/10
f 390/3/161 396/4/161 398/4/161 399/3/161
f 401/136/3 399/3/3 398/4/3 400/135/3
f 397/135/162 402/136/162 401/136/162 400/135/162
f 402/136/2 390/3/2 399/3/2 401/136/2
f 397/143/163 404/144/163 403/145/163 402/146/163
f 404/144/114 405/117/114 380/120/114 403/145/114
f 409/4/2 406/1/2 407/1/2 410/4/2
f 406/2/2 408/3/2 413/3/2 407/2/2
f 408/1/2 406/2/2 409/3/2 411/4/2
f 411/4/2 409/1/2 410/1/2 412/4/2
f 408/2/2 411/3/2 412/3/2 413/2/2
f 415/102/8 413/2/8 412/3/8 414/100/8
f 410/1/6 417/147/6 414/148/6 412/4/6
f 416/100/10 421/102/10 415/102/10 414/100/10
f 418/147/10 416/148/10 414/148/10 417/147/10
f 420/147/10 418/148/10 417/148/10 419/147/10
f 407/1/1 419/147/1 417/148/1 410/4/1
f 407/2/3 413/3/3 415/105/3 419/99/3
f 421/105/10 420/99/10 419/99/10 415/105/10
f 420/99/3 421/105/3 425/149/3 422/150/3
f 420/147/1 422/102/1 424/100/1 418/148/1
f 424/100/2 422/102/2 423/102/2 435/100/2
f 422/150/2 425/149/2 427/149/2 423/150/2
f 425/147/8 421/102/8 416/100/8 426/148/8
f 425/147/2 426/148/2 428/148/2 427/147/2
f 423/150/3 427/149/3 429/151/3 431/152/3
f 429/1/8 427/147/8 428/148/8 432/4/8
f 433/4/10 430/1/10 429/1/10 432/4/10
f 430/151/10 437/1/10 431/152/10 429/151/10
f 436/2/10 433/3/10 432/3/10 434/2/10
f 435/102/6 434/2/6 432/3/6 428/100/6
f 423/102/1 431/2/1 434/3/1 435/100/1
f 437/2/10 436/3/10 434/3/10 431/2/10
f 437/1/10 430/2/10 433/3/10 436/4/10
f 426/100/2 424/102/2 435/102/2 428/100/2
f 418/147/6 424/102/6 426/100/6 416/148/6
f 438/2/2 439/3/2 444/3/2 441/2/2
f 439/1/2 438/2/2 440/3/2 469/4/2
f 440/4/2 438/1/2 441/1/2 442/4/2
f 441/1/1 443/147/1 468/148/1 442/4/1
f 441/2/3 444/3/3 446/105/3 443/99/3
f 439/2/2 469/3/2 445/3/2 444/2/2
f 446/102/8 444/2/8 445/3/8 447/100/8
f 448/105/10 449/99/10 443/99/10 446/105/10
f 450/100/10 448/102/10 446/102/10 447/100/10
f 449/99/3 448/105/3 451/149/3 452/150/3
f 451/147/8 448/102/8 450/100/8 453/148/8
f 452/150/2 451/149/2 454/149/2 455/150/2
f 451/147/2 453/148/2 456/148/2 454/147/2
f 455/150/3 454/149/3 457/151/3 459/152/3
f 457/1/8 454/147/8 456/148/8 460/4/8
f 461/4/10 458/1/10 457/1/10 460/4/10
f 458/151/10 465/1/10 459/152/10 457/151/10
f 464/2/10 461/3/10 460/3/10 462/2/10
f 463/102/6 462/2/6 460/3/6 456/100/6
f 455/102/1 459/2/1 462/3/1 463/100/1
f 465/2/10 464/3/10 462/3/10 459/2/10
f 465/1/10 458/2/10 461/3/10 464/4/10
f 466/100/2 452/102/2 455/102/2 463/100/2
f 453/100/2 466/102/2 463/102/2 456/100/2
f 449/147/1 452/102/1 466/100/1 467/148/1
f 467/147/6 466/102/6 453/100/6 450/148/6
f 467/147/10 450/148/10 447/148/10 468/147/10
f 449/147/10 467/148/10 468/148/10 443/147/10
f 442/1/6 468/147/6 447/148/6 445/4/6
f 469/4/2 440/1/2 442/1/2 445/4/2
f 483/4/2 471/107/2 470/1/2 473/1/2 503/4/2
f 470/2/164 471/108/164 481/3/164 480/3/164 472/2/164
f 475/1/165 470/2/165 472/2/165 478/1/165
f 470/1/165 474/2/165 502/2/165 473/1/165
f 470/2/165 475/3/165 476/4/165 474/1/165
f 476/1/166 475/2/167 477/3/167 500/4/166
f 477/4/167 475/1/167 478/1/168 479/4/168
f 478/1/169 472/2/169 480/3/169 479/4/169
f 481/3/170 482/115/171 477/4/172 479/4/170 480/3/173
f 471/108/174 483/116/174 482/115/174 481/3/175
f 482/114/176 483/113/176 486/113/176 485/114/176
f 484/110/176 482/114/176 485/114/176 487/110/176
f 482/114/171 484/110/177 500/3/178 477/4/172
f 485/114/10 486/113/10 490/113/10 488/114/10
f 487/110/179 485/114/179 488/114/179 489/110/179
f 491/109/176 489/110/176 488/114/176 490/113/176
f 486/113/180 492/109/180 491/109/180 490/113/180
f 492/109/2 487/110/2 489/110/2 491/109/2
f 493/109/176 484/110/176 487/110/176 492/109/176
f 483/113/176 493/109/176 492/109/176 486/113/176
f 495/107/181 496/4/181 484/112/181 493/111/181
f 493/3/182 483/4/182 503/4/182 494/3/182
f 474/2/10 495/108/10 493/3/10 494/3/10 502/2/10
f 496/4/183 495/107/183 474/1/183 498/1/183 497/4/183
f 500/3/178 484/112/177 496/4/184 497/4/184 499/3/185
f 498/1/186 501/2/186 499/3/186 497/4/186
f 476/2/166 500/3/166 499/3/187 501/2/187
f 474/1/165 476/2/165 501/2/165 498/1/165
f 473/1/188 502/2/188 494/3/188 503/4/188
