# Blender 4.2.3 LTS
# www.blender.org
mtllib head.mtl
o Robot_Head
v -0.205074 5.376306 -0.080802
v -0.062571 5.376306 0.098028
v 0.198479 5.376306 -0.080802
v -0.205074 5.492620 -0.006140
v -0.062571 5.492620 0.065635
v 0.198479 5.492620 -0.006140
v 0.055975 5.492620 0.065635
v 0.055975 5.376306 0.098028
v -0.124285 5.491259 0.022700
v -0.124285 5.491259 0.065323
v -0.169356 5.601591 0.022700
v 0.112154 5.491259 0.022700
v 0.155724 5.601591 0.022700
v 0.112154 5.491259 0.065323
v 0.083286 5.601591 0.155839
v 0.155724 5.601591 0.099050
v 0.155724 5.683971 0.104845
v 0.155724 5.683971 0.022700
v 0.082326 5.683971 0.168950
v 0.155724 5.772449 0.099050
v 0.155724 5.772449 0.022700
v 0.119712 5.894483 0.063295
v 0.081365 5.772449 0.155839
v -0.096588 5.772449 0.155839
v -0.131843 5.894483 0.063295
v -0.169356 5.772449 0.099050
v -0.095153 5.683971 0.168950
v -0.093719 5.601591 0.155839
v -0.169356 5.683971 0.104845
v -0.169356 5.601591 0.099050
v -0.169356 5.683971 0.022700
v -0.169356 5.772449 0.022700
v -0.131843 5.894483 -0.006870
v 0.119712 5.894483 -0.006870
v -0.005621 5.424101 -0.327978
v 0.084535 5.424101 -0.327978
v -0.005621 5.600293 -0.393202
v -0.095778 5.424101 -0.327978
v -0.005621 5.381465 -0.236230
v -0.193392 5.373897 -0.219943
v -0.005621 5.387499 -0.055982
v 0.182149 5.373897 -0.219943
v 0.245672 5.600293 -0.236028
v 0.189407 5.380749 -0.068337
v 0.250672 5.600293 -0.051863
v 0.104782 5.439046 0.038377
v 0.183815 5.600293 0.093810
v -0.005621 5.439046 0.038377
v -0.005621 5.600293 0.093810
v -0.116024 5.439046 0.038377
v -0.200650 5.380749 -0.068337
v -0.195058 5.600293 0.093810
v -0.195058 5.835335 0.034205
v -0.261914 5.600293 -0.051863
v -0.256914 5.600293 -0.236028
v -0.279419 5.838659 -0.079775
v -0.205819 6.023255 -0.058870
v -0.289426 5.848203 -0.218877
v -0.174811 5.861609 -0.393202
v -0.190253 6.028684 -0.223417
v -0.095778 6.008029 -0.327978
v -0.005621 6.068937 -0.230873
v -0.005621 6.071142 -0.057574
v -0.005621 6.008029 -0.327978
v 0.179011 6.028684 -0.223417
v 0.084535 6.008029 -0.327978
v 0.278184 5.848203 -0.218877
v 0.194576 6.023255 -0.058870
v 0.104782 5.989326 0.080240
v 0.268177 5.838659 -0.079775
v 0.183815 5.835335 0.034205
v -0.005621 5.835335 0.034205
v -0.005621 5.989326 0.080240
v -0.116024 5.989326 0.080240
v 0.163569 5.861609 -0.393202
v 0.163569 5.600293 -0.393202
v -0.005621 5.861609 -0.393202
v -0.174811 5.600293 -0.393202
v -0.105365 5.866104 -0.245279
v -0.105365 6.125945 -0.245279
v -0.105365 5.866104 -0.142916
v -0.059428 6.044631 -0.538479
v 0.088892 5.866104 -0.245279
v 0.088892 6.125945 -0.245279
v 0.088892 5.866104 -0.142916
v 0.042956 6.044631 -0.538479
v 0.042956 6.122551 -0.538479
v -0.059428 6.122551 -0.538479
v 0.088892 6.125945 -0.142916
v 0.088892 5.945602 -0.019525
v 0.088892 6.076331 -0.019525
v -0.105365 5.945602 -0.019525
v -0.105365 6.076331 -0.019525
v -0.105365 6.125945 -0.142916
vn -0.0000 -1.0000 -0.0000
vn -0.6311 -0.1774 0.7551
vn -0.6311 -0.1775 0.7551
vn -0.0000 0.5402 -0.8415
vn -0.0000 1.0000 -0.0000
vn 0.6253 -0.0700 0.7772
vn 0.6252 -0.0699 0.7773
vn 0.6253 -0.0700 0.7773
vn -0.0000 0.2683 0.9633
vn -0.9257 -0.3782 -0.0000
vn 0.9301 -0.3673 -0.0000
vn -0.2816 -0.5608 0.7786
vn 0.2907 -0.5603 0.7756
vn 0.3227 -0.3557 0.8771
vn -0.3145 -0.3583 0.8791
vn 0.6055 -0.2649 0.7505
vn 0.6354 0.0007 0.7722
vn 0.3387 -0.0025 0.9409
vn 1.0000 -0.0000 -0.0000
vn 0.6029 0.2364 0.7620
vn 0.3214 0.3286 0.8881
vn 0.9591 0.2830 -0.0000
vn 0.2944 0.5170 0.8037
vn -0.3242 0.3286 0.8871
vn -0.3362 -0.0074 0.9418
vn -0.2978 0.5207 0.8001
vn -0.6078 0.2355 0.7583
vn -0.6311 -0.0085 0.7756
vn -0.5917 -0.2718 0.7590
vn -1.0000 -0.0000 -0.0000
vn -0.9559 0.2938 -0.0000
vn -0.0000 -0.3472 -0.9378
vn -0.0000 -0.1763 -0.9843
vn -0.0000 -0.9069 -0.4214
vn -0.0198 -0.9804 -0.1961
vn -0.0000 -0.9806 -0.1961
vn 0.0198 -0.9804 -0.1961
vn -0.0000 -0.9637 0.2670
vn 0.0197 -0.9635 0.2670
vn -0.0197 -0.9635 0.2670
vn 0.7066 -0.3925 -0.5887
vn 0.7994 -0.2184 -0.5597
vn 0.9822 -0.1879 -0.0064
vn 0.9822 -0.1879 -0.0063
vn 0.9626 -0.2693 -0.0296
vn -0.0000 -0.8776 0.4794
vn 0.7542 -0.3844 0.5324
vn 0.8289 -0.1634 0.5351
vn 0.7542 -0.3845 0.5323
vn -0.0000 -0.3251 0.9457
vn -0.7542 -0.3844 0.5324
vn -0.8289 -0.1634 0.5351
vn -0.0000 0.2458 0.9693
vn -0.8247 0.1539 0.5442
vn -0.9822 -0.1879 -0.0064
vn -0.9626 -0.2693 -0.0296
vn -0.9822 -0.1879 -0.0063
vn -0.9943 -0.1053 0.0175
vn -0.9943 -0.1053 0.0174
vn -0.7830 0.2395 0.5741
vn -0.9066 0.4218 0.0123
vn -0.7994 -0.2184 -0.5597
vn -0.8604 -0.0355 -0.5085
vn -0.8604 -0.0355 -0.5084
vn -0.6935 0.4642 -0.5510
vn -0.1032 0.9253 -0.3649
vn -0.1663 0.9683 -0.1866
vn -0.0000 0.9819 -0.1892
vn -0.0000 0.9303 -0.3669
vn -0.1715 0.9590 0.2257
vn -0.0000 0.9734 0.2292
vn 0.1715 0.9590 0.2257
vn 0.1663 0.9683 -0.1866
vn 0.1032 0.9253 -0.3650
vn 0.6935 0.4642 -0.5510
vn 0.9066 0.4218 0.0123
vn -0.0000 0.8965 0.4431
vn 0.1105 0.8910 0.4404
vn 0.8247 0.1539 0.5442
vn 0.7826 0.2397 0.5745
vn 0.7827 0.2397 0.5744
vn 0.9943 -0.1053 0.0175
vn 0.9943 -0.1053 0.0174
vn -0.0000 -0.2864 0.9581
vn -0.1105 0.8910 0.4404
vn 0.8604 -0.0355 -0.5084
vn -0.0000 0.2080 -0.9781
vn -0.0000 0.4069 -0.9135
vn -0.7066 -0.3925 -0.5887
vn -0.9879 -0.0000 -0.1548
vn -0.0000 -0.8541 -0.5201
vn 0.9879 -0.0000 -0.1548
vn -0.0000 -0.0000 -1.0000
vn -0.0000 0.9999 -0.0113
vn -0.0000 0.9999 -0.0116
vn -0.0000 -0.8406 0.5416
vn -0.0000 -0.0000 1.0000
vn -0.0000 0.9278 0.3731
vt 0.000000 0.000000
vt 1.000000 0.000000
vt 1.000000 1.000000
vt 0.000000 1.000000
vt 1.922632 1.000000
vt 0.694802 1.000000
vt 0.694802 0.000000
vt 1.922632 0.000000
vt 0.447089 0.000000
vt 0.552911 0.000000
vt 0.552911 1.000000
vt 0.447089 1.000000
vt -0.922632 -0.000000
vt 0.305198 0.000000
vt 0.305198 1.000000
vt -0.922632 1.000000
vt 0.866808 0.305199
vt 0.247191 0.305199
vt 1.000000 0.305199
vt 1.000000 0.500000
vt 0.863445 0.500000
vt 0.500000 0.000000
vt 0.500000 1.000000
vt 1.000000 0.694802
vt 0.860081 0.694802
vt -0.629820 0.000000
vt -0.629821 1.000000
vt 0.237149 0.694802
vt 0.242170 0.500000
vt 0.000000 0.694802
vt 0.000000 0.500000
vt 0.000000 0.305199
vt 0.500000 0.333333
vt 0.000000 0.333333
vt 1.000000 0.294891
vt 0.500000 0.250435
vt 0.500000 0.742438
vt 1.000000 0.708714
vt 0.333333 0.000000
vt 0.333333 0.316371
vt 0.000000 0.294891
vt 0.333333 0.694747
vt 0.000000 0.708714
vt 0.333333 1.000000
vt 1.000000 0.333333
vt 0.500000 0.666667
vt 1.000000 0.666667
vt 0.666667 1.000000
vt 0.666667 0.681630
vt 0.666667 0.350893
vt 1.000000 0.690923
vt 1.000000 0.285410
vt 0.666667 0.000000
vt 0.000000 0.285410
vt 0.500000 0.265057
vt 0.000000 0.690923
vt 0.500000 0.693801
vt 0.000000 0.666667
s 1
f 1/1/1 3/2/1 8/3/1 2/4/1
f 4/1/2 1/2/2 2/3/3 5/4/2
f 1/2/4 4/3/4 6/4/4 3/1/4
f 6/1/5 4/2/5 5/3/5 7/4/5
f 3/1/6 6/2/7 7/3/6 8/4/8
f 2/1/9 8/2/9 7/3/9 5/4/9
f 10/5/10 30/6/10 11/7/10 9/8/10
f 9/9/1 12/10/1 14/11/1 10/12/1
f 12/13/11 13/14/11 16/15/11 14/16/11
f 10/9/12 14/10/13 15/17/14 28/18/15
f 14/10/13 16/19/16 15/17/14
f 15/17/14 16/19/16 17/20/17 19/21/18
f 13/14/19 18/22/19 17/23/19 16/15/19
f 18/22/19 21/7/19 20/6/19 17/23/19
f 17/20/17 20/24/20 23/25/21 19/21/18
f 21/26/22 34/9/22 22/12/22 20/27/22
f 23/25/21 20/24/20 22/11/23
f 19/21/18 23/25/21 24/28/24 27/29/25
f 22/11/23 25/12/26 24/28/24 23/25/21
f 25/12/26 26/30/27 24/28/24
f 24/28/24 26/30/27 29/31/28 27/29/25
f 29/31/28 30/32/29 28/18/15 27/29/25
f 28/18/15 15/17/14 19/21/18 27/29/25
f 31/22/30 11/7/30 30/6/30 29/23/30
f 32/14/30 31/22/30 29/23/30 26/15/30
f 33/13/31 32/14/31 26/15/31 25/16/31
f 34/9/5 33/10/5 25/11/5 22/12/5
f 28/18/15 30/32/29 10/9/12
f 35/22/32 37/33/33 76/34/33 36/1/32
f 35/22/34 36/2/34 42/35/35 39/36/36
f 35/22/32 38/1/32 78/34/33 37/33/33
f 35/22/34 39/36/36 40/35/37 38/2/34
f 40/35/37 39/36/36 41/37/38 51/38/39
f 42/35/35 44/38/40 41/37/38 39/36/36
f 36/1/41 76/39/42 43/40/42 42/41/41
f 43/40/43 45/42/44 44/43/45 42/41/45
f 41/37/38 44/38/40 46/3/46 48/23/46
f 44/43/47 45/42/48 47/44/48 46/4/49
f 48/22/50 46/2/50 47/45/50 49/33/50
f 41/37/38 48/23/46 50/3/46 51/38/39
f 48/22/50 49/33/50 52/45/50 50/2/50
f 51/43/51 50/4/51 52/44/52 54/42/52
f 49/33/53 72/46/53 53/47/53 52/45/53
f 54/42/52 52/44/52 53/48/54 56/49/54
f 55/40/55 40/41/56 51/43/56 54/42/57
f 58/50/58 55/40/55 54/42/57 56/49/59
f 56/49/54 53/48/54 74/3/60 57/51/60
f 60/52/61 58/50/61 56/49/61 57/51/61
f 78/39/62 55/40/62 58/50/63 59/53/64
f 59/53/65 58/50/65 60/52/65 61/2/65
f 61/1/66 60/54/67 62/55/68 64/22/69
f 62/55/68 60/54/67 57/56/70 63/57/71
f 62/55/68 63/57/71 68/56/72 65/54/73
f 66/1/74 64/22/69 62/55/68 65/54/73
f 75/53/75 66/2/75 65/52/75 67/50/75
f 65/52/76 68/51/76 70/49/76 67/50/76
f 68/56/72 63/57/71 73/23/77 69/4/78
f 70/49/79 68/51/80 69/3/81 71/48/79
f 45/42/48 70/49/79 71/48/79 47/44/48
f 67/50/82 70/49/83 45/42/44 43/40/43
f 49/33/53 47/45/53 71/47/53 72/46/53
f 72/46/84 71/47/84 69/3/84 73/23/84
f 72/46/84 73/23/84 74/3/84 53/47/84
f 57/56/70 74/4/85 73/23/77 63/57/71
f 76/39/42 75/53/86 67/50/86 43/40/42
f 37/33/33 77/46/87 75/58/87 76/34/33
f 77/46/87 64/23/88 66/4/88 75/58/87
f 37/33/33 78/34/33 59/58/87 77/46/87
f 77/46/87 59/58/87 61/4/88 64/23/88
f 38/1/89 40/41/89 55/40/62 78/39/62
f 80/1/30 79/2/30 81/3/30 94/4/30
f 79/2/90 80/3/90 88/3/90 82/2/90
f 79/1/1 83/2/1 85/3/1 81/4/1
f 83/1/91 79/2/91 82/2/91 86/1/91
f 83/1/19 84/2/19 89/3/19 85/4/19
f 84/4/92 83/1/92 86/1/92 87/4/92
f 82/2/93 88/3/93 87/4/93 86/1/93
f 80/3/94 84/4/94 87/4/95 88/3/95
f 81/1/96 85/2/96 90/2/96 92/1/96
f 85/2/19 89/3/19 91/3/19 90/2/19
f 92/1/97 90/2/97 91/3/97 93/4/97
f 94/4/30 81/1/30 92/1/30 93/4/30
f 89/3/98 94/4/98 93/4/98 91/3/98
f 84/1/94 80/2/94 94/3/5 89/4/5
