# Blender 4.2.3 LTS
# www.blender.org
mtllib leftThigh.mtl
o Robot_Left_Thigh
v 0.457532 1.641525 -0.210045
v 0.464587 1.647693 -0.135331
v 0.429688 1.681502 -0.239648
v 0.490969 1.617145 -0.240305
v 0.523808 1.628268 -0.142148
v 0.564847 1.617715 -0.263226
v 0.475356 1.671319 -0.286976
v 0.453285 1.850066 -0.331252
v 0.548693 1.671319 -0.311511
v 0.529593 1.850066 -0.356781
v 0.637369 1.671319 -0.341178
v 0.621859 1.850066 -0.387649
v 0.726044 1.671319 -0.370844
v 0.653702 1.617905 -0.292355
v 0.742656 1.617905 -0.322114
v 0.688701 1.631309 -0.187742
v 0.721227 1.668448 -0.082228
v 0.778488 1.631309 -0.217780
v 0.599306 1.630548 -0.160227
v 0.631291 1.667117 -0.056327
v 0.640025 1.684720 -0.005341
v 0.554174 1.663126 -0.043090
v 0.562367 1.680158 0.006283
v 0.492652 1.684881 -0.035332
v 0.510382 1.713466 0.025723
v 0.449506 1.760790 -0.025871
v 0.396536 1.939733 -0.052734
v 0.424022 1.712049 -0.141606
v 0.497283 1.825553 0.074535
v 0.561358 1.933892 0.153212
v 0.457689 2.002337 0.055781
v 0.522879 1.812614 0.117657
v 0.571012 1.912170 0.173734
v 0.544038 1.789079 0.169819
v 0.519565 1.713072 0.063499
v 0.565599 1.683439 0.040842
v 0.537546 1.703531 0.120730
v 0.555196 1.691025 0.173540
v 0.581081 1.677042 0.095458
v 0.598151 1.666696 0.146534
v 0.656579 1.679323 0.077379
v 0.672029 1.667266 0.123612
v 0.642717 1.687430 0.027604
v 0.745974 1.680083 0.049864
v 0.760884 1.667456 0.094484
v 0.835976 1.680094 0.019810
v 0.732652 1.688761 0.001704
v 0.822767 1.688776 -0.028393
v 0.730140 1.686240 -0.030703
v 0.820591 1.686250 -0.060934
v 0.899255 1.686279 -0.087160
v 0.811735 1.668450 -0.112500
v 0.890571 1.668457 -0.138853
v 0.855159 1.631309 -0.243431
v 0.947863 1.692802 -0.162695
v 0.907955 1.652254 -0.269305
v 0.973735 1.765816 -0.185436
v 0.959443 1.722341 -0.096579
v 0.960104 1.721067 -0.058689
v 0.994461 1.830450 -0.076386
v 1.004244 2.003561 -0.123219
v 0.996281 1.817689 -0.024727
v 0.994341 1.935116 0.012208
v 0.998051 1.913438 0.034864
v 0.995939 2.068368 -0.022895
v 0.950522 1.970005 0.056386
v 0.877184 1.970005 0.080922
v 0.947618 2.089970 0.025786
v 0.954862 1.945355 0.069375
v 0.965241 1.904157 0.100444
v 0.881524 1.945355 0.093910
v 0.792849 1.945355 0.123577
v 0.891903 1.904157 0.124980
v 0.803227 1.904157 0.154646
v 0.902817 1.865134 0.157653
v 0.976155 1.865134 0.133118
v 0.814142 1.865134 0.187320
v 0.908764 1.847008 0.175455
v 0.982101 1.847008 0.150920
v 0.820088 1.847008 0.205122
v 0.905036 1.817639 0.172073
v 0.886927 1.744891 0.141198
v 0.816195 1.817639 0.201789
v 0.978871 1.817641 0.147391
v 0.962255 1.744895 0.116075
v 1.011032 1.800773 0.124118
v 1.012630 1.746819 0.096419
v 1.026189 1.823400 0.122944
v 1.027113 1.752579 0.082957
v 1.020076 1.840429 0.104645
v 1.020501 1.766315 0.063168
v 1.008663 1.876159 0.070481
v 1.007593 1.792164 0.024532
v 0.972360 1.708159 -0.010044
v 0.913297 1.680127 -0.005888
v 0.986766 1.692195 0.033066
v 0.928203 1.667475 0.038720
v 0.993876 1.681755 0.054346
v 0.935481 1.658140 0.060499
v 0.986311 1.695849 0.073537
v 0.943906 1.675990 0.079576
v 0.867087 1.675982 0.105139
v 0.858165 1.658131 0.086209
v 0.777251 1.675980 0.135148
v 0.688576 1.675980 0.164815
v 0.797589 1.744890 0.171060
v 0.768163 1.658128 0.116267
v 0.679488 1.658128 0.145934
v 0.606150 1.658128 0.170469
v 0.615238 1.675980 0.189350
v 0.563389 1.681738 0.198054
v 0.583130 1.695836 0.208179
v 0.566443 1.752568 0.236867
v 0.559111 1.765535 0.214922
v 0.585458 1.746809 0.239148
v 0.602333 1.823398 0.264695
v 0.611978 1.800769 0.257543
v 0.596039 1.840234 0.245857
v 0.658075 1.847008 0.259324
v 0.652128 1.865134 0.241522
v 0.654182 1.817639 0.255991
v 0.731413 1.847008 0.234788
v 0.725466 1.865134 0.216987
v 0.727520 1.817639 0.231456
v 0.708914 1.744890 0.200727
v 0.635576 1.744890 0.225262
v 0.714552 1.904157 0.184313
v 0.704174 1.945355 0.153243
v 0.641214 1.904157 0.208848
v 0.630836 1.945355 0.177779
v 0.584086 1.875388 0.210076
v 0.626496 1.970005 0.164791
v 0.610470 2.089970 0.138580
v 0.699834 1.970005 0.140255
v 0.686778 2.089970 0.113051
v 0.788509 1.970005 0.110589
v 0.779044 2.089970 0.082183
v 0.753289 2.417112 0.004862
v 0.871310 2.089970 0.051315
v 0.856328 2.417112 -0.029610
v 0.839839 2.762943 -0.115040
v 0.941546 2.417112 -0.058120
v 0.933967 2.762943 -0.146531
v 0.997257 2.402287 -0.111096
v 0.994782 2.753016 -0.202745
v 1.011779 2.357813 -0.218966
v 0.988248 2.302607 -0.347883
v 1.008659 2.723234 -0.314991
v 0.982700 2.680054 -0.448380
v 0.986481 2.929857 -0.362660
v 0.984998 2.936697 -0.248193
v 0.941306 3.025275 -0.373120
v 0.951594 2.902715 -0.498047
v 0.900938 2.839526 -0.618355
v 0.897455 3.011665 -0.509136
v 0.822810 3.047982 -0.493897
v 0.855762 2.934943 -0.628815
v 0.817723 2.857069 -0.680838
v 0.783651 2.966749 -0.613214
v 0.758828 2.855991 -0.690814
v 0.687577 2.966749 -0.581073
v 0.661987 2.855991 -0.658415
v 0.570516 2.966749 -0.541909
v 0.727249 3.047982 -0.461926
v 0.773121 3.057080 -0.325378
v 0.610358 3.047982 -0.422820
v 0.492954 3.047982 -0.383542
v 0.656059 3.057080 -0.286215
v 0.538656 3.057080 -0.246937
v 0.694371 3.014070 -0.171700
v 0.576968 3.014070 -0.132423
v 0.712041 2.938977 -0.118884
v 0.811688 3.014070 -0.210950
v 0.908529 3.014070 -0.243348
v 0.829444 2.938977 -0.158162
v 0.926541 2.938977 -0.190646
v 0.950791 2.997584 -0.283091
v 0.869195 3.057080 -0.357520
v 0.594638 2.938977 -0.079606
v 0.726027 2.762943 -0.076964
v 0.612215 2.762943 -0.038887
v 0.518088 2.762943 -0.007397
v 0.650250 2.417112 0.039334
v 0.565033 2.417112 0.067844
v 0.483391 2.402287 0.060821
v 0.538110 2.068062 0.129310
v 0.391079 2.357813 -0.011308
v 0.430536 2.753016 -0.013974
v 0.412880 2.936697 -0.056789
v 0.336448 2.723234 -0.090100
v 0.332788 2.929857 -0.143964
v 0.266606 2.680054 -0.208807
v 0.272498 2.902715 -0.270853
v 0.251795 2.629930 -0.343129
v 0.321761 2.302607 -0.124907
v 0.309102 2.255587 -0.256342
v 0.339931 2.223392 -0.367989
v 0.379674 1.891345 -0.176700
v 0.400718 1.860386 -0.281184
v 0.282395 2.589732 -0.456775
v 0.401078 2.212660 -0.422224
v 0.348784 2.576333 -0.513456
v 0.486296 2.212661 -0.450734
v 0.589335 2.212661 -0.485206
v 0.442911 2.576333 -0.544946
v 0.556723 2.576333 -0.583023
v 0.423550 2.758314 -0.590995
v 0.326453 2.758314 -0.558511
v 0.540953 2.758314 -0.630273
v 0.427266 2.855991 -0.579888
v 0.544669 2.855991 -0.619166
v 0.453113 2.966749 -0.502631
v 0.330169 2.855991 -0.547404
v 0.287231 2.857069 -0.503360
v 0.356016 2.966749 -0.470147
v 0.285351 2.934943 -0.437981
v 0.395857 3.047982 -0.351058
v 0.321546 3.011665 -0.316463
v 0.441559 3.057080 -0.214453
v 0.370895 3.025275 -0.182287
v 0.479871 3.014070 -0.099938
v 0.497541 2.938977 -0.047122
v 0.420299 2.997584 -0.105613
v 0.247245 2.839526 -0.399659
v 0.263179 2.778617 -0.504254
v 0.658356 2.758314 -0.669551
v 0.670535 2.576333 -0.621099
v 0.755453 2.758314 -0.702035
v 0.835296 2.778617 -0.695659
v 0.764662 2.576333 -0.652589
v 0.846641 2.589732 -0.645546
v 0.777591 2.212661 -0.548188
v 0.790433 1.850066 -0.444046
v 0.692374 2.212661 -0.519678
v 0.853797 2.223392 -0.539905
v 0.929802 2.255587 -0.464000
v 0.858854 1.860576 -0.433857
v 0.863900 1.682262 -0.382523
v 0.927459 1.892106 -0.357571
v 0.926116 1.715090 -0.300012
v 0.981003 1.940989 -0.244315
v 0.799382 1.671319 -0.395380
v 0.863786 1.643552 -0.339578
v 0.816827 1.617905 -0.346929
v 0.924007 2.629930 -0.568021
v 0.714126 1.850066 -0.418517
v 0.850886 1.667461 0.064426
v 0.900426 1.688820 -0.054218
vn -0.6010 -0.7463 0.2860
vn -0.6726 -0.7390 -0.0386
vn -0.3406 -0.9111 -0.2321
vn -0.1198 -0.9608 0.2499
vn -0.8594 -0.4349 -0.2690
vn -0.9134 -0.3656 0.1789
vn -0.5067 -0.4881 -0.7106
vn -0.1009 -0.9395 -0.3273
vn 0.0730 -0.9758 0.2060
vn -0.2733 -0.4897 -0.8279
vn -0.8750 -0.2521 -0.4133
vn -0.5128 -0.2743 -0.8135
vn -0.3056 -0.2686 -0.9135
vn -0.2752 -0.4937 -0.8249
vn -0.1050 -0.9419 -0.3192
vn -0.2758 -0.4945 -0.8243
vn -0.1062 -0.9423 -0.3176
vn 0.0707 -0.9754 0.2089
vn 0.0701 -0.9753 0.2095
vn 0.1021 -0.9467 0.3056
vn 0.1018 -0.9466 0.3058
vn 0.1022 -0.9467 0.3055
vn -0.0960 -0.9268 0.3630
vn 0.0782 -0.9776 0.1956
vn 0.0678 -0.9787 0.1939
vn -0.1711 -0.9549 0.2426
vn -0.5607 -0.6941 0.4514
vn -0.6760 -0.6334 0.3767
vn -0.8460 -0.3192 0.4271
vn -0.8321 -0.1443 0.5356
vn -0.9145 -0.1484 0.3764
vn -0.7702 -0.0557 0.6354
vn -0.9780 -0.2024 0.0500
vn -0.5673 0.1873 0.8019
vn -0.4509 0.0870 0.8883
vn -0.6399 0.3544 0.6818
vn -0.9103 -0.0104 0.4138
vn -0.7951 -0.5650 0.2203
vn -0.9247 0.0460 0.3779
vn -0.6254 0.4263 0.6536
vn -0.8235 -0.5416 0.1689
vn -0.2455 -0.9691 0.0249
vn -0.2759 -0.9572 -0.0877
vn -0.3108 -0.9340 -0.1762
vn -0.8378 -0.5335 0.1166
vn -0.9258 0.0657 0.3724
vn -0.0821 -0.9557 -0.2828
vn -0.0338 -0.9815 -0.1885
vn 0.0203 -0.9992 -0.0359
vn -0.0970 -0.9493 -0.2989
vn -0.0608 -0.9775 -0.2022
vn -0.0068 -0.9991 -0.0427
vn -0.1006 -0.9479 -0.3022
vn -0.0679 -0.9765 -0.2046
vn -0.0143 -0.9989 -0.0438
vn 0.0649 -0.9789 0.1938
vn 0.2908 -0.9426 0.1641
vn 0.2297 -0.9682 -0.0990
vn 0.2919 -0.9202 0.2608
vn 0.2536 -0.9586 0.1299
vn 0.7569 -0.6513 0.0540
vn 0.6890 -0.7098 -0.1464
vn 0.7774 -0.6273 0.0471
vn 0.8701 -0.2889 -0.3994
vn 0.9560 -0.2333 -0.1778
vn 0.9890 -0.1419 -0.0426
vn 0.7581 -0.6255 -0.1846
vn 0.9810 -0.1088 -0.1609
vn 0.9596 -0.1053 -0.2609
vn 0.9987 -0.0395 -0.0323
vn 0.9163 0.0920 0.3899
vn 0.9395 0.1767 0.2934
vn 0.9336 0.3133 0.1741
vn 0.5222 0.5583 0.6447
vn 0.5537 0.3604 0.7507
vn 0.5393 0.2157 0.8140
vn 0.3078 0.2419 0.9202
vn 0.2951 0.3670 0.8821
vn 0.2637 0.5559 0.7883
vn 0.4813 0.6330 0.6064
vn 0.9163 0.3781 0.1322
vn 0.2432 0.6423 0.7269
vn 0.2293 0.6911 0.6854
vn 0.4515 0.6791 0.5788
vn 0.3004 0.3215 0.8980
vn 0.4728 0.2953 0.8302
vn 0.3004 0.3213 0.8980
vn 0.3030 -0.2940 0.9065
vn 0.3616 -0.3060 0.8807
vn 0.3032 -0.2943 0.9064
vn 0.2795 -0.4705 0.8370
vn 0.2798 -0.4707 0.8367
vn 0.3146 -0.4729 0.8230
vn 0.5011 -0.3308 0.7997
vn 0.8406 0.0723 0.5368
vn 0.5050 -0.4700 0.7239
vn 0.9383 -0.2986 0.1744
vn 0.9440 -0.0510 -0.3261
vn 0.9000 0.4186 0.1213
vn 0.9553 -0.0638 -0.2886
vn 0.7030 -0.5953 -0.3890
vn 0.6604 -0.5853 -0.4705
vn 0.1135 -0.9181 -0.3797
vn 0.1619 -0.9449 -0.2846
vn 0.6843 -0.7253 0.0750
vn 0.2290 -0.9668 0.1133
vn 0.4600 -0.6010 0.6535
vn 0.3051 -0.6315 0.7129
vn 0.2428 -0.6412 0.7279
vn 0.0510 -0.9870 0.1527
vn 0.2433 -0.6414 0.7276
vn 0.0523 -0.9866 0.1544
vn 0.2434 -0.6414 0.7275
vn 0.0573 -0.9850 0.1626
vn 0.2799 -0.4708 0.8367
vn 0.1810 -0.6258 0.7586
vn -0.1202 -0.9574 0.2625
vn -0.5110 -0.6672 0.5420
vn 0.0262 -0.5736 0.8187
vn 0.0310 -0.4317 0.9015
vn -0.6256 -0.1890 0.7569
vn -0.6000 0.4738 0.6447
vn -0.3242 0.1317 0.9368
vn 0.0745 -0.3001 0.9510
vn 0.2406 -0.2998 0.9232
vn 0.1294 0.3018 0.9445
vn -0.0057 0.6851 0.7284
vn 0.3032 -0.2943 0.9063
vn 0.2427 -0.4661 0.8508
vn -0.0217 0.6390 0.7689
vn -0.0403 0.5635 0.8251
vn 0.0030 0.3596 0.9331
vn 0.0663 0.2127 0.9749
vn 0.3079 0.2419 0.9202
vn 0.5213 0.2195 0.8247
vn 0.5116 0.2261 0.8290
vn 0.3078 0.2427 0.9200
vn 0.8980 0.1408 0.4168
vn 0.9009 0.1122 0.4193
vn 0.9973 0.0413 -0.0604
vn 0.9995 -0.0114 -0.0282
vn 0.9550 -0.0812 -0.2851
vn 0.9498 -0.0125 -0.3127
vn 0.9580 0.2587 -0.1238
vn 0.8653 0.3637 0.3449
vn 0.9040 0.2053 -0.3750
vn 0.7014 0.7078 -0.0836
vn 0.6955 0.6732 0.2511
vn 0.6196 0.6528 -0.4359
vn 0.8378 -0.0891 -0.5387
vn 0.7927 0.1274 -0.5962
vn 0.4685 0.5099 -0.7215
vn -0.0264 0.7126 -0.7011
vn 0.1105 0.9264 -0.3598
vn 0.2407 0.9684 0.0649
vn 0.2821 0.3283 -0.9015
vn -0.1000 0.3684 -0.9243
vn 0.4334 0.0122 -0.9011
vn -0.2950 0.3679 -0.8818
vn -0.2175 0.7280 -0.6502
vn -0.0994 0.9497 -0.2971
vn 0.0441 0.9903 0.1319
vn 0.1888 0.8036 0.5644
vn 0.2868 0.4278 0.8572
vn 0.3836 0.7934 0.4726
vn 0.4918 0.4282 0.7582
vn 0.1025 0.2279 0.9683
vn 0.0760 0.4258 0.9016
vn 0.0928 0.2207 0.9709
vn -0.4049 0.1251 0.9058
vn -0.4056 0.1608 0.8998
vn -0.7594 0.0064 0.6506
vn -0.7817 0.0800 0.6185
vn -0.4302 0.3843 0.8168
vn -0.7932 0.3204 0.5179
vn -0.9389 0.2641 0.2207
vn -0.9492 0.0086 0.3146
vn -0.9333 -0.0894 0.3479
vn -0.9952 -0.0951 -0.0220
vn -0.9845 0.1528 -0.0865
vn -0.9849 -0.1729 -0.0131
vn -0.8591 -0.2157 -0.4641
vn -0.8534 -0.2492 -0.4577
vn -0.4986 -0.2790 -0.8207
vn -0.4953 -0.2706 -0.8255
vn -0.3056 -0.2684 -0.9135
vn -0.3052 -0.2728 -0.9124
vn -0.5091 -0.0595 -0.8586
vn -0.3164 -0.0739 -0.9457
vn -0.4707 0.3719 -0.8001
vn -0.3927 0.7126 -0.5814
vn -0.7442 0.3373 -0.5766
vn -0.8608 0.0204 -0.5085
vn -0.7796 0.5267 -0.3388
vn -0.2937 0.9289 -0.2254
vn -0.7239 0.6899 0.0008
vn -0.5672 0.7404 0.3605
vn -0.1432 0.9701 0.1959
vn -0.3656 0.6852 0.6299
vn -0.0106 0.7914 0.6112
vn -0.1024 -0.0641 -0.9927
vn -0.0884 -0.2711 -0.9585
vn 0.4706 -0.2111 -0.8567
vn 0.4732 -0.2385 -0.8480
vn -0.0808 -0.2791 -0.9568
vn -0.0629 -0.2747 -0.9595
vn 0.5086 -0.2346 -0.8285
vn 0.8358 -0.1463 -0.5292
vn 0.8542 -0.1561 -0.4960
vn 0.5759 -0.4075 -0.7087
vn 0.0076 -0.4984 -0.8669
vn 0.5556 -0.7149 -0.4245
vn 0.1625 -0.9126 -0.3752
vt 0.250000 0.000000
vt 0.000000 0.000000
vt 0.000000 0.144212
vt 0.250000 0.144212
vt 1.000000 0.166667
vt 1.000000 0.000000
vt 0.750000 0.000000
vt 0.750000 0.166667
vt 1.000000 0.144212
vt 0.833333 0.000000
vt 0.833333 0.144212
vt 0.000000 0.288425
vt 0.250000 0.305266
vt 1.000000 0.288425
vt 0.833333 0.305266
vt 0.666667 0.000000
vt 0.666667 0.144212
vt 0.666667 0.305266
vt 0.666667 0.500000
vt 0.833333 0.500000
vt 1.000000 0.500000
vt 0.666667 0.694734
vt 0.833333 0.694734
vt 1.000000 0.711575
vt 0.000000 0.500000
vt 0.250000 0.500000
vt 0.000000 0.711575
vt 0.250000 0.694734
vt 0.463007 0.500000
vt 0.463007 0.305266
vt 0.463024 0.694734
vt 0.463007 0.144212
vt 0.602029 0.305266
vt 0.602029 0.500000
vt 0.602029 0.144212
vt 0.500000 0.000000
vt 0.602029 0.000000
vt 0.502297 0.171856
vt 0.397971 0.000000
vt 0.259189 0.187425
vt 0.500574 0.334631
vt 0.252297 0.338523
vt 0.750000 0.333333
vt 0.000000 0.301896
vt 0.000000 0.333333
vt 0.000000 0.270459
vt 0.147971 0.135229
vt 0.295943 0.000000
vt 0.270459 0.000000
vt 0.398648 0.000000
vt 0.302506 0.036053
vt 0.526837 0.000000
vt 0.494790 0.036053
vt 0.526837 0.144212
vt 0.704057 0.144212
vt 0.704057 0.000000
vt 0.526837 0.288425
vt 0.526837 0.500000
vt 0.526837 0.711575
vt 0.602098 0.694734
vt 0.704057 0.711575
vt 0.704057 0.500000
vt 0.704057 0.288425
vt 0.602306 0.855788
vt 0.704612 0.855788
vt 0.463076 0.855788
vt 0.250000 0.855788
vt 0.500000 1.000000
vt 0.250000 1.000000
vt 0.602583 1.000000
vt 0.250000 0.166667
vt 0.497758 0.171856
vt 0.602583 0.000000
vt 0.741033 0.187425
vt 0.705166 1.000000
vt 0.705166 0.000000
vt 0.852583 0.135229
vt 0.499440 0.334631
vt 0.747758 0.338523
vt 1.000000 0.333333
vt 1.000000 0.301896
vt 1.000000 0.270459
vt 0.278318 0.855788
vt 0.270459 1.000000
vt 0.301896 1.000000
vt 0.301896 0.855788
vt 0.333333 1.000000
vt 0.367141 0.855788
vt 0.367141 0.694734
vt 0.301896 0.694734
vt 0.278318 0.694734
vt 0.270459 0.855788
vt 0.302259 0.966825
vt 0.270459 0.694734
vt 0.278318 0.500000
vt 0.301896 0.500000
vt 0.270459 0.500000
vt 0.270459 0.694734
vt 0.302475 0.695094
vt 0.302383 0.857226
vt 0.302506 0.500000
vt 0.398648 0.711575
vt 0.398648 0.500000
vt 0.398155 0.861543
vt 0.327048 0.940382
vt 0.397785 0.974020
vt 0.397661 1.011512
vt 0.302260 0.966825
vt 0.524864 1.023023
vt 0.493310 0.981214
vt 0.525850 0.867299
vt 0.468713 0.949336
vt 0.493927 0.865860
vt 0.494790 0.500000
vt 0.526837 0.288425
vt 0.398648 0.288425
vt 0.494790 0.144212
vt 0.469864 0.064095
vt 0.398648 0.036053
vt 0.327432 0.064095
vt 0.302506 0.144212
vt 0.270459 0.144212
vt 0.270459 0.305266
vt 0.302506 0.305266
vt 0.398648 0.144212
vt 0.278318 0.305266
vt 0.278318 0.144212
vt 0.301896 0.305266
vt 0.301896 0.144212
vt 0.301896 0.000000
vt 0.367141 0.144212
vt 0.333333 0.000000
vt 0.367141 0.305266
vt 0.367141 0.500000
vt 0.500000 0.500000
vt 0.500000 0.305266
vt 0.500000 0.694734
vt 0.500000 0.855788
vt 0.666667 0.855788
vt 0.666667 1.000000
vt 0.750000 0.666667
vt 1.000000 0.666667
vt 0.750000 0.500000
vt 0.500000 0.666667
vt 0.750000 0.833333
vt 1.000000 0.833333
vt 0.500000 0.833333
vt 0.750000 1.000000
vt 1.000000 1.000000
vt 0.250000 0.666667
vt 0.250000 0.833333
vt 0.750000 0.855788
vt 0.500000 0.855788
vt 1.000000 0.855788
vt 0.000000 0.833333
vt 0.000000 1.000000
vt 0.750000 0.694734
vt 0.500000 0.694734
vt 0.750000 0.305266
vt 0.833333 0.855788
vt 0.000000 0.855788
vt 0.833333 1.000000
vt 0.500000 0.144212
vt 0.500000 0.000000
vt 0.000000 0.666667
vt 0.333333 0.144212
vt 0.333333 0.305266
vt 0.333333 0.500000
vt 0.166667 0.144212
vt 0.166667 0.305266
vt 0.166667 0.500000
vt 0.750000 0.144212
vt 0.166667 0.000000
vt 0.500000 0.144212
vt 0.166667 0.694734
vt 0.333333 0.694734
vt 0.166667 0.855788
vt 0.333333 0.855788
vt 0.166667 1.000000
vt 0.250000 0.333333
vt 0.000000 0.166667
s 1
f 2/1/1 1/2/2 4/3/3 5/4/4
f 3/5/5 1/6/2 2/7/1 28/8/6
f 4/9/3 1/6/2 3/10/5 7/11/7
f 6/12/8 19/13/9 5/4/4 4/3/3
f 6/14/8 4/9/3 7/11/7 9/15/10
f 199/16/11 8/17/12 7/11/7 3/10/5
f 8/17/12 10/18/13 9/15/10 7/11/7
f 10/18/13 12/19/13 11/20/14 9/15/10
f 14/21/15 6/14/8 9/15/10 11/20/14
f 12/19/13 246/22/13 13/23/16 11/20/14
f 15/24/17 14/21/15 11/20/14 13/23/16
f 6/12/8 14/25/15 16/26/18 19/13/9
f 14/25/15 15/27/17 18/28/19 16/26/18
f 17/29/20 20/30/21 19/13/9 16/26/18
f 52/31/22 17/29/20 16/26/18 18/28/19
f 19/13/9 20/30/21 22/32/23 5/4/4
f 21/33/24 20/30/21 17/29/20 49/34/25
f 22/32/23 20/30/21 21/33/24 23/35/26
f 24/36/27 22/32/23 23/35/26 25/37/28
f 24/36/27 2/1/1 5/4/4 22/32/23
f 24/36/27 26/38/29 28/8/6 2/7/1
f 24/36/27 25/39/28 29/40/30 26/38/29
f 27/41/31 26/38/29 29/40/30 31/42/32
f 26/38/29 27/41/31 198/43/33 28/8/6
f 30/44/34 186/45/35 31/42/32 29/40/30
f 33/46/36 30/44/34 29/40/30 32/47/37
f 25/39/28 35/48/38 32/47/37 29/40/30
f 33/49/36 32/50/37 34/50/39 131/51/40
f 32/50/37 35/52/38 37/53/41 34/50/39
f 35/52/38 36/54/42 39/54/43 37/53/41
f 36/55/42 35/56/38 25/37/28 23/35/26
f 40/54/44 38/53/45 37/53/41 39/54/43
f 38/53/45 114/50/46 34/50/39 37/53/41
f 42/57/47 40/54/44 39/54/43 41/57/48
f 36/54/42 43/57/49 41/57/48 39/54/43
f 45/58/50 42/57/47 41/57/48 44/58/51
f 43/57/49 47/58/52 44/58/51 41/57/48
f 247/59/53 45/58/50 44/58/51 46/59/54
f 47/58/52 48/59/55 46/59/54 44/58/51
f 50/60/56 48/61/55 47/62/52 49/34/25
f 43/63/49 21/33/24 49/34/25 47/62/52
f 52/31/22 50/60/56 49/34/25 17/29/20
f 48/61/55 50/60/56 51/64/57 248/65/58
f 50/60/56 52/31/22 53/66/59 51/64/57
f 53/66/59 52/31/22 18/28/19 54/67/60
f 55/68/61 53/66/59 54/67/60 56/69/62
f 55/68/61 58/70/63 51/64/57 53/66/59
f 55/36/61 56/1/62 240/71/64 57/72/65
f 58/73/63 55/36/61 57/72/65 60/74/66
f 58/70/63 59/75/67 248/65/58 51/64/57
f 59/76/67 58/73/63 60/74/66 62/77/68
f 241/78/69 61/79/70 60/74/66 57/72/65
f 65/80/71 63/81/72 60/74/66 61/79/70
f 63/81/72 64/82/73 62/77/68 60/74/66
f 69/83/74 64/84/73 63/85/72 66/86/75
f 65/87/71 68/88/76 66/86/75 63/85/72
f 68/88/76 139/89/77 67/90/78 66/86/75
f 71/91/79 69/83/74 66/86/75 67/90/78
f 64/84/73 69/83/74 70/92/80 92/93/81
f 69/83/74 71/91/79 73/94/82 70/92/80
f 72/95/79 71/91/79 67/90/78 136/96/78
f 71/91/79 72/95/79 74/97/82 73/94/82
f 75/98/83 76/92/84 70/92/80 73/94/82
f 77/97/83 75/98/83 73/94/82 74/97/82
f 76/92/84 75/98/83 78/94/85 79/92/86
f 75/98/83 77/97/83 80/97/87 78/94/85
f 81/99/88 84/100/89 79/92/86 78/94/85
f 83/101/90 81/99/88 78/94/85 80/97/87
f 82/102/91 81/99/88 83/101/90 106/103/92
f 81/99/88 82/102/91 85/104/93 84/100/89
f 84/100/89 86/105/94 88/93/95 79/92/86
f 87/106/96 86/105/94 84/100/89 85/104/93
f 86/105/94 87/106/96 89/107/97 88/93/95
f 91/107/98 90/108/99 88/93/95 89/107/97
f 90/108/99 76/92/84 79/92/86 88/93/95
f 90/108/99 91/107/98 93/107/100 92/93/81
f 76/92/84 90/108/99 92/93/81 70/92/80
f 62/107/68 64/84/73 92/93/81 93/107/100
f 59/109/67 62/107/68 93/107/100 94/110/101
f 91/107/98 96/110/102 94/110/101 93/107/100
f 96/110/102 97/111/103 95/111/104 94/110/101
f 248/111/58 59/109/67 94/110/101 95/111/104
f 97/111/103 96/110/102 98/110/105 99/111/106
f 96/110/102 91/107/98 89/107/97 98/110/105
f 100/112/107 101/113/108 99/111/106 98/110/105
f 87/106/96 100/112/107 98/110/105 89/107/97
f 100/112/107 87/106/96 85/104/93 101/113/108
f 101/113/108 102/59/109 103/59/110 99/111/106
f 82/102/91 102/59/109 101/113/108 85/104/93
f 102/59/109 104/114/111 107/58/112 103/59/110
f 102/59/109 82/102/91 106/103/92 104/114/111
f 104/114/111 105/115/113 108/57/114 107/58/112
f 125/116/115 105/115/113 104/114/111 106/103/92
f 45/58/50 247/59/53 103/59/110 107/58/112
f 42/57/47 45/58/50 107/58/112 108/57/114
f 105/115/113 110/117/116 109/54/117 108/57/114
f 40/54/44 42/57/47 108/57/114 109/54/117
f 38/53/45 40/54/44 109/54/117 111/53/118
f 110/117/116 112/118/119 111/53/118 109/54/117
f 112/118/119 115/119/120 113/50/121 111/53/118
f 114/50/46 38/53/45 111/53/118 113/50/121
f 118/51/122 114/50/46 113/50/121 116/51/123
f 115/119/120 117/120/124 116/51/123 113/50/121
f 117/120/124 121/121/125 119/122/126 116/51/123
f 120/122/127 118/51/122 116/51/123 119/122/126
f 123/123/83 120/122/127 119/122/126 122/123/87
f 121/121/125 124/124/128 122/123/87 119/122/126
f 124/124/128 83/101/90 80/97/87 122/123/87
f 77/97/83 123/123/83 122/123/87 80/97/87
f 125/116/115 124/124/128 121/121/125 126/125/129
f 124/124/128 125/116/115 106/103/92 83/101/90
f 105/115/113 125/116/115 126/125/129 110/117/116
f 117/120/124 115/119/120 126/125/129 121/121/125
f 115/119/120 112/118/119 110/117/116 126/125/129
f 123/123/83 77/97/83 74/97/82 127/123/82
f 120/122/127 123/123/83 127/123/82 129/122/130
f 128/126/79 130/127/131 129/122/130 127/123/82
f 72/95/79 128/126/79 127/123/82 74/97/82
f 130/127/131 33/49/36 131/51/40 129/122/130
f 118/51/122 120/122/127 129/122/130 131/51/40
f 114/50/46 118/51/122 131/51/40 34/50/39
f 130/127/131 128/126/79 134/128/78 132/129/132
f 33/49/36 130/127/131 132/129/132 30/130/34
f 133/131/133 186/132/35 30/130/34 132/129/132
f 135/133/77 133/131/133 132/129/132 134/128/78
f 128/126/79 72/95/79 136/96/78 134/128/78
f 137/134/77 135/133/77 134/128/78 136/96/78
f 139/89/77 137/134/77 136/96/78 67/90/78
f 135/133/77 137/134/77 138/135/134 183/136/134
f 137/134/77 139/89/77 140/137/134 138/135/134
f 139/89/77 68/88/76 142/138/135 140/137/134
f 143/139/136 141/22/137 140/137/134 142/138/135
f 141/22/137 180/19/137 138/135/134 140/137/134
f 145/140/138 143/139/136 142/138/135 144/68/139
f 68/88/76 65/87/71 144/68/139 142/138/135
f 148/141/140 145/142/138 144/21/139 146/143/141
f 65/80/71 61/79/70 146/143/141 144/21/139
f 61/79/70 241/78/69 147/135/142 146/143/141
f 149/144/143 148/141/140 146/143/141 147/135/142
f 145/142/138 148/141/140 150/145/144 151/146/145
f 148/141/140 149/144/143 153/147/146 150/145/144
f 152/148/147 177/149/148 151/146/145 150/145/144
f 155/68/149 152/148/147 150/145/144 153/147/146
f 153/147/146 149/144/143 245/150/150 154/151/151
f 155/68/149 153/147/146 154/151/151 157/69/152
f 155/68/149 157/148/152 159/152/153 156/153/154
f 155/68/149 156/153/154 178/67/155 152/69/147
f 157/148/152 158/149/156 160/154/157 159/152/153
f 229/155/158 158/156/156 157/69/152 154/151/151
f 162/24/159 161/157/160 159/152/153 160/154/157
f 161/157/160 164/158/161 156/153/154 159/152/153
f 161/157/160 162/24/159 211/21/159 163/143/160
f 164/158/161 161/157/160 163/143/160 166/135/161
f 156/153/154 164/158/161 165/28/162 178/67/155
f 164/158/161 166/135/161 168/26/162 165/28/162
f 212/159/160 167/136/161 166/135/161 163/143/160
f 166/135/161 167/136/161 169/13/162 168/26/162
f 171/12/163 170/25/163 168/26/162 169/13/162
f 170/25/163 173/27/163 165/28/162 168/26/162
f 170/21/163 171/14/163 179/15/164 172/20/164
f 173/24/163 170/21/163 172/20/164 175/23/164
f 174/154/165 173/24/163 175/23/164 176/160/166
f 173/27/163 174/161/165 178/67/155 165/28/162
f 141/22/137 143/139/136 176/160/166 175/23/164
f 180/19/137 141/22/137 175/23/164 172/20/164
f 177/149/148 174/154/165 176/160/166 151/162/145
f 143/139/136 145/140/138 151/162/145 176/160/166
f 174/161/165 177/156/148 152/69/147 178/67/155
f 181/18/137 180/19/137 172/20/164 179/15/164
f 180/19/137 181/18/137 183/136/134 138/135/134
f 182/17/167 181/18/137 179/15/164 222/11/168
f 181/18/137 182/17/167 184/163/169 183/136/134
f 133/131/133 135/133/77 183/136/134 184/163/169
f 186/132/35 133/131/133 184/163/169 185/164/170
f 182/17/167 188/16/171 185/164/170 184/163/169
f 186/45/35 185/25/170 187/26/172 31/42/32
f 185/25/170 188/165/171 190/150/173 187/26/172
f 188/16/171 182/17/167 222/11/168 189/10/174
f 188/165/171 189/155/174 191/151/175 190/150/173
f 193/147/176 192/144/177 190/150/173 191/151/175
f 192/144/177 195/135/178 187/26/172 190/150/173
f 194/141/179 192/144/177 193/147/176 224/145/180
f 192/144/177 194/141/179 196/143/181 195/135/178
f 198/43/33 27/41/31 195/135/178 196/143/181
f 195/135/178 27/41/31 31/42/32 187/26/172
f 194/141/179 200/142/182 197/21/183 196/143/181
f 199/80/11 198/43/33 196/143/181 197/21/183
f 199/80/11 3/5/5 28/8/6 198/43/33
f 8/17/12 199/16/11 197/164/183 201/163/184
f 200/132/182 202/166/185 201/163/184 197/164/183
f 202/166/185 205/167/186 203/136/187 201/163/184
f 10/18/13 8/17/12 201/163/184 203/136/187
f 12/19/13 10/18/13 203/136/187 204/135/187
f 205/167/186 206/168/186 204/135/187 203/136/187
f 205/167/186 202/166/185 208/169/188 207/170/189
f 206/168/186 205/167/186 207/170/189 209/171/189
f 213/3/190 210/12/159 207/170/189 208/169/188
f 210/12/159 211/25/159 209/171/189 207/170/189
f 210/14/159 212/159/160 163/143/160 211/21/159
f 210/14/159 213/9/190 215/172/191 212/159/160
f 214/2/192 213/3/190 208/169/188 225/173/193
f 213/9/190 214/6/192 216/7/194 215/172/191
f 217/174/195 167/136/161 212/159/160 215/172/191
f 218/36/196 217/174/195 215/172/191 216/7/194
f 218/36/196 220/1/197 219/4/198 217/174/195
f 169/13/162 167/136/161 217/174/195 219/4/198
f 220/1/197 223/2/199 221/3/200 219/4/198
f 171/12/163 169/13/162 219/4/198 221/3/200
f 171/14/163 221/9/200 222/11/168 179/15/164
f 221/9/200 223/6/199 189/10/174 222/11/168
f 189/155/174 223/156/199 220/69/197 191/151/175
f 218/68/196 193/147/176 191/151/175 220/69/197
f 218/68/196 216/148/194 224/145/180 193/147/176
f 216/148/194 214/149/192 225/146/193 224/145/180
f 200/142/182 194/141/179 224/145/180 225/146/193
f 202/166/185 200/132/182 225/173/193 208/169/188
f 211/25/159 162/27/159 226/175/189 209/171/189
f 227/176/186 206/168/186 209/171/189 226/175/189
f 162/27/159 160/161/157 228/177/201 226/175/189
f 230/178/202 227/176/186 226/175/189 228/177/201
f 231/87/203 230/178/202 228/177/201 229/179/158
f 160/161/157 158/156/156 229/179/158 228/177/201
f 230/178/202 231/87/203 235/68/204 232/138/205
f 227/176/186 230/178/202 232/138/205 234/137/187
f 233/139/206 246/22/13 234/137/187 232/138/205
f 237/140/207 233/139/206 232/138/205 235/68/204
f 235/25/204 231/165/203 245/150/150 236/26/208
f 237/45/207 235/25/204 236/26/208 239/180/209
f 237/45/207 239/180/209 240/71/64 238/181/210
f 233/139/206 237/140/207 238/162/210 242/160/211
f 239/180/209 241/78/69 57/72/65 240/71/64
f 147/135/142 241/78/69 239/180/209 236/26/208
f 56/1/62 243/2/212 238/181/210 240/71/64
f 243/149/212 244/154/213 242/160/211 238/162/210
f 244/161/213 243/156/212 56/69/62 54/67/60
f 15/27/17 244/161/213 54/67/60 18/28/19
f 244/154/213 15/24/17 13/23/16 242/160/211
f 246/22/13 233/139/206 242/160/211 13/23/16
f 149/144/143 147/135/142 236/26/208 245/150/150
f 231/165/203 229/155/158 154/151/151 245/150/150
f 206/168/186 227/176/186 234/137/187 204/135/187
f 246/22/13 12/19/13 204/135/187 234/137/187
f 247/59/53 97/111/103 99/111/106 103/59/110
f 97/111/103 247/59/53 46/59/54 95/111/104
f 48/59/55 248/111/58 95/111/104 46/59/54
f 43/63/49 36/55/42 23/35/26 21/33/24
