# Blender 4.2.3 LTS
# www.blender.org
mtllib leftFoot.mtl
o Robot_Left_Foot
v 0.956990 1.643989 0.106907
v 0.945195 1.730469 0.071652
v 0.927142 1.643989 0.116893
v 0.925148 1.666143 0.012054
v 0.959899 1.548127 0.115604
v 0.952935 1.454445 0.096908
v 0.603873 1.548127 0.234714
v 0.928962 1.584045 0.122331
v 0.926979 1.606207 0.017487
v 0.957049 1.606068 0.006188
v 0.922408 1.547634 0.005871
v 0.953173 1.546879 -0.003347
v 0.913184 1.497489 -0.021797
v 0.938136 1.374243 0.052672
v 0.943654 1.497500 -0.031970
v 0.899783 1.461820 -0.061965
v 0.916648 1.317194 -0.011555
v 0.930253 1.461831 -0.072138
v 0.883821 1.444929 -0.109788
v 0.891065 1.290178 -0.088025
v 0.867224 1.448853 -0.159498
v 0.914291 1.444940 -0.119961
v 0.897693 1.448865 -0.169671
v 0.882461 1.473132 -0.215273
v 0.870433 1.514814 -0.251265
v 0.851992 1.473120 -0.205100
v 0.840074 1.335268 -0.240439
v 0.839963 1.514803 -0.241093
v 0.832589 1.568873 -0.263135
v 0.820817 1.401935 -0.298000
v 0.809022 1.488415 -0.333255
v 0.786550 1.434338 -0.301224
v 0.464791 1.401935 -0.178889
v 0.452996 1.488415 -0.214144
v 0.484048 1.335268 -0.121329
v 0.490219 1.434338 -0.202085
v 0.483937 1.514803 -0.121982
v 0.476562 1.568873 -0.144025
v 0.453467 1.514791 -0.111809
v 0.495965 1.473120 -0.085990
v 0.511197 1.448853 -0.040388
v 0.465496 1.473109 -0.075817
v 0.480727 1.448842 -0.030215
v 0.497325 1.444917 0.019495
v 0.513287 1.461809 0.067318
v 0.527795 1.444929 0.009322
v 0.535039 1.290178 0.031085
v 0.543757 1.461820 0.057145
v 0.560622 1.317194 0.107556
v 0.557158 1.497489 0.097313
v 0.566382 1.547634 0.124981
v 0.526688 1.497478 0.107486
v 0.582109 1.374243 0.171782
v 0.596909 1.454445 0.216018
v 0.535616 1.548390 0.134198
v 0.540883 1.606347 0.147897
v 0.570953 1.606207 0.136597
v 0.538652 1.666132 0.141337
v 0.569122 1.666143 0.131164
v 0.531278 1.720202 0.119294
v 0.561748 1.720213 0.109121
v 0.519534 1.762882 0.084083
v 0.549719 1.761895 0.073129
v 0.503376 1.784774 0.037832
v 0.486782 1.790076 -0.011797
v 0.533849 1.786162 0.027741
v 0.544877 1.835948 0.060492
v 0.517251 1.790087 -0.021970
v 0.518283 1.842225 -0.018999
v 0.501289 1.773196 -0.069793
v 0.492699 1.815210 -0.095470
v 0.470820 1.773185 -0.059620
v 0.487888 1.737527 -0.109961
v 0.471212 1.758161 -0.159696
v 0.478665 1.687382 -0.137628
v 0.457419 1.737516 -0.099788
v 0.448195 1.687371 -0.127455
v 0.444262 1.628798 -0.139286
v 0.474732 1.628809 -0.149459
v 0.446093 1.568861 -0.133852
v 0.450086 1.584277 -0.222842
v 0.456413 1.677958 -0.203932
v 0.479934 1.584277 -0.232827
v 0.482843 1.488415 -0.224130
v 0.486260 1.677959 -0.213917
v 0.488087 1.582352 -0.208458
v 0.490686 1.496696 -0.200687
v 0.493739 1.666060 -0.191561
v 0.784418 1.582352 -0.307597
v 0.790071 1.666060 -0.290700
v 0.787018 1.496696 -0.299826
v 0.776265 1.584277 -0.331966
v 0.806113 1.584277 -0.341952
v 0.782592 1.677959 -0.313056
v 0.779175 1.488415 -0.323269
v 0.812439 1.677959 -0.323042
v 0.797391 1.758161 -0.268821
v 0.827238 1.758161 -0.278806
v 0.818878 1.815210 -0.204594
v 0.803294 1.737724 -0.251174
v 0.822494 1.788698 -0.193787
v 0.506963 1.737723 -0.152035
v 0.526162 1.788698 -0.094648
v 0.501059 1.758161 -0.169682
v 0.522546 1.815210 -0.105455
v 0.548130 1.842225 -0.028985
v 0.574687 1.836007 0.050397
v 0.549024 1.812838 -0.026312
v 0.572751 1.807281 0.044619
v 0.845351 1.812837 -0.125464
v 0.869143 1.807176 -0.054338
v 0.844462 1.842225 -0.128124
v 0.871092 1.835890 -0.048524
v 0.874309 1.842225 -0.138109
v 0.900903 1.835948 -0.058619
v 0.848725 1.815210 -0.214580
v 0.873278 1.790087 -0.141080
v 0.857316 1.773196 -0.188903
v 0.889876 1.786162 -0.091370
v 0.903747 1.790098 -0.151253
v 0.887785 1.773207 -0.199076
v 0.920349 1.787551 -0.101461
v 0.935931 1.760909 -0.056936
v 0.905746 1.761895 -0.045981
v 0.948244 1.720224 -0.020162
v 0.955618 1.666154 0.001881
v 0.917774 1.720213 -0.009989
v 0.925938 1.797136 0.014091
v 0.896127 1.797078 0.024186
v 0.915348 1.730469 0.081638
v 0.891588 1.772503 0.010608
v 0.908759 1.712986 0.061944
v 0.595194 1.772593 0.109560
v 0.599722 1.797194 0.123107
v 0.612430 1.712973 0.161091
v 0.622968 1.635707 0.192588
v 0.619016 1.730469 0.180777
v 0.630811 1.643989 0.216032
v 0.589169 1.730469 0.190762
v 0.600963 1.643989 0.226017
v 0.569912 1.797136 0.133202
v 0.632630 1.584045 0.221470
v 0.624509 1.580817 0.197195
v 0.920841 1.580817 0.098056
v 0.919299 1.635707 0.093449
v 0.874384 1.737538 -0.239244
v 0.843915 1.737527 -0.229071
v 0.865161 1.687393 -0.266911
v 0.834691 1.687382 -0.256738
v 0.861228 1.628820 -0.278742
v 0.830758 1.628809 -0.268569
v 0.863059 1.568884 -0.273308
v 0.793877 1.447422 -0.279324
v 0.497545 1.447422 -0.180185
v 0.508445 1.296456 -0.048406
v 0.864471 1.296456 -0.167516
v 0.867471 -0.002714 -0.437578
v 1.060954 -0.002715 0.140752
v 0.788186 0.298767 -0.674566
v 0.870161 0.042914 -0.421949
v 0.838630 -0.002714 -0.427929
v 0.759311 0.296244 -0.665019
v 1.032113 -0.002715 0.150401
v 0.858033 0.176518 -0.369934
v 1.015839 0.180966 0.101759
v 0.390042 0.176518 -0.213366
v 0.806542 0.369136 -0.523843
v 0.763028 0.988302 -0.433329
v 0.338552 0.369136 -0.367275
v 0.427772 0.988302 -0.321168
v 0.291321 0.296244 -0.508451
v 0.370640 -0.002714 -0.271361
v 0.376866 0.998235 -0.473328
v 0.262514 0.298766 -0.498700
v 0.341799 -0.002714 -0.261712
v 0.345306 1.043896 -0.460721
v 0.271369 0.309971 -0.474192
v 0.346584 0.027374 -0.252413
v 0.352225 1.029674 -0.437801
v 0.208624 0.577135 -0.219885
v 0.319698 1.201311 -0.094352
v 0.241142 0.404909 -0.122641
v 0.362121 0.408230 0.239053
v 0.264229 0.377294 -0.110022
v 0.373534 0.380323 0.216588
v 0.322302 0.680739 -0.024071
v 0.347670 0.055159 -0.218578
v 0.513624 0.055126 0.277757
v 0.423440 0.687093 -0.093118
v 0.496567 0.687092 0.124767
v 0.369548 0.680838 0.119617
v 0.534069 0.027377 0.308072
v 0.593299 0.203105 0.487800
v 0.535282 -0.002715 0.316618
v 0.600759 0.188866 0.512334
v 0.564123 -0.002715 0.306969
v 0.629618 0.186594 0.502737
v 0.547848 0.180964 0.258322
v 0.584006 0.273118 0.366400
v 1.051997 0.273128 0.209835
v 0.633326 1.048066 0.292048
v 0.684277 1.053671 0.444345
v 0.967863 1.048066 0.180127
v 1.018815 1.053671 0.332424
v 1.097608 0.186594 0.346169
v 1.051003 1.099372 0.320500
v 1.126432 0.188866 0.336468
v 0.911215 1.641504 -0.154326
v 0.651394 1.099372 0.454191
v 1.040454 1.076547 0.285044
v 0.915094 1.581158 -0.153522
v 1.113080 0.210459 0.299945
v 1.060789 1.200504 -0.047848
v 1.004213 1.308378 -0.178372
v 1.195883 0.584114 0.067028
v 1.190254 0.406466 -0.039942
v 1.069178 0.406767 -0.401473
v 1.136944 0.379226 -0.040766
v 1.054624 0.042916 0.129295
v 1.053555 0.070172 0.092429
v 0.890437 0.070162 -0.395063
v 0.955606 0.686408 -0.046595
v 0.892952 0.686414 -0.233636
v 1.046612 0.689257 -0.117387
v 1.004690 0.689350 -0.242559
v 1.027689 0.379502 -0.366968
v 0.993064 0.578467 -0.484915
v 0.970876 1.200458 -0.312445
v 0.799825 0.315758 -0.636802
v 0.757450 1.022330 -0.560339
v 0.744915 1.043896 -0.594412
v 0.712122 0.998235 -0.585489
v 0.477266 1.641504 -0.009147
v 0.642880 1.084321 0.431331
v 0.407535 1.200500 0.170595
v 0.475542 1.601710 -0.007184
v 0.360889 1.307896 0.037356
v 0.393787 0.583903 0.334533
v 0.624074 1.341711 0.210610
v 0.624074 1.357450 0.210610
v 0.695457 1.093166 0.423979
v 0.651506 1.341711 0.201432
v 0.716121 1.116733 0.394569
v 0.651506 1.357450 0.201432
v 0.651506 1.373189 0.201432
v 0.624074 1.373189 0.210610
v 0.651506 1.388928 0.201432
v 0.624074 1.388928 0.210610
v 0.651506 1.404667 0.201432
v 0.624074 1.404667 0.210610
v 0.784639 1.746758 0.376108
v 0.777668 1.774903 0.396475
v 0.895422 1.746758 0.339045
v 0.896641 1.404667 0.119421
v 0.913246 1.774903 0.351117
v 0.924073 1.404667 0.110243
v 0.953711 1.604468 0.368920
v 0.924073 1.388928 0.110243
v 0.987607 1.434035 0.368816
v 0.756063 1.604468 0.435044
v 0.728928 1.434035 0.455358
v 0.704887 1.263600 0.452165
v 1.004887 1.263600 0.351799
v 0.924073 1.357450 0.110243
v 0.995457 1.093166 0.323613
v 0.961256 1.116733 0.312558
v 0.924073 1.341711 0.110243
v 0.896641 1.341711 0.119421
v 0.896641 1.357450 0.119421
v 0.896641 1.373189 0.119421
v 0.896641 1.388928 0.119421
v 0.924073 1.373189 0.110243
v 0.966583 0.873999 0.185752
v 1.007154 1.042851 0.307020
v 1.029384 0.655821 0.373468
v 0.944678 0.842013 0.177115
v 0.985248 1.010865 0.298383
v 1.007479 0.623836 0.364831
v 1.084183 0.400191 0.339169
v 1.262119 -0.029618 0.714181
v 1.106088 0.432177 0.347806
v 1.284024 0.002367 0.722817
v 1.277287 0.374732 0.585809
v 1.298433 0.126093 0.839924
v 1.281857 0.368590 0.858383
v 1.069955 0.824673 0.494736
v 1.259952 0.336605 0.849747
v 1.037197 0.368590 0.940236
v 0.792536 0.368590 1.022088
v 1.032393 0.336604 0.925878
v 0.906453 0.824673 0.549436
v 0.742951 0.824673 0.604136
v 0.843651 1.042851 0.361720
v 0.838848 1.010865 0.347362
v 0.680149 1.042851 0.416420
v 0.639579 0.873999 0.295152
v 0.692447 1.010865 0.396341
v 0.651876 0.842013 0.275073
v 0.714678 0.623836 0.462789
v 0.637973 0.400191 0.488451
v 0.702380 0.655821 0.482868
v 0.632162 0.374732 0.801638
v 0.625675 0.432177 0.508530
v 0.709228 0.002367 0.915118
v 0.768188 0.126094 1.017319
v 0.721526 -0.029619 0.895038
v 0.815553 -0.043090 1.094489
v 0.827851 -0.075076 1.074409
v 0.780486 0.094108 0.997240
v 0.804834 0.336605 1.002008
v 1.276528 0.094108 0.831287
v 1.285136 -0.075076 0.921423
v 1.307042 -0.043090 0.930059
v 0.375180 0.004142 -0.332395
v 0.375180 0.315723 -0.332395
v 0.367233 0.034362 -0.356150
v 0.802500 0.004142 -0.475357
v 0.228445 0.004142 -0.770994
v 0.771159 0.004142 0.851204
v 0.771159 0.315723 0.851204
v 0.873041 0.004142 1.155735
v 1.198479 0.004142 0.708242
v 1.198479 0.315723 0.708242
v 1.300361 0.004141 1.012773
v 1.300361 0.148643 1.012773
v 0.873041 0.148643 1.155735
v 1.245408 0.169821 0.988236
v 0.902165 0.169821 1.103069
v 1.197742 0.254998 0.985411
v 1.169355 0.294544 0.760908
v 0.826112 0.294544 0.875741
v 1.147505 0.337384 0.835248
v 0.888297 0.337384 0.921967
v 0.938535 0.254998 1.072129
v 0.802500 0.315723 -0.475357
v 0.718745 0.315723 -0.725707
v 0.794553 0.285504 -0.499112
v 0.739692 0.285504 -0.480758
v 0.794553 0.034362 -0.499112
v 0.722037 0.285504 -0.715867
v 0.667176 0.285504 -0.697513
v 0.663713 0.063728 -0.890201
v 0.655765 0.076245 -0.913956
v 0.663713 0.034362 -0.890201
v 0.608852 0.063728 -0.871847
v 0.608852 0.034362 -0.871847
v 0.739692 0.034362 -0.480758
v 0.655765 0.004142 -0.913956
v 0.228445 0.076245 -0.770994
v 0.291424 0.315723 -0.582745
v 0.236392 0.063728 -0.747239
v 0.294716 0.285504 -0.572905
v 0.236392 0.034362 -0.747239
v 0.291253 0.063728 -0.765593
v 0.349577 0.285504 -0.591259
v 0.291253 0.034362 -0.765593
v 0.422094 0.034362 -0.374504
v 0.422094 0.285504 -0.374504
v 0.367233 0.285503 -0.356150
vn 0.9480 -0.0007 -0.3183
vn 0.9480 -0.0002 -0.3182
vn 0.9480 -0.0003 -0.3183
vn 0.9480 -0.0008 -0.3183
vn 0.2915 0.3949 0.8712
vn 0.3158 0.0952 0.9440
vn 0.9477 -0.0006 -0.3192
vn 0.9463 -0.0065 -0.3232
vn 0.9464 -0.0065 -0.3230
vn 0.9480 0.0001 -0.3184
vn 0.2960 -0.3597 0.8849
vn 0.3103 -0.2082 0.9276
vn 0.2960 -0.3598 0.8848
vn 0.3332 0.0853 0.9390
vn 0.3113 -0.1896 0.9312
vn 0.2537 -0.5120 0.8207
vn 0.9483 0.0003 -0.3172
vn 0.9485 0.0003 -0.3169
vn 0.9484 0.0001 -0.3171
vn 0.2043 -0.7648 0.6110
vn 0.9484 -0.0002 -0.3170
vn 0.1009 -0.9482 0.3012
vn 0.9484 -0.0004 -0.3172
vn 0.9483 -0.0004 -0.3172
vn -0.0233 -0.9972 -0.0709
vn 0.9481 -0.0030 -0.3179
vn 0.9485 -0.0027 -0.3168
vn 0.9485 0.0004 -0.3168
vn 0.9485 0.0002 -0.3167
vn 0.9485 0.0002 -0.3168
vn 0.9485 0.0004 -0.3167
vn 0.9485 -0.0027 -0.3169
vn 0.9479 -0.0001 -0.3187
vn 0.9477 0.0002 -0.3191
vn 0.9477 0.0022 -0.3191
vn 0.9478 0.0040 -0.3187
vn 0.9483 0.0164 -0.3168
vn 0.9487 0.0287 -0.3148
vn 0.9481 0.0111 -0.3177
vn 0.9479 -0.0002 -0.3186
vn -0.1424 -0.8927 -0.4275
vn -0.2339 -0.6732 -0.7015
vn 0.9483 -0.0005 -0.3175
vn 0.9481 -0.0005 -0.3179
vn 0.9481 -0.0005 -0.3180
vn 0.9482 -0.0006 -0.3176
vn -0.2908 -0.3949 -0.8715
vn 0.9480 -0.0003 -0.3182
vn 0.9480 -0.0002 -0.3183
vn -0.2915 -0.3949 -0.8712
vn -0.2346 -0.6732 -0.7012
vn -0.1920 -0.7962 -0.5738
vn -0.9480 0.0003 0.3182
vn -0.9481 0.0005 0.3179
vn -0.9481 0.0005 0.3180
vn -0.9480 0.0002 0.3183
vn -0.9483 0.0005 0.3175
vn -0.9482 0.0006 0.3176
vn -0.9484 0.0004 0.3172
vn -0.9483 0.0004 0.3172
vn -0.9454 0.0020 0.3259
vn -0.9456 0.0056 0.3252
vn -0.9409 0.0201 0.3382
vn -0.9459 0.0055 0.3245
vn -0.9484 -0.0005 0.3170
vn -0.9482 -0.0017 0.3176
vn -0.9479 -0.0015 0.3186
vn -0.9465 0.0013 0.3228
vn -0.9485 -0.0002 0.3168
vn -0.9485 -0.0001 0.3168
vn -0.9485 -0.0001 0.3167
vn -0.9467 0.0013 0.3220
vn -0.9430 0.0041 0.3328
vn -0.9484 0.0002 0.3170
vn -0.9484 -0.0001 0.3171
vn -0.9483 -0.0003 0.3172
vn -0.9483 -0.0003 0.3173
vn 0.2571 -0.4933 0.8310
vn -0.9466 0.0069 0.3224
vn -0.9483 0.0008 0.3174
vn 0.2429 -0.6433 0.7261
vn 0.1553 -0.8719 0.4643
vn -0.9479 0.0012 0.3185
vn -0.9466 0.0069 0.3225
vn 0.3083 -0.2267 0.9239
vn 0.3326 0.1052 0.9372
vn 0.2908 0.3949 0.8715
vn 0.2553 0.6646 0.7022
vn 0.1354 0.9031 0.4076
vn 0.0071 0.9959 0.0901
vn -0.9479 0.0009 0.3186
vn -0.9484 0.0007 0.3170
vn -0.9484 0.0006 0.3170
vn -0.9459 -0.0053 0.3243
vn -0.9460 -0.0052 0.3241
vn -0.9475 0.0010 0.3198
vn -0.9484 -0.0007 0.3171
vn -0.1009 0.9482 -0.3012
vn -0.9482 -0.0009 0.3176
vn -0.9481 -0.0010 0.3179
vn -0.2043 0.7648 -0.6110
vn -0.9480 -0.0008 0.3183
vn -0.9480 -0.0006 0.3181
vn -0.2739 0.5028 -0.8199
vn -0.3098 0.2082 -0.9277
vn -0.3152 -0.0952 -0.9442
vn -0.9479 -0.0001 0.3184
vn -0.9479 -0.0003 0.3184
vn -0.3103 0.2082 -0.9276
vn -0.3158 -0.0952 -0.9440
vn 0.9483 -0.0000 -0.3173
vn -0.3168 0.0571 -0.9468
vn -0.3071 -0.2517 -0.9178
vn -0.2960 0.3600 -0.8848
vn -0.9483 -0.0000 0.3173
vn -0.2743 0.5028 -0.8198
vn -0.2044 0.7648 -0.6110
vn -0.1553 0.8719 -0.4643
vn -0.2429 0.6433 -0.7261
vn -0.1008 0.9482 -0.3013
vn 0.9460 0.0036 -0.3241
vn 0.9484 0.0011 -0.3171
vn 0.0229 0.9972 0.0708
vn 0.0851 0.9634 0.2542
vn -0.0393 0.9923 -0.1176
vn 0.0850 0.9635 0.2539
vn -0.9458 -0.0022 0.3247
vn -0.9481 0.0011 0.3180
vn 0.0230 0.9972 0.0713
vn 0.9484 -0.0007 -0.3170
vn 0.9485 0.0007 -0.3167
vn 0.9464 0.0070 -0.3230
vn 0.9484 -0.0006 -0.3170
vn -0.0012 0.9979 0.0653
vn 0.1493 0.8819 0.4471
vn 0.2505 0.6815 0.6876
vn 0.9463 0.0064 -0.3231
vn 0.9482 0.0007 -0.3177
vn 0.2354 0.6730 0.7012
vn 0.1430 0.8927 0.4273
vn -0.9483 -0.0000 0.3172
vn -0.9482 0.0002 0.3177
vn -0.9459 -0.0024 0.3245
vn 0.2667 0.5416 0.7973
vn 0.1920 0.7958 0.5743
vn 0.1917 0.7965 0.5734
vn 0.2667 0.5415 0.7973
vn 0.9483 0.0006 -0.3174
vn 0.9460 0.0033 -0.3242
vn 0.9483 -0.0000 -0.3172
vn 0.3076 0.2446 0.9195
vn 0.2352 0.6734 0.7008
vn -0.9480 0.0002 0.3182
vn -0.9480 0.0007 0.3183
vn -0.9480 0.0008 0.3183
vn -0.9480 0.0003 0.3183
vn -0.0397 0.9921 -0.1186
vn 0.3160 0.0882 0.9446
vn 0.9479 0.0001 -0.3184
vn 0.9479 0.0003 -0.3184
vn 0.9480 0.0005 -0.3183
vn 0.9480 0.0006 -0.3181
vn 0.9482 0.0006 -0.3177
vn 0.9482 0.0006 -0.3176
vn -0.2905 -0.4018 -0.8684
vn -0.1564 0.8700 -0.4675
vn 0.0393 -0.9923 0.1175
vn -0.0850 -0.9635 -0.2539
vn 0.9470 0.0523 -0.3169
vn -0.0000 -1.0000 -0.0000
vn 0.9578 0.0241 -0.2864
vn -0.2173 -0.6396 -0.7374
vn 0.0028 -1.0000 0.0085
vn -0.2426 -0.6443 -0.7252
vn -0.9341 -0.1088 0.3400
vn -0.3151 0.1156 -0.9420
vn 0.9496 -0.1075 -0.2946
vn -0.2702 -0.6396 -0.7197
vn -0.2900 0.0818 -0.9535
vn -0.2901 0.0818 -0.9535
vn -0.9371 0.0254 0.3480
vn -0.9372 0.0253 0.3479
vn -0.9371 0.0255 0.3481
vn -0.9434 0.0892 0.3194
vn -0.9697 -0.2410 -0.0395
vn -0.9310 0.1846 -0.3148
vn -0.9474 0.0520 0.3157
vn -0.9484 -0.0008 0.3170
vn -0.9484 -0.0009 0.3170
vn -0.9483 0.0415 0.3147
vn -0.9490 -0.0219 0.3145
vn -0.8318 -0.3657 0.4176
vn -0.7953 -0.5422 0.2711
vn 0.9452 -0.0908 -0.3135
vn 0.9453 -0.0909 -0.3134
vn 0.3461 -0.2657 0.8998
vn 0.3460 -0.2657 0.8998
vn -0.8949 -0.3310 0.2993
vn -0.9471 0.0509 0.3170
vn 0.0505 -0.9986 -0.0166
vn -0.0377 -0.2726 -0.9614
vn -0.0378 -0.2726 -0.9614
vn -0.9143 -0.3757 0.1512
vn -0.9143 -0.3757 0.1513
vn -0.9470 0.0523 0.3168
vn -0.7989 -0.2230 0.5586
vn -0.9567 0.0285 0.2898
vn -0.9567 0.0286 0.2897
vn 0.1885 -0.7347 0.6517
vn 0.1995 -0.7776 0.5963
vn 0.9358 -0.0875 -0.3415
vn 0.3165 0.0706 0.9460
vn 0.0111 -0.9994 0.0331
vn -0.9518 -0.0867 0.2941
vn 0.3049 0.0423 0.9514
vn 0.3172 0.0240 0.9481
vn 0.9461 0.0734 -0.3154
vn 0.9678 0.0267 -0.2503
vn 0.2344 0.6740 0.7006
vn -0.0117 0.9993 -0.0350
vn 0.8294 0.5229 0.1968
vn 0.8293 0.5230 0.1968
vn 0.8294 0.5229 0.1967
vn 0.8293 0.5230 0.1967
vn 0.8901 0.1922 0.4132
vn 0.9208 0.2169 -0.3242
vn 0.9285 0.1741 -0.3280
vn 0.9380 0.1188 -0.3256
vn 0.9414 0.1066 -0.3199
vn 0.9644 -0.2387 0.1136
vn 0.9644 -0.2386 0.1137
vn 0.9644 -0.2387 0.1137
vn 0.4515 -0.8792 -0.1520
vn 0.6286 -0.4680 -0.6212
vn 0.6285 -0.4680 -0.6212
vn 0.9378 0.0290 -0.3459
vn 0.9378 0.0291 -0.3460
vn 0.8828 -0.3652 -0.2954
vn 0.9453 0.0789 -0.3164
vn -0.4473 -0.2916 -0.8455
vn 0.0251 -0.9996 -0.0087
vn -0.9302 -0.1941 0.3114
vn 0.2204 -0.3056 0.9263
vn 0.8645 -0.4550 0.2135
vn 0.6822 -0.2020 -0.7027
vn 0.5826 0.1744 -0.7938
vn 0.9457 0.0895 -0.3125
vn 0.9459 0.0895 -0.3120
vn 0.9458 0.0895 -0.3121
vn 0.7010 0.3598 -0.6158
vn 0.7010 0.3598 -0.6157
vn 0.9223 0.0239 -0.3858
vn -0.3170 0.0425 -0.9475
vn -0.2494 0.6183 -0.7454
vn -0.3411 0.0822 -0.9364
vn -0.0196 -0.9981 -0.0586
vn -0.9229 0.0291 0.3839
vn -0.9230 0.0291 0.3838
vn -0.9229 0.0291 0.3838
vn -0.9455 0.0732 0.3174
vn -0.9456 0.0732 0.3171
vn 0.3285 0.0425 0.9435
vn 0.3286 0.0424 0.9435
vn -0.5965 0.1442 0.7895
vn -0.5965 0.1442 0.7896
vn -0.6630 0.3943 0.6363
vn -0.9679 0.0223 0.2505
vn -0.7725 0.5541 -0.3103
vn -0.7725 0.5540 -0.3103
vn -0.7724 0.5541 -0.3103
vn 0.2417 -0.7347 0.6339
vn -0.3173 -0.0000 -0.9483
vn -0.9373 0.0311 0.3473
vn -0.9372 0.0310 0.3473
vn -0.2352 -0.6711 -0.7031
vn -0.2711 0.5193 -0.8104
vn 0.3151 0.1173 0.9418
vn 0.3126 0.1718 0.9342
vn 0.9704 0.0970 -0.2210
vn 0.9770 0.0994 -0.1887
vn 0.9704 0.0971 -0.2210
vn 0.9590 0.0782 -0.2723
vn 0.9590 0.0782 -0.2724
vn 0.3173 -0.0001 0.9483
vn 0.3173 -0.0000 0.9483
vn -0.8789 0.0972 0.4670
vn -0.9115 0.0784 0.4037
vn -0.9115 0.0784 0.4038
vn -0.8586 0.0995 0.5028
vn -0.8586 0.0995 0.5029
vn 0.3151 -0.1173 0.9418
vn 0.3126 -0.1718 0.9342
vn 0.9520 0.0309 -0.3045
vn -0.5881 0.5603 -0.5833
vn 0.7170 -0.3244 -0.6170
vn 0.1474 0.1625 -0.9756
vn 0.6891 -0.2930 -0.6628
vn 0.8019 0.3320 -0.4967
vn 0.8593 -0.2100 -0.4664
vn 0.8593 -0.2099 -0.4664
vn 0.8851 0.3445 -0.3129
vn 0.9975 0.0693 -0.0152
vn 0.2352 0.6711 0.7030
vn 0.2352 0.6712 0.7030
vn 0.2354 0.6704 0.7037
vn -0.2483 -0.0904 0.9645
vn 0.2868 -0.4278 0.8572
vn 0.2350 0.6719 0.7024
vn -0.2868 0.4278 -0.8572
vn 0.1186 0.5603 -0.8198
vn -0.9439 -0.3244 -0.0613
vn -0.7048 0.1625 -0.6905
vn -0.8952 0.3445 0.2827
vn -0.9394 0.3320 0.0859
vn -0.9670 -0.2100 0.1445
vn -0.9670 -0.2099 0.1446
vn -0.9492 -0.2930 -0.1147
vn -0.8612 -0.0093 0.5081
vn -0.7884 -0.5146 0.3369
vn 0.9474 0.3069 0.0914
vn 0.7787 -0.0904 0.6209
vn -0.8058 0.0693 0.5881
vn -0.7017 0.3069 0.6430
vn 0.8324 -0.5147 -0.2053
vn 0.9936 -0.0093 -0.1124
vn 0.1464 0.8871 0.4377
vn 0.3106 0.2046 0.9283
vn 0.8727 0.4876 -0.0245
vn -0.1773 0.8293 -0.5300
vn -0.7118 0.4876 0.5056
vn -0.0000 1.0000 -0.0000
vn 0.2443 -0.6382 0.7301
vn -0.2443 0.6382 -0.7301
vt 0.328990 0.969846
vt 0.500000 1.000000
vt 0.750000 0.000000
vt 0.805556 0.000000
vt 0.694444 0.000000
vt 0.671010 0.969846
vt 0.821394 0.883022
vt 0.638889 0.000000
vt 0.694444 1.000000
vt 0.638889 1.000000
vt 0.933013 0.750000
vt 0.992404 0.586824
vt 0.992404 0.413176
vt 0.933013 0.250000
vt 0.821394 0.116978
vt 0.671010 0.030154
vt 0.500000 0.000000
vt 0.328990 0.030154
vt 0.178606 0.116978
vt 0.066987 0.250000
vt 0.007596 0.413176
vt 0.007596 0.586824
vt 0.066987 0.750000
vt 0.178606 0.883022
vt 0.250000 0.000000
vt 0.305556 0.000000
vt 0.305556 1.000000
vt 0.361111 0.000000
vt 0.361111 1.000000
vt 0.250000 1.000000
vt 0.583333 0.000000
vt 0.583333 1.000000
vt 0.527778 0.000000
vt 0.527778 1.000000
vt 0.194444 1.000000
vt 0.138889 1.000000
vt 0.194444 0.000000
vt 0.138889 0.000000
vt 0.083333 0.000000
vt 0.027778 0.000000
vt 0.083333 1.000000
vt 0.027778 1.000000
vt 1.027778 1.000000
vt 0.972222 1.000000
vt 0.916667 1.000000
vt 0.916667 0.000000
vt 0.972222 0.000000
vt 1.027778 0.000000
vt 0.861111 0.000000
vt 0.861111 1.000000
vt 0.805556 1.000000
vt 0.750000 1.000000
vt 0.472222 0.000000
vt 0.472222 1.000000
vt 0.416667 0.000000
vt 0.416667 1.000000
vt 0.358174 0.000000
vt 0.641826 0.000000
vt 1.000000 0.139788
vt 0.860213 0.000000
vt 1.636909 0.000000
vt 0.641826 1.000000
vt 0.358174 1.000000
vt 1.636909 1.000000
vt 0.860213 1.000000
vt 0.139787 0.000000
vt 0.139787 1.000000
vt 0.000000 0.139788
vt 0.000000 0.860213
vt 1.000000 0.860213
vt -0.636909 1.000000
vt -0.636909 -0.000000
vt -0.248572 0.000000
vt -0.248572 1.000000
vt 1.000000 0.000000
vt 1.000000 0.250000
vt 1.000000 1.000000
vt 0.750000 1.000000
vt 0.000000 1.000000
vt 0.000000 0.000000
vt 1.000000 0.500000
vt 1.000000 0.750000
vt 0.000000 0.750000
vt 0.500000 0.000000
vt 0.500000 1.000000
vt 0.000000 0.500000
vt 0.250000 0.000000
vt 0.250000 1.000000
vt 0.000000 0.250000
vt 0.465050 1.000000
vt 0.447702 0.000000
vt 0.000000 0.231410
vt 1.000000 0.231410
s 1
f 2/1/1 1/2/2 4/2/3 127/1/4
f 1/3/5 2/4/5 130/4/5 3/3/5
f 5/5/6 1/3/6 3/3/6 8/5/6
f 1/2/2 5/6/7 9/6/8 4/2/3
f 5/6/7 6/7/9 11/7/10 9/6/8
f 6/8/11 5/5/12 7/9/12 54/10/13
f 7/9/6 5/5/6 8/5/6 142/9/6
f 4/2/14 9/6/14 10/6/14 126/2/14
f 9/6/15 11/7/15 12/7/15 10/6/15
f 11/7/16 13/11/16 15/11/16 12/7/16
f 6/7/9 14/11/17 13/11/18 11/7/10
f 14/11/17 17/12/19 16/12/19 13/11/18
f 13/11/20 16/12/20 18/12/20 15/11/20
f 17/12/19 20/13/21 19/13/21 16/12/19
f 16/12/22 19/13/22 22/13/22 18/12/22
f 20/13/21 156/14/23 21/14/24 19/13/21
f 19/13/25 21/14/25 23/14/25 22/13/25
f 10/6/26 12/7/27 15/11/28 18/12/29 22/13/29 23/14/30 24/15/31 25/16/32 152/17/26 150/18/33 148/19/34 146/20/35 121/21/36 120/22/37 122/23/38 123/24/39 125/1/34 126/2/40
f 21/14/41 26/15/41 24/15/41 23/14/41
f 26/15/42 28/16/42 25/16/42 24/15/42
f 27/15/43 30/16/44 28/16/45 26/15/46
f 156/14/23 27/15/43 26/15/46 21/14/24
f 28/16/47 29/17/47 152/17/47 25/16/47
f 30/16/44 31/17/48 29/17/49 28/16/45
f 31/25/50 30/26/50 32/26/50 95/25/50
f 30/26/50 33/27/50 36/27/50 32/26/50
f 30/26/51 27/28/52 35/29/52 33/27/51
f 34/17/53 33/16/54 37/16/55 38/17/56
f 33/27/50 34/30/50 84/30/50 36/27/50
f 33/16/54 35/15/57 40/15/58 37/16/55
f 38/17/47 37/16/47 39/16/47 80/17/47
f 37/16/42 40/15/42 42/15/42 39/16/42
f 35/15/57 155/14/59 41/14/60 40/15/58
f 40/15/41 41/14/41 43/14/41 42/15/41
f 58/2/61 60/1/62 62/24/63 64/23/64 65/22/65 72/21/65 76/20/66 77/19/67 78/18/68 80/17/69 39/16/70 42/15/71 43/14/69 44/13/69 45/12/69 52/11/71 55/7/72 56/6/73
f 41/14/25 46/13/25 44/13/25 43/14/25
f 46/13/22 48/12/22 45/12/22 44/13/22
f 47/13/74 49/12/75 48/12/75 46/13/74
f 155/14/59 47/13/74 46/13/74 41/14/60
f 49/12/75 53/11/76 50/11/77 48/12/75
f 48/12/20 50/11/20 52/11/20 45/12/20
f 50/11/78 51/7/78 55/7/78 52/11/78
f 53/11/76 54/7/79 51/7/80 50/11/77
f 14/31/81 6/8/11 54/10/13 53/32/81
f 17/33/82 14/31/81 53/32/81 49/34/82
f 54/7/79 7/6/83 57/6/84 51/7/80
f 51/7/85 57/6/85 56/6/85 55/7/85
f 57/6/86 59/2/86 58/2/86 56/6/86
f 59/2/87 61/1/87 60/1/87 58/2/87
f 61/1/88 63/24/88 62/24/88 60/1/88
f 63/24/89 66/23/89 64/23/89 62/24/89
f 66/23/90 68/22/90 65/22/90 64/23/90
f 67/23/91 69/22/92 68/22/93 66/23/94
f 141/24/95 67/23/91 66/23/94 63/24/96
f 69/22/92 71/21/97 70/21/75 68/22/93
f 68/22/98 70/21/98 72/21/98 65/22/98
f 71/21/97 74/20/99 73/20/100 70/21/75
f 70/21/101 73/20/101 76/20/101 72/21/101
f 74/20/99 82/19/102 75/19/103 73/20/100
f 73/20/104 75/19/104 77/19/104 76/20/104
f 75/19/105 79/18/105 78/18/105 77/19/105
f 79/18/106 38/17/106 80/17/106 78/18/106
f 82/19/102 81/18/107 79/18/108 75/19/103
f 81/18/107 34/17/53 38/17/56 79/18/108
f 81/35/109 82/36/109 85/36/109 83/35/109
f 34/30/110 81/35/110 83/35/110 84/30/110
f 84/30/111 83/35/111 86/35/111 87/30/111
f 83/35/111 85/36/111 88/36/111 86/35/111
f 89/37/112 91/25/113 87/30/113 86/35/112
f 90/38/114 89/37/112 86/35/112 88/36/114
f 94/38/115 92/37/115 89/37/115 90/38/115
f 92/37/115 95/25/115 91/25/115 89/37/115
f 93/37/110 31/25/110 95/25/110 92/37/110
f 96/38/109 93/37/109 92/37/109 94/38/109
f 95/25/115 32/26/115 153/26/115 91/25/115
f 98/39/116 96/38/116 94/38/116 97/39/116
f 97/39/115 94/38/115 90/38/115 100/39/115
f 116/40/117 98/39/117 97/39/117 99/40/117
f 99/40/115 97/39/115 100/39/115 101/40/115
f 101/40/118 100/39/119 102/41/119 103/42/118
f 100/39/119 90/38/114 88/36/114 102/41/119
f 85/36/111 104/41/111 102/41/111 88/36/111
f 104/41/111 105/42/111 103/42/111 102/41/111
f 74/41/117 71/42/117 105/42/117 104/41/117
f 82/36/116 74/41/116 104/41/116 85/36/116
f 71/43/120 69/44/120 106/44/120 105/43/120
f 105/43/111 106/44/111 108/44/111 103/43/111
f 106/44/111 107/45/121 109/45/122 108/44/111
f 69/44/123 67/45/123 107/45/123 106/44/123
f 111/46/124 110/47/125 108/44/125 109/45/126
f 110/47/125 101/48/118 103/43/118 108/44/125
f 113/46/127 112/47/115 110/47/115 111/46/128
f 112/47/115 99/48/115 101/48/115 110/47/115
f 115/46/129 114/47/129 112/47/129 113/46/129
f 114/47/120 116/48/120 99/48/120 112/47/120
f 114/22/130 115/23/131 119/23/132 117/22/133
f 116/21/19 114/22/130 117/22/133 118/21/19
f 118/21/98 117/22/98 120/22/98 121/21/98
f 117/22/134 119/23/134 122/23/134 120/22/134
f 119/23/135 124/24/135 123/24/135 122/23/135
f 124/24/136 127/1/136 125/1/136 123/24/136
f 127/1/87 4/2/87 126/2/87 125/1/87
f 128/24/137 2/1/1 127/1/4 124/24/138
f 115/23/131 128/24/137 124/24/138 119/23/132
f 2/4/139 128/49/139 129/49/139 130/4/139
f 128/49/140 115/46/140 113/46/140 129/49/140
f 130/4/141 129/49/142 131/49/143 132/4/141
f 129/49/142 113/46/127 111/46/128 131/49/143
f 132/4/144 131/49/145 133/50/146 135/51/147
f 131/49/145 111/46/124 109/45/126 133/50/146
f 107/45/121 134/50/148 133/50/149 109/45/122
f 134/50/148 137/51/150 135/51/150 133/50/149
f 145/3/151 132/4/144 135/51/147 136/52/151
f 137/51/150 138/52/111 136/52/111 135/51/150
f 141/50/152 139/51/152 137/51/152 134/50/152
f 139/51/5 140/52/5 138/52/5 137/51/5
f 140/2/153 139/1/154 61/1/155 59/2/156
f 139/1/154 141/24/95 63/24/96 61/1/155
f 67/45/140 141/50/140 134/50/140 107/45/140
f 7/6/83 140/2/153 59/2/156 57/6/84
f 140/52/6 7/9/6 142/9/6 138/52/6
f 138/52/111 142/9/111 143/9/111 136/52/111
f 142/9/157 8/5/157 144/5/157 143/9/157
f 144/5/158 145/3/151 136/52/151 143/9/158
f 8/5/115 3/3/115 145/3/115 144/5/115
f 3/3/115 130/4/141 132/4/141 145/3/115
f 147/20/101 118/21/101 121/21/101 146/20/101
f 149/19/104 147/20/104 146/20/104 148/19/104
f 151/18/105 149/19/105 148/19/105 150/18/105
f 29/17/106 151/18/106 150/18/106 152/17/106
f 31/17/48 93/18/159 151/18/160 29/17/49
f 93/18/159 96/19/161 149/19/162 151/18/160
f 96/19/161 98/20/163 147/20/164 149/19/162
f 98/20/163 116/21/19 118/21/19 147/20/164
f 91/25/113 153/26/165 154/27/165 87/30/113
f 32/26/166 36/27/166 154/27/166 153/26/166
f 36/27/111 84/30/111 87/30/111 154/27/111
f 20/53/167 17/33/82 49/34/82 47/54/167
f 156/55/168 20/53/167 47/54/167 155/56/168
f 27/28/52 156/55/168 155/56/168 35/29/52
f 158/57/169 157/58/169 160/58/169 219/57/169
f 157/57/170 158/58/170 163/58/170 161/57/170
f 157/58/171 159/59/171 229/59/171 160/58/171
f 159/60/172 157/61/172 161/61/172 162/60/172
f 162/60/115 161/61/115 164/61/115 167/60/115
f 161/57/115 163/58/115 165/58/115 164/57/115
f 164/57/173 165/58/173 198/62/173 166/63/173
f 166/64/174 169/65/174 167/60/174 164/61/174
f 232/66/175 162/60/175 167/60/175 168/66/175
f 168/66/176 167/60/176 169/65/176 170/67/176
f 171/65/177 173/67/177 170/67/177 169/65/177
f 172/64/111 171/65/111 169/65/111 166/64/111
f 175/64/178 174/65/178 171/65/178 172/64/178
f 174/65/179 176/67/180 173/67/179 171/65/180
f 174/68/181 175/57/182 178/57/183 177/68/181
f 176/69/184 174/68/184 177/68/184 179/69/184
f 177/68/185 178/57/185 182/57/185 180/68/185
f 179/69/186 177/68/186 180/68/186 181/69/186
f 180/68/187 182/57/188 183/58/189 238/59/187 235/70/190 237/63/191 181/69/190
f 182/57/192 178/57/192 187/57/192 184/57/192
f 183/58/193 182/57/193 184/57/193 185/58/193
f 185/58/194 184/57/194 186/57/195 191/58/194
f 184/57/196 187/57/196 189/57/196 186/57/197
f 178/57/198 192/58/198 188/58/198 187/57/198
f 187/57/199 188/58/199 190/58/199 189/57/199
f 189/57/200 190/58/200 191/58/200 186/57/200
f 188/58/201 185/58/202 191/58/201 190/58/202
f 192/58/203 183/58/204 185/58/203 188/58/204
f 175/57/205 194/58/205 192/58/205 178/57/205
f 192/58/206 193/59/206 238/59/206 183/58/206
f 194/58/207 195/59/208 193/59/207 192/58/207
f 194/62/170 175/63/170 172/63/170 196/62/170
f 195/67/209 194/71/209 196/71/209 197/67/209
f 197/67/111 196/71/111 198/71/111 199/67/111
f 196/62/111 172/63/111 166/63/111 198/62/111
f 165/72/210 200/66/210 199/67/210 198/71/210
f 202/65/211 197/67/211 199/67/211 201/65/211
f 200/66/212 203/60/212 201/65/212 199/67/212
f 204/60/213 202/65/213 201/65/213 203/60/213
f 205/66/214 204/60/214 203/60/214 200/66/214
f 207/66/215 206/60/215 204/60/215 205/66/215
f 206/60/216 209/65/216 202/65/216 204/60/216
f 206/69/217 207/68/217 212/68/217 210/69/217
f 208/62/218 206/69/218 210/69/218 211/62/218
f 206/73/219 208/58/220 233/62/220 209/74/219
f 211/62/221 210/69/222 213/69/223 214/62/224
f 210/69/225 212/68/225 215/68/225 213/69/225
f 217/58/226 227/59/227 228/70/228 214/62/229 213/69/228 215/68/227 216/57/226
f 212/68/230 219/57/231 216/57/232 215/68/231
f 217/58/233 216/57/233 218/57/233 226/58/233
f 216/57/234 219/57/235 220/57/235 218/57/234
f 207/68/236 158/57/237 219/57/236 212/68/236
f 219/57/238 160/58/238 221/58/238 220/57/238
f 220/57/239 221/58/239 223/58/239 222/57/239
f 218/57/240 220/57/240 222/57/240 224/57/240
f 222/57/241 223/58/241 225/58/241 224/57/241
f 226/58/242 218/57/242 224/57/242 225/58/242
f 221/58/243 226/58/243 225/58/243 223/58/243
f 160/58/244 217/58/244 226/58/244 221/58/244
f 160/58/245 229/59/245 227/59/245 217/58/245
f 229/59/246 230/70/246 228/70/246 227/59/246
f 159/59/247 231/70/248 230/70/249 229/59/249
f 230/70/250 211/62/251 214/62/251 228/70/250
f 231/70/252 208/62/252 211/62/252 230/70/252
f 176/67/253 231/66/253 232/66/253 173/67/253
f 208/72/220 231/66/254 176/67/254 233/71/220
f 231/66/255 159/60/255 162/60/255 232/66/255
f 173/67/256 232/66/256 168/66/256 170/67/256
f 209/70/257 233/63/258 236/63/259 234/70/259
f 195/59/260 209/70/261 234/70/260 193/59/260
f 209/65/262 195/67/263 197/67/263 202/65/263
f 193/59/264 234/70/265 235/70/265 238/59/265
f 234/70/266 236/63/266 237/63/266 235/70/266
f 233/63/267 176/69/267 179/69/267 236/63/267
f 236/63/268 179/69/268 181/69/269 237/63/270
f 158/72/271 207/66/271 205/66/271 163/72/271
f 163/72/115 205/66/115 200/66/115 165/72/115
f 239/75/272 240/76/272 244/76/272 242/75/272
f 240/3/273 239/75/115 241/77/115 262/78/274
f 241/79/275 239/80/275 242/80/275 243/79/275
f 240/76/272 246/81/272 245/81/272 244/76/272
f 246/81/272 248/82/272 247/82/272 245/81/272
f 248/82/272 250/77/272 249/77/272 247/82/272
f 250/75/276 252/77/276 251/77/276 249/75/276
f 252/77/276 255/79/276 253/79/276 251/77/276
f 255/79/276 256/80/276 254/80/276 253/79/276
f 260/83/277 257/82/277 255/77/278 252/79/278
f 258/3/279 256/75/280 255/77/280 257/78/281
f 272/84/282 258/3/279 257/78/281 259/85/283
f 261/86/284 259/81/285 257/82/277 260/83/277
f 248/87/286 246/84/287 261/85/288 260/88/286
f 250/80/289 248/87/286 260/88/286 252/79/290
f 246/84/287 240/3/273 262/78/274 261/85/288
f 262/89/291 263/76/291 259/81/285 261/86/284
f 241/80/292 265/75/292 263/76/291 262/89/291
f 264/87/293 272/84/282 259/85/283 263/88/293
f 267/80/111 264/87/293 263/88/293 265/79/111
f 265/77/275 241/79/275 243/79/275 266/77/275
f 267/75/275 265/77/275 266/77/275 268/75/275
f 264/89/272 267/80/272 268/80/272 269/89/272
f 272/86/272 264/89/272 269/89/272 270/86/272
f 258/83/272 272/86/272 270/86/272 271/83/272
f 256/79/272 258/83/272 271/83/272 254/79/272
f 274/75/294 273/80/294 276/80/294 277/75/294
f 273/80/111 274/75/111 286/77/111 275/79/111
f 273/80/295 275/79/295 278/79/295 276/80/295
f 275/79/296 281/79/296 279/79/296 278/79/296
f 281/79/297 282/79/297 280/79/297 279/79/297
f 275/79/298 283/79/298 281/79/298
f 283/79/299 284/79/300 282/79/299 281/79/299
f 275/79/301 286/77/301 285/77/301 283/79/301
f 285/77/302 284/79/302 283/79/302
f 286/79/303 291/85/304 288/85/305 285/79/305
f 284/79/306 285/77/306 287/77/306 311/79/306
f 285/79/307 288/85/307 290/90/307 287/79/307
f 289/79/307 310/79/307 290/90/307 288/85/307
f 292/79/303 289/79/305 288/85/305 291/85/304
f 274/80/308 293/84/308 291/85/304 286/79/303
f 295/80/308 292/79/303 291/85/304 293/84/308
f 293/84/309 274/80/309 277/80/309 294/91/309
f 293/84/309 294/91/309 297/80/309 295/80/309
f 295/75/310 297/75/310 298/80/310 296/80/310
f 296/80/115 301/79/115 292/77/115 295/75/115
f 296/80/311 298/80/311 299/79/311 301/79/311
f 301/79/312 299/79/312 300/79/312 303/79/312
f 301/79/313 302/79/313 289/77/313 292/77/313
f 301/79/314 303/79/314 302/79/314
f 302/79/315 303/79/315 304/79/315 305/79/316
f 303/79/317 300/79/317 306/79/317 304/79/317
f 304/79/318 307/79/318 305/79/318
f 304/79/319 306/79/319 308/79/319 307/79/319
f 307/79/320 308/79/320 309/79/320 305/79/320
f 305/79/321 309/79/321 310/77/321 289/77/321
f 289/77/322 302/79/322 305/79/322
f 313/79/323 284/79/323 311/79/323 312/79/323
f 282/79/324 313/79/324 312/79/324 280/79/324
f 282/79/325 284/79/325 313/79/325
f 314/75/115 315/77/115 359/77/115 316/75/115
f 315/80/115 314/75/115 319/77/115 320/79/115
f 318/75/115 314/75/115 316/75/115 353/75/115
f 317/80/170 314/75/170 318/75/170 348/80/170
f 314/80/170 317/75/170 322/77/170 319/79/170
f 320/79/115 319/80/115 321/80/115 326/79/115
f 319/80/170 322/75/170 324/75/170 321/80/170
f 317/80/111 335/75/111 323/77/111 322/79/111
f 322/75/111 323/77/111 325/77/111 324/75/111
f 321/80/285 324/75/285 325/77/285 326/79/285
f 325/77/326 323/77/326 330/77/326 327/77/326
f 326/79/326 325/77/326 327/77/326 328/79/326
f 328/79/327 327/77/327 329/77/327 334/79/327
f 327/77/328 330/77/328 332/77/328 329/77/328
f 323/77/326 320/79/326 331/79/326 330/77/326
f 330/77/329 331/79/329 333/79/329 332/77/329
f 332/77/326 333/79/326 334/79/326 329/77/326
f 331/79/330 328/79/330 334/79/330 333/79/330
f 320/79/326 326/79/326 328/79/326 331/79/326
f 335/80/331 315/75/331 320/77/331 323/79/331
f 335/79/111 317/80/111 339/80/111 337/79/111
f 315/77/331 335/79/331 336/79/331 350/77/331
f 336/79/111 335/79/111 337/79/111 340/79/111
f 340/79/170 337/79/170 338/79/170 341/79/170
f 337/79/272 339/80/272 347/80/272 338/79/272
f 342/92/332 340/79/332 341/79/332 345/92/332
f 343/92/111 336/79/111 340/79/111 342/92/111
f 348/80/111 343/92/111 342/92/111 344/80/111
f 344/80/285 342/92/285 345/92/285 346/80/285
f 338/79/111 347/80/111 346/80/111 345/92/111 341/79/111
f 339/80/331 344/80/331 346/80/331 347/80/331
f 317/80/111 348/80/111 344/80/111 339/80/111
f 318/75/272 349/93/272 343/92/272 348/80/272
f 349/93/333 350/77/333 336/79/333 343/92/333
f 349/93/115 318/75/115 353/75/115 351/93/115
f 350/77/115 349/93/115 351/93/115 352/77/115
f 352/77/332 351/93/332 354/93/332 355/77/332
f 351/93/285 353/75/285 356/75/285 354/93/285
f 357/75/115 358/77/115 355/77/115 354/93/115 356/75/115
f 353/75/331 316/75/331 357/75/331 356/75/331
f 316/75/272 359/77/272 358/77/272 357/75/272
f 359/77/170 352/77/170 355/77/170 358/77/170
f 315/77/115 350/77/115 352/77/115 359/77/115
