# Blender 4.2.3 LTS
# www.blender.org
mtllib leftForearm.mtl
o Robot_Left_Forearm
v 1.524647 3.053618 -0.387166
v 1.896419 3.053618 -0.387166
v 1.545110 3.053618 -0.348639
v 1.516710 3.053618 -0.372223
v 1.473913 3.308378 -0.387166
v 1.451001 3.563138 -0.387166
v 1.947153 3.308378 -0.387166
v 1.463810 3.308667 -0.372222
v 1.439920 3.563716 -0.372222
v 1.463810 3.308667 -0.020665
v 1.439920 3.563716 -0.020665
v 1.473913 3.308378 -0.005722
v 1.516710 3.053618 -0.020665
v 1.537173 3.053618 -0.059192
v 1.524647 3.053618 -0.005722
v 1.896419 3.053618 -0.005722
v 1.545110 3.053618 -0.044248
v 1.537173 3.065825 -0.044248
v 1.875956 3.053618 -0.044248
v 1.883893 3.065825 -0.044248
v 1.883893 3.053618 -0.059192
v 1.883893 3.053618 -0.333696
v 1.904356 3.053618 -0.020665
v 1.904356 3.053618 -0.372223
v 1.957257 3.308667 -0.020665
v 1.957257 3.308667 -0.372222
v 1.981147 3.563716 -0.020665
v 1.947153 3.308378 -0.005722
v 1.970065 3.563138 -0.005722
v 1.962927 3.817898 -0.005722
v 1.451001 3.563138 -0.005722
v 1.458140 3.817898 -0.005722
v 1.448441 3.827311 -0.016288
v 1.487255 3.926739 -0.005721
v 1.447363 3.818765 -0.020665
v 1.447363 3.818765 -0.372222
v 1.458140 3.817898 -0.387166
v 1.448441 3.827311 -0.376599
v 1.477562 3.930906 -0.372222
v 1.451293 3.849922 -0.348639
v 1.477562 3.930906 -0.348639
v 1.451293 3.849922 -0.044248
v 1.574855 3.829927 -0.348639
v 1.587602 3.883601 -0.348639
v 1.574855 3.829927 -0.044248
v 1.587602 3.883601 -0.044248
v 1.477562 3.930906 -0.044248
v 1.599822 3.911031 -0.044248
v 1.599822 3.911031 -0.348639
v 1.517254 4.011007 -0.044248
v 1.622476 3.925828 -0.044248
v 1.583408 4.059068 -0.044248
v 1.684300 3.934056 -0.044248
v 1.622476 3.925828 -0.348639
v 1.583408 4.059068 -0.348639
v 1.684300 3.934056 -0.348639
v 1.676022 4.075088 -0.348639
v 1.736767 3.934056 -0.348639
v 1.745044 4.075088 -0.348639
v 1.736767 3.934056 -0.044248
v 1.798591 3.925828 -0.348639
v 1.798591 3.925828 -0.044248
v 1.837659 4.059068 -0.348639
v 1.821244 3.911031 -0.348639
v 1.821244 3.911031 -0.044248
v 1.903812 4.011007 -0.348639
v 1.833465 3.883601 -0.348639
v 1.943504 3.930906 -0.348639
v 1.833465 3.883601 -0.044248
v 1.846212 3.829927 -0.348639
v 1.969774 3.849922 -0.348639
v 1.846212 3.829927 -0.044248
v 1.969774 3.849922 -0.044248
v 1.972626 3.827311 -0.016288
v 1.943504 3.930906 -0.044248
v 1.903812 4.011007 -0.044248
v 1.943504 3.930906 -0.020665
v 1.903812 4.011007 -0.020665
v 1.933812 3.926739 -0.005721
v 1.896464 4.002110 -0.005721
v 1.834218 4.047332 -0.005721
v 1.744328 4.062881 -0.005721
v 1.837659 4.059068 -0.020665
v 1.745044 4.075088 -0.020665
v 1.837659 4.059068 -0.044248
v 1.745044 4.075088 -0.044248
v 1.676022 4.075088 -0.044248
v 1.676022 4.075088 -0.020665
v 1.583408 4.059068 -0.020665
v 1.676739 4.062881 -0.005721
v 1.586849 4.047332 -0.005721
v 1.524603 4.002110 -0.005721
v 1.517254 4.011007 -0.020665
v 1.477562 3.930906 -0.020665
v 1.973703 3.818765 -0.020665
v 1.973703 3.818765 -0.372222
v 1.962927 3.817898 -0.387166
v 1.972626 3.827311 -0.376599
v 1.981147 3.563716 -0.372222
v 1.970065 3.563138 -0.387166
v 1.943504 3.930906 -0.372222
v 1.903812 4.011007 -0.372222
v 1.933812 3.926739 -0.387166
v 1.896464 4.002110 -0.387166
v 1.834218 4.047332 -0.387166
v 1.837659 4.059068 -0.372222
v 1.744328 4.062881 -0.387166
v 1.676739 4.062881 -0.387166
v 1.745044 4.075088 -0.372222
v 1.676022 4.075088 -0.372222
v 1.583408 4.059068 -0.372222
v 1.517254 4.011007 -0.372222
v 1.586849 4.047332 -0.387166
v 1.524603 4.002110 -0.387166
v 1.487255 3.926739 -0.387166
v 1.517254 4.011007 -0.348639
v 1.875956 3.053618 -0.348639
v 1.883893 3.065825 -0.348639
v 1.931208 3.249734 -0.348639
v 1.489858 3.249734 -0.348639
v 1.931208 3.249734 -0.044248
v 1.489858 3.249734 -0.044248
v 1.537173 3.065825 -0.348639
v 1.537173 3.053618 -0.333696
v 1.695928 4.079458 -0.031148
v 1.695928 4.164334 -0.043563
v 1.663447 4.157873 -0.043563
v 1.635911 4.139475 -0.043563
v 1.617512 4.111938 -0.043563
v 1.611051 4.079458 -0.043563
v 1.617512 4.046977 -0.043563
v 1.635911 4.019441 -0.043563
v 1.663447 4.001042 -0.043563
v 1.695928 3.994581 -0.043563
v 1.728408 4.001042 -0.043563
v 1.755944 4.019441 -0.043563
v 1.774343 4.046977 -0.043563
v 1.780804 4.079458 -0.043563
v 1.774343 4.111938 -0.043563
v 1.755944 4.139475 -0.043563
v 1.728408 4.157873 -0.043563
v 1.755944 4.224351 -0.078918
v 1.695928 4.236289 -0.078918
v 1.806824 4.190354 -0.078918
v 1.774343 4.268770 -0.131831
v 1.695928 4.284368 -0.131831
v 1.840821 4.224351 -0.131831
v 1.780804 4.284368 -0.194246
v 1.695928 4.301250 -0.194246
v 1.852759 4.236289 -0.194246
v 1.774343 4.268770 -0.256660
v 1.695928 4.284368 -0.256660
v 1.840821 4.224351 -0.256660
v 1.755944 4.224351 -0.309573
v 1.695928 4.236289 -0.309573
v 1.806824 4.190354 -0.309573
v 1.728408 4.157873 -0.344928
v 1.695928 4.164334 -0.344928
v 1.755944 4.139475 -0.344928
v 1.695928 4.079458 -0.357343
v 1.695928 3.994581 -0.344928
v 1.728408 4.001042 -0.344928
v 1.663447 4.157873 -0.344928
v 1.755944 4.019441 -0.344928
v 1.635911 4.139475 -0.344928
v 1.774343 4.046977 -0.344928
v 1.617512 4.111938 -0.344928
v 1.780804 4.079458 -0.344928
v 1.611051 4.079458 -0.344928
v 1.774343 4.111938 -0.344928
v 1.617512 4.046977 -0.344928
v 1.635911 4.019441 -0.344928
v 1.663447 4.001042 -0.344928
v 1.635911 3.934565 -0.309573
v 1.585031 3.968561 -0.309573
v 1.617512 3.890146 -0.256661
v 1.695928 3.922627 -0.309573
v 1.695928 3.874548 -0.256661
v 1.755944 3.934565 -0.309573
v 1.774343 3.890146 -0.256661
v 1.806824 3.968561 -0.309573
v 1.840821 4.019441 -0.309573
v 1.840821 3.934565 -0.256661
v 1.852759 3.922627 -0.194246
v 1.885240 4.001042 -0.256660
v 1.900838 3.994581 -0.194246
v 1.900838 4.079458 -0.256660
v 1.917720 4.079458 -0.194246
v 1.885239 4.157874 -0.256660
v 1.852759 4.079458 -0.309573
v 1.840821 4.139475 -0.309573
v 1.900837 4.164334 -0.194246
v 1.885239 4.157874 -0.131831
v 1.900838 4.079458 -0.131831
v 1.840821 4.139475 -0.078918
v 1.852759 4.079458 -0.078918
v 1.840821 4.019441 -0.078918
v 1.806824 3.968561 -0.078918
v 1.885240 4.001042 -0.131831
v 1.840821 3.934565 -0.131831
v 1.774343 3.890146 -0.131831
v 1.695928 3.874548 -0.131831
v 1.755944 3.934565 -0.078919
v 1.780804 3.874548 -0.194246
v 1.695928 3.857665 -0.194246
v 1.611051 3.874548 -0.194246
v 1.539096 3.922627 -0.194246
v 1.617512 3.890146 -0.131831
v 1.551034 3.934565 -0.131831
v 1.635911 3.934565 -0.078919
v 1.585031 3.968561 -0.078918
v 1.695928 3.922627 -0.078919
v 1.551034 4.019441 -0.078918
v 1.539096 4.079458 -0.078918
v 1.506616 4.001042 -0.131831
v 1.491018 4.079458 -0.131831
v 1.491018 3.994581 -0.194246
v 1.474135 4.079458 -0.194246
v 1.506616 4.001042 -0.256660
v 1.491018 4.079458 -0.256660
v 1.551034 3.934565 -0.256661
v 1.551034 4.019441 -0.309573
v 1.539096 4.079458 -0.309573
v 1.551035 4.139475 -0.309573
v 1.585031 4.190354 -0.309573
v 1.506616 4.157873 -0.256660
v 1.551035 4.224351 -0.256660
v 1.491018 4.164334 -0.194246
v 1.539096 4.236289 -0.194246
v 1.506616 4.157873 -0.131831
v 1.551035 4.224351 -0.131831
v 1.551035 4.139475 -0.078918
v 1.585031 4.190354 -0.078918
v 1.635911 4.224351 -0.078918
v 1.617512 4.268770 -0.131831
v 1.611051 4.284368 -0.194246
v 1.617512 4.268770 -0.256660
v 1.635911 4.224351 -0.309573
vn -0.0000 -0.0000 -1.0000
vn -0.0000 -1.0000 -0.0000
vn -0.8314 -0.1236 -0.5418
vn -0.8449 -0.1719 -0.5066
vn -0.8449 -0.1718 -0.5066
vn -0.8116 -0.0258 -0.5837
vn -0.8116 -0.0259 -0.5837
vn -0.9889 -0.1484 -0.0000
vn -0.9792 -0.2031 -0.0000
vn -0.9995 -0.0321 -0.0000
vn -0.8116 -0.0257 0.5837
vn -0.8314 -0.1234 0.5418
vn -0.8314 -0.1235 0.5417
vn -0.8116 -0.0260 0.5836
vn -0.8449 -0.1717 0.5066
vn -0.0000 -0.0000 1.0000
vn 0.7659 0.4980 -0.4068
vn -0.7659 0.4979 -0.4068
vn -0.9490 0.2442 0.1994
vn -0.9654 0.2406 0.1002
vn -0.9654 0.2406 -0.1002
vn -0.9490 0.2441 -0.1994
vn 0.9889 -0.1484 -0.0000
vn 0.9792 -0.2031 -0.0000
vn 0.8314 -0.1236 0.5418
vn 0.8448 -0.1718 0.5067
vn 0.9995 -0.0321 -0.0000
vn 0.8116 -0.0259 0.5837
vn 0.8086 -0.0836 0.5823
vn 0.7870 0.0146 0.6167
vn -0.7856 0.0151 0.6186
vn -0.8086 -0.0836 0.5823
vn -0.7746 0.0110 0.6324
vn -0.7254 0.2881 0.6252
vn -0.9956 0.0932 -0.0000
vn -0.9774 0.2078 -0.0380
vn -0.9774 0.2092 0.0311
vn -0.9832 0.1813 0.0208
vn -0.9833 0.1803 -0.0253
vn -0.8086 -0.0836 -0.5823
vn -0.7871 0.0146 -0.6167
vn -0.7768 0.0103 -0.6297
vn -0.7278 0.2873 -0.6227
vn -0.9291 0.3679 -0.0380
vn -0.9291 0.3678 -0.0377
vn 0.1597 0.9872 -0.0000
vn -0.9473 0.3204 -0.0000
vn -0.9729 0.2311 -0.0000
vn -0.9134 0.4070 -0.0000
vn -0.3480 0.9375 -0.0000
vn -0.5469 0.8372 -0.0000
vn -0.0661 0.9978 -0.0000
vn 0.0661 0.9978 -0.0000
vn 0.3480 0.9375 -0.0000
vn 0.5469 0.8372 -0.0000
vn 0.9473 0.3204 -0.0000
vn 0.9134 0.4070 -0.0000
vn 0.9729 0.2311 -0.0000
vn -0.1597 0.9872 -0.0000
vn 0.9774 0.2078 0.0380
vn 0.9956 0.0932 -0.0000
vn 0.9774 0.2092 -0.0311
vn 0.9832 0.1813 -0.0208
vn 0.9833 0.1804 0.0253
vn 0.9291 0.3678 0.0379
vn 0.9291 0.3678 0.0376
vn 0.7640 0.6452 -0.0000
vn 0.6105 0.5115 0.6047
vn 0.7278 0.2873 0.6227
vn 0.7768 0.0103 0.6297
vn 0.3037 0.7141 0.6308
vn 0.0661 0.7712 0.6332
vn 0.0665 0.7712 0.6332
vn 0.0855 0.9963 -0.0000
vn 0.3892 0.9211 -0.0000
vn -0.0855 0.9963 -0.0000
vn -0.3892 0.9211 -0.0000
vn -0.3037 0.7141 0.6308
vn -0.0663 0.7712 0.6332
vn -0.0662 0.7712 0.6332
vn -0.6105 0.5115 0.6047
vn -0.7640 0.6452 -0.0000
vn -0.9288 0.3692 0.0312
vn 0.8116 -0.0260 -0.5836
vn 0.7856 0.0151 -0.6186
vn 0.8086 -0.0836 -0.5823
vn 0.8116 -0.0259 -0.5836
vn 0.7746 0.0110 -0.6324
vn 0.8314 -0.1234 -0.5418
vn 0.8314 -0.1235 -0.5417
vn 0.9288 0.3692 -0.0312
vn 0.7254 0.2881 -0.6252
vn 0.6105 0.5115 -0.6047
vn 0.3037 0.7141 -0.6308
vn 0.0664 0.7712 -0.6332
vn 0.0660 0.7712 -0.6332
vn -0.0662 0.7712 -0.6332
vn -0.0663 0.7712 -0.6332
vn -0.3037 0.7141 -0.6308
vn -0.6105 0.5115 -0.6047
vn 0.8450 -0.1717 -0.5065
vn 0.8449 -0.1717 -0.5066
vn -0.7659 0.4979 0.4068
vn 0.9490 0.2442 -0.1994
vn 0.9654 0.2406 -0.1002
vn 0.9654 0.2406 0.1002
vn 0.9490 0.2441 0.1994
vn 0.7659 0.4980 0.4068
vn -0.0000 0.2962 0.9551
vn -0.1134 0.2737 0.9551
vn 0.1133 0.2737 0.9551
vn -0.2094 0.2094 0.9551
vn -0.2737 0.1134 0.9551
vn -0.2962 -0.0000 0.9551
vn -0.2737 -0.1134 0.9551
vn -0.2094 -0.2094 0.9551
vn -0.1134 -0.2737 0.9551
vn -0.0000 -0.2962 0.9551
vn 0.1134 -0.2737 0.9551
vn 0.2094 -0.2094 0.9551
vn 0.2737 -0.1134 0.9551
vn 0.2962 -0.0000 0.9551
vn 0.2737 0.1134 0.9551
vn 0.2094 0.2094 0.9551
vn 0.2299 0.5549 0.7995
vn -0.0000 0.6007 0.7995
vn 0.4247 0.4247 0.7995
vn 0.3355 0.8100 0.4810
vn -0.0000 0.8767 0.4810
vn 0.6199 0.6199 0.4810
vn 0.3827 0.9239 -0.0000
vn -0.0000 1.0000 -0.0000
vn 0.7071 0.7071 -0.0000
vn 0.3355 0.8100 -0.4810
vn -0.0000 0.8767 -0.4810
vn 0.6200 0.6200 -0.4810
vn 0.2299 0.5549 -0.7995
vn -0.0000 0.6007 -0.7995
vn 0.4247 0.4247 -0.7995
vn 0.1133 0.2737 -0.9551
vn -0.0000 0.2962 -0.9551
vn 0.2094 0.2094 -0.9551
vn -0.0000 -0.2962 -0.9551
vn -0.1134 -0.2737 -0.9551
vn 0.1133 -0.2737 -0.9551
vn -0.1134 0.2737 -0.9551
vn 0.2094 -0.2094 -0.9551
vn -0.2095 0.2094 -0.9551
vn 0.2737 -0.1133 -0.9551
vn -0.2737 0.1133 -0.9551
vn 0.2962 -0.0000 -0.9551
vn -0.2962 -0.0000 -0.9551
vn 0.2737 0.1134 -0.9551
vn -0.2737 -0.1134 -0.9551
vn -0.2094 -0.2094 -0.9551
vn -0.4247 -0.4247 -0.7995
vn -0.2299 -0.5549 -0.7995
vn -0.0000 -0.6007 -0.7995
vn -0.6200 -0.6200 -0.4810
vn -0.3355 -0.8100 -0.4810
vn -0.0000 -0.8767 -0.4810
vn 0.2299 -0.5549 -0.7995
vn 0.3355 -0.8100 -0.4810
vn 0.4247 -0.4247 -0.7995
vn 0.6200 -0.6200 -0.4810
vn 0.5549 -0.2299 -0.7995
vn 0.8100 -0.3355 -0.4810
vn 0.3827 -0.9239 -0.0000
vn 0.7071 -0.7071 -0.0000
vn 0.9239 -0.3827 -0.0000
vn 0.8767 -0.0000 -0.4810
vn 1.0000 -0.0000 -0.0000
vn 0.6007 -0.0000 -0.7995
vn 0.8100 0.3355 -0.4810
vn 0.9239 0.3827 -0.0000
vn 0.5549 0.2299 -0.7995
vn 0.8767 -0.0000 0.4810
vn 0.8100 0.3355 0.4810
vn 0.6007 -0.0000 0.7995
vn 0.5549 0.2298 0.7995
vn 0.5549 -0.2299 0.7995
vn 0.8100 -0.3355 0.4810
vn 0.4247 -0.4247 0.7995
vn 0.6200 -0.6200 0.4810
vn 0.2299 -0.5549 0.7995
vn 0.3355 -0.8100 0.4810
vn -0.0000 -0.6007 0.7995
vn -0.0000 -0.8767 0.4810
vn -0.3827 -0.9239 -0.0000
vn -0.3355 -0.8100 0.4810
vn -0.6199 -0.6200 0.4810
vn -0.7071 -0.7071 -0.0000
vn -0.4247 -0.4247 0.7995
vn -0.2299 -0.5549 0.7995
vn -0.5549 -0.2299 0.7995
vn -0.8100 -0.3355 0.4810
vn -0.6007 -0.0000 0.7995
vn -0.8767 -0.0000 0.4810
vn -1.0000 -0.0000 -0.0000
vn -0.9239 -0.3827 -0.0000
vn -0.8767 -0.0000 -0.4810
vn -0.8100 -0.3355 -0.4810
vn -0.6007 -0.0000 -0.7995
vn -0.5549 -0.2299 -0.7995
vn -0.8100 0.3355 -0.4810
vn -0.5549 0.2298 -0.7995
vn -0.6200 0.6200 -0.4810
vn -0.4247 0.4247 -0.7995
vn -0.7071 0.7071 -0.0000
vn -0.9239 0.3827 -0.0000
vn -0.6199 0.6199 0.4810
vn -0.8100 0.3355 0.4810
vn -0.4247 0.4247 0.7995
vn -0.5549 0.2299 0.7995
vn -0.2299 0.5549 0.7995
vn -0.3355 0.8100 0.4810
vn -0.3827 0.9239 -0.0000
vn -0.3355 0.8100 -0.4810
vn -0.2299 0.5549 -0.7995
vt 0.020475 0.264686
vt 0.020475 0.000000
vt 0.979525 0.000000
vt 0.979525 0.263703
vt 0.977108 0.000000
vt 0.022892 0.000000
vt 0.000000 0.039176
vt 0.000000 0.049092
vt 0.734093 0.029041
vt 1.000719 0.006251
vt 1.000000 0.039176
vt 0.734564 0.039176
vt 0.469128 0.039176
vt 0.467468 0.051831
vt 0.979525 0.527406
vt 0.020475 0.529371
vt 1.000000 0.960824
vt 0.734564 0.960824
vt 0.469128 0.960824
vt 0.734093 0.970959
vt 0.467468 0.948169
vt 1.000719 0.993749
vt 0.020475 1.000000
vt 0.000000 0.960824
vt 0.000000 0.950908
vt 0.022892 1.000000
vt 0.020475 0.264380
vt 0.979525 1.000000
vt 0.977108 1.000000
vt 0.000000 1.000000
vt 1.000000 1.000000
vt 1.000000 0.950908
vt 1.000000 0.000000
vt 1.000000 0.049092
vt 0.265436 0.960824
vt 0.265436 0.039176
vt 0.265907 0.970959
vt -0.000719 0.993749
vt 0.530872 0.039176
vt 0.530872 0.960824
vt 0.532532 0.948169
vt 0.020475 0.528760
vt 0.020475 0.793140
vt 0.979525 0.791108
vt 0.796308 0.960824
vt 0.799158 0.925379
vt 0.200842 0.925379
vt 0.203692 0.960824
vt 0.020567 0.796587
vt 0.046554 0.881260
vt 0.047433 0.882612
vt 0.248199 1.010983
vt 0.203692 1.000000
vt 0.953446 0.878989
vt 0.877598 0.939394
vt 0.751185 0.975585
vt 0.568632 0.988049
vt 0.431368 0.988615
vt 0.248815 0.977373
vt 0.122402 0.941547
vt 0.203692 0.039176
vt 0.203692 0.000000
vt 0.200842 0.074621
vt 0.248199 -0.010983
vt 0.953260 0.876315
vt 0.980025 0.791701
vt -0.220033 0.000000
vt -0.220033 1.000000
vt -0.643757 1.000000
vt -0.643757 0.000000
vt -1.067482 0.000000
vt -1.067482 1.000000
vt -1.491207 1.000000
vt -1.491207 0.000000
vt 0.429913 0.000000
vt 0.570087 0.000000
vt 0.570087 1.000000
vt 0.429913 1.000000
vt 0.145801 0.000000
vt 0.145801 1.000000
vt -0.138310 0.000000
vt -0.138310 1.000000
vt -0.422421 0.000000
vt -0.422421 1.000000
vt -0.706532 0.000000
vt -0.706532 1.000000
vt -0.706532 0.960825
vt -0.706532 0.039176
vt 0.870042 0.959420
vt 0.950175 0.893232
vt 0.744519 1.010838
vt 0.879149 0.971012
vt 0.564827 1.025309
vt 0.752182 1.014518
vt 0.251886 1.020136
vt 0.438834 1.026245
vt 0.431776 1.027937
vt 0.571950 1.026190
vt 0.122678 0.977678
vt 0.257338 1.015717
vt 0.050576 0.899967
vt 0.130697 0.965433
vt -0.751039 1.010984
vt 0.796308 0.039176
vt 0.532532 0.051831
vt 0.799158 0.074621
vt -0.751039 -0.010983
vt 0.265907 0.029041
vt 0.020475 0.794057
vt 0.022612 0.797980
vt 0.046554 0.881575
vt 0.049828 0.882464
vt 0.051372 0.901023
vt 0.122402 0.941717
vt 0.131480 0.965723
vt 0.568632 0.988508
vt 0.431368 0.989238
vt 0.248815 0.977584
vt 0.122451 0.978109
vt 0.257108 1.016370
vt 0.250746 1.020632
vt 0.437808 1.028054
vt 0.432315 1.029624
vt 0.572489 1.027371
vt 0.566031 1.026712
vt 0.753519 1.014382
vt -0.000719 0.006251
vt 0.000000 0.000000
vt 0.000000 0.875000
vt 0.062500 0.875000
vt 0.937500 1.000000
vt 0.937500 0.875000
vt 1.000000 0.875000
vt 0.062500 1.000000
vt 0.125000 0.875000
vt 0.125000 1.000000
vt 0.187500 0.875000
vt 0.187500 1.000000
vt 0.250000 0.875000
vt 0.250000 1.000000
vt 0.312500 0.875000
vt 0.312500 1.000000
vt 0.375000 0.875000
vt 0.375000 1.000000
vt 0.437500 0.875000
vt 0.437500 1.000000
vt 0.500000 0.875000
vt 0.500000 1.000000
vt 0.562500 0.875000
vt 0.562500 1.000000
vt 0.625000 0.875000
vt 0.625000 1.000000
vt 0.687500 0.875000
vt 0.687500 1.000000
vt 0.750000 0.875000
vt 0.750000 1.000000
vt 0.812500 0.875000
vt 0.812500 1.000000
vt 0.875000 0.875000
vt 0.875000 1.000000
vt 0.937500 0.750000
vt 1.000000 0.750000
vt 0.875000 0.750000
vt 0.937500 0.625000
vt 1.000000 0.625000
vt 0.875000 0.625000
vt 0.937500 0.500000
vt 1.000000 0.500000
vt 0.875000 0.500000
vt 0.937500 0.375000
vt 1.000000 0.375000
vt 0.875000 0.375000
vt 0.937500 0.250000
vt 1.000000 0.250000
vt 0.875000 0.250000
vt 0.937500 0.125000
vt 1.000000 0.125000
vt 0.875000 0.125000
vt 0.937500 0.000000
vt 0.875000 0.000000
vt 0.437500 0.000000
vt 0.500000 0.125000
vt 0.437500 0.125000
vt 0.500000 0.000000
vt 0.562500 0.125000
vt 0.000000 0.000000
vt 0.062500 0.125000
vt 0.000000 0.125000
vt 0.562500 0.000000
vt 0.625000 0.125000
vt 0.062500 0.000000
vt 0.125000 0.125000
vt 0.625000 0.000000
vt 0.687500 0.125000
vt 0.125000 0.000000
vt 0.187500 0.125000
vt 0.687500 0.000000
vt 0.750000 0.125000
vt 0.187500 0.000000
vt 0.250000 0.125000
vt 0.750000 0.000000
vt 0.812500 0.125000
vt 0.250000 0.000000
vt 0.312500 0.125000
vt 0.812500 0.000000
vt 0.312500 0.000000
vt 0.375000 0.125000
vt 0.375000 0.000000
vt 0.375000 0.250000
vt 0.437500 0.250000
vt 0.500000 0.250000
vt 0.375000 0.375000
vt 0.437500 0.375000
vt 0.500000 0.375000
vt 0.562500 0.250000
vt 0.562500 0.375000
vt 0.625000 0.250000
vt 0.625000 0.375000
vt 0.687500 0.250000
vt 0.687500 0.375000
vt 0.562500 0.500000
vt 0.625000 0.500000
vt 0.687500 0.500000
vt 0.750000 0.375000
vt 0.750000 0.500000
vt 0.750000 0.250000
vt 0.812500 0.375000
vt 0.812500 0.500000
vt 0.812500 0.250000
vt 0.750000 0.625000
vt 0.812500 0.625000
vt 0.750000 0.750000
vt 0.812500 0.750000
vt 0.687500 0.750000
vt 0.687500 0.625000
vt 0.625000 0.750000
vt 0.625000 0.625000
vt 0.562500 0.750000
vt 0.562500 0.625000
vt 0.500000 0.750000
vt 0.500000 0.625000
vt 0.500000 0.500000
vt 0.437500 0.500000
vt 0.437500 0.625000
vt 0.375000 0.625000
vt 0.375000 0.500000
vt 0.375000 0.750000
vt 0.437500 0.750000
vt 0.312500 0.750000
vt 0.312500 0.625000
vt 0.250000 0.750000
vt 0.250000 0.625000
vt 0.250000 0.500000
vt 0.312500 0.500000
vt 0.250000 0.375000
vt 0.312500 0.375000
vt 0.250000 0.250000
vt 0.312500 0.250000
vt 0.187500 0.375000
vt 0.187500 0.250000
vt 0.125000 0.375000
vt 0.125000 0.250000
vt 0.125000 0.500000
vt 0.187500 0.500000
vt 0.125000 0.625000
vt 0.187500 0.625000
vt 0.125000 0.750000
vt 0.187500 0.750000
vt 0.062500 0.750000
vt 0.062500 0.625000
vt 0.000000 0.750000
vt 0.000000 0.625000
vt 0.000000 0.500000
vt 0.062500 0.500000
vt 0.000000 0.375000
vt 0.062500 0.375000
vt 0.000000 0.250000
vt 0.062500 0.250000
s 1
f 7/1/1 2/2/1 1/3/1 5/4/1
f 1/2/2 2/3/2 117/5/2 3/6/2
f 4/7/2 1/2/2 3/6/2 124/8/2
f 5/9/3 1/10/4 4/11/5 8/12/3
f 8/12/3 9/13/6 6/14/7 5/9/3
f 5/4/1 6/15/1 100/16/1 7/1/1
f 8/12/8 4/11/9 13/17/9 10/18/8
f 9/13/10 8/12/8 10/18/8 11/19/10
f 11/19/11 10/18/12 12/20/13 31/21/14
f 10/18/12 13/17/15 15/22/15 12/20/13
f 15/23/2 13/24/2 14/25/2 17/26/2
f 13/24/2 4/7/2 124/8/2 14/25/2
f 12/27/16 15/2/16 16/3/16 28/4/16
f 16/28/2 15/23/2 17/26/2 19/29/2
f 14/25/17 18/30/17 17/26/17
f 20/31/1 19/29/1 17/26/1 18/30/1 122/30/1 121/31/1
f 23/17/2 16/28/2 19/29/2 21/32/2
f 19/29/18 20/31/18 21/32/18
f 118/33/19 22/34/20 21/32/21 20/31/22 121/31/21 119/33/20
f 24/11/2 23/17/2 21/32/2 22/34/2
f 25/35/23 23/24/24 24/7/24 26/36/23
f 28/37/25 16/38/26 23/24/26 25/35/25
f 26/36/23 99/39/27 27/40/27 25/35/23
f 25/35/25 27/40/28 29/41/28 28/37/25
f 28/4/16 29/15/16 31/42/16 12/27/16
f 32/43/16 31/42/16 29/15/16 30/44/16
f 27/40/28 95/45/29 30/46/30 29/41/28
f 31/21/14 32/47/31 35/48/32 11/19/11
f 33/49/33 32/43/31 34/50/34 94/51/34
f 35/48/32 32/52/31 33/53/33
f 30/44/16 79/54/16 80/55/16 81/56/16 82/57/16 90/58/16 91/59/16 92/60/16 34/50/16 32/43/16
f 11/19/10 35/48/35 36/61/35 9/13/10
f 38/62/36 36/61/35 35/48/35 33/53/37 42/53/38 40/62/39
f 9/13/6 36/61/40 37/63/41 6/14/7
f 36/61/40 38/62/42 37/64/41
f 39/65/43 115/54/43 37/44/41 38/66/42
f 39/67/44 38/62/36 40/62/39 41/67/45
f 41/67/16 40/62/16 43/62/16 44/67/16
f 40/62/46 42/53/46 45/53/46 43/62/46
f 44/67/47 43/62/48 45/53/48 46/68/47
f 42/53/1 47/68/1 46/68/1 45/53/1
f 47/68/1 50/69/1 48/69/1 46/68/1
f 49/70/49 44/67/47 46/68/47 48/69/49
f 54/71/50 49/70/51 48/69/51 51/72/50
f 50/69/1 52/72/1 51/72/1 48/69/1
f 52/72/1 87/73/1 53/73/1 51/72/1
f 56/74/52 54/71/50 51/72/50 53/73/52
f 55/71/16 116/70/16 49/70/16 54/71/16
f 57/74/16 55/71/16 54/71/16 56/74/16
f 59/75/16 57/76/16 56/76/16 58/75/16
f 58/75/53 56/76/52 53/77/52 60/78/53
f 63/79/16 59/75/16 58/75/16 61/79/16
f 61/79/54 58/75/53 60/78/53 62/80/54
f 64/81/55 61/79/54 62/80/54 65/82/55
f 66/81/16 63/79/16 61/79/16 64/81/16
f 67/83/56 64/81/57 65/82/57 69/84/56
f 68/83/16 66/81/16 64/81/16 67/83/16
f 71/85/16 68/83/16 67/83/16 70/85/16
f 70/85/58 67/83/56 69/84/56 72/86/58
f 73/86/59 71/85/59 70/85/59 72/86/59
f 75/84/1 73/86/1 72/86/1 69/84/1
f 74/86/60 95/87/61 96/88/61 98/85/62 71/85/63 73/86/64
f 77/84/65 74/86/60 73/86/64 75/84/66
f 76/82/1 75/84/1 69/84/1 65/82/1
f 78/82/67 77/84/65 75/84/66 76/82/67
f 78/89/68 80/55/68 79/54/69 77/90/69
f 77/65/69 79/54/69 30/44/30 74/66/70
f 83/91/71 81/56/71 80/55/68 78/92/68
f 84/93/72 82/57/73 81/56/71 83/94/71
f 84/78/74 83/80/75 85/80/75 86/78/74
f 83/80/75 78/82/67 76/82/67 85/80/75
f 86/78/1 85/80/1 62/80/1 60/78/1
f 85/80/1 76/82/1 65/82/1 62/80/1
f 87/77/1 86/78/1 60/78/1 53/77/1
f 88/77/76 84/78/74 86/78/74 87/77/76
f 89/72/77 88/73/76 87/73/76 52/72/77
f 89/95/78 91/59/78 90/58/79 88/96/80
f 88/97/80 90/58/79 82/57/73 84/98/72
f 93/99/81 92/60/81 91/59/78 89/100/78
f 94/101/34 34/50/34 92/60/81 93/102/81
f 93/69/82 89/72/77 52/72/77 50/69/82
f 94/68/83 93/69/82 50/69/82 47/68/83
f 33/53/37 94/68/83 47/68/83 42/53/38
f 95/87/29 74/86/70 30/103/30
f 99/39/27 96/104/61 95/45/61 27/40/27
f 100/105/84 97/106/85 96/104/86 99/39/87
f 97/107/85 98/85/88 96/88/86
f 99/39/87 26/36/89 7/108/90 100/105/84
f 97/109/1 100/16/1 6/15/1 37/44/1
f 98/85/62 101/83/91 68/83/91 71/85/63
f 98/110/88 97/109/85 103/111/92 101/112/92
f 101/113/92 103/111/92 104/114/93 102/115/93
f 101/83/91 102/81/67 66/81/67 68/83/91
f 37/44/1 115/54/1 114/55/1 113/56/1 108/116/1 107/117/1 105/118/1 104/114/1 103/111/1 97/109/1
f 102/119/93 104/114/93 105/118/94 106/120/94
f 106/121/94 105/118/94 107/117/95 109/122/96
f 109/123/96 107/117/95 108/116/97 110/124/98
f 106/79/75 109/75/74 59/75/74 63/79/75
f 109/75/74 110/76/76 57/76/76 59/75/74
f 110/125/98 108/116/97 113/56/99 111/126/99
f 110/74/76 111/71/77 55/71/77 57/74/76
f 111/71/77 112/70/82 116/70/82 55/71/77
f 111/91/99 113/56/99 114/55/100 112/92/100
f 112/89/100 114/55/100 115/54/43 39/90/43
f 112/70/82 39/67/44 41/67/45 116/70/82
f 116/70/16 41/67/16 44/67/16 49/70/16
f 102/81/67 106/79/75 63/79/75 66/81/67
f 26/36/89 24/7/101 2/127/102 7/108/90
f 2/3/2 24/11/2 22/34/2 117/5/2
f 22/34/103 118/33/103 117/5/103
f 123/128/16 3/6/16 117/5/16 118/33/16 119/33/16 120/128/16
f 120/128/2 119/33/2 121/31/2 122/30/2
f 18/30/104 14/25/105 124/8/106 123/128/107 120/128/106 122/30/105
f 3/6/108 123/128/108 124/8/108
f 125/30/16 126/129/109 127/130/110
f 125/131/16 141/132/111 126/133/109
f 125/134/16 127/130/110 128/135/112
f 125/136/16 128/135/112 129/137/113
f 125/138/16 129/137/113 130/139/114
f 125/140/16 130/139/114 131/141/115
f 125/142/16 131/141/115 132/143/116
f 125/144/16 132/143/116 133/145/117
f 125/146/16 133/145/117 134/147/118
f 125/148/16 134/147/118 135/149/119
f 125/150/16 135/149/119 136/151/120
f 125/152/16 136/151/120 137/153/121
f 125/154/16 137/153/121 138/155/122
f 125/156/16 138/155/122 139/157/123
f 125/158/16 139/157/123 140/159/124
f 125/160/16 140/159/124 141/132/111
f 141/132/111 142/161/125 143/162/126 126/133/109
f 140/159/124 144/163/127 142/161/125 141/132/111
f 142/161/125 145/164/128 146/165/129 143/162/126
f 144/163/127 147/166/130 145/164/128 142/161/125
f 145/164/128 148/167/131 149/168/132 146/165/129
f 147/166/130 150/169/133 148/167/131 145/164/128
f 148/167/131 151/170/134 152/171/135 149/168/132
f 150/169/133 153/172/136 151/170/134 148/167/131
f 151/170/134 154/173/137 155/174/138 152/171/135
f 153/172/136 156/175/139 154/173/137 151/170/134
f 154/173/137 157/176/140 158/177/141 155/174/138
f 156/175/139 159/178/142 157/176/140 154/173/137
f 160/179/1 158/177/141 157/176/140
f 160/180/1 157/176/140 159/178/142
f 160/181/1 161/182/143 173/183/144
f 160/184/1 162/185/145 161/182/143
f 160/186/1 163/187/146 158/188/141
f 160/189/1 164/190/147 162/185/145
f 160/191/1 165/192/148 163/187/146
f 160/193/1 166/194/149 164/190/147
f 160/195/1 167/196/150 165/192/148
f 160/197/1 168/198/151 166/194/149
f 160/199/1 169/200/152 167/196/150
f 160/201/1 170/202/153 168/198/151
f 160/203/1 171/204/154 169/200/152
f 160/205/1 159/178/142 170/202/153
f 160/206/1 172/207/155 171/204/154
f 160/208/1 173/183/144 172/207/155
f 175/209/156 172/207/155 173/183/144 174/210/157
f 174/210/157 173/183/144 161/182/143 177/211/158
f 221/212/159 175/209/156 174/210/157 176/213/160
f 176/213/160 174/210/157 177/211/158 178/214/161
f 178/214/161 177/211/158 179/215/162 180/216/163
f 177/211/158 161/182/143 162/185/145 179/215/162
f 180/216/163 179/215/162 181/217/164 183/218/165
f 179/215/162 162/185/145 164/190/147 181/217/164
f 183/218/165 181/217/164 182/219/166 185/220/167
f 181/217/164 164/190/147 166/194/149 182/219/166
f 204/221/168 180/216/163 183/218/165 184/222/169
f 184/222/169 183/218/165 185/220/167 186/223/170
f 186/223/170 185/220/167 187/224/171 188/225/172
f 185/220/167 182/219/166 190/226/173 187/224/171
f 188/225/172 187/224/171 189/227/174 192/228/175
f 187/224/171 190/226/173 191/229/176 189/227/174
f 182/219/166 166/194/149 168/198/151 190/226/173
f 190/226/173 168/198/151 170/202/153 191/229/176
f 189/227/174 191/229/176 156/175/139 153/172/136
f 191/229/176 170/202/153 159/178/142 156/175/139
f 192/228/175 189/227/174 153/172/136 150/169/133
f 194/230/177 188/225/172 192/228/175 193/231/178
f 193/231/178 192/228/175 150/169/133 147/166/130
f 196/232/179 194/230/177 193/231/178 195/233/180
f 195/233/180 193/231/178 147/166/130 144/163/127
f 138/155/122 196/232/179 195/233/180 139/157/123
f 139/157/123 195/233/180 144/163/127 140/159/124
f 137/153/121 197/234/181 196/232/179 138/155/122
f 197/234/181 199/235/182 194/230/177 196/232/179
f 136/151/120 198/236/183 197/234/181 137/153/121
f 198/236/183 200/237/184 199/235/182 197/234/181
f 200/237/184 184/222/169 186/223/170 199/235/182
f 199/235/182 186/223/170 188/225/172 194/230/177
f 203/238/185 201/239/186 200/237/184 198/236/183
f 201/239/186 204/221/168 184/222/169 200/237/184
f 212/240/187 202/241/188 201/239/186 203/238/185
f 202/241/188 205/242/2 204/221/168 201/239/186
f 205/242/2 178/214/161 180/216/163 204/221/168
f 206/243/189 176/213/160 178/214/161 205/242/2
f 208/244/190 206/243/189 205/242/2 202/241/188
f 209/245/191 207/246/192 206/243/189 208/244/190
f 207/246/192 221/212/159 176/213/160 206/243/189
f 211/247/193 209/245/191 208/244/190 210/248/194
f 210/248/194 208/244/190 202/241/188 212/240/187
f 132/143/116 211/247/193 210/248/194 133/145/117
f 133/145/117 210/248/194 212/240/187 134/147/118
f 134/147/118 212/240/187 203/238/185 135/149/119
f 131/141/115 213/249/195 211/247/193 132/143/116
f 213/249/195 215/250/196 209/245/191 211/247/193
f 130/139/114 214/251/197 213/249/195 131/141/115
f 214/251/197 216/252/198 215/250/196 213/249/195
f 216/252/198 218/253/199 217/254/200 215/250/196
f 215/250/196 217/254/200 207/246/192 209/245/191
f 218/253/199 220/255/201 219/256/202 217/254/200
f 217/254/200 219/256/202 221/212/159 207/246/192
f 220/255/201 223/257/203 222/258/204 219/256/202
f 219/256/202 222/258/204 175/209/156 221/212/159
f 223/257/203 169/200/152 171/204/154 222/258/204
f 222/258/204 171/204/154 172/207/155 175/209/156
f 226/259/205 224/260/206 223/257/203 220/255/201
f 224/260/206 167/196/150 169/200/152 223/257/203
f 227/261/207 225/262/208 224/260/206 226/259/205
f 225/262/208 165/192/148 167/196/150 224/260/206
f 229/263/209 227/261/207 226/259/205 228/264/210
f 228/264/210 226/259/205 220/255/201 218/253/199
f 231/265/211 229/263/209 228/264/210 230/266/212
f 230/266/212 228/264/210 218/253/199 216/252/198
f 233/267/213 231/265/211 230/266/212 232/268/214
f 232/268/214 230/266/212 216/252/198 214/251/197
f 128/135/112 233/267/213 232/268/214 129/137/113
f 129/137/113 232/268/214 214/251/197 130/139/114
f 127/130/110 234/269/215 233/267/213 128/135/112
f 234/269/215 235/270/216 231/265/211 233/267/213
f 126/129/109 143/271/126 234/269/215 127/130/110
f 143/271/126 146/272/129 235/270/216 234/269/215
f 146/272/129 149/273/132 236/274/217 235/270/216
f 235/270/216 236/274/217 229/263/209 231/265/211
f 149/273/132 152/275/135 237/276/218 236/274/217
f 236/274/217 237/276/218 227/261/207 229/263/209
f 152/275/135 155/277/138 238/278/219 237/276/218
f 237/276/218 238/278/219 225/262/208 227/261/207
f 155/277/138 158/188/141 163/187/146 238/278/219
f 238/278/219 163/187/146 165/192/148 225/262/208
f 135/149/119 203/238/185 198/236/183 136/151/120
