# Blender 4.2.3 LTS
# www.blender.org
mtllib leftUpperArm.mtl
o Robot_Left_Forearm.003
v 2.145258 3.078016 -0.355805
v 2.766607 3.161481 -0.355805
v 2.209590 2.712433 -0.355805
v 2.126792 3.075535 -0.337173
v 2.028573 3.741198 -0.355805
v 2.009943 3.741473 -0.337173
v 2.054370 3.950221 -0.355804
v 2.578093 3.733077 -0.355805
v 2.215747 3.968917 -0.355804
v 2.596723 3.732802 -0.337173
v 2.785073 3.163961 -0.337173
v 2.220482 3.988222 -0.337173
v 2.596723 3.732802 -0.061434
v 2.785073 3.163961 -0.061434
v 2.220482 3.988222 -0.061434
v 2.578093 3.733077 -0.042802
v 2.766607 3.161481 -0.042802
v 2.028573 3.741198 -0.042802
v 2.215747 3.968917 -0.042802
v 2.054370 3.950221 -0.042802
v 2.037665 3.967042 -0.061434
v 2.037665 3.967042 -0.337173
v 2.009943 3.741473 -0.061434
v 2.126792 3.075535 -0.061434
v 2.191122 2.709969 -0.061434
v 2.145258 3.078016 -0.042802
v 2.209590 2.712433 -0.042802
v 2.279625 2.427396 -0.042802
v 2.823138 2.794282 -0.042802
v 2.457975 2.328030 -0.042802
v 2.833579 2.786299 -0.055977
v 2.841606 2.796746 -0.061434
v 2.841606 2.796746 -0.337173
v 2.823138 2.794282 -0.355805
v 2.833579 2.786299 -0.342630
v 2.462953 2.303928 -0.337173
v 2.822430 2.771788 -0.324331
v 2.822430 2.771788 -0.074276
v 2.462953 2.303928 -0.324331
v 2.659277 2.897146 -0.324331
v 2.659277 2.897146 -0.074276
v 2.487030 2.717903 -0.324331
v 2.487030 2.717903 -0.074276
v 2.391098 2.579490 -0.324331
v 2.391098 2.579490 -0.074276
v 2.290959 2.399753 -0.324331
v 2.290959 2.399753 -0.074276
v 2.274974 2.408659 -0.342630
v 2.263465 2.415071 -0.337173
v 2.279625 2.427396 -0.355805
v 2.457975 2.328030 -0.355805
v 2.263465 2.415071 -0.061434
v 2.191122 2.709969 -0.337173
v 2.274974 2.408659 -0.055977
v 2.462953 2.303928 -0.061434
v 2.462953 2.303928 -0.074276
v 1.571815 4.111184 -0.350159
v 1.375918 4.898226 -0.393734
v 1.535940 4.471773 -0.379323
v 1.777407 4.146441 -0.350159
v 1.504269 4.099601 -0.281627
v 1.296958 4.861053 -0.306461
v 1.504269 4.099601 -0.100001
v 1.296958 4.861052 -0.075166
v 1.571815 4.111184 -0.031469
v 1.777407 4.146441 -0.031469
v 1.375918 4.898226 0.012107
v 1.535940 4.471773 -0.002304
v 1.660347 4.503710 -0.001626
v 1.482914 4.705973 0.005074
v 1.536010 4.471410 0.010484
v 1.660416 4.503347 0.011162
v 1.482983 4.705610 0.017863
v 1.615134 4.729813 0.017390
v 1.615065 4.730176 0.004601
v 1.623289 5.014687 0.012106
v 1.702249 5.051861 -0.075166
v 1.702249 5.051861 -0.306461
v 1.844952 4.158024 -0.100001
v 1.844952 4.158024 -0.281627
v 1.623289 5.014687 -0.393734
v 1.615065 4.730176 -0.386228
v 1.482914 4.705973 -0.386701
v 1.660347 4.503710 -0.380001
v 1.615134 4.729813 -0.399017
v 1.482983 4.705610 -0.399490
v 1.660416 4.503347 -0.392790
v 1.536009 4.471410 -0.392112
v 1.487571 4.944517 0.087631
v 1.487571 5.052386 0.066174
v 1.411296 5.020792 0.066174
v 1.387913 4.985796 0.066174
v 1.379702 4.944517 0.066174
v 1.387913 4.903237 0.066174
v 1.411296 4.868242 0.066174
v 1.446291 4.844859 0.066174
v 1.528851 4.844859 0.066174
v 1.563846 4.868242 0.066174
v 1.587230 4.903237 0.066174
v 1.595441 4.944517 0.066174
v 1.587229 4.985796 0.066174
v 1.528851 5.044175 0.066174
v 1.446291 5.044175 0.066174
v 1.487571 4.836647 0.066174
v 1.563846 5.020792 0.066174
v 1.628509 5.085455 0.005071
v 1.671716 5.020792 0.005071
v 1.671716 5.128662 -0.086376
v 1.563846 5.128662 0.005071
v 1.487571 5.143834 0.005071
v 1.587229 5.185114 -0.086376
v 1.487571 5.204937 -0.086376
v 1.595440 5.204937 -0.194246
v 1.487571 5.226393 -0.194246
v 1.686888 5.143834 -0.194246
v 1.587229 5.185114 -0.302115
v 1.487571 5.204937 -0.302115
v 1.671716 5.128662 -0.302115
v 1.563846 5.128662 -0.393562
v 1.487571 5.143834 -0.393562
v 1.628509 5.085455 -0.393562
v 1.528851 5.044175 -0.454666
v 1.487571 5.052386 -0.454666
v 1.563846 5.020792 -0.454666
v 1.487571 4.944517 -0.476122
v 1.487571 4.836647 -0.454666
v 1.446291 5.044175 -0.454666
v 1.528851 4.844859 -0.454666
v 1.411296 5.020792 -0.454666
v 1.563846 4.868242 -0.454666
v 1.387913 4.985796 -0.454666
v 1.587230 4.903237 -0.454666
v 1.379702 4.944517 -0.454666
v 1.595441 4.944517 -0.454666
v 1.587229 4.985796 -0.454666
v 1.387913 4.903237 -0.454666
v 1.411296 4.868242 -0.454666
v 1.446291 4.844859 -0.454666
v 1.411296 4.760372 -0.393562
v 1.346633 4.803579 -0.393562
v 1.387913 4.703920 -0.302115
v 1.487571 4.745200 -0.393562
v 1.563846 4.760372 -0.393562
v 1.487571 4.684097 -0.302115
v 1.487571 4.662640 -0.194246
v 1.587230 4.703920 -0.302115
v 1.595441 4.684097 -0.194246
v 1.671716 4.760372 -0.302115
v 1.686888 4.745200 -0.194246
v 1.728168 4.844859 -0.302115
v 1.628510 4.803579 -0.393562
v 1.671716 4.868242 -0.393562
v 1.686888 4.944517 -0.393562
v 1.747991 4.944517 -0.302115
v 1.671716 5.020792 -0.393562
v 1.728168 5.044176 -0.302115
v 1.747991 5.052386 -0.194246
v 1.769448 4.944517 -0.194246
v 1.728168 5.044176 -0.086376
v 1.747991 4.944517 -0.086376
v 1.728168 4.844859 -0.086376
v 1.686888 4.944517 0.005071
v 1.671716 4.868242 0.005071
v 1.628510 4.803579 0.005071
v 1.563846 4.760372 0.005071
v 1.671716 4.760372 -0.086376
v 1.587230 4.703920 -0.086376
v 1.487571 4.684097 -0.086376
v 1.487571 4.745200 0.005071
v 1.387913 4.703920 -0.086376
v 1.303427 4.760372 -0.086376
v 1.411296 4.760372 0.005071
v 1.379702 4.684097 -0.194246
v 1.288254 4.745200 -0.194246
v 1.227151 4.836647 -0.194246
v 1.303427 4.760372 -0.302115
v 1.246974 4.844859 -0.302115
v 1.227151 4.944517 -0.302115
v 1.303427 4.868242 -0.393562
v 1.288254 4.944517 -0.393562
v 1.303427 5.020792 -0.393562
v 1.346633 5.085455 -0.393562
v 1.246975 5.044175 -0.302115
v 1.303427 5.128662 -0.302115
v 1.227151 5.052386 -0.194246
v 1.288254 5.143834 -0.194246
v 1.246975 5.044175 -0.086376
v 1.205695 4.944517 -0.194246
v 1.227151 4.944517 -0.086376
v 1.288254 4.944517 0.005071
v 1.246974 4.844859 -0.086376
v 1.303427 4.868242 0.005071
v 1.346633 4.803579 0.005071
v 1.303427 5.020792 0.005071
v 1.346633 5.085455 0.005071
v 1.411296 5.128662 0.005071
v 1.303427 5.128662 -0.086376
v 1.387913 5.185113 -0.086376
v 1.379702 5.204937 -0.194246
v 1.387913 5.185113 -0.302115
v 1.411296 5.128662 -0.393562
v 1.747991 4.836648 -0.194246
v 1.929123 4.245435 -0.355772
v 2.464162 4.806477 -0.355772
v 2.042864 4.108015 -0.355772
v 1.915055 4.230684 -0.335388
v 1.703878 5.038160 -0.355771
v 1.689376 5.054842 -0.355771
v 1.683701 5.035264 -0.335387
v 2.398381 5.137856 -0.355771
v 2.286335 5.598374 -0.355771
v 2.418558 5.140753 -0.335387
v 2.306654 5.600005 -0.335387
v 2.418558 5.140753 -0.250859
v 2.478230 4.821229 -0.335388
v 2.215018 4.139476 -0.335388
v 2.478230 4.821229 -0.250859
v 2.478230 4.821228 -0.145947
v 2.215018 4.139476 -0.250859
v 2.215018 4.139475 -0.145947
v 2.203065 4.137030 -0.250859
v 2.203065 4.137030 -0.343571
v 2.203065 4.137030 -0.145947
v 2.231490 3.959653 -0.250860
v 2.231490 3.959653 -0.343571
v 2.231490 3.959653 -0.145947
v 2.071560 3.926935 -0.250860
v 2.071560 3.926935 -0.145947
v 2.034765 4.106795 -0.250859
v 2.071560 3.926935 -0.343571
v 2.034765 4.106795 -0.343571
v 2.034765 4.106795 -0.343571
v 2.022812 4.104350 -0.335388
v 2.022812 4.104350 -0.250859
v 1.915055 4.230684 -0.250859
v 2.022812 4.104350 -0.145947
v 2.022812 4.104350 -0.061419
v 1.915055 4.230684 -0.145947
v 2.034765 4.106795 -0.145947
v 2.034765 4.106795 -0.053236
v 2.203065 4.137030 -0.053236
v 2.034765 4.106795 -0.053236
v 2.071560 3.926935 -0.053236
v 2.231490 3.959653 -0.053236
v 2.042864 4.108015 -0.041035
v 2.194966 4.135811 -0.041035
v 1.929123 4.245435 -0.041035
v 1.703878 5.038160 -0.041035
v 2.464162 4.806477 -0.041035
v 1.915055 4.230684 -0.061419
v 1.683701 5.035264 -0.061419
v 1.683701 5.035264 -0.145947
v 1.664123 5.040938 -0.041035
v 1.689376 5.054842 -0.041035
v 1.655471 5.043446 -0.041035
v 1.655471 5.043446 -0.145947
v 1.808228 5.570438 -0.041034
v 1.868457 5.763433 -0.041034
v 1.836462 5.562274 -0.041034
v 1.808228 5.570438 -0.145947
v 1.868457 5.763433 -0.145947
v 1.836462 5.562274 -0.145947
v 1.836462 5.562274 -0.250859
v 1.888216 5.741674 -0.145947
v 1.888216 5.741673 -0.250859
v 2.058927 5.773535 -0.145947
v 2.065148 5.802261 -0.145947
v 2.058927 5.773535 -0.250859
v 2.306654 5.600005 -0.145947
v 2.418558 5.140753 -0.145947
v 2.306654 5.600005 -0.061418
v 2.306654 5.600005 -0.250859
v 2.323517 5.624078 -0.145947
v 2.323517 5.624078 -0.041034
v 2.065148 5.802261 -0.041034
v 2.318349 5.616700 -0.041034
v 2.289958 5.611700 -0.041034
v 2.058927 5.773535 -0.041034
v 2.286335 5.598374 -0.041034
v 2.398381 5.137856 -0.041035
v 2.418558 5.140753 -0.061419
v 2.478230 4.821228 -0.061419
v 2.215018 4.139476 -0.061419
v 2.203065 4.137030 -0.053236
v 1.888216 5.741674 -0.041034
v 2.323517 5.624078 -0.250859
v 2.323517 5.624078 -0.355771
v 2.065148 5.802261 -0.250859
v 1.868459 5.763434 -0.250859
v 2.065148 5.802261 -0.355771
v 1.868457 5.763433 -0.355771
v 2.058927 5.773535 -0.355771
v 1.888216 5.741673 -0.355771
v 2.289958 5.611700 -0.355771
v 2.318349 5.616700 -0.355771
v 1.836462 5.562274 -0.355771
v 1.808228 5.570438 -0.355771
v 1.655471 5.043446 -0.355771
v 1.808228 5.570438 -0.250859
v 1.655471 5.043446 -0.250859
v 1.683701 5.035264 -0.250859
v 1.664123 5.040938 -0.355771
v 2.203065 4.137030 -0.343571
v 2.194966 4.135811 -0.355772
v 2.220811 3.985795 -0.327283
v 2.220811 3.985795 -0.067359
v 2.203315 4.134967 -0.327283
v 2.595209 3.734074 -0.327283
v 2.286290 4.029373 -0.384095
v 2.592043 3.806753 -0.384095
v 2.273517 4.138273 -0.384095
v 2.496675 4.730284 -0.384095
v 2.474112 4.824090 -0.327283
v 2.502143 4.730608 -0.384095
v 2.511554 4.829253 -0.327283
v 2.733152 4.224885 -0.384095
v 2.796395 4.236567 -0.327283
v 2.734835 4.175934 -0.384095
v 2.595301 3.806237 -0.384095
v 2.798847 4.165244 -0.327283
v 2.618555 3.738114 -0.327283
v 2.798847 4.165244 -0.067359
v 2.618555 3.738114 -0.067359
v 2.734835 4.175934 -0.010547
v 2.796395 4.236567 -0.067359
v 2.733152 4.224885 -0.010547
v 2.511554 4.829253 -0.067359
v 2.502143 4.730608 -0.010547
v 2.474112 4.824089 -0.067359
v 2.496675 4.730284 -0.010547
v 2.203315 4.134967 -0.067359
v 2.273517 4.138273 -0.010547
v 2.286290 4.029373 -0.010547
v 2.592043 3.806753 -0.010547
v 2.595209 3.734074 -0.067359
v 2.595301 3.806237 -0.010547
vn -0.0000 -0.0000 -1.0000
vn -0.6982 -0.1228 -0.7053
vn -0.6922 -0.1465 -0.7066
vn -0.6925 -0.1453 -0.7067
vn -0.7051 -0.0183 -0.7088
vn -0.7028 0.0865 -0.7061
vn 0.5825 0.4605 -0.6699
vn 0.5825 0.4604 -0.6699
vn 0.6926 0.1671 -0.7017
vn 0.4429 0.6647 -0.6017
vn 0.9722 0.2341 -0.0000
vn 0.9493 0.3143 -0.0000
vn 0.5617 0.8274 -0.0000
vn 0.6926 0.1671 0.7017
vn 0.6926 0.1670 0.7017
vn 0.5835 0.4634 0.6669
vn 0.4441 0.6696 0.5952
vn 0.4441 0.6696 0.5953
vn -0.0000 -0.0000 1.0000
vn -0.0814 0.7024 0.7071
vn -0.7051 -0.0183 0.7089
vn -0.7028 0.0865 0.7061
vn -0.1151 0.9934 -0.0000
vn -0.9997 -0.0257 -0.0000
vn -0.9925 0.1220 -0.0000
vn -0.9849 -0.1731 -0.0000
vn -0.6982 -0.1228 0.7053
vn -0.9786 -0.2059 -0.0000
vn -0.6924 -0.1455 0.7066
vn -0.6924 -0.1459 0.7066
vn -0.6289 -0.2759 0.7269
vn -0.5313 -0.3805 0.7569
vn 0.6396 -0.3165 0.7005
vn 0.6734 -0.1778 0.7175
vn 0.5558 -0.4351 0.7084
vn 0.5560 -0.4353 0.7081
vn 0.7124 -0.0422 0.7005
vn 0.7930 -0.6093 -0.0000
vn 0.9884 0.1522 -0.0000
vn 0.7124 -0.0422 -0.7005
vn 0.6734 -0.1778 -0.7175
vn 0.6396 -0.3165 -0.7006
vn 0.5558 -0.4351 -0.7084
vn 0.5560 -0.4354 -0.7080
vn -0.6093 -0.7930 -0.0000
vn 0.7210 -0.6929 -0.0000
vn 0.7739 -0.6333 -0.0000
vn 0.8487 -0.5288 -0.0000
vn 0.8736 -0.4867 -0.0000
vn -0.4867 -0.8736 -0.0000
vn -0.4376 -0.4788 -0.7610
vn -0.5314 -0.3816 -0.7563
vn -0.3038 -0.5666 -0.7659
vn -0.3037 -0.5666 -0.7660
vn -0.6288 -0.2759 -0.7269
vn -0.9712 -0.2383 -0.0000
vn -0.4376 -0.4774 0.7620
vn -0.3037 -0.5638 0.7681
vn -0.0814 0.7024 -0.7071
vn -0.0764 -0.0623 -0.9951
vn -0.0765 -0.0623 -0.9951
vn -0.6793 -0.2080 -0.7038
vn 0.0140 -0.0789 -0.9968
vn 0.1690 -0.9856 -0.0000
vn -0.9649 -0.2627 -0.0000
vn -0.6793 -0.2080 0.7038
vn 0.0140 -0.0789 0.9968
vn -0.2131 -0.0916 0.9727
vn 0.2487 -0.9682 -0.0288
vn -0.9753 -0.2208 -0.0010
vn 0.0054 -0.0284 0.9996
vn -0.1800 0.9832 0.0289
vn 0.9806 0.1961 0.0003
vn 0.0110 -0.0290 0.9995
vn 0.1115 -0.0186 0.9936
vn 0.7099 0.0923 0.6983
vn 0.7098 0.0923 0.6983
vn 0.7099 0.0923 0.6982
vn -0.4259 0.9047 -0.0000
vn 0.9875 0.1577 -0.0000
vn 0.7100 0.0926 -0.6981
vn 0.7099 0.0926 -0.6981
vn 0.2609 0.0129 -0.9653
vn 0.2610 0.0129 -0.9653
vn 0.0110 -0.0278 -0.9996
vn 0.0111 -0.0278 -0.9996
vn -0.1800 0.9832 -0.0289
vn 0.9806 0.1961 -0.0003
vn 0.0054 -0.0284 -0.9996
vn 0.2487 -0.9682 0.0288
vn -0.9753 -0.2208 0.0010
vn 0.1463 0.3531 0.9241
vn -0.0000 0.3822 0.9241
vn -0.1463 0.3531 0.9241
vn -0.2702 0.2702 0.9241
vn -0.3531 0.1463 0.9241
vn -0.3822 -0.0000 0.9241
vn -0.3531 -0.1463 0.9241
vn -0.2702 -0.2702 0.9241
vn -0.1463 -0.3531 0.9241
vn -0.0000 -0.3822 0.9241
vn 0.1463 -0.3531 0.9241
vn 0.2702 -0.2702 0.9241
vn 0.3531 -0.1463 0.9241
vn 0.3822 -0.0000 0.9241
vn 0.3531 0.1463 0.9241
vn 0.2702 0.2702 0.9241
vn 0.6528 0.2704 0.7076
vn 0.4996 0.4996 0.7076
vn 0.2704 0.6528 0.7076
vn 0.8534 0.3535 0.3832
vn 0.6531 0.6531 0.3832
vn 0.3535 0.8534 0.3832
vn -0.0000 0.9237 0.3832
vn -0.0000 0.7066 0.7076
vn 0.3827 0.9239 -0.0000
vn -0.0000 1.0000 -0.0000
vn 0.7071 0.7071 -0.0000
vn 0.3535 0.8534 -0.3832
vn -0.0000 0.9237 -0.3832
vn 0.6531 0.6531 -0.3832
vn 0.2704 0.6528 -0.7076
vn -0.0000 0.7066 -0.7076
vn 0.4996 0.4996 -0.7076
vn 0.1463 0.3531 -0.9241
vn -0.0000 0.3822 -0.9241
vn 0.2702 0.2702 -0.9241
vn -0.1462 0.3531 -0.9241
vn 0.1463 -0.3531 -0.9241
vn -0.0000 -0.3822 -0.9241
vn -0.1463 -0.3531 -0.9241
vn -0.2702 0.2702 -0.9241
vn 0.2702 -0.2702 -0.9241
vn -0.3531 0.1463 -0.9241
vn 0.3531 -0.1463 -0.9241
vn -0.3822 -0.0000 -0.9241
vn 0.3822 -0.0000 -0.9241
vn -0.3531 -0.1463 -0.9241
vn 0.3531 0.1463 -0.9241
vn -0.2702 -0.2702 -0.9241
vn -0.4996 -0.4996 -0.7076
vn -0.2704 -0.6528 -0.7076
vn -0.0000 -0.7066 -0.7076
vn -0.6531 -0.6531 -0.3832
vn -0.3535 -0.8534 -0.3832
vn -0.0000 -0.9237 -0.3832
vn 0.2704 -0.6528 -0.7076
vn 0.3535 -0.8534 -0.3832
vn -0.0000 -1.0000 -0.0000
vn 0.3827 -0.9239 -0.0000
vn -0.3827 -0.9239 -0.0000
vn 0.6531 -0.6531 -0.3832
vn 0.7071 -0.7071 -0.0000
vn 0.4996 -0.4996 -0.7076
vn 0.8534 -0.3535 -0.3832
vn 0.9239 -0.3827 -0.0000
vn 0.6528 -0.2704 -0.7076
vn 0.7066 -0.0000 -0.7076
vn 0.9237 -0.0000 -0.3832
vn 0.6528 0.2704 -0.7076
vn 0.8534 0.3535 -0.3832
vn 1.0000 -0.0000 -0.0000
vn 0.9239 0.3827 -0.0000
vn 0.9237 -0.0000 0.3832
vn 0.7066 -0.0000 0.7076
vn 0.8534 -0.3535 0.3832
vn 0.6528 -0.2704 0.7076
vn 0.4996 -0.4996 0.7076
vn 0.6531 -0.6531 0.3832
vn 0.2704 -0.6528 0.7076
vn 0.3535 -0.8534 0.3832
vn -0.0000 -0.9237 0.3832
vn -0.0000 -0.7066 0.7076
vn -0.2704 -0.6528 0.7076
vn -0.3535 -0.8534 0.3832
vn -0.6531 -0.6531 0.3832
vn -0.7071 -0.7071 -0.0000
vn -0.4996 -0.4997 0.7076
vn -0.9239 -0.3827 -0.0000
vn -0.8534 -0.3535 -0.3832
vn -0.8534 -0.3535 0.3832
vn -0.6528 -0.2704 -0.7076
vn -0.9237 -0.0000 -0.3832
vn -0.7066 -0.0000 -0.7076
vn -1.0000 -0.0000 -0.0000
vn -0.6528 0.2704 -0.7076
vn -0.8534 0.3535 -0.3832
vn -0.4996 0.4996 -0.7076
vn -0.6531 0.6531 -0.3832
vn -0.7071 0.7071 -0.0000
vn -0.9239 0.3827 -0.0000
vn -0.6531 0.6531 0.3832
vn -0.8534 0.3535 0.3832
vn -0.9237 -0.0000 0.3832
vn -0.6528 0.2704 0.7076
vn -0.7066 -0.0000 0.7076
vn -0.6528 -0.2704 0.7076
vn -0.4996 0.4997 0.7076
vn -0.2704 0.6528 0.7076
vn -0.3535 0.8534 0.3832
vn -0.3827 0.9239 -0.0000
vn -0.3535 0.8534 -0.3832
vn -0.2704 0.6528 -0.7076
vn -0.6407 -0.3402 -0.6883
vn -0.5604 -0.4706 -0.6816
vn -0.7062 -0.2018 -0.6786
vn -0.0439 -0.6285 -0.7766
vn 0.7102 0.1542 -0.6869
vn 0.7102 0.1543 -0.6869
vn 0.7901 -0.0908 -0.6062
vn 0.6900 0.1680 -0.7040
vn 0.9777 0.2102 -0.0000
vn 0.9716 0.2367 -0.0000
vn 0.9830 0.1836 -0.0000
vn 0.8023 -0.3165 -0.5061
vn 0.9329 -0.3602 -0.0000
vn 0.2140 -0.9764 -0.0298
vn 0.2212 -0.9747 -0.0319
vn 0.2004 -0.9797 -0.0000
vn 0.5530 -0.7309 -0.4000
vn 0.9874 0.1582 -0.0000
vn -0.9797 -0.2004 -0.0000
vn 0.2070 -0.9781 0.0209
vn 0.2102 -0.9771 0.0314
vn 0.2102 -0.9771 -0.0324
vn 0.2005 -0.9797 -0.0000
vn 0.2212 -0.9747 0.0319
vn -0.8809 -0.4734 -0.0000
vn -0.7608 -0.6490 -0.0000
vn 0.2140 -0.9764 -0.0297
vn -0.2451 -0.8824 0.4015
vn 0.2140 -0.9764 0.0298
vn 0.2102 -0.9771 0.0324
vn 0.2102 -0.9771 -0.0314
vn -0.6411 -0.3409 0.6876
vn -0.6411 -0.3408 0.6876
vn -0.5613 -0.4719 0.6799
vn -0.7058 -0.2018 0.6791
vn -0.9611 -0.2763 -0.0000
vn -0.2784 -0.9605 -0.0000
vn -0.1061 -0.7022 0.7040
vn -0.9605 0.2784 -0.0000
vn -0.9576 0.2882 -0.0000
vn -0.9546 0.2979 -0.0000
vn -0.9606 0.2778 -0.0000
vn -0.9608 0.2772 -0.0000
vn -0.1835 0.9830 -0.0000
vn 0.5737 0.8190 -0.0000
vn 0.8190 -0.5737 -0.0000
vn 0.5677 0.8232 -0.0000
vn 0.2740 -0.4787 0.8342
vn 0.2740 -0.4786 0.8342
vn 0.2740 -0.4787 0.8341
vn 0.7094 0.1543 0.6877
vn 0.7094 0.1542 0.6877
vn 0.6900 0.1680 0.7040
vn 0.7886 -0.0899 0.6083
vn 0.7886 -0.0898 0.6083
vn 0.8011 -0.3148 0.5090
vn 0.2213 -0.9747 0.0319
vn -0.1937 0.9811 -0.0000
vn 0.4650 -0.5481 -0.6953
vn 0.4649 -0.5481 -0.6953
vn -0.5580 -0.8299 -0.0000
vn -0.9932 -0.1165 -0.0000
vn -0.9917 0.1285 -0.0000
vn -0.6428 0.0884 -0.7609
vn -0.6253 -0.0733 -0.7769
vn -0.3805 -0.5422 -0.7492
vn -0.3805 -0.5421 -0.7492
vn -0.6430 0.2477 -0.7247
vn -0.6431 0.2478 -0.7245
vn -0.0499 0.5077 -0.8601
vn 0.6481 0.3033 -0.6986
vn 0.6637 0.1648 -0.7296
vn 0.6729 -0.1231 -0.7294
vn 0.6731 -0.1234 -0.7292
vn 0.6653 -0.2669 -0.6972
vn 0.6654 -0.2669 -0.6972
vn 0.9213 -0.3889 -0.0000
vn 0.9834 -0.1815 -0.0000
vn 0.9711 0.2389 -0.0000
vn 0.6745 -0.2684 0.6878
vn 0.6776 -0.1241 0.7249
vn 0.6604 0.1636 0.7329
vn 0.6604 0.1637 0.7329
vn 0.6418 0.3012 0.7052
vn 0.9013 0.4332 -0.0000
vn -0.1366 0.9906 -0.0000
vn -0.0497 0.5028 0.8630
vn -0.9307 0.3657 -0.0000
vn -0.6476 0.2491 0.7201
vn -0.6452 0.0891 0.7588
vn -0.6253 -0.0733 0.7769
vn -0.3745 -0.5366 0.7562
vn -0.3745 -0.5366 0.7561
vn 0.0976 -0.8938 0.4378
vn 0.0045 -0.6186 0.7857
vn 0.0975 -0.8938 0.4378
vn 0.0949 -0.8993 -0.4270
vn 0.0948 -0.8993 -0.4270
vn 0.0007 -0.6375 -0.7705
vn 0.0006 -0.6375 -0.7705
vt 0.971948 0.000000
vt 0.968251 1.000000
vt 0.031749 1.000000
vt 0.028052 0.000000
vt 0.971609 0.000000
vt 0.028392 0.000000
vt 0.000000 0.059526
vt 1.001135 -0.002393
vt 1.000000 0.059526
vt 0.005137 0.000943
vt 0.968251 0.000000
vt 0.968066 0.000000
vt 0.031749 0.000000
vt 0.105084 0.000000
vt 1.010261 -0.001968
vt 0.005729 -0.005848
vt 1.000000 0.940474
vt 0.000000 0.940474
vt 0.005729 1.005848
vt 1.010261 1.001969
vt 0.057790 1.000000
vt 0.922659 1.000000
vt 0.005137 0.999057
vt 1.001135 1.002393
vt 0.028052 1.000000
vt 0.028392 1.000000
vt 0.971948 1.000000
vt 0.971609 1.000000
vt 0.028558 1.000000
vt 0.917523 1.000000
vt 1.000000 1.000000
vt 1.000000 0.000000
vt 0.959753 0.000000
vt 0.000000 0.000000
vt 0.000000 1.000000
vt 0.086087 0.000000
vt 0.801735 0.000000
vt 0.805177 1.000000
vt 1.004477 0.034106
vt 1.000000 0.215042
vt 0.000000 0.215042
vt -0.027889 0.034312
vt 0.198265 0.000000
vt 1.000000 0.784958
vt 0.801735 1.000000
vt 0.198265 1.000000
vt 0.000000 0.784958
vt -0.027889 0.965688
vt 1.004477 0.965894
vt 0.194823 1.000000
vt 0.004335 0.942540
vt 0.976560 0.942951
vt 0.194823 0.000000
vt 0.805177 0.000000
vt 0.976560 0.057049
vt 0.004335 0.057460
vt 0.937500 1.000000
vt 0.937500 0.875000
vt 1.000000 0.875000
vt 0.000000 0.875000
vt 0.062500 0.875000
vt 0.125000 1.000000
vt 0.125000 0.875000
vt 0.187500 0.875000
vt 0.062500 1.000000
vt 0.187500 1.000000
vt 0.250000 0.875000
vt 0.250000 1.000000
vt 0.312500 0.875000
vt 0.312500 1.000000
vt 0.375000 0.875000
vt 0.375000 1.000000
vt 0.437500 0.875000
vt 0.437500 1.000000
vt 0.500000 0.875000
vt 0.562500 1.000000
vt 0.562500 0.875000
vt 0.625000 0.875000
vt 0.500000 1.000000
vt 0.625000 1.000000
vt 0.687500 0.875000
vt 0.687500 1.000000
vt 0.750000 0.875000
vt 0.750000 1.000000
vt 0.812500 0.875000
vt 0.812500 1.000000
vt 0.875000 0.875000
vt 0.875000 1.000000
vt 0.812500 0.750000
vt 0.875000 0.750000
vt 0.937500 0.750000
vt 0.812500 0.625000
vt 0.875000 0.625000
vt 0.937500 0.625000
vt 1.000000 0.625000
vt 1.000000 0.750000
vt 0.937500 0.500000
vt 1.000000 0.500000
vt 0.875000 0.500000
vt 0.937500 0.375000
vt 1.000000 0.375000
vt 0.875000 0.375000
vt 0.937500 0.250000
vt 1.000000 0.250000
vt 0.875000 0.250000
vt 0.937500 0.125000
vt 1.000000 0.125000
vt 0.875000 0.125000
vt 0.937500 0.000000
vt 0.875000 0.000000
vt 0.000000 0.000000
vt 0.062500 0.125000
vt 0.000000 0.125000
vt 0.500000 0.000000
vt 0.562500 0.125000
vt 0.500000 0.125000
vt 0.437500 0.000000
vt 0.437500 0.125000
vt 0.062500 0.000000
vt 0.125000 0.125000
vt 0.562500 0.000000
vt 0.625000 0.125000
vt 0.125000 0.000000
vt 0.187500 0.125000
vt 0.625000 0.000000
vt 0.687500 0.125000
vt 0.187500 0.000000
vt 0.250000 0.125000
vt 0.687500 0.000000
vt 0.750000 0.125000
vt 0.250000 0.000000
vt 0.312500 0.125000
vt 0.750000 0.000000
vt 0.812500 0.125000
vt 0.812500 0.000000
vt 0.312500 0.000000
vt 0.375000 0.125000
vt 0.375000 0.000000
vt 0.375000 0.250000
vt 0.437500 0.250000
vt 0.500000 0.250000
vt 0.375000 0.375000
vt 0.437500 0.375000
vt 0.500000 0.375000
vt 0.562500 0.250000
vt 0.562500 0.375000
vt 0.500000 0.500000
vt 0.562500 0.500000
vt 0.437500 0.500000
vt 0.625000 0.375000
vt 0.625000 0.500000
vt 0.625000 0.250000
vt 0.687500 0.375000
vt 0.687500 0.500000
vt 0.687500 0.250000
vt 0.750000 0.250000
vt 0.750000 0.375000
vt 0.812500 0.250000
vt 0.812500 0.375000
vt 0.750000 0.500000
vt 0.812500 0.500000
vt 0.750000 0.625000
vt 0.750000 0.750000
vt 0.687500 0.625000
vt 0.687500 0.750000
vt 0.625000 0.750000
vt 0.625000 0.625000
vt 0.562500 0.750000
vt 0.562500 0.625000
vt 0.500000 0.625000
vt 0.500000 0.750000
vt 0.437500 0.750000
vt 0.437500 0.625000
vt 0.375000 0.625000
vt 0.375000 0.500000
vt 0.375000 0.750000
vt 0.312500 0.500000
vt 0.312500 0.375000
vt 0.312500 0.625000
vt 0.312500 0.250000
vt 0.250000 0.375000
vt 0.250000 0.250000
vt 0.250000 0.500000
vt 0.187500 0.250000
vt 0.187500 0.375000
vt 0.125000 0.250000
vt 0.125000 0.375000
vt 0.125000 0.500000
vt 0.187500 0.500000
vt 0.125000 0.625000
vt 0.187500 0.625000
vt 0.250000 0.625000
vt 0.187500 0.750000
vt 0.250000 0.750000
vt 0.312500 0.750000
vt 0.125000 0.750000
vt 0.062500 0.750000
vt 0.062500 0.625000
vt 0.062500 0.500000
vt 0.000000 0.625000
vt 0.000000 0.500000
vt 0.000000 0.750000
vt 0.000000 0.375000
vt 0.062500 0.375000
vt 0.000000 0.250000
vt 0.062500 0.250000
vt 0.024979 0.000000
vt 0.975021 0.000000
vt 0.895675 0.000000
vt 0.104325 0.000000
vt 0.972543 1.000000
vt 0.027457 1.000000
vt 0.000000 0.064765
vt 0.987710 -0.012924
vt 1.000000 0.064765
vt 0.003335 -0.015211
vt 0.972543 0.000000
vt 0.027457 0.000000
vt 0.043214 0.000000
vt 1.002639 -0.054129
vt -0.036672 -0.043182
vt 0.000000 0.333333
vt 1.000000 0.333333
vt 1.000000 0.666667
vt 1.000000 0.666667
vt 0.000000 0.666667
vt 0.000000 0.666667
vt 0.000000 0.935235
vt 0.895675 1.000000
vt 0.104325 1.000000
vt 0.975021 1.000000
vt 0.024979 1.000000
vt 0.003335 1.015211
vt 1.000000 0.935235
vt 0.987710 1.012924
vt 0.043214 1.000000
vt -0.036672 1.043182
vt 1.002639 1.054129
vt 0.294187 0.112885
vt 0.705813 0.112885
vt 0.705813 0.887115
vt 0.294187 0.887115
vt 1.558574 0.887115
vt 0.828314 0.887115
vt 0.828314 0.112885
vt 1.558574 0.112885
vt 0.975104 0.168029
vt 0.898109 0.184301
vt 0.675401 0.054607
vt 0.709641 0.008245
vt 0.704984 0.695129
vt 0.308328 0.186039
vt 0.922993 0.867441
vt 0.834525 0.928155
vt 0.233809 0.922208
vt 0.088191 0.711739
vt 0.033152 0.289600
vt 0.260146 0.069093
vt 0.820844 0.176380
vt 0.171686 0.112885
vt 0.184864 0.704050
vt 0.138698 0.004786
vt 0.212181 -0.066293
vt 0.778965 0.694153
vt 0.798655 0.112885
vt 0.201345 0.112885
vt 0.208274 0.373788
vt -0.116636 0.793508
vt 0.081245 1.081971
vt 0.698740 0.378646
vt 0.705518 0.112885
vt 0.294482 0.112885
vt 0.303392 0.702139
vt 0.705518 0.887115
vt 0.294482 0.887115
vt -0.559135 0.112885
vt 0.201345 0.887115
vt -0.559135 0.887114
vt 0.303392 0.297861
vt 0.698740 0.621354
vt 0.916047 1.084751
vt 0.760641 0.938476
vt 0.905934 0.728958
vt 1.113816 0.796616
vt 0.208274 0.626212
vt 0.798655 0.887115
vt 0.778964 0.305847
vt -0.121126 0.112885
vt 0.171686 0.887115
vt -0.121126 0.887115
vt 0.790714 -0.064924
vt 0.077007 0.867441
vt 0.165382 0.928428
vt 0.864331 0.005822
vt 0.184864 0.295949
vt 0.820844 0.823620
vt 0.294420 0.016078
vt 0.320992 0.065179
vt 0.099194 0.192205
vt 0.029995 0.173394
vt 0.738501 0.073058
vt 0.965893 0.292399
vt 0.308328 0.813961
vt 0.704984 0.304871
vt 3.467244 -2.000663
vt 3.039106 -2.430168
vt -0.176978 0.112885
vt -0.176978 0.887115
vt -2.051723 -2.426426
vt -2.479544 -1.996053
s 1
f 1/1/1 5/2/1 8/3/1 2/4/1
f 1/4/1 2/1/1 34/5/1 3/6/1
f 4/7/2 1/4/2 3/6/3 53/7/4
f 1/8/2 4/9/2 6/7/5 5/10/5
f 5/11/5 6/9/5 22/9/6 7/12/6
f 8/13/1 5/11/1 7/12/1 9/14/1
f 8/15/7 10/9/8 11/7/9 2/16/9
f 10/7/8 8/13/7 9/14/10 12/7/10
f 11/7/11 10/9/12 13/17/12 14/18/11
f 13/18/13 10/7/13 12/7/13 15/18/13
f 17/19/14 14/18/15 13/17/16 16/20/16
f 16/3/16 13/18/16 15/18/17 19/21/18
f 26/4/19 17/1/19 16/2/19 18/3/19
f 18/2/19 16/3/19 19/21/19 20/22/19
f 21/17/20 20/22/20 19/21/20 15/18/20
f 23/17/21 18/2/21 20/22/22 21/17/22
f 12/7/23 22/9/23 21/17/23 15/18/23
f 6/9/24 23/17/24 21/17/25 22/9/25
f 6/7/24 4/9/26 24/17/26 23/18/24
f 18/23/21 23/18/21 24/17/27 26/24/27
f 24/18/26 4/7/26 53/7/28 25/18/28
f 26/25/27 24/18/27 25/18/29 27/26/30
f 17/27/19 26/25/19 27/26/19 29/28/19
f 29/28/19 27/26/19 28/29/19 30/30/19
f 27/26/30 25/18/29 52/18/31 28/29/32
f 31/31/33 29/28/34 30/30/35 55/31/36
f 14/17/15 17/27/14 29/28/34 32/17/37
f 29/28/34 31/31/33 32/17/37
f 35/32/38 33/9/38 32/17/38 31/31/38 38/31/38 37/32/38
f 11/9/11 14/17/11 32/17/39 33/9/39
f 2/1/9 11/9/9 33/9/40 34/5/41
f 33/9/40 35/32/42 34/5/41
f 36/32/38 35/32/38 37/32/38 39/32/38
f 36/32/43 51/33/44 34/5/41 35/32/42
f 37/32/45 38/31/45 41/31/45 40/32/45
f 39/32/19 37/32/19 40/32/19 42/32/19
f 40/32/46 41/31/46 43/31/47 42/32/47
f 46/34/19 39/32/19 42/32/19 44/34/19
f 44/34/48 42/32/47 43/31/47 45/35/48
f 47/35/49 46/34/49 44/34/48 45/35/48
f 54/35/50 52/18/50 49/7/50 48/34/50 46/34/50 47/35/50
f 48/34/50 36/32/50 39/32/50 46/34/50
f 48/34/51 50/36/52 51/33/53 36/32/54
f 50/36/52 48/34/51 49/7/55
f 3/6/1 34/5/1 51/33/1 50/36/1
f 53/7/4 3/6/3 50/36/52 49/7/55
f 25/18/28 53/7/28 49/7/56 52/18/56
f 52/18/31 54/35/57 28/29/32
f 55/31/50 54/35/50 47/35/50 56/31/50
f 55/31/58 30/30/58 28/29/32 54/35/57
f 31/31/38 55/31/38 56/31/38 38/31/38
f 38/31/1 56/31/1 43/31/1 41/31/1
f 56/31/1 47/35/1 45/35/1 43/31/1
f 12/7/59 9/14/59 7/12/59 22/9/59
f 57/37/60 58/38/61 83/38/61 59/37/61
f 57/39/62 61/40/62 62/41/62 58/42/62
f 60/43/63 57/37/63 59/37/63 84/43/63
f 61/41/64 57/43/64 60/37/64 80/40/64 79/44/64 66/45/64 65/46/64 63/47/64
f 62/41/65 61/40/65 63/44/65 64/47/65
f 67/48/66 64/47/66 63/44/66 65/49/66
f 65/43/67 66/37/67 69/37/67 68/43/67
f 67/50/68 65/43/68 68/43/68 70/50/68
f 68/43/69 69/37/69 72/37/69 71/43/69
f 70/50/70 68/43/70 71/43/70 73/50/70
f 71/43/71 72/37/71 74/38/71 73/50/71
f 75/38/72 70/50/72 73/50/72 74/38/72
f 69/37/73 75/38/73 74/38/73 72/37/73
f 76/38/74 67/50/74 70/50/74 75/38/74
f 66/37/75 76/38/75 75/38/75 69/37/75
f 66/51/76 79/47/77 77/44/77 76/52/78
f 78/41/79 81/53/79 58/54/79 62/40/79 64/44/79 67/38/79 76/50/79 77/47/79
f 80/41/80 78/40/80 77/44/80 79/47/80
f 81/55/81 78/40/81 80/41/82 60/56/81
f 81/50/83 60/43/84 84/43/83 82/50/83
f 58/38/85 81/50/86 82/50/86 83/38/86
f 83/38/87 82/50/87 85/50/87 86/38/87
f 82/50/88 84/43/88 87/43/88 85/50/88
f 88/37/89 86/38/89 85/50/89 87/43/89
f 84/43/90 59/37/90 88/37/90 87/43/90
f 59/37/91 83/38/91 86/38/91 88/37/91
f 89/57/19 102/58/92 90/59/93
f 89/35/19 90/60/93 103/61/94
f 89/62/19 91/63/95 92/64/96
f 89/65/19 103/61/94 91/63/95
f 89/66/19 92/64/96 93/67/97
f 89/68/19 93/67/97 94/69/98
f 89/70/19 94/69/98 95/71/99
f 89/72/19 95/71/99 96/73/100
f 89/74/19 96/73/100 104/75/101
f 89/76/19 97/77/102 98/78/103
f 89/79/19 104/75/101 97/77/102
f 89/80/19 98/78/103 99/81/104
f 89/82/19 99/81/104 100/83/105
f 89/84/19 100/83/105 101/85/106
f 89/86/19 101/85/106 105/87/107
f 89/88/19 105/87/107 102/58/92
f 101/85/106 107/89/108 106/90/109 105/87/107
f 105/87/107 106/90/109 109/91/110 102/58/92
f 107/89/108 159/92/111 108/93/112 106/90/109
f 106/90/109 108/93/112 111/94/113 109/91/110
f 109/91/110 111/94/113 112/95/114 110/96/115
f 102/58/92 109/91/110 110/96/115 90/59/93
f 111/94/113 113/97/116 114/98/117 112/95/114
f 108/93/112 115/99/118 113/97/116 111/94/113
f 113/97/116 116/100/119 117/101/120 114/98/117
f 115/99/118 118/102/121 116/100/119 113/97/116
f 116/100/119 119/103/122 120/104/123 117/101/120
f 118/102/121 121/105/124 119/103/122 116/100/119
f 119/103/122 122/106/125 123/107/126 120/104/123
f 121/105/124 124/108/127 122/106/125 119/103/122
f 125/109/1 123/107/126 122/106/125
f 125/110/1 122/106/125 124/108/127
f 125/111/1 127/112/128 123/113/126
f 125/114/1 128/115/129 126/116/130
f 125/117/1 126/116/130 138/118/131
f 125/119/1 129/120/132 127/112/128
f 125/121/1 130/122/133 128/115/129
f 125/123/1 131/124/134 129/120/132
f 125/125/1 132/126/135 130/122/133
f 125/127/1 133/128/136 131/124/134
f 125/129/1 134/130/137 132/126/135
f 125/131/1 136/132/138 133/128/136
f 125/133/1 135/134/139 134/130/137
f 125/135/1 124/108/127 135/134/139
f 125/136/1 137/137/140 136/132/138
f 125/138/1 138/118/131 137/137/140
f 140/139/141 137/137/140 138/118/131 139/140/142
f 139/140/142 138/118/131 126/116/130 142/141/143
f 176/142/144 140/139/141 139/140/142 141/143/145
f 141/143/145 139/140/142 142/141/143 144/144/146
f 142/141/143 126/116/130 128/115/129 143/145/147
f 144/144/146 142/141/143 143/145/147 146/146/148
f 145/147/149 144/144/146 146/146/148 147/148/150
f 173/149/151 141/143/145 144/144/146 145/147/149
f 147/148/150 146/146/148 148/150/152 149/151/153
f 146/146/148 143/145/147 151/152/154 148/150/152
f 149/151/153 148/150/152 150/153/155 202/154/156
f 148/150/152 151/152/154 152/155/157 150/153/155
f 143/145/147 128/115/129 130/122/133 151/152/154
f 151/152/154 130/122/133 132/126/135 152/155/157
f 150/153/155 152/155/157 153/156/158 154/157/159
f 152/155/157 132/126/135 134/130/137 153/156/158
f 154/157/159 153/156/158 155/158/160 156/159/161
f 153/156/158 134/130/137 135/134/139 155/158/160
f 156/159/161 155/158/160 121/105/124 118/102/121
f 155/158/160 135/134/139 124/108/127 121/105/124
f 158/160/162 154/157/159 156/159/161 157/161/163
f 157/161/163 156/159/161 118/102/121 115/99/118
f 160/162/164 158/160/162 157/161/163 159/92/111
f 159/92/111 157/161/163 115/99/118 108/93/112
f 162/163/165 160/162/164 159/92/111 107/89/108
f 161/164/166 202/154/156 158/160/162 160/162/164
f 163/165/167 161/164/166 160/162/164 162/163/165
f 99/81/104 163/165/167 162/163/165 100/83/105
f 100/83/105 162/163/165 107/89/108 101/85/106
f 164/166/168 166/167/169 161/164/166 163/165/167
f 98/78/103 164/166/168 163/165/167 99/81/104
f 165/168/170 167/169/171 166/167/169 164/166/168
f 97/77/102 165/168/170 164/166/168 98/78/103
f 167/169/171 147/148/150 149/151/153 166/167/169
f 166/167/169 149/151/153 202/154/156 161/164/166
f 168/170/172 145/147/149 147/148/150 167/169/171
f 169/171/173 168/170/172 167/169/171 165/168/170
f 172/172/174 170/173/175 168/170/172 169/171/173
f 170/173/175 173/149/151 145/147/149 168/170/172
f 171/174/176 174/175/177 173/149/151 170/173/175
f 193/176/178 171/174/176 170/173/175 172/172/174
f 174/175/177 176/142/144 141/143/145 173/149/151
f 175/177/179 177/178/180 176/142/144 174/175/177
f 191/179/181 175/177/179 174/175/177 171/174/176
f 177/178/180 179/180/182 140/139/141 176/142/144
f 178/181/183 180/182/184 179/180/182 177/178/180
f 188/183/185 178/181/183 177/178/180 175/177/179
f 180/182/184 133/128/136 136/132/138 179/180/182
f 179/180/182 136/132/138 137/137/140 140/139/141
f 181/184/186 131/124/134 133/128/136 180/182/184
f 183/185/187 181/184/186 180/182/184 178/181/183
f 182/186/188 129/120/132 131/124/134 181/184/186
f 184/187/189 182/186/188 181/184/186 183/185/187
f 186/188/190 184/187/189 183/185/187 185/189/191
f 185/189/191 183/185/187 178/181/183 188/183/185
f 197/190/192 186/188/190 185/189/191 187/191/193
f 187/191/193 185/189/191 188/183/185 189/192/194
f 189/192/194 188/183/185 175/177/179 191/179/181
f 194/193/195 187/191/193 189/192/194 190/194/196
f 190/194/196 189/192/194 191/179/181 192/195/197
f 192/195/197 191/179/181 171/174/176 193/176/178
f 93/67/97 190/194/196 192/195/197 94/69/98
f 94/69/98 192/195/197 193/176/178 95/71/99
f 95/71/99 193/176/178 172/172/174 96/73/100
f 92/64/96 194/193/195 190/194/196 93/67/97
f 195/196/198 197/190/192 187/191/193 194/193/195
f 91/63/95 195/196/198 194/193/195 92/64/96
f 196/197/199 198/198/200 197/190/192 195/196/198
f 103/61/94 196/197/199 195/196/198 91/63/95
f 198/198/200 199/199/201 186/188/190 197/190/192
f 112/200/114 114/201/117 199/199/201 198/198/200
f 110/202/115 112/200/114 198/198/200 196/197/199
f 114/201/117 117/203/120 200/204/202 199/199/201
f 199/199/201 200/204/202 184/187/189 186/188/190
f 117/203/120 120/205/123 201/206/203 200/204/202
f 200/204/202 201/206/203 182/186/188 184/187/189
f 120/205/123 123/113/126 127/112/128 201/206/203
f 201/206/203 127/112/128 129/120/132 182/186/188
f 90/60/93 110/202/115 196/197/199 103/61/94
f 96/73/100 172/172/174 169/171/173 104/75/101
f 104/75/101 169/171/173 165/168/170 97/77/102
f 202/154/156 150/153/155 154/157/159 158/160/162
f 203/207/1 204/208/1 304/209/1 205/210/1
f 203/208/1 207/211/1 210/212/1 204/207/1
f 206/213/204 203/207/204 205/210/205 233/213/205
f 203/214/204 206/215/204 209/213/206 207/216/206
f 209/215/207 302/32/207 208/32/207 207/217/207
f 210/218/1 207/217/1 208/32/1 296/32/1 211/219/1
f 210/220/208 212/215/209 215/213/210 204/221/210
f 212/213/209 210/218/208 211/219/211 213/213/211
f 214/222/212 212/213/212 213/213/213 272/222/213
f 217/222/214 215/213/214 212/215/212 214/223/212
f 204/208/210 215/215/210 216/215/215 304/209/215
f 219/223/216 216/215/216 215/215/216 217/223/216
f 217/223/216 218/224/216 220/224/216 219/223/216
f 214/223/212 270/225/212 218/226/214 217/222/214
f 303/32/217 216/215/218 219/223/219 221/223/219 222/32/220
f 219/223/219 220/224/219 223/224/219 221/223/219
f 222/32/221 221/223/221 224/223/221 225/32/221
f 221/223/221 223/224/221 226/224/221 224/223/221
f 227/222/219 230/34/219 225/32/219 224/223/219
f 224/223/219 226/224/219 228/227/219 227/222/219
f 239/227/222 229/222/222 227/222/222 228/227/222
f 229/222/222 231/34/222 230/34/222 227/222/222
f 231/34/1 222/32/1 225/32/1 230/34/1
f 232/34/223 205/210/224 304/209/225 303/32/217 222/32/220 231/34/226
f 234/222/219 233/213/227 232/34/223 231/34/226 229/222/219
f 205/210/224 232/34/223 233/213/227
f 235/222/228 206/213/228 233/213/229 234/222/229
f 238/227/228 235/222/228 234/222/229 236/227/229
f 236/227/219 234/222/219 229/222/219 239/227/219
f 236/227/229 237/228/229 250/228/228 238/227/228
f 242/35/230 237/228/218 236/227/219 239/227/219 240/35/231
f 240/35/222 239/227/222 228/227/222 243/35/222
f 241/31/19 240/35/19 243/35/19 244/31/19
f 284/31/232 246/229/233 245/230/234 242/35/230 240/35/231 241/31/219
f 226/224/219 244/31/219 243/35/219 228/227/219
f 223/224/221 241/31/221 244/31/221 226/224/221
f 237/228/218 242/35/230 245/230/234
f 249/231/19 247/232/19 245/230/19 246/229/19
f 247/232/235 250/228/236 237/228/237 245/230/237
f 248/233/238 251/228/238 250/234/236 247/235/235
f 247/207/19 249/208/19 280/211/19 248/212/19
f 238/225/228 250/234/228 251/228/239 252/226/239
f 252/224/240 251/234/240 253/31/240 255/31/240 256/224/240
f 248/211/241 254/31/241 253/31/241 251/234/241
f 253/31/19 254/31/19 259/31/19 257/31/19 255/31/19
f 256/224/242 255/31/242 257/31/243 260/224/243
f 259/31/19 285/31/19 258/31/19 257/31/19
f 260/224/243 257/31/243 258/31/244 261/224/244
f 264/224/1 262/224/1 260/224/1 261/224/1
f 262/224/1 252/224/1 256/224/1 260/224/1
f 301/223/242 252/224/242 262/224/245 263/223/245
f 263/223/245 262/224/245 264/224/246 265/223/246
f 265/223/247 264/224/247 266/227/247 268/222/247
f 266/227/1 264/224/1 261/224/1 267/227/1
f 269/227/1 266/227/1 267/227/1 273/227/1
f 269/227/248 272/222/248 268/222/248 266/227/248
f 269/227/213 271/228/213 281/228/212 270/227/212
f 270/227/212 214/222/212 272/222/213 269/227/213
f 276/35/249 271/228/249 269/227/249 273/227/249 274/35/249
f 267/227/250 275/35/250 274/35/250 273/227/250
f 278/35/19 277/35/19 276/35/19 274/35/19 275/35/19
f 271/228/251 276/35/252 277/35/252 279/236/253
f 259/31/19 279/236/19 277/35/19 278/35/19 285/31/19
f 280/212/254 281/228/255 271/228/256 279/236/256
f 254/31/19 248/211/19 280/212/19 279/236/19 259/31/19
f 249/237/257 282/228/258 281/234/255 280/238/254
f 270/225/212 281/234/212 282/228/214 218/226/214
f 282/234/258 249/231/257 246/229/259 283/234/259
f 218/224/216 282/234/216 283/234/216 220/224/216
f 246/229/233 284/31/232 283/234/260
f 220/224/219 283/234/260 284/31/232 241/31/219 223/224/219
f 285/31/19 278/35/19 275/35/19 258/31/19
f 261/224/261 258/31/261 275/35/261 267/227/261
f 268/222/19 272/222/19 286/222/19 288/222/19
f 272/222/249 213/213/249 295/34/249 287/34/249 286/222/249
f 286/222/250 287/34/250 290/34/250 288/222/250
f 265/223/19 268/222/19 288/222/19 289/223/19
f 288/222/261 290/34/261 291/32/261 289/223/261
f 295/34/1 294/34/1 292/34/1 290/34/1 287/34/1
f 292/34/1 293/32/1 291/32/1 290/34/1
f 294/34/1 211/219/1 296/32/1 293/32/1 292/34/1
f 211/219/262 294/34/262 295/34/263 213/213/262
f 293/32/1 296/32/1 297/32/1 291/32/1
f 296/32/1 208/32/1 302/32/1 298/32/1 297/32/1
f 289/223/244 291/32/244 297/32/243 299/223/243
f 299/223/243 297/32/243 298/32/242 300/223/242
f 301/223/19 263/223/19 299/223/19 300/223/19
f 263/223/19 265/223/19 289/223/19 299/223/19
f 302/32/240 209/215/240 301/223/240 300/223/240 298/32/240
f 301/222/239 209/213/239 206/215/228 235/223/228
f 235/223/228 238/225/228 252/226/239 301/222/239
f 216/215/218 303/32/217 304/209/225
f 305/239/264 308/240/264 335/241/264 306/242/264
f 306/243/265 331/244/266 307/245/266 305/246/265
f 307/247/267 311/248/267 309/249/268 305/250/268
f 310/251/269 308/240/269 305/239/270 309/252/269
f 309/249/1 311/248/1 312/253/1 314/254/1 316/255/1 318/256/1 319/257/1 310/258/1
f 311/259/267 307/245/267 313/260/271 312/261/272
f 315/262/273 314/254/273 312/253/273 313/263/273
f 314/264/274 315/265/274 317/266/275 316/267/275
f 320/268/276 318/256/277 316/255/275 317/269/275
f 318/270/277 320/271/276 321/272/278 319/273/279
f 321/272/280 320/271/281 322/274/281 323/275/280
f 320/276/281 317/266/282 325/277/282 322/278/281
f 336/279/283 323/275/283 322/274/284 324/280/284
f 325/281/285 326/282/286 324/283/284 322/284/284
f 326/285/286 325/277/285 327/286/287 328/287/287
f 317/266/282 315/265/288 327/286/288 325/277/282
f 315/288/289 313/260/289 329/289/289 327/290/289
f 329/291/290 330/292/290 328/293/290 327/294/290
f 313/260/291 307/245/266 331/244/266 329/289/291
f 330/295/292 329/289/292 331/244/293 332/296/293
f 306/297/294 333/298/294 332/299/293 331/300/293
f 332/299/19 333/298/19 334/301/19 336/302/19 324/283/19 326/282/19 328/293/19 330/292/19
f 333/303/295 306/242/295 335/241/296 334/304/295
f 323/305/297 336/302/298 334/301/298 335/306/299
f 308/307/300 321/272/301 323/275/297 335/308/299
f 308/309/300 310/258/302 319/257/303 321/310/301
