# Blender 4.2.3 LTS
# www.blender.org
mtllib rightThigh.mtl
o Robot_Right_Thigh
v -0.435936 1.650589 -0.290995
v -0.437807 1.648384 -0.215805
v -0.411135 1.694580 -0.318939
v -0.470895 1.628394 -0.320807
v -0.496923 1.627649 -0.220163
v -0.546202 1.628767 -0.338482
v -0.459808 1.687917 -0.363675
v -0.444815 1.871369 -0.394163
v -0.534678 1.687917 -0.383038
v -0.522717 1.871369 -0.414310
v -0.625206 1.687917 -0.406450
v -0.616911 1.871369 -0.438670
v -0.636875 1.628892 -0.361332
v -0.715734 1.687917 -0.429862
v -0.727686 1.628892 -0.384817
v -0.790604 1.687917 -0.449225
v -0.711104 1.871369 -0.463031
v -0.704447 2.243904 -0.534573
v -0.789006 1.871369 -0.483177
v -0.791445 2.243904 -0.557072
v -0.856739 1.878247 -0.467512
v -0.854266 1.695078 -0.431140
v -0.867081 2.250927 -0.542751
v -0.920425 1.898880 -0.384437
v -0.911168 1.716560 -0.342210
v -0.966849 1.933324 -0.264223
v -0.938187 2.271995 -0.459493
v -0.989255 2.304098 -0.336259
v -0.947899 2.655952 -0.531802
v -0.875376 2.627146 -0.617433
v -0.999031 2.690753 -0.404792
v -0.933007 2.870793 -0.565788
v -0.890769 2.968506 -0.571258
v -0.871711 2.820929 -0.652135
v -0.976360 2.918813 -0.437569
v -0.925523 3.030385 -0.443139
v -1.002139 2.929904 -0.298472
v -0.992693 2.924375 -0.184332
v -0.959902 3.027617 -0.303942
v -1.016396 2.718343 -0.266945
v -0.995246 2.736331 -0.153932
v -1.004776 2.344225 -0.202009
v -0.983613 2.377330 -0.092155
v -0.982795 1.981639 -0.137141
v -0.968805 2.035567 -0.032652
v -0.965966 1.804669 -0.105814
v -0.961835 1.899233 -0.009072
v -0.951629 1.752909 -0.220935
v -0.963842 1.786315 -0.055461
v -0.930135 1.700550 -0.137317
v -0.928081 1.695157 -0.099754
v -0.868668 1.665826 -0.135092
v -0.922634 1.678732 -0.206237
v -0.889519 1.651369 -0.318223
v -0.863287 1.654002 -0.188509
v -0.834584 1.629639 -0.297887
v -0.782805 1.653998 -0.167718
v -0.756311 1.629639 -0.277644
v -0.788366 1.665808 -0.114415
v -0.690406 1.653996 -0.143830
v -0.696027 1.665801 -0.090565
v -0.598860 1.653125 -0.124355
v -0.664648 1.629639 -0.253938
v -0.573539 1.629141 -0.232776
v -0.604336 1.664806 -0.071653
v -0.520936 1.650513 -0.116804
v -0.525975 1.661821 -0.065789
v -0.459510 1.673549 -0.111473
v -0.473480 1.694742 -0.047238
v -0.417460 1.749620 -0.098656
v -0.370424 1.932502 -0.113943
v -0.399197 1.714570 -0.219407
v -0.459388 1.801465 0.009736
v -0.425068 1.980837 0.003232
v -0.481573 1.782996 0.053218
v -0.520053 1.898432 0.101315
v -0.501474 2.035366 0.087242
v -0.527753 1.874247 0.120531
v -0.584968 1.930754 0.120283
v -0.659839 1.930754 0.100920
v -0.587841 1.904663 0.131410
v -0.573447 2.053542 0.103219
v -0.540245 2.388365 0.057302
v -0.651349 2.053542 0.083072
v -0.745542 2.053542 0.058712
v -0.627243 2.388365 0.034803
v -0.602359 2.742326 -0.016476
v -0.732435 2.388365 0.007598
v -0.718548 2.742326 -0.046525
v -0.837626 2.388365 -0.019606
v -0.834738 2.742326 -0.076574
v -0.924624 2.388365 -0.042105
v -0.839736 2.053542 0.034352
v -0.917638 2.053542 0.014205
v -0.840894 1.930754 0.054096
v -0.915764 1.930755 0.034734
v -0.843766 1.904663 0.065223
v -0.750366 1.930754 0.077508
v -0.753239 1.904663 0.088635
v -0.662711 1.904663 0.112047
v -0.760492 1.859931 0.116742
v -0.768213 1.817170 0.146661
v -0.851020 1.859931 0.093330
v -0.669964 1.859931 0.140154
v -0.595094 1.859931 0.159517
v -0.677685 1.817170 0.170073
v -0.681960 1.796991 0.186637
v -0.602815 1.817170 0.189436
v -0.546037 1.793955 0.187828
v -0.607090 1.796991 0.205999
v -0.602807 1.768270 0.199962
v -0.550612 1.774935 0.205552
v -0.560246 1.752843 0.197210
v -0.515262 1.708768 0.169533
v -0.509787 1.724311 0.148328
v -0.533936 1.702102 0.172612
v -0.513432 1.642600 0.124845
v -0.532705 1.654817 0.137428
v -0.507202 1.654791 0.100722
v -0.557516 1.620545 0.098390
v -0.632386 1.620545 0.079027
v -0.551423 1.631950 0.074794
v -0.565627 1.635935 0.119256
v -0.640497 1.635935 0.099893
v -0.584855 1.699881 0.162080
v -0.659725 1.699881 0.142718
v -0.750253 1.699881 0.119306
v -0.677678 1.768270 0.180600
v -0.768205 1.768270 0.157188
v -0.772488 1.796991 0.163224
v -0.858902 1.768270 0.133738
v -0.934278 1.768268 0.114264
v -0.841456 1.699879 0.095745
v -0.863016 1.796991 0.139812
v -0.937886 1.796991 0.120450
v -0.858741 1.817170 0.123249
v -0.933611 1.817170 0.103886
v -0.925890 1.859931 0.073967
v -0.978891 1.794079 0.076537
v -0.970707 1.833742 0.044828
v -0.980649 1.724805 0.029165
v -0.983320 1.774933 0.093697
v -0.985541 1.708757 0.048115
v -0.967633 1.752839 0.091933
v -0.970020 1.702092 0.060013
v -0.944293 1.654804 0.031223
v -0.918351 1.699875 0.075935
v -0.901149 1.635925 0.032663
v -0.893713 1.620533 0.011649
v -0.822734 1.635933 0.052808
v -0.814792 1.620542 0.031905
v -0.731025 1.635935 0.076481
v -0.722914 1.620545 0.055615
v -0.717402 1.632447 0.034270
v -0.626729 1.632323 0.057119
v -0.809281 1.632447 0.010561
v -0.705971 1.650381 -0.009997
v -0.696290 1.664711 -0.058002
v -0.797850 1.650386 -0.033702
v -0.614861 1.649884 0.011166
v -0.538246 1.648391 0.023779
v -0.604744 1.663840 -0.038527
v -0.526819 1.661228 -0.030976
v -0.479950 1.689929 -0.009133
v -0.493616 1.673590 0.048125
v -0.498465 1.753166 0.104486
v -0.537416 1.833240 0.154428
v -0.876775 1.650401 -0.053945
v -0.788284 1.664720 -0.081741
v -0.867555 1.664747 -0.102086
v -0.888202 1.632444 -0.009693
v -0.936574 1.676604 -0.051694
v -0.971076 1.755176 -0.007914
v -0.947536 1.655532 -0.009241
v -0.952891 1.642583 0.011500
v -0.963459 1.875076 0.011861
v -0.918637 1.904663 0.045861
v -0.930832 2.742326 -0.101425
v -0.930371 2.922532 -0.130982
v -0.917775 3.003610 -0.178250
v -0.831245 2.922532 -0.105347
v -0.711389 2.922532 -0.074350
v -0.818911 3.003610 -0.152682
v -0.699142 3.003610 -0.121708
v -0.789497 3.060188 -0.265337
v -0.887578 3.060188 -0.290702
v -0.753238 3.067575 -0.404823
v -0.669990 3.060188 -0.234430
v -0.550134 3.060188 -0.203433
v -0.633905 3.067575 -0.373961
v -0.600857 3.001076 -0.501746
v -0.514049 3.067575 -0.342964
v -0.481002 3.001076 -0.470749
v -0.414924 3.067575 -0.317329
v -0.337582 3.030384 -0.291087
v -0.451009 3.060188 -0.177797
v -0.381876 3.001076 -0.445113
v -0.308441 2.968505 -0.420658
v -0.359179 2.900164 -0.532878
v -0.354143 2.804308 -0.552349
v -0.458304 2.900164 -0.558514
v -0.313263 2.898024 -0.491980
v -0.287641 2.820929 -0.501085
v -0.265657 2.870793 -0.393200
v -0.299342 2.627146 -0.468460
v -0.369271 2.617543 -0.521341
v -0.342479 2.250927 -0.407080
v -0.261643 2.655951 -0.354325
v -0.304519 2.271995 -0.295616
v -0.267976 2.690753 -0.215729
v -0.330140 2.718343 -0.089467
v -0.308844 2.304098 -0.160293
v -0.283078 2.918813 -0.258274
v -0.334790 2.929904 -0.125884
v -0.377574 3.027617 -0.153342
v -0.408623 2.924375 -0.033282
v -0.492408 2.922532 -0.017718
v -0.419211 2.736330 -0.004959
v -0.420803 2.989976 -0.076155
v -0.480161 3.003610 -0.065075
v -0.579286 3.003610 -0.090711
v -0.591534 2.922532 -0.043353
v -0.459011 2.377330 0.043517
v -0.506265 2.742326 0.008375
v -0.371109 2.344225 -0.038132
v -0.361349 1.898382 -0.242250
v -0.389070 1.878122 -0.347165
v -0.407066 2.243904 -0.457665
v -0.494063 2.243904 -0.480164
v -0.599255 2.243904 -0.507369
v -0.465365 2.617543 -0.546192
v -0.581555 2.617543 -0.576241
v -0.453269 2.804308 -0.577985
v -0.573124 2.804308 -0.608982
v -0.578160 2.900164 -0.589510
v -0.692980 2.804308 -0.639979
v -0.697929 2.900164 -0.620485
v -0.697744 2.617543 -0.606289
v -0.792106 2.804308 -0.665614
v -0.796793 2.900164 -0.646053
v -0.793838 2.617543 -0.631141
v -0.854837 2.898024 -0.632040
v -0.818446 3.001076 -0.558018
v -0.720365 3.001076 -0.532652
v -0.850796 3.067575 -0.430053
v -0.962377 2.989976 -0.216216
v -0.803407 1.628892 -0.404400
v -0.850268 1.651915 -0.391748
vn 0.6409 -0.7505 0.1611
vn 0.1651 -0.9770 0.1347
vn 0.3453 -0.8713 -0.3486
vn 0.6849 -0.7100 -0.1638
vn 0.8455 -0.3843 -0.3708
vn 0.9327 -0.3528 0.0751
vn 0.4642 -0.4083 -0.7860
vn 0.1024 -0.8979 -0.4281
vn -0.0305 -0.9943 0.1023
vn 0.2255 -0.4064 -0.8854
vn 0.8469 -0.1923 -0.4958
vn 0.4588 -0.1909 -0.8678
vn 0.2462 -0.1827 -0.9518
vn 0.2276 -0.4105 -0.8830
vn 0.1070 -0.9009 -0.4207
vn 0.2282 -0.4113 -0.8825
vn 0.1084 -0.9014 -0.4192
vn -0.1618 -0.8753 -0.4558
vn -0.0545 -0.4197 -0.9060
vn 0.0024 -0.1916 -0.9815
vn 0.0205 -0.1958 -0.9804
vn 0.2460 -0.1870 -0.9511
vn -0.5577 -0.1787 -0.8106
vn -0.5238 -0.1799 -0.8327
vn -0.6103 -0.3607 -0.7053
vn -0.8869 -0.2784 -0.3686
vn -0.8818 -0.1380 -0.4510
vn -0.8659 -0.1253 -0.4843
vn -0.9600 -0.2440 -0.1372
vn -0.9725 -0.1098 -0.2053
vn -0.9703 -0.0836 -0.2269
vn -0.8706 -0.0674 -0.4873
vn -0.5228 -0.1520 -0.8388
vn -0.9689 -0.0130 -0.2471
vn -0.8372 0.1544 -0.5246
vn -0.4970 0.0751 -0.8645
vn -0.9342 0.2103 -0.2882
vn -0.6689 0.6710 -0.3201
vn -0.5357 0.5587 -0.6332
vn -0.3567 0.3966 -0.8459
vn -0.9997 0.0187 0.0125
vn -0.9702 0.2407 -0.0292
vn -0.7233 0.6893 0.0421
vn -0.8685 0.0809 0.4891
vn -0.8445 0.3075 0.4386
vn -0.6894 0.6244 0.3673
vn -0.9986 -0.0365 0.0389
vn -0.8707 0.0522 0.4890
vn -0.8879 0.0342 0.4588
vn -0.9974 -0.0640 0.0318
vn -0.9862 -0.1652 0.0095
vn -0.9193 0.1249 0.3733
vn -0.9869 -0.1222 -0.1049
vn -0.9247 0.2698 0.2687
vn -0.7569 -0.6528 0.0309
vn -0.7351 -0.6771 0.0338
vn -0.7518 -0.6281 -0.2005
vn -0.2529 -0.9642 0.0794
vn -0.2083 -0.9597 -0.1888
vn -0.2481 -0.9521 0.1786
vn -0.6773 -0.7142 -0.1764
vn -0.2170 -0.9753 0.0409
vn -0.0274 -0.9940 0.1058
vn -0.0536 -0.9768 0.2072
vn -0.0232 -0.9957 0.0894
vn -0.0280 -0.9941 0.1051
vn -0.0535 -0.9768 0.2073
vn -0.0261 -0.9956 0.0898
vn -0.0364 -0.9951 0.0923
vn -0.0531 -0.9768 0.2075
vn 0.1488 -0.9559 0.2533
vn 0.2153 -0.9686 0.1246
vn 0.6129 -0.7157 0.3347
vn 0.7199 -0.6440 0.2589
vn 0.8839 -0.3299 0.3316
vn 0.8726 -0.1651 0.4596
vn 0.9430 -0.1534 0.2952
vn 0.8152 -0.0866 0.5726
vn 0.9832 -0.1785 -0.0392
vn 0.6161 0.1351 0.7760
vn 0.5100 0.0258 0.8598
vn 0.6746 0.3121 0.6689
vn 0.9374 -0.0193 0.3477
vn 0.8240 -0.5573 0.1022
vn -0.0027 0.1292 0.9916
vn 0.0528 0.2785 0.9590
vn 0.0821 0.4883 0.8688
vn -0.2402 0.2819 0.9289
vn -0.2203 0.4753 0.8518
vn -0.2473 0.1559 0.9563
vn -0.0297 0.1367 0.9902
vn -0.2473 0.1558 0.9563
vn 0.4640 0.0608 0.8837
vn -0.2473 0.1567 0.9562
vn -0.0398 0.1438 0.9888
vn -0.4557 0.1422 0.8787
vn -0.4657 0.1357 0.8745
vn -0.4842 0.1323 0.8649
vn -0.5054 0.2791 0.8165
vn -0.4857 0.4826 0.7288
vn -0.2066 0.5652 0.7987
vn -0.1971 0.6166 0.7622
vn 0.0576 0.5661 0.8223
vn 0.0376 0.6140 0.7884
vn -0.2436 0.2313 0.9419
vn -0.0710 0.2132 0.9744
vn 0.3841 0.0593 0.9214
vn 0.6285 0.4316 0.6471
vn 0.6559 0.3850 0.6492
vn -0.1674 -0.3844 0.9078
vn -0.2317 -0.3794 0.8958
vn 0.0016 -0.3823 0.9240
vn 0.0456 -0.5102 0.8589
vn 0.6828 -0.2354 0.6916
vn 0.9476 0.0602 0.3138
vn 0.5674 -0.6984 0.4361
vn 0.8573 -0.5148 0.0004
vn 0.0488 -0.6469 0.7610
vn -0.1103 -0.6995 0.7060
vn 0.1641 -0.9744 0.1535
vn 0.3218 -0.8991 -0.2967
vn -0.1752 -0.7145 0.6774
vn -0.0192 -0.9978 0.0635
vn 0.0883 -0.9172 -0.3884
vn -0.1704 -0.5468 0.8197
vn -0.2089 -0.5515 0.8076
vn -0.2088 -0.5514 0.8077
vn -0.1750 -0.7144 0.6775
vn -0.2316 -0.3793 0.8958
vn -0.2435 0.2315 0.9419
vn -0.2315 -0.3791 0.8959
vn -0.2084 -0.5512 0.8079
vn -0.4180 0.2067 0.8846
vn -0.2919 -0.3907 0.8730
vn -0.2449 -0.5535 0.7960
vn -0.4235 0.6078 0.6717
vn -0.4499 0.5597 0.6959
vn -0.9121 0.3376 0.2327
vn -0.8977 0.3788 0.2251
vn -0.8008 0.0010 0.5989
vn -0.9713 -0.0660 -0.2285
vn -0.9630 -0.0498 -0.2650
vn -0.9172 -0.3400 0.2077
vn -0.4375 -0.4126 0.7990
vn -0.4437 -0.5474 0.7095
vn -0.6592 -0.7505 0.0468
vn -0.4002 -0.6731 0.6219
vn -0.2389 -0.7048 0.6680
vn -0.1746 -0.7143 0.6778
vn -0.1944 -0.9805 0.0286
vn -0.0137 -0.9985 0.0533
vn -0.0148 -0.9984 0.0551
vn 0.1017 -0.9089 -0.4045
vn 0.1049 -0.9070 -0.4078
vn 0.0737 -0.9476 -0.3107
vn 0.0481 -0.9540 -0.2959
vn 0.0805 -0.9462 -0.3134
vn 0.0321 -0.9878 -0.1525
vn 0.0395 -0.9873 -0.1540
vn 0.0057 -0.9896 -0.1438
vn 0.2946 -0.9322 -0.2104
vn 0.2732 -0.9569 -0.0987
vn 0.8475 -0.5282 0.0521
vn 0.9475 0.0401 0.3172
vn -0.1131 -0.8773 -0.4663
vn -0.1537 -0.9149 -0.3733
vn -0.7104 -0.5772 -0.4028
vn -0.6734 -0.5584 -0.4845
vn -0.4448 0.3462 0.8260
vn -0.2352 0.3433 0.9093
vn -0.3670 0.7309 0.5754
vn -0.1689 0.7384 0.6529
vn -0.0624 0.9685 0.2412
vn -0.2617 0.9471 0.1859
vn -0.1628 0.9544 -0.2503
vn 0.0516 0.9785 -0.1997
vn 0.1521 0.7944 -0.5881
vn 0.2523 0.9570 -0.1434
vn 0.3342 0.7776 -0.5325
vn 0.1286 0.9485 0.2896
vn 0.7044 0.7093 0.0268
vn 0.5682 0.7197 0.3989
vn 0.7437 0.5787 -0.3349
vn 0.2233 0.4523 -0.8635
vn 0.4059 0.4541 -0.7931
vn 0.6966 0.4072 -0.5908
vn 0.4483 0.0263 -0.8935
vn 0.2504 0.0139 -0.9681
vn 0.8227 0.0867 -0.5618
vn 0.9728 0.1869 -0.1365
vn 0.4405 -0.1867 -0.8781
vn 0.8273 -0.1522 -0.5408
vn 0.9928 -0.0654 -0.1000
vn 0.8224 -0.1865 -0.5374
vn 0.4443 -0.1953 -0.8743
vn 0.9847 -0.1439 -0.0987
vn 0.9686 0.0086 0.2486
vn 0.9579 -0.0919 0.2721
vn 0.9449 0.2707 0.1843
vn 0.8169 0.2973 0.4942
vn 0.8206 0.0503 0.5693
vn 0.8032 -0.0263 0.5951
vn 0.4735 0.3245 0.8188
vn 0.3866 0.6341 0.6697
vn 0.4629 0.0969 0.8811
vn -0.0237 0.3436 0.9388
vn 0.0311 0.7283 0.6846
vn 0.2462 -0.1825 -0.9519
vn 0.0335 0.0216 -0.9992
vn 0.0239 0.4507 -0.8924
vn 0.0277 -0.1875 -0.9819
vn -0.0441 0.7774 -0.6275
vn -0.5611 -0.6887 -0.4592
vt 0.250000 0.000000
vt 0.250000 0.144212
vt 0.000000 0.144212
vt 0.000000 0.000000
vt 1.000000 0.166667
vt 0.750000 0.166667
vt 0.750000 0.000000
vt 1.000000 0.000000
vt 1.000000 0.144212
vt 0.833333 0.144212
vt 0.833333 0.000000
vt 0.000000 0.288425
vt 0.250000 0.305266
vt 1.000000 0.288425
vt 0.833333 0.305266
vt 0.666667 0.000000
vt 0.666667 0.144212
vt 0.666667 0.305266
vt 0.833333 0.500000
vt 0.666667 0.500000
vt 1.000000 0.500000
vt 0.833333 0.694734
vt 0.666667 0.694734
vt 1.000000 0.711575
vt 1.000000 0.855788
vt 0.833333 0.855788
vt 0.666667 0.855788
vt 0.500000 0.855788
vt 0.500000 0.694734
vt 0.500000 0.500000
vt 0.666667 1.000000
vt 0.500000 1.000000
vt 0.833333 1.000000
vt 0.000000 0.333333
vt 0.000000 0.166667
vt 0.250000 0.166667
vt 0.250000 0.333333
vt 0.250000 0.500000
vt 0.000000 0.500000
vt 0.497758 0.171856
vt 0.499440 0.334631
vt 0.250000 0.666667
vt 0.000000 0.666667
vt 0.500000 0.666667
vt 0.250000 0.833333
vt 0.000000 0.833333
vt 0.500000 0.833333
vt 0.250000 1.000000
vt 0.000000 1.000000
vt 0.750000 0.666667
vt 0.750000 0.833333
vt 0.750000 1.000000
vt 1.000000 0.666667
vt 1.000000 0.833333
vt 1.000000 1.000000
vt 0.750000 0.500000
vt 1.000000 0.333333
vt 0.747758 0.338523
vt 0.741033 0.187425
vt 1.000000 0.301896
vt 0.852583 0.135229
vt 1.000000 0.270459
vt 0.602583 0.000000
vt 0.500000 0.000000
vt 0.705166 0.000000
vt 0.602583 1.000000
vt 0.602306 0.855788
vt 0.704612 0.855788
vt 0.705166 1.000000
vt 0.463076 0.855788
vt 0.250000 0.855788
vt 0.250000 0.694734
vt 0.463024 0.694734
vt 0.602098 0.694734
vt 0.463007 0.500000
vt 0.602029 0.500000
vt 0.602029 0.305266
vt 0.463007 0.305266
vt 0.000000 0.711575
vt 0.463007 0.144212
vt 0.602029 0.144212
vt 0.602029 0.000000
vt 0.502297 0.171856
vt 0.259189 0.187425
vt 0.397971 0.000000
vt 0.500574 0.334631
vt 0.252297 0.338523
vt 0.750000 0.333333
vt 0.000000 0.301896
vt 0.000000 0.270459
vt 0.147971 0.135229
vt 0.295943 0.000000
vt 0.367141 0.144212
vt 0.301896 0.144212
vt 0.301896 0.000000
vt 0.333333 0.000000
vt 0.270459 0.000000
vt 0.278318 0.144212
vt 0.301896 0.305266
vt 0.278318 0.305266
vt 0.367141 0.305266
vt 0.500000 0.144212
vt 0.500000 0.305266
vt 0.500000 0.000000
vt 0.367141 0.500000
vt 0.301896 0.500000
vt 0.367141 0.694734
vt 0.367141 0.855788
vt 0.301896 0.855788
vt 0.301896 0.694734
vt 0.278318 0.694734
vt 0.278318 0.855788
vt 0.278318 0.500000
vt 0.270459 0.500000
vt 0.270459 0.305266
vt 0.270459 0.694734
vt 0.270459 0.694734
vt 0.270459 0.144212
vt 0.302506 0.036053
vt 0.302506 0.144212
vt 0.302506 0.305266
vt 0.327432 0.064095
vt 0.398648 0.036053
vt 0.398648 0.000000
vt 0.494790 0.036053
vt 0.469864 0.064095
vt 0.494790 0.144212
vt 0.526837 0.144212
vt 0.526837 0.288425
vt 0.526837 0.288425
vt 0.398648 0.144212
vt 0.398648 0.288425
vt 0.398648 0.500000
vt 0.494790 0.500000
vt 0.302506 0.500000
vt 0.302475 0.695094
vt 0.398648 0.711575
vt 0.270459 0.855788
vt 0.302383 0.857226
vt 0.398155 0.861543
vt 0.302259 0.966825
vt 0.302260 0.966825
vt 0.397661 1.011512
vt 0.327048 0.940382
vt 0.397785 0.974020
vt 0.493310 0.981214
vt 0.468713 0.949336
vt 0.493927 0.865860
vt 0.526837 0.711575
vt 0.525850 0.867299
vt 0.526837 0.500000
vt 0.704057 0.288425
vt 0.704057 0.500000
vt 0.704057 0.144212
vt 0.704057 0.000000
vt 0.526837 0.000000
vt 0.704057 0.711575
vt 0.524864 1.023023
vt 0.270459 1.000000
vt 0.301896 1.000000
vt 0.333333 1.000000
vt 0.000000 0.855788
vt 0.500000 0.855788
vt 0.500000 0.694734
vt 0.750000 0.305266
vt 0.750000 0.694734
vt 0.500000 0.144212
vt 0.750000 0.144212
vt 0.166667 0.144212
vt 0.166667 0.305266
vt 0.166667 0.000000
vt 0.333333 0.144212
vt 0.333333 0.305266
vt 0.333333 0.500000
vt 0.166667 0.500000
vt 0.166667 0.694734
vt 0.333333 0.694734
vt 0.166667 0.855788
vt 0.333333 0.855788
vt 0.166667 1.000000
vt 0.750000 0.855788
s 1
f 2/1/1 5/2/2 4/3/3 1/4/4
f 3/5/5 72/6/6 2/7/1 1/8/4
f 4/9/3 7/10/7 3/11/5 1/8/4
f 6/12/8 4/3/3 5/2/2 64/13/9
f 6/14/8 9/15/10 7/10/7 4/9/3
f 227/16/11 3/11/5 7/10/7 8/17/12
f 8/17/12 7/10/7 9/15/10 10/18/13
f 10/18/13 9/15/10 11/19/14 12/20/13
f 13/21/15 11/19/14 9/15/10 6/14/8
f 12/20/13 11/19/14 14/22/16 17/23/13
f 15/24/17 14/22/16 11/19/14 13/21/15
f 247/25/18 16/26/19 14/22/16 15/24/17
f 17/23/13 14/22/16 16/26/19 19/27/20
f 19/27/20 20/28/21 18/29/22 17/23/13
f 17/23/13 18/29/22 230/30/22 12/20/13
f 21/31/23 23/32/24 20/28/21 19/27/20
f 19/27/20 16/26/19 22/33/25 21/31/23
f 21/34/23 22/35/25 25/36/26 24/37/27
f 21/34/23 24/37/27 27/38/28 23/39/24
f 24/37/27 25/36/26 48/40/29 26/41/30
f 28/30/31 27/38/28 24/37/27 26/41/30
f 23/39/24 27/38/28 29/42/32 30/43/33
f 31/44/34 29/42/32 27/38/28 28/30/31
f 30/43/33 29/42/32 32/45/35 34/46/36
f 35/47/37 32/45/35 29/42/32 31/44/34
f 36/32/38 33/48/39 32/45/35 35/47/37
f 34/46/36 32/45/35 33/48/39 242/49/40
f 40/50/41 37/51/42 35/47/37 31/44/34
f 36/32/38 35/47/37 37/51/42 39/52/43
f 41/53/44 38/54/45 37/51/42 40/50/41
f 39/52/43 37/51/42 38/54/45 246/55/46
f 40/50/41 42/56/47 43/21/48 41/53/44
f 31/44/34 28/30/31 42/56/47 40/50/41
f 45/57/49 43/21/48 42/56/47 44/58/50
f 44/58/50 42/56/47 28/30/31 26/41/30
f 45/57/49 44/58/50 46/59/51 47/60/52
f 26/41/30 48/40/29 46/59/51 44/58/50
f 47/60/52 46/59/51 49/61/53 176/62/54
f 50/63/55 46/59/51 48/40/29 53/64/56
f 51/65/57 49/61/53 46/59/51 50/63/55
f 50/66/55 52/67/58 170/68/59 51/69/57
f 53/32/56 55/70/60 52/67/58 50/66/55
f 53/64/56 48/40/29 25/36/26 54/1/61
f 53/32/56 54/48/61 56/71/62 55/70/60
f 55/70/60 56/71/62 58/72/63 57/73/64
f 59/74/65 52/67/58 55/70/60 57/73/64
f 57/73/64 58/72/63 63/38/66 60/75/67
f 57/73/64 60/75/67 61/76/68 59/74/65
f 65/77/69 61/76/68 60/75/67 62/78/70
f 60/75/67 63/38/66 64/13/9 62/78/70
f 13/39/15 63/38/66 58/72/63 15/79/17
f 6/12/8 64/13/9 63/38/66 13/39/15
f 64/13/9 5/2/2 66/80/71 62/78/70
f 66/80/71 67/81/72 65/77/69 62/78/70
f 68/64/73 69/82/74 67/81/72 66/80/71
f 68/64/73 66/80/71 5/2/2 2/1/1
f 68/64/73 70/83/75 73/84/76 69/85/74
f 68/64/73 2/7/1 72/6/6 70/83/75
f 71/86/77 74/87/78 73/84/76 70/83/75
f 70/83/75 72/6/6 226/88/79 71/86/77
f 76/89/80 73/84/76 74/87/78 77/34/81
f 78/90/82 75/91/83 73/84/76 76/89/80
f 69/85/74 73/84/76 75/91/83 164/92/84
f 82/93/85 79/94/86 76/95/80 77/96/81
f 78/97/82 76/95/80 79/94/86 81/98/87
f 81/98/87 79/94/86 80/99/88 100/100/89
f 84/101/90 80/99/88 79/94/86 82/93/85
f 82/93/85 83/102/91 86/103/92 84/101/90
f 77/96/81 223/104/93 83/102/91 82/93/85
f 85/105/90 98/106/88 80/99/88 84/101/90
f 84/101/90 86/103/92 88/30/92 85/105/90
f 87/18/94 86/103/92 83/102/91 224/17/95
f 89/20/94 88/30/92 86/103/92 87/18/94
f 91/23/94 90/29/92 88/30/92 89/20/94
f 85/105/90 88/30/92 90/29/92 93/107/90
f 178/27/96 92/28/97 90/29/92 91/23/94
f 93/107/90 90/29/92 92/28/97 94/108/98
f 94/108/98 96/109/99 95/110/88 93/107/90
f 93/107/90 95/110/88 98/106/88 85/105/90
f 97/111/89 95/110/88 96/109/99 177/112/100
f 99/113/89 98/106/88 95/110/88 97/111/89
f 100/100/89 80/99/88 98/106/88 99/113/89
f 99/113/89 101/114/101 104/115/101 100/100/89
f 97/111/89 103/116/101 101/114/101 99/113/89
f 102/114/102 101/114/101 103/116/101 136/117/102
f 106/115/102 104/115/101 101/114/101 102/114/102
f 100/100/89 104/115/101 105/118/103 81/98/87
f 108/118/104 105/118/103 104/115/101 106/115/102
f 102/114/102 130/114/105 107/115/105 106/115/102
f 106/115/102 107/115/105 110/118/106 108/118/104
f 108/118/104 110/118/106 112/119/107 109/119/108
f 109/119/108 167/119/109 105/118/103 108/118/104
f 111/120/110 110/118/106 107/115/105 128/121/111
f 113/122/112 112/119/107 110/118/106 111/120/110
f 116/123/113 114/124/114 112/119/107 113/122/112
f 109/119/108 112/119/107 114/124/114 115/124/115
f 115/124/115 114/124/114 117/125/116 119/125/117
f 118/126/118 117/125/116 114/124/114 116/123/113
f 123/127/119 120/128/120 117/125/116 118/126/118
f 119/125/117 117/125/116 120/128/120 122/128/121
f 124/129/122 121/130/123 120/128/120 123/127/119
f 122/128/121 120/128/120 121/130/123 155/130/124
f 116/123/113 125/131/125 123/127/119 118/126/118
f 124/129/122 123/127/119 125/131/125 126/132/126
f 113/122/112 111/120/110 125/131/125 116/123/113
f 126/132/126 125/131/125 111/120/110 128/121/111
f 126/132/126 127/133/127 152/134/128 124/129/122
f 128/121/111 129/135/129 127/133/127 126/132/126
f 128/121/111 107/115/105 130/114/105 129/135/129
f 129/135/129 130/114/105 134/116/130 131/136/131
f 133/137/132 127/133/127 129/135/129 131/136/131
f 131/136/131 134/116/130 135/138/133 132/139/134
f 131/136/131 132/139/134 147/140/135 133/137/132
f 137/138/136 135/138/133 134/116/130 136/117/102
f 136/117/102 134/116/130 130/114/105 102/114/102
f 136/117/102 103/116/101 138/138/137 137/138/136
f 137/138/136 138/138/137 140/141/138 139/142/139
f 139/142/139 142/141/140 135/138/133 137/138/136
f 139/142/139 140/141/138 173/143/141 141/143/142
f 141/143/142 143/143/143 142/141/140 139/142/139
f 144/144/144 142/141/140 143/143/143 145/145/145
f 132/139/134 135/138/133 142/141/140 144/144/144
f 145/145/145 147/140/135 132/139/134 144/144/144
f 145/145/145 143/143/143 175/146/146 146/147/147
f 146/147/147 148/148/148 147/140/135 145/145/145
f 133/137/132 147/140/135 148/148/148 150/149/149
f 148/148/148 149/150/150 151/149/151 150/149/149
f 146/147/147 175/146/146 149/150/150 148/148/148
f 150/149/149 151/149/151 153/151/152 152/134/128
f 150/149/149 152/134/128 127/133/127 133/137/132
f 152/134/128 153/151/152 121/130/123 124/129/122
f 154/151/153 153/151/152 151/149/151 156/149/154
f 155/130/124 121/130/123 153/151/152 154/151/153
f 154/151/153 157/151/155 160/130/156 155/130/124
f 156/149/154 159/149/157 157/151/155 154/151/153
f 158/151/158 157/151/155 159/149/157 169/149/159
f 162/130/160 160/130/156 157/151/155 158/151/158
f 155/130/124 160/130/156 161/128/161 122/128/121
f 163/128/162 161/128/161 160/130/156 162/130/160
f 162/152/160 158/153/158 61/76/68 65/77/69
f 162/152/160 65/77/69 67/81/72 163/154/162
f 163/154/162 67/81/72 69/82/74 164/155/84
f 164/156/84 165/125/163 161/128/161 163/128/162
f 75/124/83 166/124/164 165/125/163 164/156/84
f 122/128/121 161/128/161 165/125/163 119/125/117
f 119/125/117 165/125/163 166/124/164 115/124/115
f 78/97/82 167/119/109 166/124/164 75/124/83
f 115/124/115 166/124/164 167/119/109 109/119/108
f 81/98/87 105/118/103 167/119/109 78/97/82
f 171/150/165 168/150/166 159/149/157 156/149/154
f 169/149/159 159/149/157 168/150/166 170/150/59
f 59/74/65 61/76/68 158/153/158 169/157/159
f 169/157/159 170/68/59 52/67/58 59/74/65
f 170/150/59 168/150/166 172/146/167 51/158/57
f 174/146/168 172/146/167 168/150/166 171/150/165
f 51/158/57 172/146/167 173/143/141 49/143/53
f 141/143/142 173/143/141 172/146/167 174/146/168
f 171/150/165 149/150/150 175/146/146 174/146/168
f 174/146/168 175/146/146 143/143/143 141/143/142
f 49/143/53 173/143/141 140/141/138 176/159/54
f 156/149/154 151/149/151 149/150/150 171/150/165
f 176/159/54 140/141/138 138/138/137 177/112/100
f 177/112/100 96/109/99 47/160/52 176/159/54
f 177/112/100 138/138/137 103/116/101 97/111/89
f 45/161/49 47/160/52 96/109/99 94/108/98
f 94/108/98 92/28/97 43/32/48 45/161/49
f 41/31/44 43/32/48 92/28/97 178/27/96
f 178/27/96 179/26/169 38/33/45 41/31/44
f 91/23/94 181/22/170 179/26/169 178/27/96
f 180/25/171 179/26/169 181/22/170 183/24/172
f 246/55/46 38/33/45 179/26/169 180/25/171
f 89/20/94 182/19/170 181/22/170 91/23/94
f 183/24/172 181/22/170 182/19/170 184/21/172
f 183/79/172 185/72/173 186/71/174 180/162/171
f 184/39/172 188/38/173 185/72/173 183/79/172
f 245/163/175 186/71/174 185/72/173 187/164/176
f 187/164/176 185/72/173 188/38/173 190/30/176
f 190/30/176 188/38/173 189/13/173 192/103/176
f 221/12/172 189/13/173 188/38/173 184/39/172
f 193/165/177 191/56/177 190/30/176 192/103/176
f 187/164/176 190/30/176 191/56/177 244/166/177
f 194/167/178 197/168/179 193/165/177 192/103/176
f 189/13/173 196/2/180 194/167/178 192/103/176
f 195/64/181 194/167/178 196/2/180 215/1/182
f 195/64/181 198/7/183 197/168/179 194/167/178
f 201/14/184 193/165/177 197/168/179 199/9/185
f 199/9/185 197/168/179 198/7/183 202/8/186
f 199/3/185 200/169/187 233/170/188 201/12/184
f 202/4/186 203/171/189 200/169/187 199/3/185
f 198/52/183 204/51/190 203/54/189 202/55/186
f 206/172/191 200/169/187 203/171/189 205/96/192
f 205/53/192 203/54/189 204/51/190 208/50/193
f 205/96/192 207/104/194 228/102/195 206/172/191
f 208/50/193 209/56/196 207/21/194 205/53/192
f 210/44/197 212/30/198 209/56/196 208/50/193
f 208/50/193 204/51/190 213/47/199 210/44/197
f 213/47/199 214/45/200 211/42/201 210/44/197
f 210/44/197 211/42/201 225/38/202 212/30/198
f 195/32/181 215/48/182 214/45/200 213/47/199
f 195/32/181 213/47/199 204/51/190 198/52/183
f 216/46/203 214/45/200 215/48/182 219/49/204
f 218/43/205 211/42/201 214/45/200 216/46/203
f 218/16/205 216/11/203 217/10/206 224/17/95
f 220/9/207 217/10/206 216/11/203 219/8/204
f 215/1/182 196/2/180 220/3/207 219/4/204
f 221/12/172 220/3/207 196/2/180 189/13/173
f 221/14/172 222/15/170 217/10/206 220/9/207
f 184/21/172 182/19/170 222/15/170 221/14/172
f 224/17/95 217/10/206 222/15/170 87/18/94
f 87/18/94 222/15/170 182/19/170 89/20/94
f 224/17/95 83/102/91 223/104/93 218/16/205
f 223/39/93 225/38/202 211/42/201 218/43/205
f 77/34/81 74/87/78 225/38/202 223/39/93
f 212/30/198 225/38/202 74/87/78 71/86/77
f 226/88/79 209/56/196 212/30/198 71/86/77
f 227/57/11 207/21/194 209/56/196 226/88/79
f 227/57/11 226/88/79 72/6/6 3/5/5
f 8/17/12 228/102/195 207/104/194 227/16/11
f 206/172/191 228/102/195 229/103/22 231/173/208
f 10/18/13 229/103/22 228/102/195 8/17/12
f 12/20/13 230/30/22 229/103/22 10/18/13
f 231/173/208 229/103/22 230/30/22 232/174/208
f 232/174/208 234/175/188 233/170/188 231/173/208
f 231/173/208 233/170/188 200/169/187 206/172/191
f 201/12/184 233/170/188 234/175/188 235/39/184
f 235/39/184 234/175/188 236/176/188 237/79/184
f 238/177/208 236/176/188 234/175/188 232/174/208
f 237/79/184 236/176/188 239/178/209 240/162/210
f 241/179/211 239/178/209 236/176/188 238/177/208
f 240/162/210 239/178/209 34/180/36 242/49/40
f 30/161/33 34/180/36 239/178/209 241/179/211
f 241/179/211 20/28/21 23/32/24 30/161/33
f 238/177/208 18/29/22 20/28/21 241/179/211
f 33/52/39 243/181/212 240/25/210 242/55/40
f 237/24/184 240/25/210 243/181/212 244/166/177
f 36/32/38 245/163/175 243/181/212 33/52/39
f 244/166/177 243/181/212 245/163/175 187/164/176
f 36/32/38 39/48/43 186/71/174 245/163/175
f 244/166/177 191/56/177 235/21/184 237/24/184
f 232/174/208 230/30/22 18/29/22 238/177/208
f 201/14/184 235/21/184 191/56/177 193/165/177
f 180/162/171 186/71/174 39/48/43 246/49/46
f 15/79/17 58/72/63 56/71/62 247/162/18
f 247/162/18 56/71/62 54/48/61 248/49/213
f 248/55/213 22/33/25 16/26/19 247/25/18
f 54/1/61 25/36/26 22/35/25 248/4/213
