# Blender 4.2.3 LTS
# www.blender.org
mtllib rightForearm.mtl
o Robot_Right_Forearm.001
v -1.535227 3.053618 -0.387166
v -1.906999 3.053618 -0.387166
v -1.555690 3.053618 -0.348639
v -1.527290 3.053618 -0.372223
v -1.484493 3.308378 -0.387166
v -1.461581 3.563138 -0.387166
v -1.957733 3.308378 -0.387166
v -1.474390 3.308667 -0.372222
v -1.450499 3.563716 -0.372222
v -1.474390 3.308667 -0.020665
v -1.450499 3.563716 -0.020665
v -1.484493 3.308378 -0.005722
v -1.527290 3.053618 -0.020665
v -1.547753 3.053618 -0.059192
v -1.535227 3.053618 -0.005722
v -1.906999 3.053618 -0.005722
v -1.555690 3.053618 -0.044248
v -1.547753 3.065825 -0.044248
v -1.886536 3.053618 -0.044248
v -1.894473 3.065825 -0.044248
v -1.894473 3.053618 -0.059192
v -1.894473 3.053618 -0.333696
v -1.914936 3.053618 -0.020665
v -1.967837 3.308667 -0.020665
v -1.914936 3.053618 -0.372223
v -1.967837 3.308667 -0.372222
v -1.991727 3.563716 -0.372222
v -1.984283 3.818765 -0.372222
v -1.980645 3.563138 -0.387166
v -1.991727 3.563716 -0.020665
v -1.980645 3.563138 -0.005722
v -1.984283 3.818765 -0.020665
v -1.983205 3.827311 -0.016288
v -1.973506 3.817898 -0.005722
v -1.944391 3.926739 -0.005721
v -1.468720 3.817898 -0.005722
v -1.461581 3.563138 -0.005722
v -1.459021 3.827311 -0.016288
v -1.497835 3.926739 -0.005721
v -1.457943 3.818765 -0.020665
v -1.457943 3.818765 -0.372222
v -1.459021 3.827311 -0.376599
v -1.468720 3.817898 -0.387166
v -1.497835 3.926739 -0.387166
v -1.973506 3.817898 -0.387166
v -1.944391 3.926739 -0.387166
v -1.983205 3.827311 -0.376599
v -1.980354 3.849922 -0.348639
v -1.954084 3.930906 -0.372222
v -1.914392 4.011007 -0.372222
v -1.954084 3.930906 -0.348639
v -1.914392 4.011007 -0.348639
v -1.844045 3.883601 -0.348639
v -1.844045 3.883601 -0.044248
v -1.856791 3.829927 -0.348639
v -1.831824 3.911031 -0.348639
v -1.831824 3.911031 -0.044248
v -1.809170 3.925828 -0.348639
v -1.809170 3.925828 -0.044248
v -1.848239 4.059068 -0.348639
v -1.747347 3.934056 -0.348639
v -1.755624 4.075088 -0.348639
v -1.694880 3.934056 -0.348639
v -1.747347 3.934056 -0.044248
v -1.755624 4.075088 -0.044248
v -1.694880 3.934056 -0.044248
v -1.686602 4.075088 -0.044248
v -1.633056 3.925828 -0.044248
v -1.593987 4.059068 -0.044248
v -1.610402 3.911031 -0.044248
v -1.633056 3.925828 -0.348639
v -1.593987 4.059068 -0.348639
v -1.610402 3.911031 -0.348639
v -1.598181 3.883601 -0.348639
v -1.527834 4.011007 -0.348639
v -1.488142 3.930906 -0.348639
v -1.527834 4.011007 -0.372222
v -1.488142 3.930906 -0.372222
v -1.535183 4.002110 -0.387166
v -1.593987 4.059068 -0.372222
v -1.686602 4.075088 -0.372222
v -1.597429 4.047332 -0.387166
v -1.687318 4.062881 -0.387166
v -1.754908 4.062881 -0.387166
v -1.755624 4.075088 -0.372222
v -1.844797 4.047332 -0.387166
v -1.848239 4.059068 -0.372222
v -1.907044 4.002110 -0.387166
v -1.686602 4.075088 -0.348639
v -1.461873 3.849922 -0.348639
v -1.461873 3.849922 -0.044248
v -1.585435 3.829927 -0.348639
v -1.585435 3.829927 -0.044248
v -1.598181 3.883601 -0.044248
v -1.488142 3.930906 -0.044248
v -1.527834 4.011007 -0.044248
v -1.488142 3.930906 -0.020665
v -1.527834 4.011007 -0.020665
v -1.593987 4.059068 -0.020665
v -1.535183 4.002110 -0.005721
v -1.597429 4.047332 -0.005721
v -1.687318 4.062881 -0.005721
v -1.754908 4.062881 -0.005721
v -1.686602 4.075088 -0.020665
v -1.755624 4.075088 -0.020665
v -1.848239 4.059068 -0.020665
v -1.844797 4.047332 -0.005721
v -1.848239 4.059068 -0.044248
v -1.914392 4.011007 -0.020665
v -1.954084 3.930906 -0.020665
v -1.914392 4.011007 -0.044248
v -1.907044 4.002110 -0.005721
v -1.954084 3.930906 -0.044248
v -1.980354 3.849922 -0.044248
v -1.856791 3.829927 -0.044248
v -1.957733 3.308378 -0.005722
v -1.886536 3.053618 -0.348639
v -1.894473 3.065825 -0.348639
v -1.941788 3.249734 -0.348639
v -1.500438 3.249734 -0.348639
v -1.941788 3.249734 -0.044248
v -1.500438 3.249734 -0.044248
v -1.547753 3.065825 -0.348639
v -1.547753 3.053618 -0.333696
v -1.706507 4.079458 -0.031148
v -1.706507 4.164334 -0.043563
v -1.674027 4.157873 -0.043563
v -1.646491 4.139475 -0.043563
v -1.628092 4.111938 -0.043563
v -1.621631 4.079458 -0.043563
v -1.628092 4.046977 -0.043563
v -1.646491 4.019441 -0.043563
v -1.674027 4.001042 -0.043563
v -1.706507 3.994581 -0.043563
v -1.738988 4.001042 -0.043563
v -1.766524 4.019441 -0.043563
v -1.784923 4.046977 -0.043563
v -1.791384 4.079458 -0.043563
v -1.784923 4.111938 -0.043563
v -1.766524 4.139475 -0.043563
v -1.738988 4.157873 -0.043563
v -1.766524 4.224351 -0.078918
v -1.706507 4.236289 -0.078918
v -1.817404 4.190354 -0.078918
v -1.784923 4.268770 -0.131831
v -1.706507 4.284368 -0.131831
v -1.851400 4.224351 -0.131831
v -1.791384 4.284368 -0.194246
v -1.706507 4.301250 -0.194246
v -1.863338 4.236289 -0.194246
v -1.784923 4.268770 -0.256660
v -1.706507 4.284368 -0.256660
v -1.851400 4.224351 -0.256660
v -1.766524 4.224351 -0.309573
v -1.706507 4.236289 -0.309573
v -1.817404 4.190354 -0.309573
v -1.738988 4.157873 -0.344928
v -1.706507 4.164334 -0.344928
v -1.766524 4.139475 -0.344928
v -1.706507 4.079458 -0.357343
v -1.706507 3.994581 -0.344928
v -1.738988 4.001042 -0.344928
v -1.674027 4.157873 -0.344928
v -1.766524 4.019441 -0.344928
v -1.646491 4.139475 -0.344928
v -1.784923 4.046977 -0.344928
v -1.628092 4.111938 -0.344928
v -1.791384 4.079458 -0.344928
v -1.621631 4.079458 -0.344928
v -1.784923 4.111938 -0.344928
v -1.628092 4.046977 -0.344928
v -1.646491 4.019441 -0.344928
v -1.674027 4.001042 -0.344928
v -1.646491 3.934565 -0.309573
v -1.595611 3.968561 -0.309573
v -1.628092 3.890146 -0.256661
v -1.706507 3.922627 -0.309573
v -1.706507 3.874548 -0.256661
v -1.766524 3.934565 -0.309573
v -1.784923 3.890146 -0.256661
v -1.817404 3.968561 -0.309573
v -1.851401 3.934565 -0.256661
v -1.851401 4.019441 -0.309573
v -1.895820 4.001042 -0.256660
v -1.863339 4.079458 -0.309573
v -1.911417 4.079458 -0.256660
v -1.851401 4.139475 -0.309573
v -1.895819 4.157874 -0.256660
v -1.911417 4.164334 -0.194246
v -1.928300 4.079458 -0.194246
v -1.895819 4.157874 -0.131831
v -1.911417 4.079458 -0.131831
v -1.851401 4.139475 -0.078918
v -1.863339 4.079458 -0.078918
v -1.851401 4.019441 -0.078918
v -1.817404 3.968561 -0.078918
v -1.895820 4.001042 -0.131831
v -1.851401 3.934565 -0.131831
v -1.911417 3.994581 -0.194246
v -1.863339 3.922627 -0.194246
v -1.791384 3.874548 -0.194246
v -1.706507 3.857665 -0.194246
v -1.784923 3.890146 -0.131831
v -1.706507 3.874548 -0.131831
v -1.766524 3.934565 -0.078919
v -1.706507 3.922627 -0.078919
v -1.646491 3.934565 -0.078919
v -1.595611 3.968561 -0.078918
v -1.628092 3.890146 -0.131831
v -1.561614 3.934565 -0.131831
v -1.621631 3.874548 -0.194246
v -1.549676 3.922627 -0.194246
v -1.501598 3.994581 -0.194246
v -1.561614 3.934565 -0.256661
v -1.517195 4.001042 -0.256660
v -1.501598 4.079458 -0.256660
v -1.561614 4.019441 -0.309573
v -1.549676 4.079458 -0.309573
v -1.561614 4.139475 -0.309573
v -1.595611 4.190354 -0.309573
v -1.517195 4.157873 -0.256660
v -1.561614 4.224351 -0.256660
v -1.501598 4.164334 -0.194246
v -1.549676 4.236289 -0.194246
v -1.517195 4.157873 -0.131831
v -1.484715 4.079458 -0.194246
v -1.501598 4.079458 -0.131831
v -1.549676 4.079458 -0.078918
v -1.517195 4.001042 -0.131831
v -1.561614 4.019441 -0.078918
v -1.561614 4.139475 -0.078918
v -1.595611 4.190354 -0.078918
v -1.646491 4.224351 -0.078918
v -1.561614 4.224351 -0.131831
v -1.628092 4.268770 -0.131831
v -1.621631 4.284368 -0.194246
v -1.628092 4.268770 -0.256660
v -1.646491 4.224351 -0.309573
vn -0.0000 -1.0000 -0.0000
vn -0.0000 -0.0000 -1.0000
vn 0.8314 -0.1236 -0.5418
vn 0.8449 -0.1718 -0.5066
vn 0.8449 -0.1719 -0.5066
vn 0.8116 -0.0260 -0.5836
vn 0.8116 -0.0258 -0.5837
vn 0.9889 -0.1484 -0.0000
vn 0.9792 -0.2031 -0.0000
vn 0.9995 -0.0321 -0.0000
vn 0.8116 -0.0258 0.5837
vn 0.8116 -0.0259 0.5836
vn 0.8314 -0.1235 0.5417
vn 0.8314 -0.1234 0.5418
vn 0.8448 -0.1716 0.5068
vn 0.8449 -0.1716 0.5067
vn -0.0000 -0.0000 1.0000
vn -0.7659 0.4980 -0.4068
vn 0.7659 0.4980 -0.4068
vn 0.9490 0.2441 0.1993
vn 0.9655 0.2406 0.1001
vn 0.9655 0.2406 -0.1001
vn 0.9490 0.2442 -0.1993
vn -0.9889 -0.1484 -0.0000
vn -0.9792 -0.2031 -0.0000
vn -0.8314 -0.1236 0.5418
vn -0.8449 -0.1718 0.5066
vn -0.8314 -0.1234 -0.5418
vn -0.8314 -0.1235 -0.5417
vn -0.8449 -0.1717 -0.5066
vn -0.8450 -0.1717 -0.5065
vn -0.9995 -0.0321 -0.0000
vn -0.8116 -0.0258 -0.5837
vn -0.8116 -0.0261 -0.5836
vn -0.9956 0.0932 -0.0000
vn -0.8086 -0.0836 -0.5823
vn -0.7855 0.0151 -0.6187
vn -0.8116 -0.0261 0.5836
vn -0.8116 -0.0258 0.5837
vn -0.7871 0.0146 0.6167
vn -0.8086 -0.0836 0.5823
vn -0.9774 0.2078 0.0380
vn -0.9833 0.1804 0.0253
vn -0.9832 0.1813 -0.0208
vn -0.9774 0.2092 -0.0311
vn -0.7768 0.0103 0.6297
vn -0.7278 0.2873 0.6227
vn -0.7279 0.2873 0.6226
vn 0.8086 -0.0836 0.5823
vn 0.7855 0.0151 0.6187
vn 0.7746 0.0110 0.6324
vn 0.7254 0.2881 0.6252
vn 0.9774 0.2078 -0.0380
vn 0.9833 0.1803 -0.0253
vn 0.9832 0.1813 0.0208
vn 0.9774 0.2092 0.0311
vn 0.9956 0.0932 -0.0000
vn 0.8086 -0.0836 -0.5823
vn 0.7871 0.0146 -0.6167
vn 0.7768 0.0103 -0.6297
vn 0.7278 0.2873 -0.6227
vn -0.7746 0.0110 -0.6324
vn -0.7254 0.2881 -0.6252
vn -0.9288 0.3692 -0.0312
vn -0.7640 0.6452 -0.0000
vn -0.6105 0.5115 -0.6047
vn -0.9729 0.2311 -0.0000
vn -0.9473 0.3204 -0.0000
vn -0.9134 0.4070 -0.0000
vn -0.5469 0.8372 -0.0000
vn -0.3480 0.9375 -0.0000
vn -0.0661 0.9978 -0.0000
vn 0.0661 0.9978 -0.0000
vn 0.3480 0.9375 -0.0000
vn 0.5469 0.8372 -0.0000
vn 0.9134 0.4070 -0.0000
vn 0.9473 0.3204 -0.0000
vn 0.3892 0.9211 -0.0000
vn 0.7640 0.6452 -0.0000
vn 0.9291 0.3678 -0.0377
vn 0.9291 0.3679 -0.0380
vn 0.6105 0.5115 -0.6047
vn 0.3037 0.7141 -0.6308
vn 0.0855 0.9963 -0.0000
vn 0.0662 0.7712 -0.6332
vn 0.0666 0.7711 -0.6332
vn -0.0662 0.7712 -0.6332
vn -0.0670 0.7711 -0.6332
vn -0.3037 0.7141 -0.6308
vn -0.3892 0.9211 -0.0000
vn -0.0855 0.9963 -0.0000
vn -0.1597 0.9872 -0.0000
vn 0.9729 0.2311 -0.0000
vn 0.9288 0.3692 0.0312
vn 0.6105 0.5115 0.6047
vn 0.3037 0.7141 0.6308
vn 0.0660 0.7712 0.6332
vn 0.0670 0.7711 0.6332
vn -0.0660 0.7712 0.6332
vn -0.0670 0.7711 0.6332
vn -0.3037 0.7141 0.6308
vn -0.6105 0.5115 0.6047
vn -0.9292 0.3678 0.0375
vn -0.9291 0.3679 0.0380
vn 0.1597 0.9872 -0.0000
vn 0.7659 0.4980 0.4068
vn -0.9490 0.2441 -0.1993
vn -0.9655 0.2406 -0.1001
vn -0.9655 0.2406 0.1001
vn -0.9490 0.2442 0.1993
vn -0.7659 0.4980 0.4068
vn -0.0000 0.2962 0.9551
vn -0.1134 0.2737 0.9551
vn 0.1133 0.2737 0.9551
vn 0.2094 0.2094 0.9551
vn 0.2737 0.1134 0.9551
vn 0.2962 -0.0000 0.9551
vn 0.2737 -0.1134 0.9551
vn 0.2094 -0.2094 0.9551
vn 0.1134 -0.2737 0.9551
vn -0.0000 -0.2962 0.9551
vn -0.1134 -0.2737 0.9551
vn -0.2094 -0.2094 0.9551
vn -0.2737 -0.1134 0.9551
vn -0.2962 -0.0000 0.9551
vn -0.2737 0.1134 0.9551
vn -0.2094 0.2094 0.9551
vn -0.0000 0.6007 0.7995
vn -0.2299 0.5549 0.7995
vn -0.4247 0.4247 0.7995
vn -0.0000 0.8767 0.4810
vn -0.3355 0.8100 0.4810
vn -0.6199 0.6199 0.4810
vn -0.0000 1.0000 -0.0000
vn -0.3827 0.9239 -0.0000
vn -0.7071 0.7071 -0.0000
vn -0.0000 0.8767 -0.4810
vn -0.3355 0.8100 -0.4810
vn -0.6200 0.6200 -0.4810
vn -0.0000 0.6007 -0.7995
vn -0.2299 0.5549 -0.7995
vn -0.4247 0.4247 -0.7995
vn -0.0000 0.2962 -0.9551
vn -0.1134 0.2737 -0.9551
vn -0.2094 0.2094 -0.9551
vn -0.0000 -0.2962 -0.9551
vn -0.1134 -0.2737 -0.9551
vn 0.1134 -0.2737 -0.9551
vn 0.1134 0.2737 -0.9551
vn -0.2094 -0.2094 -0.9551
vn 0.2094 0.2094 -0.9551
vn -0.2737 -0.1134 -0.9551
vn 0.2737 0.1134 -0.9551
vn -0.2962 -0.0000 -0.9551
vn 0.2962 -0.0000 -0.9551
vn -0.2737 0.1134 -0.9551
vn 0.2737 -0.1134 -0.9551
vn 0.2094 -0.2094 -0.9551
vn 0.4247 -0.4247 -0.7995
vn 0.2299 -0.5549 -0.7995
vn -0.0000 -0.6007 -0.7995
vn 0.6200 -0.6200 -0.4810
vn 0.3355 -0.8100 -0.4810
vn -0.0000 -0.8767 -0.4810
vn -0.3355 -0.8100 -0.4810
vn -0.2299 -0.5549 -0.7995
vn -0.6200 -0.6200 -0.4810
vn -0.4247 -0.4247 -0.7995
vn -0.8100 -0.3355 -0.4810
vn -0.5549 -0.2299 -0.7995
vn -0.8767 -0.0000 -0.4810
vn -0.6007 -0.0000 -0.7995
vn -0.8100 0.3355 -0.4810
vn -0.5549 0.2299 -0.7995
vn -1.0000 -0.0000 -0.0000
vn -0.9239 0.3827 -0.0000
vn -0.8767 -0.0000 0.4810
vn -0.8100 0.3355 0.4810
vn -0.6006 -0.0000 0.7995
vn -0.5549 0.2299 0.7995
vn -0.5549 -0.2299 0.7995
vn -0.8100 -0.3355 0.4810
vn -0.4247 -0.4247 0.7995
vn -0.6200 -0.6200 0.4810
vn -0.9239 -0.3827 -0.0000
vn -0.7071 -0.7071 -0.0000
vn -0.3827 -0.9239 -0.0000
vn -0.3355 -0.8100 0.4810
vn -0.0000 -0.8767 0.4810
vn -0.0000 -0.6007 0.7995
vn -0.2299 -0.5549 0.7995
vn 0.2299 -0.5549 0.7995
vn 0.3355 -0.8100 0.4810
vn 0.4247 -0.4247 0.7995
vn 0.6199 -0.6199 0.4810
vn 0.3827 -0.9239 -0.0000
vn 0.7071 -0.7071 -0.0000
vn 0.9239 -0.3827 -0.0000
vn 0.8100 -0.3355 -0.4810
vn 0.8100 -0.3355 0.4810
vn 0.5549 -0.2299 -0.7995
vn 0.8767 -0.0000 -0.4810
vn 0.6006 -0.0000 -0.7995
vn 1.0000 -0.0000 -0.0000
vn 0.5549 0.2299 -0.7995
vn 0.8100 0.3355 -0.4810
vn 0.4247 0.4247 -0.7995
vn 0.6199 0.6199 -0.4810
vn 0.7071 0.7071 -0.0000
vn 0.9239 0.3827 -0.0000
vn 0.6200 0.6200 0.4810
vn 0.8100 0.3355 0.4810
vn 0.8767 -0.0000 0.4810
vn 0.5549 0.2299 0.7995
vn 0.6007 -0.0000 0.7995
vn 0.5549 -0.2299 0.7995
vn 0.4247 0.4247 0.7995
vn 0.2299 0.5549 0.7995
vn 0.3355 0.8100 0.4810
vn 0.3827 0.9239 -0.0000
vn 0.3355 0.8100 -0.4810
vn 0.2299 0.5549 -0.7995
vt 0.020475 0.000000
vt 0.022892 0.000000
vt 0.977108 0.000000
vt 0.979525 0.000000
vt 0.020475 0.264686
vt 0.979525 0.263703
vt 0.000000 0.039176
vt 0.000000 0.049092
vt 0.734093 0.029041
vt 0.734564 0.039176
vt 1.000000 0.039176
vt 1.000719 0.006251
vt 0.020475 0.529371
vt 0.979525 0.527406
vt 0.467468 0.051831
vt 0.469128 0.039176
vt 0.734564 0.960824
vt 1.000000 0.960824
vt 0.469128 0.960824
vt 0.467468 0.948169
vt 0.734093 0.970959
vt 1.000719 0.993749
vt 0.000000 0.960824
vt 0.000000 0.950908
vt 0.020475 1.000000
vt 0.022892 1.000000
vt 0.979525 1.000000
vt 0.977108 1.000000
vt 0.020475 0.264380
vt 1.000000 1.000000
vt 0.000000 1.000000
vt 1.000000 0.950908
vt 1.000000 0.000000
vt 1.000000 0.049092
vt 0.265436 0.960824
vt 0.265436 0.039176
vt 0.265907 0.970959
vt -0.000719 0.993749
vt 0.265907 0.029041
vt -0.000719 0.006251
vt 0.530872 0.960824
vt 0.530872 0.039176
vt 0.532532 0.051831
vt 0.796308 0.960824
vt 0.796308 0.039176
vt 0.799158 0.074621
vt 0.532532 0.948169
vt 0.799158 0.925379
vt -0.706532 1.000000
vt -0.706532 0.000000
vt -0.706532 0.039176
vt -0.706532 0.960825
vt -0.751039 1.010984
vt 0.979525 0.791108
vt 0.020475 0.793140
vt 0.046554 0.881260
vt 0.122402 0.941547
vt 0.248815 0.977373
vt 0.431368 0.988615
vt 0.568632 0.988049
vt 0.751185 0.975585
vt 0.877598 0.939394
vt 0.953446 0.878989
vt 0.953260 0.876315
vt 0.980025 0.791701
vt 0.020475 0.528760
vt 0.203692 0.960824
vt 0.200842 0.925379
vt 0.203692 1.000000
vt 0.248199 1.010983
vt 0.020567 0.796587
vt 0.047433 0.882612
vt 0.203692 0.000000
vt 0.203692 0.039176
vt 0.248199 -0.010983
vt 0.200842 0.074621
vt 0.020475 0.794057
vt 0.046554 0.881575
vt 0.122402 0.941717
vt 0.248815 0.977584
vt 0.431368 0.989238
vt 0.568632 0.988508
vt 0.022612 0.797980
vt 0.049828 0.882464
vt -0.751039 -0.010983
vt -0.422421 0.000000
vt -0.138310 0.000000
vt 0.051372 0.901023
vt 0.131480 0.965723
vt -0.422421 1.000000
vt -0.138310 1.000000
vt 0.145801 1.000000
vt 0.145801 0.000000
vt 0.429913 1.000000
vt 0.429913 0.000000
vt 0.570087 0.000000
vt 0.570087 1.000000
vt -1.067482 1.000000
vt -1.491207 1.000000
vt -1.491207 0.000000
vt -1.067482 0.000000
vt -0.643757 1.000000
vt -0.643757 0.000000
vt -0.220033 1.000000
vt -0.220033 0.000000
vt 0.870042 0.959420
vt 0.950175 0.893232
vt 0.744519 1.010838
vt 0.879149 0.971012
vt 0.566031 1.026712
vt 0.753519 1.014382
vt 0.432315 1.029624
vt 0.572489 1.027371
vt 0.250746 1.020632
vt 0.437808 1.028054
vt 0.122451 0.978109
vt 0.257108 1.016370
vt 0.050576 0.899967
vt 0.130697 0.965433
vt 0.122678 0.977678
vt 0.257338 1.015717
vt 0.251886 1.020136
vt 0.438834 1.026245
vt 0.431776 1.027937
vt 0.571950 1.026190
vt 0.564827 1.025309
vt 0.752182 1.014518
vt 0.000000 0.000000
vt 0.937500 1.000000
vt 1.000000 0.875000
vt 0.937500 0.875000
vt 0.062500 0.875000
vt 0.000000 0.875000
vt 0.062500 1.000000
vt 0.125000 0.875000
vt 0.125000 1.000000
vt 0.187500 0.875000
vt 0.187500 1.000000
vt 0.250000 0.875000
vt 0.250000 1.000000
vt 0.312500 0.875000
vt 0.312500 1.000000
vt 0.375000 0.875000
vt 0.375000 1.000000
vt 0.437500 0.875000
vt 0.437500 1.000000
vt 0.500000 0.875000
vt 0.500000 1.000000
vt 0.562500 0.875000
vt 0.562500 1.000000
vt 0.625000 0.875000
vt 0.625000 1.000000
vt 0.687500 0.875000
vt 0.687500 1.000000
vt 0.750000 0.875000
vt 0.750000 1.000000
vt 0.812500 0.875000
vt 0.812500 1.000000
vt 0.875000 0.875000
vt 0.875000 1.000000
vt 1.000000 0.750000
vt 0.937500 0.750000
vt 0.875000 0.750000
vt 1.000000 0.625000
vt 0.937500 0.625000
vt 0.875000 0.625000
vt 1.000000 0.500000
vt 0.937500 0.500000
vt 0.875000 0.500000
vt 1.000000 0.375000
vt 0.937500 0.375000
vt 0.875000 0.375000
vt 1.000000 0.250000
vt 0.937500 0.250000
vt 0.875000 0.250000
vt 1.000000 0.125000
vt 0.937500 0.125000
vt 0.875000 0.125000
vt 0.937500 0.000000
vt 0.875000 0.000000
vt 0.500000 0.000000
vt 0.500000 0.125000
vt 0.562500 0.125000
vt 0.437500 0.000000
vt 0.437500 0.125000
vt 0.000000 0.000000
vt 0.000000 0.125000
vt 0.062500 0.125000
vt 0.562500 0.000000
vt 0.625000 0.125000
vt 0.062500 0.000000
vt 0.125000 0.125000
vt 0.625000 0.000000
vt 0.687500 0.125000
vt 0.125000 0.000000
vt 0.187500 0.125000
vt 0.687500 0.000000
vt 0.750000 0.125000
vt 0.187500 0.000000
vt 0.250000 0.125000
vt 0.750000 0.000000
vt 0.812500 0.125000
vt 0.250000 0.000000
vt 0.312500 0.125000
vt 0.812500 0.000000
vt 0.312500 0.000000
vt 0.375000 0.125000
vt 0.375000 0.000000
vt 0.375000 0.250000
vt 0.437500 0.250000
vt 0.500000 0.250000
vt 0.375000 0.375000
vt 0.437500 0.375000
vt 0.500000 0.375000
vt 0.562500 0.375000
vt 0.562500 0.250000
vt 0.625000 0.375000
vt 0.625000 0.250000
vt 0.687500 0.375000
vt 0.687500 0.250000
vt 0.750000 0.375000
vt 0.750000 0.250000
vt 0.812500 0.375000
vt 0.812500 0.250000
vt 0.750000 0.500000
vt 0.812500 0.500000
vt 0.750000 0.625000
vt 0.812500 0.625000
vt 0.750000 0.750000
vt 0.812500 0.750000
vt 0.687500 0.750000
vt 0.687500 0.625000
vt 0.625000 0.750000
vt 0.625000 0.625000
vt 0.687500 0.500000
vt 0.625000 0.500000
vt 0.562500 0.500000
vt 0.562500 0.625000
vt 0.500000 0.500000
vt 0.500000 0.625000
vt 0.500000 0.750000
vt 0.562500 0.750000
vt 0.437500 0.750000
vt 0.437500 0.625000
vt 0.375000 0.750000
vt 0.375000 0.625000
vt 0.437500 0.500000
vt 0.375000 0.500000
vt 0.312500 0.500000
vt 0.312500 0.375000
vt 0.312500 0.625000
vt 0.312500 0.250000
vt 0.250000 0.375000
vt 0.250000 0.250000
vt 0.250000 0.500000
vt 0.187500 0.250000
vt 0.187500 0.375000
vt 0.125000 0.250000
vt 0.125000 0.375000
vt 0.125000 0.500000
vt 0.187500 0.500000
vt 0.125000 0.625000
vt 0.187500 0.625000
vt 0.250000 0.625000
vt 0.187500 0.750000
vt 0.250000 0.750000
vt 0.312500 0.750000
vt 0.125000 0.750000
vt 0.062500 0.750000
vt 0.062500 0.625000
vt 0.062500 0.500000
vt 0.000000 0.625000
vt 0.000000 0.500000
vt 0.000000 0.750000
vt 0.062500 0.375000
vt 0.000000 0.375000
vt 0.062500 0.250000
vt 0.000000 0.250000
s 1
f 1/1/1 3/2/1 117/3/1 2/4/1
f 7/5/2 5/6/2 1/4/2 2/1/2
f 4/7/1 124/8/1 3/2/1 1/1/1
f 5/9/3 8/10/3 4/11/4 1/12/5
f 5/6/2 7/5/2 29/13/2 6/14/2
f 8/10/3 5/9/3 6/15/6 9/16/7
f 8/10/8 10/17/8 13/18/9 4/11/9
f 9/16/10 11/19/10 10/17/8 8/10/8
f 11/19/11 37/20/12 12/21/13 10/17/14
f 10/17/14 12/21/13 15/22/15 13/18/16
f 13/23/1 14/24/1 124/8/1 4/7/1
f 15/25/1 17/26/1 14/24/1 13/23/1
f 16/27/1 19/28/1 17/26/1 15/25/1
f 12/29/17 116/6/17 16/4/17 15/1/17
f 20/30/2 121/30/2 122/31/2 18/31/2 17/26/2 19/28/2
f 14/24/18 17/26/18 18/31/18
f 23/18/1 21/32/1 19/28/1 16/27/1
f 19/28/19 21/32/19 20/30/19
f 118/33/20 119/33/21 121/30/22 20/30/23 21/32/22 22/34/21
f 25/11/1 22/34/1 21/32/1 23/18/1
f 24/35/24 26/36/24 25/7/25 23/23/25
f 116/37/26 24/35/26 23/23/27 16/38/27
f 26/36/28 7/39/29 2/40/30 25/7/31
f 2/4/1 117/3/1 22/34/1 25/11/1
f 26/36/24 24/35/24 30/41/32 27/42/32
f 27/42/33 29/43/34 7/39/29 26/36/28
f 27/42/32 30/41/32 32/44/35 28/45/35
f 29/43/34 27/42/33 28/45/36 45/46/37
f 24/35/26 116/37/26 31/47/38 30/41/39
f 30/41/39 31/47/38 34/48/40 32/44/41
f 33/49/42 114/49/43 48/50/44 47/50/45 28/51/35 32/52/35
f 32/52/41 34/53/40 33/49/46
f 34/54/17 36/55/17 39/56/17 100/57/17 101/58/17 102/59/17 103/60/17 107/61/17 112/62/17 35/63/17
f 110/64/47 33/65/46 34/54/40 35/63/48
f 36/55/17 34/54/17 31/14/17 37/66/17
f 37/20/12 11/19/11 40/67/49 36/68/50
f 40/67/49 38/69/51 36/70/50
f 38/71/51 97/72/52 39/56/52 36/55/50
f 42/73/53 90/73/54 91/69/55 38/69/56 40/67/57 41/74/57
f 11/19/10 9/16/10 41/74/57 40/67/57
f 41/74/58 43/75/59 42/73/60
f 9/16/7 6/15/6 43/76/59 41/74/58
f 78/64/61 42/65/60 43/54/59 44/63/61
f 43/54/2 45/77/2 46/78/2 88/79/2 86/80/2 84/81/2 83/82/2 82/61/2 79/62/2 44/63/2
f 45/77/2 43/54/2 6/14/2 29/13/2
f 47/83/62 49/84/63 46/78/63 45/77/37
f 45/85/37 28/51/36 47/50/62
f 47/50/45 48/50/44 51/86/64 49/86/64
f 49/86/64 51/86/64 52/87/65 50/87/65
f 49/88/63 50/89/66 88/79/66 46/78/63
f 48/50/17 55/50/17 53/86/17 51/86/17
f 51/86/17 53/86/17 56/87/17 52/87/17
f 55/50/67 115/49/67 54/90/68 53/86/68
f 53/86/68 54/90/68 57/91/69 56/87/69
f 56/87/70 57/91/70 59/92/71 58/93/71
f 52/87/17 56/87/17 58/93/17 60/93/17
f 58/93/71 59/92/71 64/94/72 61/95/72
f 60/93/17 58/93/17 61/95/17 62/95/17
f 62/95/17 61/95/17 63/96/17 89/96/17
f 61/95/72 64/94/72 66/97/73 63/96/73
f 65/94/2 64/94/2 59/92/2 108/92/2
f 67/97/2 66/97/2 64/94/2 65/94/2
f 69/98/2 68/98/2 66/99/2 67/99/2
f 63/100/73 66/99/73 68/98/74 71/101/74
f 96/102/2 70/102/2 68/98/2 69/98/2
f 71/101/74 68/98/74 70/102/75 73/103/75
f 89/100/17 63/100/17 71/101/17 72/101/17
f 72/101/17 71/101/17 73/103/17 75/103/17
f 73/103/76 70/102/76 94/104/77 74/105/77
f 75/103/17 73/103/17 74/105/17 76/105/17
f 80/101/78 72/101/78 75/103/79 77/103/79
f 77/103/79 75/103/79 76/105/80 78/105/81
f 77/106/82 78/107/61 44/63/61 79/62/82
f 80/108/83 77/109/82 79/62/82 82/61/83
f 81/100/84 89/100/84 72/101/78 80/101/78
f 81/110/85 80/111/83 82/61/83 83/82/86
f 85/112/87 81/113/85 83/82/86 84/81/88
f 87/114/89 85/115/87 84/81/88 86/80/89
f 50/116/66 87/117/89 86/80/89 88/79/66
f 50/87/65 52/87/65 60/93/90 87/93/90
f 87/93/90 60/93/90 62/95/91 85/95/91
f 85/95/91 62/95/91 89/96/84 81/96/84
f 78/105/81 76/105/80 90/73/54 42/73/53
f 76/105/17 74/105/17 92/73/17 90/73/17
f 90/73/92 92/73/92 93/69/92 91/69/92
f 74/105/77 94/104/77 93/69/93 92/73/93
f 91/69/2 93/69/2 94/104/2 95/104/2
f 95/104/2 94/104/2 70/102/2 96/102/2
f 97/104/94 95/104/94 96/102/79 98/102/79
f 38/69/56 91/69/55 95/104/94 97/104/94
f 97/118/52 98/119/95 100/57/95 39/56/52
f 98/102/79 96/102/79 69/98/78 99/98/78
f 98/120/95 99/121/96 101/58/96 100/57/95
f 99/122/96 104/123/97 102/59/98 101/58/96
f 104/124/97 105/125/99 103/60/100 102/59/98
f 99/98/78 69/98/78 67/99/84 104/99/84
f 104/97/84 67/97/84 65/94/91 105/94/91
f 105/126/99 106/127/101 107/61/101 103/60/100
f 105/94/91 65/94/91 108/92/90 106/92/90
f 106/108/101 109/109/102 112/62/102 107/61/101
f 106/92/90 108/92/90 111/91/65 109/91/65
f 109/91/65 111/91/65 113/90/103 110/90/104
f 109/106/102 110/107/47 35/63/48 112/62/102
f 108/92/2 59/92/2 57/91/2 111/91/2
f 111/91/2 57/91/2 54/90/2 113/90/2
f 110/90/104 113/90/103 114/49/43 33/49/42
f 113/90/2 54/90/2 115/49/2 114/49/2
f 114/49/105 115/49/105 55/50/105 48/50/105
f 116/6/17 12/29/17 37/66/17 31/14/17
f 22/34/106 117/3/106 118/33/106
f 123/128/17 120/128/17 119/33/17 118/33/17 117/3/17 3/2/17
f 120/128/1 122/31/1 121/30/1 119/33/1
f 18/31/107 122/31/108 120/128/109 123/128/110 124/8/109 14/24/108
f 3/2/111 124/8/111 123/128/111
f 125/129/17 126/130/112 141/131/113
f 125/31/17 127/132/114 126/133/112
f 125/134/17 128/135/115 127/132/114
f 125/136/17 129/137/116 128/135/115
f 125/138/17 130/139/117 129/137/116
f 125/140/17 131/141/118 130/139/117
f 125/142/17 132/143/119 131/141/118
f 125/144/17 133/145/120 132/143/119
f 125/146/17 134/147/121 133/145/120
f 125/148/17 135/149/122 134/147/121
f 125/150/17 136/151/123 135/149/122
f 125/152/17 137/153/124 136/151/123
f 125/154/17 138/155/125 137/153/124
f 125/156/17 139/157/126 138/155/125
f 125/158/17 140/159/127 139/157/126
f 125/160/17 141/131/113 140/159/127
f 141/131/113 126/130/112 143/161/128 142/162/129
f 140/159/127 141/131/113 142/162/129 144/163/130
f 142/162/129 143/161/128 146/164/131 145/165/132
f 144/163/130 142/162/129 145/165/132 147/166/133
f 145/165/132 146/164/131 149/167/134 148/168/135
f 147/166/133 145/165/132 148/168/135 150/169/136
f 148/168/135 149/167/134 152/170/137 151/171/138
f 150/169/136 148/168/135 151/171/138 153/172/139
f 151/171/138 152/170/137 155/173/140 154/174/141
f 153/172/139 151/171/138 154/174/141 156/175/142
f 154/174/141 155/173/140 158/176/143 157/177/144
f 156/175/142 154/174/141 157/177/144 159/178/145
f 160/179/2 157/177/144 158/176/143
f 160/180/2 159/178/145 157/177/144
f 160/181/2 161/182/146 162/183/147
f 160/184/2 173/185/148 161/182/146
f 160/186/2 158/187/143 163/188/149
f 160/189/2 162/183/147 164/190/150
f 160/191/2 163/188/149 165/192/151
f 160/193/2 164/190/150 166/194/152
f 160/195/2 165/192/151 167/196/153
f 160/197/2 166/194/152 168/198/154
f 160/199/2 167/196/153 169/200/155
f 160/201/2 168/198/154 170/202/156
f 160/203/2 169/200/155 171/204/157
f 160/205/2 170/202/156 159/178/145
f 160/206/2 171/204/157 172/207/158
f 160/208/2 172/207/158 173/185/148
f 175/209/159 174/210/160 173/185/148 172/207/158
f 174/210/160 177/211/161 161/182/146 173/185/148
f 214/212/162 176/213/163 174/210/160 175/209/159
f 176/213/163 178/214/164 177/211/161 174/210/160
f 178/214/164 180/215/165 179/216/166 177/211/161
f 177/211/161 179/216/166 162/183/147 161/182/146
f 180/215/165 182/217/167 181/218/168 179/216/166
f 179/216/166 181/218/168 164/190/150 162/183/147
f 182/217/167 184/219/169 183/220/170 181/218/168
f 181/218/168 183/220/170 166/194/152 164/190/150
f 184/219/169 186/221/171 185/222/172 183/220/170
f 183/220/170 185/222/172 168/198/154 166/194/152
f 186/221/171 188/223/173 187/224/174 185/222/172
f 185/222/172 187/224/174 170/202/156 168/198/154
f 188/223/173 153/172/139 156/175/142 187/224/174
f 187/224/174 156/175/142 159/178/145 170/202/156
f 190/225/175 189/226/176 188/223/173 186/221/171
f 189/226/176 150/169/136 153/172/139 188/223/173
f 192/227/177 191/228/178 189/226/176 190/225/175
f 191/228/178 147/166/133 150/169/136 189/226/176
f 194/229/179 193/230/180 191/228/178 192/227/177
f 193/230/180 144/163/130 147/166/133 191/228/178
f 138/155/125 139/157/126 193/230/180 194/229/179
f 139/157/126 140/159/127 144/163/130 193/230/180
f 195/231/181 194/229/179 192/227/177 197/232/182
f 137/153/124 138/155/125 194/229/179 195/231/181
f 196/233/183 195/231/181 197/232/182 198/234/184
f 136/151/123 137/153/124 195/231/181 196/233/183
f 198/234/184 197/232/182 199/235/185 200/236/186
f 197/232/182 192/227/177 190/225/175 199/235/185
f 200/236/186 199/235/185 184/219/169 182/217/167
f 199/235/185 190/225/175 186/221/171 184/219/169
f 201/237/187 200/236/186 182/217/167 180/215/165
f 203/238/188 198/234/184 200/236/186 201/237/187
f 202/239/1 201/237/187 180/215/165 178/214/164
f 204/240/189 203/238/188 201/237/187 202/239/1
f 206/241/190 205/242/191 203/238/188 204/240/189
f 205/242/191 196/233/183 198/234/184 203/238/188
f 134/147/121 135/149/122 205/242/191 206/241/190
f 135/149/122 136/151/123 196/233/183 205/242/191
f 133/145/120 134/147/121 206/241/190 207/243/192
f 207/243/192 206/241/190 204/240/189 209/244/193
f 208/245/194 207/243/192 209/244/193 210/246/195
f 132/143/119 133/145/120 207/243/192 208/245/194
f 210/246/195 209/244/193 211/247/196 212/248/197
f 209/244/193 204/240/189 202/239/1 211/247/196
f 212/248/197 211/247/196 176/213/163 214/212/162
f 211/247/196 202/239/1 178/214/164 176/213/163
f 213/249/198 212/248/197 214/212/162 215/250/199
f 229/251/200 210/246/195 212/248/197 213/249/198
f 215/250/199 214/212/162 175/209/159 217/252/201
f 216/253/202 215/250/199 217/252/201 218/254/203
f 226/255/204 213/249/198 215/250/199 216/253/202
f 218/254/203 217/252/201 171/204/157 169/200/155
f 217/252/201 175/209/159 172/207/158 171/204/157
f 219/256/205 218/254/203 169/200/155 167/196/153
f 221/257/206 216/253/202 218/254/203 219/256/205
f 220/258/207 219/256/205 167/196/153 165/192/151
f 222/259/208 221/257/206 219/256/205 220/258/207
f 224/260/209 223/261/210 221/257/206 222/259/208
f 223/261/210 226/255/204 216/253/202 221/257/206
f 234/262/211 225/263/212 223/261/210 224/260/209
f 225/263/212 227/264/213 226/255/204 223/261/210
f 227/264/213 229/251/200 213/249/198 226/255/204
f 231/265/214 228/266/215 227/264/213 225/263/212
f 228/266/215 230/267/216 229/251/200 227/264/213
f 230/267/216 208/245/194 210/246/195 229/251/200
f 130/139/117 131/141/118 230/267/216 228/266/215
f 131/141/118 132/143/119 208/245/194 230/267/216
f 129/137/116 130/139/117 228/266/215 231/265/214
f 232/268/217 231/265/214 225/263/212 234/262/211
f 128/135/115 129/137/116 231/265/214 232/268/217
f 233/269/218 232/268/217 234/262/211 235/270/219
f 127/132/114 128/135/115 232/268/217 233/269/218
f 235/270/219 234/262/211 224/260/209 236/271/220
f 146/272/131 235/270/219 236/271/220 149/273/134
f 143/274/128 233/269/218 235/270/219 146/272/131
f 149/273/134 236/271/220 237/275/221 152/276/137
f 236/271/220 224/260/209 222/259/208 237/275/221
f 152/276/137 237/275/221 238/277/222 155/278/140
f 237/275/221 222/259/208 220/258/207 238/277/222
f 155/278/140 238/277/222 163/188/149 158/187/143
f 238/277/222 220/258/207 165/192/151 163/188/149
f 126/133/112 127/132/114 233/269/218 143/274/128
