# Blender 4.2.3 LTS
# www.blender.org
mtllib rightUpperArm.mtl
o Robot_Right_Forearm.003
v -2.155838 3.078016 -0.355805
v -2.777186 3.161481 -0.355805
v -2.220170 2.712433 -0.355805
v -2.137372 3.075535 -0.337173
v -2.039152 3.741198 -0.355805
v -2.020523 3.741473 -0.337173
v -2.064950 3.950221 -0.355804
v -2.588673 3.733077 -0.355805
v -2.226326 3.968917 -0.355804
v -2.607303 3.732802 -0.337173
v -2.795652 3.163961 -0.337173
v -2.231061 3.988222 -0.337173
v -2.607303 3.732802 -0.061434
v -2.795652 3.163961 -0.061434
v -2.231061 3.988222 -0.061434
v -2.588673 3.733077 -0.042802
v -2.777186 3.161481 -0.042802
v -2.039152 3.741198 -0.042802
v -2.226326 3.968917 -0.042802
v -2.064950 3.950221 -0.042802
v -2.048245 3.967042 -0.061434
v -2.048245 3.967042 -0.337173
v -2.020523 3.741473 -0.061434
v -2.137372 3.075535 -0.061434
v -2.201701 2.709969 -0.061434
v -2.155838 3.078016 -0.042802
v -2.220170 2.712433 -0.042802
v -2.290205 2.427396 -0.042802
v -2.833717 2.794282 -0.042802
v -2.468555 2.328030 -0.042802
v -2.844159 2.786299 -0.055977
v -2.852185 2.796746 -0.061434
v -2.852185 2.796746 -0.337173
v -2.844159 2.786299 -0.342630
v -2.833717 2.794282 -0.355805
v -2.468555 2.328030 -0.355805
v -2.473533 2.303928 -0.337173
v -2.290205 2.427396 -0.355805
v -2.285553 2.408659 -0.342630
v -2.274045 2.415071 -0.337173
v -2.274045 2.415071 -0.061434
v -2.201701 2.709969 -0.337173
v -2.285553 2.408659 -0.055977
v -2.473533 2.303928 -0.061434
v -2.301539 2.399753 -0.074276
v -2.473533 2.303928 -0.074276
v -2.301539 2.399753 -0.324331
v -2.401678 2.579490 -0.074276
v -2.497609 2.717903 -0.074276
v -2.401678 2.579490 -0.324331
v -2.497609 2.717903 -0.324331
v -2.473533 2.303928 -0.324331
v -2.669857 2.897146 -0.324331
v -2.669857 2.897146 -0.074276
v -2.833010 2.771788 -0.324331
v -2.833010 2.771788 -0.074276
v -1.939703 4.245435 -0.355772
v -2.474742 4.806477 -0.355772
v -2.053444 4.108015 -0.355772
v -1.925635 4.230684 -0.335388
v -1.714458 5.038160 -0.355771
v -1.699955 5.054842 -0.355771
v -1.694280 5.035264 -0.335387
v -2.408961 5.137856 -0.355771
v -2.296915 5.598374 -0.355771
v -2.429138 5.140753 -0.335387
v -2.317234 5.600005 -0.335387
v -2.429138 5.140753 -0.250859
v -2.488810 4.821229 -0.335388
v -2.225597 4.139476 -0.335388
v -2.488810 4.821229 -0.250859
v -2.488810 4.821228 -0.145947
v -2.225597 4.139476 -0.250859
v -2.225597 4.139475 -0.145947
v -2.213644 4.137030 -0.250859
v -2.213644 4.137030 -0.343571
v -2.213644 4.137030 -0.145947
v -2.242070 3.959653 -0.250860
v -2.242070 3.959653 -0.343571
v -2.242070 3.959653 -0.145947
v -2.082140 3.926935 -0.250860
v -2.082140 3.926935 -0.145947
v -2.045345 4.106795 -0.250859
v -2.082140 3.926935 -0.343571
v -2.045345 4.106795 -0.343571
v -2.045345 4.106795 -0.343571
v -2.033392 4.104350 -0.335388
v -2.033392 4.104350 -0.250859
v -1.925635 4.230684 -0.250859
v -2.033392 4.104350 -0.145947
v -2.033392 4.104350 -0.061419
v -1.925635 4.230684 -0.145947
v -2.045345 4.106795 -0.145947
v -2.045345 4.106795 -0.053236
v -2.213644 4.137030 -0.053236
v -2.082140 3.926935 -0.053236
v -2.045345 4.106795 -0.053236
v -2.053444 4.108015 -0.041035
v -2.205546 4.135811 -0.041035
v -1.939703 4.245435 -0.041035
v -2.474742 4.806477 -0.041035
v -1.714458 5.038160 -0.041035
v -1.925635 4.230684 -0.061419
v -1.694280 5.035264 -0.061419
v -1.694280 5.035264 -0.145947
v -1.674702 5.040938 -0.041035
v -1.699955 5.054842 -0.041035
v -1.666051 5.043446 -0.041035
v -1.666051 5.043446 -0.145947
v -1.818807 5.570438 -0.041034
v -1.879037 5.763433 -0.041034
v -1.847042 5.562274 -0.041034
v -1.818807 5.570438 -0.145947
v -1.879037 5.763433 -0.145947
v -1.847042 5.562274 -0.145947
v -1.847042 5.562274 -0.250859
v -1.898795 5.741674 -0.145947
v -1.898795 5.741673 -0.250859
v -2.069506 5.773535 -0.145947
v -2.069506 5.773535 -0.250859
v -2.075727 5.802261 -0.145947
v -2.317234 5.600005 -0.145947
v -2.429138 5.140753 -0.145947
v -2.317234 5.600005 -0.061418
v -2.317234 5.600005 -0.250859
v -2.334096 5.624078 -0.145947
v -2.334096 5.624078 -0.041034
v -2.075727 5.802261 -0.041034
v -2.328929 5.616700 -0.041034
v -2.300538 5.611700 -0.041034
v -2.069506 5.773535 -0.041034
v -2.296915 5.598374 -0.041034
v -2.408961 5.137856 -0.041035
v -2.429138 5.140753 -0.061419
v -2.488810 4.821228 -0.061419
v -2.225597 4.139476 -0.061419
v -2.213644 4.137030 -0.053236
v -1.898795 5.741674 -0.041034
v -2.334096 5.624078 -0.250859
v -2.334096 5.624078 -0.355771
v -2.075727 5.802261 -0.250859
v -1.879038 5.763434 -0.250859
v -2.075727 5.802261 -0.355771
v -1.879037 5.763433 -0.355771
v -2.069506 5.773535 -0.355771
v -1.898795 5.741673 -0.355771
v -2.300538 5.611700 -0.355771
v -2.328929 5.616700 -0.355771
v -1.847042 5.562274 -0.355771
v -1.818807 5.570438 -0.355771
v -1.666051 5.043446 -0.355771
v -1.818807 5.570438 -0.250859
v -1.666051 5.043446 -0.250859
v -1.694280 5.035264 -0.250859
v -1.674702 5.040938 -0.355771
v -2.242070 3.959653 -0.053236
v -2.213644 4.137030 -0.343571
v -2.205546 4.135811 -0.355772
v -1.498151 4.944517 0.087631
v -1.498151 4.836647 0.066174
v -1.498151 5.052386 0.066174
v -1.456871 5.044175 0.066174
v -1.421876 5.020792 0.066174
v -1.398492 4.985796 0.066174
v -1.390281 4.944517 0.066174
v -1.398492 4.903237 0.066174
v -1.421876 4.868242 0.066174
v -1.456871 4.844859 0.066174
v -1.539431 4.844859 0.066174
v -1.574426 4.868242 0.066174
v -1.597809 4.903237 0.066174
v -1.606020 4.944517 0.066174
v -1.597809 4.985796 0.066174
v -1.574426 5.020792 0.066174
v -1.539431 5.044175 0.066174
v -1.574426 5.128662 0.005071
v -1.498151 5.143834 0.005071
v -1.639089 5.085455 0.005071
v -1.597809 5.185114 -0.086376
v -1.498151 5.204937 -0.086376
v -1.682295 5.128662 -0.086376
v -1.606020 5.204937 -0.194246
v -1.498151 5.226393 -0.194246
v -1.697468 5.143834 -0.194246
v -1.597809 5.185114 -0.302115
v -1.498151 5.204937 -0.302115
v -1.682295 5.128662 -0.302115
v -1.574426 5.128662 -0.393562
v -1.498151 5.143834 -0.393562
v -1.639089 5.085455 -0.393562
v -1.539431 5.044175 -0.454666
v -1.498151 5.052386 -0.454666
v -1.574426 5.020792 -0.454666
v -1.498151 4.944517 -0.476122
v -1.498151 4.836647 -0.454666
v -1.456871 5.044175 -0.454666
v -1.539431 4.844859 -0.454666
v -1.421876 5.020792 -0.454666
v -1.574426 4.868242 -0.454666
v -1.398492 4.985796 -0.454666
v -1.597809 4.903237 -0.454666
v -1.390281 4.944517 -0.454666
v -1.606020 4.944517 -0.454666
v -1.398492 4.903237 -0.454666
v -1.597809 4.985796 -0.454666
v -1.421876 4.868242 -0.454666
v -1.456871 4.844859 -0.454666
v -1.421876 4.760372 -0.393562
v -1.357213 4.803579 -0.393562
v -1.398492 4.703920 -0.302115
v -1.498151 4.745200 -0.393562
v -1.498151 4.684097 -0.302115
v -1.574426 4.760372 -0.393562
v -1.597809 4.703920 -0.302115
v -1.639089 4.803579 -0.393562
v -1.682296 4.760372 -0.302115
v -1.682296 4.868242 -0.393562
v -1.738748 4.844859 -0.302115
v -1.697468 4.944517 -0.393562
v -1.758571 4.944517 -0.302115
v -1.682296 5.020792 -0.393562
v -1.738747 5.044176 -0.302115
v -1.758571 5.052386 -0.194246
v -1.780028 4.944517 -0.194246
v -1.738747 5.044176 -0.086376
v -1.758571 4.944517 -0.086376
v -1.682296 5.020792 0.005071
v -1.697468 4.944517 0.005071
v -1.682296 4.868242 0.005071
v -1.639089 4.803579 0.005071
v -1.738748 4.844859 -0.086376
v -1.682296 4.760372 -0.086376
v -1.758571 4.836648 -0.194246
v -1.697468 4.745200 -0.194246
v -1.606020 4.684097 -0.194246
v -1.498151 4.662640 -0.194246
v -1.597809 4.703920 -0.086376
v -1.498151 4.684097 -0.086376
v -1.574426 4.760372 0.005071
v -1.498151 4.745200 0.005071
v -1.421876 4.760372 0.005071
v -1.357213 4.803579 0.005071
v -1.398492 4.703920 -0.086376
v -1.314006 4.760372 -0.086376
v -1.390281 4.684097 -0.194246
v -1.298834 4.745200 -0.194246
v -1.237731 4.836647 -0.194246
v -1.314006 4.760372 -0.302115
v -1.257554 4.844859 -0.302115
v -1.237731 4.944517 -0.302115
v -1.314006 4.868242 -0.393562
v -1.298834 4.944517 -0.393562
v -1.314006 5.020792 -0.393562
v -1.357213 5.085455 -0.393562
v -1.257554 5.044175 -0.302115
v -1.314006 5.128662 -0.302115
v -1.237731 5.052386 -0.194246
v -1.298834 5.143834 -0.194246
v -1.257554 5.044175 -0.086376
v -1.216274 4.944517 -0.194246
v -1.237731 4.944517 -0.086376
v -1.298834 4.944517 0.005071
v -1.257554 4.844859 -0.086376
v -1.314006 4.868242 0.005071
v -1.314006 5.020792 0.005071
v -1.357213 5.085455 0.005071
v -1.421876 5.128662 0.005071
v -1.314006 5.128662 -0.086376
v -1.398492 5.185113 -0.086376
v -1.390281 5.204937 -0.194246
v -1.398492 5.185113 -0.302115
v -1.421876 5.128662 -0.393562
v -1.582395 4.111184 -0.350159
v -1.787986 4.146441 -0.350159
v -1.514849 4.099601 -0.281627
v -1.386498 4.898226 -0.393734
v -1.546520 4.471773 -0.379323
v -1.493493 4.705973 -0.386701
v -1.670926 4.503710 -0.380001
v -1.546589 4.471410 -0.392112
v -1.493562 4.705610 -0.399490
v -1.670995 4.503347 -0.392790
v -1.625714 4.729813 -0.399017
v -1.625644 4.730176 -0.386228
v -1.633869 5.014687 -0.393734
v -1.712828 5.051861 -0.306461
v -1.712828 5.051861 -0.075166
v -1.855532 4.158024 -0.281627
v -1.855532 4.158024 -0.100001
v -1.787986 4.146441 -0.031469
v -1.582395 4.111184 -0.031469
v -1.633869 5.014687 0.012106
v -1.670926 4.503710 -0.001626
v -1.546520 4.471773 -0.002304
v -1.625644 4.730176 0.004601
v -1.670995 4.503347 0.011162
v -1.546589 4.471410 0.010484
v -1.625714 4.729813 0.017390
v -1.493562 4.705610 0.017863
v -1.493493 4.705973 0.005074
v -1.386498 4.898226 0.012107
v -1.307538 4.861052 -0.075166
v -1.307538 4.861053 -0.306461
v -1.514849 4.099601 -0.100001
v -2.231390 3.985795 -0.327283
v -2.231390 3.985795 -0.067359
v -2.213894 4.134967 -0.327283
v -2.296870 4.029373 -0.384095
v -2.605789 3.734074 -0.327283
v -2.602623 3.806753 -0.384095
v -2.629135 3.738114 -0.327283
v -2.605789 3.734074 -0.067359
v -2.602623 3.806753 -0.010547
v -2.629135 3.738114 -0.067359
v -2.809427 4.165244 -0.067359
v -2.605880 3.806237 -0.010547
v -2.745415 4.175934 -0.010547
v -2.743732 4.224885 -0.010547
v -2.512723 4.730608 -0.010547
v -2.806974 4.236567 -0.067359
v -2.806974 4.236567 -0.327283
v -2.522133 4.829253 -0.067359
v -2.522133 4.829253 -0.327283
v -2.484691 4.824089 -0.067359
v -2.484691 4.824090 -0.327283
v -2.507255 4.730284 -0.010547
v -2.213894 4.134967 -0.067359
v -2.284097 4.138273 -0.010547
v -2.296870 4.029373 -0.010547
v -2.507255 4.730284 -0.384095
v -2.284097 4.138273 -0.384095
v -2.512723 4.730608 -0.384095
v -2.743732 4.224885 -0.384095
v -2.745415 4.175934 -0.384095
v -2.605880 3.806237 -0.384095
v -2.809427 4.165244 -0.327283
vn -0.0000 -0.0000 -1.0000
vn 0.6982 -0.1228 -0.7053
vn 0.6925 -0.1454 -0.7067
vn 0.6924 -0.1457 -0.7066
vn 0.7051 -0.0183 -0.7088
vn 0.7028 0.0865 -0.7061
vn -0.5825 0.4605 -0.6699
vn -0.6926 0.1671 -0.7017
vn -0.6926 0.1670 -0.7017
vn -0.5825 0.4604 -0.6699
vn -0.4429 0.6647 -0.6017
vn -0.9722 0.2341 -0.0000
vn -0.9493 0.3143 -0.0000
vn -0.5617 0.8274 -0.0000
vn -0.6926 0.1671 0.7017
vn -0.5835 0.4634 0.6669
vn -0.4441 0.6696 0.5953
vn -0.0000 -0.0000 1.0000
vn 0.0814 0.7024 0.7071
vn 0.7051 -0.0183 0.7089
vn 0.7028 0.0865 0.7061
vn 0.1151 0.9934 -0.0000
vn 0.9997 -0.0257 -0.0000
vn 0.9925 0.1220 -0.0000
vn 0.9849 -0.1731 -0.0000
vn 0.6982 -0.1228 0.7053
vn 0.9786 -0.2059 -0.0000
vn 0.6923 -0.1461 0.7066
vn 0.6924 -0.1458 0.7066
vn 0.5313 -0.3805 0.7569
vn 0.6289 -0.2759 0.7269
vn -0.6396 -0.3165 0.7006
vn -0.5558 -0.4351 0.7084
vn -0.5560 -0.4353 0.7081
vn -0.6734 -0.1778 0.7175
vn -0.7124 -0.0422 0.7005
vn -0.7930 -0.6093 -0.0000
vn -0.9884 0.1522 -0.0000
vn -0.6734 -0.1778 -0.7175
vn -0.7124 -0.0422 -0.7005
vn -0.6396 -0.3165 -0.7005
vn -0.5558 -0.4351 -0.7084
vn 0.4376 -0.4788 -0.7611
vn 0.3037 -0.5666 -0.7660
vn 0.5314 -0.3816 -0.7563
vn 0.6288 -0.2759 -0.7269
vn 0.4867 -0.8736 -0.0000
vn 0.9712 -0.2383 -0.0000
vn 0.4376 -0.4774 0.7620
vn 0.3037 -0.5638 0.7681
vn -0.8736 -0.4867 -0.0000
vn -0.8487 -0.5288 -0.0000
vn -0.7739 -0.6333 -0.0000
vn -0.7210 -0.6929 -0.0000
vn 0.6093 -0.7930 -0.0000
vn 0.0814 0.7024 -0.7071
vn 0.6408 -0.3402 -0.6883
vn 0.5604 -0.4706 -0.6816
vn 0.6407 -0.3402 -0.6883
vn 0.7061 -0.2018 -0.6787
vn 0.7062 -0.2018 -0.6787
vn 0.0439 -0.6285 -0.7766
vn -0.7102 0.1542 -0.6869
vn -0.7901 -0.0908 -0.6062
vn -0.7101 0.1542 -0.6870
vn -0.6900 0.1680 -0.7040
vn -0.9777 0.2102 -0.0000
vn -0.9716 0.2367 -0.0000
vn -0.9830 0.1836 -0.0000
vn -0.8023 -0.3165 -0.5061
vn -0.9329 -0.3602 -0.0000
vn -0.2140 -0.9764 -0.0298
vn -0.2004 -0.9797 -0.0000
vn -0.2212 -0.9747 -0.0319
vn -0.9874 0.1582 -0.0000
vn 0.9797 -0.2004 -0.0000
vn -0.2140 -0.9764 0.0297
vn -0.2005 -0.9797 -0.0000
vn -0.2102 -0.9771 -0.0314
vn -0.2102 -0.9771 0.0324
vn -0.2212 -0.9747 0.0319
vn 0.8809 -0.4734 -0.0000
vn 0.7608 -0.6490 -0.0000
vn -0.2140 -0.9764 -0.0297
vn -0.2140 -0.9764 0.0298
vn -0.2102 -0.9771 -0.0324
vn -0.2102 -0.9771 0.0314
vn 0.6411 -0.3409 0.6876
vn 0.5613 -0.4719 0.6799
vn 0.5613 -0.4718 0.6799
vn 0.6411 -0.3408 0.6876
vn 0.7058 -0.2018 0.6791
vn 0.9611 -0.2763 -0.0000
vn 0.2784 -0.9605 -0.0000
vn 0.1061 -0.7022 0.7040
vn 0.9605 0.2784 -0.0000
vn 0.9576 0.2882 -0.0000
vn 0.9546 0.2979 -0.0000
vn 0.9606 0.2778 -0.0000
vn 0.9608 0.2772 -0.0000
vn 0.1835 0.9830 -0.0000
vn -0.5737 0.8190 -0.0000
vn -0.8190 -0.5737 -0.0000
vn -0.5677 0.8232 -0.0000
vn -0.2740 -0.4786 0.8342
vn -0.2740 -0.4787 0.8342
vn -0.7094 0.1543 0.6877
vn -0.6900 0.1680 0.7040
vn -0.7094 0.1544 0.6877
vn -0.7886 -0.0899 0.6083
vn -0.7886 -0.0898 0.6083
vn -0.8011 -0.3148 0.5090
vn 0.1937 0.9811 -0.0000
vn -0.4650 -0.5481 -0.6953
vn -0.1463 -0.3531 0.9241
vn -0.0000 -0.3822 0.9241
vn 0.1463 -0.3531 0.9241
vn -0.0000 0.3822 0.9241
vn -0.1463 0.3531 0.9241
vn 0.1463 0.3531 0.9241
vn 0.2702 0.2702 0.9241
vn 0.3531 0.1463 0.9241
vn 0.3822 -0.0000 0.9241
vn 0.3531 -0.1463 0.9241
vn 0.2702 -0.2702 0.9241
vn -0.2702 -0.2702 0.9241
vn -0.3531 -0.1463 0.9241
vn -0.3822 -0.0000 0.9241
vn -0.3531 0.1463 0.9241
vn -0.2702 0.2702 0.9241
vn -0.0000 0.7066 0.7076
vn -0.2704 0.6528 0.7076
vn -0.4996 0.4996 0.7076
vn -0.0000 0.9237 0.3832
vn -0.3535 0.8534 0.3832
vn -0.6531 0.6531 0.3832
vn -0.0000 1.0000 -0.0000
vn -0.3827 0.9239 -0.0000
vn -0.7071 0.7071 -0.0000
vn -0.0000 0.9237 -0.3832
vn -0.3535 0.8534 -0.3832
vn -0.6531 0.6531 -0.3832
vn -0.0000 0.7066 -0.7076
vn -0.2704 0.6528 -0.7076
vn -0.4996 0.4996 -0.7076
vn -0.0000 0.3822 -0.9241
vn -0.1463 0.3531 -0.9241
vn -0.2702 0.2702 -0.9241
vn 0.1463 0.3531 -0.9241
vn -0.0000 -0.3822 -0.9241
vn -0.1463 -0.3531 -0.9241
vn 0.1463 -0.3531 -0.9241
vn 0.2702 0.2702 -0.9241
vn -0.2702 -0.2702 -0.9241
vn 0.3531 0.1463 -0.9241
vn -0.3531 -0.1463 -0.9241
vn 0.3822 -0.0000 -0.9241
vn -0.3822 -0.0000 -0.9241
vn 0.3531 -0.1463 -0.9241
vn -0.3531 0.1463 -0.9241
vn 0.2702 -0.2702 -0.9241
vn 0.4996 -0.4996 -0.7076
vn 0.2704 -0.6528 -0.7076
vn -0.0000 -0.7066 -0.7076
vn 0.6531 -0.6531 -0.3832
vn 0.3535 -0.8534 -0.3832
vn -0.0000 -0.9237 -0.3832
vn -0.3535 -0.8534 -0.3832
vn -0.2704 -0.6528 -0.7076
vn -0.6531 -0.6531 -0.3832
vn -0.4996 -0.4996 -0.7076
vn -0.8534 -0.3535 -0.3832
vn -0.6528 -0.2704 -0.7076
vn -0.9237 -0.0000 -0.3832
vn -0.7066 -0.0000 -0.7076
vn -0.8534 0.3535 -0.3832
vn -0.6528 0.2704 -0.7076
vn -1.0000 -0.0000 -0.0000
vn -0.9239 0.3827 -0.0000
vn -0.9237 -0.0000 0.3832
vn -0.8534 0.3535 0.3832
vn -0.7066 -0.0000 0.7076
vn -0.6528 0.2704 0.7076
vn -0.6528 -0.2704 0.7076
vn -0.8534 -0.3535 0.3832
vn -0.4996 -0.4996 0.7076
vn -0.6531 -0.6531 0.3832
vn -0.9239 -0.3827 -0.0000
vn -0.7071 -0.7071 -0.0000
vn -0.3827 -0.9239 -0.0000
vn -0.3535 -0.8534 0.3832
vn -0.0000 -1.0000 -0.0000
vn -0.0000 -0.9237 0.3832
vn -0.0000 -0.7066 0.7076
vn -0.2704 -0.6528 0.7076
vn 0.2704 -0.6528 0.7076
vn 0.3535 -0.8534 0.3832
vn 0.4996 -0.4996 0.7076
vn 0.6531 -0.6531 0.3832
vn 0.3827 -0.9239 -0.0000
vn 0.7071 -0.7071 -0.0000
vn 0.9239 -0.3827 -0.0000
vn 0.8534 -0.3535 -0.3832
vn 0.8534 -0.3535 0.3832
vn 0.6528 -0.2704 -0.7076
vn 0.9237 -0.0000 -0.3832
vn 0.7066 -0.0000 -0.7076
vn 1.0000 -0.0000 -0.0000
vn 0.6528 0.2704 -0.7076
vn 0.8534 0.3535 -0.3832
vn 0.4996 0.4996 -0.7076
vn 0.6531 0.6531 -0.3832
vn 0.7071 0.7071 -0.0000
vn 0.9239 0.3827 -0.0000
vn 0.6531 0.6531 0.3832
vn 0.8534 0.3535 0.3832
vn 0.9237 -0.0000 0.3832
vn 0.6528 0.2704 0.7076
vn 0.7066 -0.0000 0.7076
vn 0.6528 -0.2704 0.7076
vn 0.4996 0.4996 0.7076
vn 0.2704 0.6528 0.7076
vn 0.3535 0.8534 0.3832
vn 0.3827 0.9239 -0.0000
vn 0.3535 0.8534 -0.3832
vn 0.2704 0.6528 -0.7076
vn -0.0140 -0.0789 -0.9968
vn -0.1690 -0.9856 -0.0000
vn 0.6793 -0.2080 -0.7038
vn 0.0764 -0.0623 -0.9951
vn 0.0765 -0.0623 -0.9951
vn 0.9753 -0.2208 0.0010
vn -0.2487 -0.9682 0.0288
vn -0.0054 -0.0284 -0.9996
vn -0.9806 0.1961 -0.0003
vn 0.1800 0.9832 -0.0289
vn -0.0109 -0.0277 -0.9996
vn -0.0110 -0.0277 -0.9996
vn -0.2609 0.0129 -0.9653
vn -0.2610 0.0129 -0.9653
vn -0.7098 0.0926 -0.6982
vn -0.7099 0.0926 -0.6982
vn 0.4259 0.9047 -0.0000
vn -0.9875 0.1577 -0.0000
vn -0.7097 0.0923 0.6984
vn -0.7098 0.0923 0.6984
vn -0.7098 0.0923 0.6983
vn -0.0140 -0.0789 0.9968
vn -0.1115 -0.0186 0.9936
vn -0.2487 -0.9682 -0.0288
vn -0.9806 0.1961 0.0003
vn -0.0054 -0.0284 0.9996
vn 0.1800 0.9832 0.0289
vn 0.9753 -0.2208 -0.0010
vn 0.2131 -0.0916 0.9727
vn -0.0110 -0.0290 0.9995
vn -0.0109 -0.0291 0.9995
vn 0.6793 -0.2080 0.7038
vn 0.9649 -0.2627 -0.0000
vn 0.5580 -0.8299 -0.0000
vn 0.9932 -0.1165 -0.0000
vn 0.9917 0.1285 -0.0000
vn 0.6428 0.0884 -0.7609
vn 0.6253 -0.0733 -0.7769
vn 0.3805 -0.5422 -0.7492
vn 0.3805 -0.5421 -0.7492
vn -0.0949 -0.8993 -0.4270
vn -0.0948 -0.8993 -0.4270
vn -0.0006 -0.6375 -0.7705
vn -0.0007 -0.6375 -0.7705
vn -0.0975 -0.8938 0.4378
vn -0.0976 -0.8938 0.4378
vn 0.3745 -0.5365 0.7563
vn 0.3745 -0.5366 0.7562
vn -0.0045 -0.6186 0.7857
vn -0.9213 -0.3889 -0.0000
vn -0.9834 -0.1815 -0.0000
vn -0.6745 -0.2684 0.6878
vn -0.6776 -0.1241 0.7249
vn -0.6604 0.1636 0.7329
vn -0.6418 0.3012 0.7052
vn -0.6419 0.3012 0.7052
vn -0.9711 0.2389 -0.0000
vn -0.9013 0.4332 -0.0000
vn 0.1366 0.9906 -0.0000
vn 0.0497 0.5028 0.8629
vn 0.0497 0.5028 0.8630
vn 0.9307 0.3657 -0.0000
vn 0.6477 0.2491 0.7200
vn 0.6452 0.0891 0.7588
vn 0.6476 0.2491 0.7201
vn 0.6253 -0.0733 0.7769
vn 0.6432 0.2478 -0.7245
vn 0.0499 0.5077 -0.8601
vn -0.6481 0.3033 -0.6986
vn -0.6637 0.1648 -0.7296
vn -0.6729 -0.1232 -0.7294
vn -0.6731 -0.1234 -0.7292
vn -0.6653 -0.2669 -0.6973
vt 0.971948 0.000000
vt 0.028052 0.000000
vt 0.031749 1.000000
vt 0.968251 1.000000
vt 0.028392 0.000000
vt 0.971609 0.000000
vt 0.000000 0.059526
vt 1.001135 -0.002393
vt 0.005137 0.000943
vt 1.000000 0.059526
vt 0.968251 0.000000
vt 0.968066 0.000000
vt 0.031749 0.000000
vt 0.105084 0.000000
vt 1.010261 -0.001968
vt 0.005729 -0.005848
vt 0.000000 0.940474
vt 1.000000 0.940474
vt 0.005729 1.005848
vt 1.010261 1.001969
vt 0.057790 1.000000
vt 0.922659 1.000000
vt 0.005137 0.999057
vt 1.001135 1.002393
vt 0.028052 1.000000
vt 0.028392 1.000000
vt 0.971948 1.000000
vt 0.971609 1.000000
vt 0.917523 1.000000
vt 0.028558 1.000000
vt 1.000000 1.000000
vt 1.000000 0.000000
vt 0.086087 0.000000
vt 0.959753 0.000000
vt 0.000000 0.000000
vt 0.000000 1.000000
vt 0.024979 0.000000
vt 0.104325 0.000000
vt 0.895675 0.000000
vt 0.975021 0.000000
vt 0.027457 1.000000
vt 0.972543 1.000000
vt 0.000000 0.064765
vt 0.987710 -0.012924
vt 0.003335 -0.015211
vt 1.000000 0.064765
vt 0.972543 0.000000
vt 0.027457 0.000000
vt 0.043214 0.000000
vt 1.002639 -0.054129
vt -0.036672 -0.043182
vt 0.000000 0.333333
vt 1.000000 0.333333
vt 1.000000 0.666667
vt 0.000000 0.666667
vt 1.000000 0.666667
vt 0.000000 0.666667
vt 0.000000 0.935235
vt 0.104325 1.000000
vt 0.895675 1.000000
vt 0.975021 1.000000
vt 0.024979 1.000000
vt 0.003335 1.015211
vt 0.987710 1.012924
vt 1.000000 0.935235
vt 0.043214 1.000000
vt -0.036672 1.043182
vt 1.002639 1.054129
vt 0.500000 1.000000
vt 0.562500 0.875000
vt 0.500000 0.875000
vt 0.437500 1.000000
vt 0.437500 0.875000
vt 0.937500 1.000000
vt 1.000000 0.875000
vt 0.937500 0.875000
vt 0.062500 0.875000
vt 0.000000 0.875000
vt 0.062500 1.000000
vt 0.125000 0.875000
vt 0.125000 1.000000
vt 0.187500 0.875000
vt 0.187500 1.000000
vt 0.250000 0.875000
vt 0.250000 1.000000
vt 0.312500 0.875000
vt 0.312500 1.000000
vt 0.375000 0.875000
vt 0.375000 1.000000
vt 0.562500 1.000000
vt 0.625000 0.875000
vt 0.625000 1.000000
vt 0.687500 0.875000
vt 0.687500 1.000000
vt 0.750000 0.875000
vt 0.750000 1.000000
vt 0.812500 0.875000
vt 0.812500 1.000000
vt 0.875000 0.875000
vt 0.875000 1.000000
vt 1.000000 0.750000
vt 0.937500 0.750000
vt 0.875000 0.750000
vt 1.000000 0.625000
vt 0.937500 0.625000
vt 0.875000 0.625000
vt 1.000000 0.500000
vt 0.937500 0.500000
vt 0.875000 0.500000
vt 1.000000 0.375000
vt 0.937500 0.375000
vt 0.875000 0.375000
vt 1.000000 0.250000
vt 0.937500 0.250000
vt 0.875000 0.250000
vt 1.000000 0.125000
vt 0.937500 0.125000
vt 0.875000 0.125000
vt 0.937500 0.000000
vt 0.875000 0.000000
vt 0.000000 0.000000
vt 0.000000 0.125000
vt 0.062500 0.125000
vt 0.500000 0.000000
vt 0.500000 0.125000
vt 0.562500 0.125000
vt 0.437500 0.000000
vt 0.437500 0.125000
vt 0.062500 0.000000
vt 0.125000 0.125000
vt 0.562500 0.000000
vt 0.625000 0.125000
vt 0.125000 0.000000
vt 0.187500 0.125000
vt 0.625000 0.000000
vt 0.687500 0.125000
vt 0.187500 0.000000
vt 0.250000 0.125000
vt 0.687500 0.000000
vt 0.750000 0.125000
vt 0.250000 0.000000
vt 0.312500 0.125000
vt 0.750000 0.000000
vt 0.812500 0.125000
vt 0.312500 0.000000
vt 0.375000 0.125000
vt 0.812500 0.000000
vt 0.375000 0.000000
vt 0.375000 0.250000
vt 0.437500 0.250000
vt 0.500000 0.250000
vt 0.375000 0.375000
vt 0.437500 0.375000
vt 0.500000 0.375000
vt 0.562500 0.375000
vt 0.562500 0.250000
vt 0.625000 0.375000
vt 0.625000 0.250000
vt 0.687500 0.375000
vt 0.687500 0.250000
vt 0.750000 0.375000
vt 0.750000 0.250000
vt 0.812500 0.375000
vt 0.812500 0.250000
vt 0.750000 0.500000
vt 0.812500 0.500000
vt 0.750000 0.625000
vt 0.812500 0.625000
vt 0.750000 0.750000
vt 0.812500 0.750000
vt 0.687500 0.750000
vt 0.687500 0.625000
vt 0.625000 0.750000
vt 0.625000 0.625000
vt 0.687500 0.500000
vt 0.625000 0.500000
vt 0.562500 0.500000
vt 0.562500 0.625000
vt 0.500000 0.500000
vt 0.500000 0.625000
vt 0.500000 0.750000
vt 0.562500 0.750000
vt 0.437500 0.750000
vt 0.437500 0.625000
vt 0.375000 0.750000
vt 0.375000 0.625000
vt 0.437500 0.500000
vt 0.375000 0.500000
vt 0.312500 0.500000
vt 0.312500 0.375000
vt 0.312500 0.625000
vt 0.312500 0.250000
vt 0.250000 0.375000
vt 0.250000 0.250000
vt 0.250000 0.500000
vt 0.187500 0.250000
vt 0.187500 0.375000
vt 0.125000 0.250000
vt 0.125000 0.375000
vt 0.125000 0.500000
vt 0.187500 0.500000
vt 0.125000 0.625000
vt 0.187500 0.625000
vt 0.250000 0.625000
vt 0.187500 0.750000
vt 0.250000 0.750000
vt 0.312500 0.750000
vt 0.125000 0.750000
vt 0.062500 0.750000
vt 0.062500 0.625000
vt 0.062500 0.500000
vt 0.000000 0.625000
vt 0.000000 0.500000
vt 0.000000 0.750000
vt 0.062500 0.375000
vt 0.000000 0.375000
vt 0.062500 0.250000
vt 0.000000 0.250000
vt 0.198265 0.000000
vt 0.801735 0.000000
vt 0.000000 0.215042
vt 0.000000 0.784958
vt 0.198265 1.000000
vt 0.801735 1.000000
vt 1.000000 0.784958
vt 1.000000 0.215042
vt 1.004477 0.034106
vt -0.027889 0.034312
vt 0.805177 1.000000
vt 0.194823 1.000000
vt 0.976560 0.057049
vt 0.004335 0.057460
vt 0.805177 0.000000
vt 0.194823 0.000000
vt 0.004335 0.942540
vt 0.976560 0.942951
vt -0.027889 0.965688
vt 1.004477 0.965894
vt 0.294187 0.112885
vt 0.294187 0.887115
vt 0.705813 0.887115
vt 0.705813 0.112885
vt 1.558574 0.887115
vt 1.558574 0.112885
vt 0.828314 0.112885
vt 0.828314 0.887115
vt 0.975104 0.168029
vt 0.709641 0.008245
vt 0.675401 0.054607
vt 0.898109 0.184301
vt 0.704984 0.695129
vt 0.308328 0.186039
vt -2.051723 -2.426426
vt -2.479544 -1.996053
vt 0.033152 0.289600
vt 0.260146 0.069093
vt -0.176978 0.112885
vt -0.176978 0.887115
vt 0.294482 0.887115
vt 0.294482 0.112885
vt 0.308328 0.813961
vt 0.704984 0.304871
vt 3.467244 -2.000663
vt 3.039106 -2.430168
vt 0.738501 0.073058
vt 0.965893 0.292399
vt 0.705518 0.887115
vt 0.705518 0.112885
vt 0.303392 0.297861
vt 0.698740 0.621354
vt 0.099194 0.192205
vt 0.077007 0.867441
vt 0.165382 0.928428
vt 0.760641 0.938476
vt 0.905934 0.728958
vt 0.320992 0.065179
vt 0.916047 1.084751
vt 1.113816 0.796616
vt 0.208274 0.626212
vt 0.778964 0.305847
vt 0.798655 0.887115
vt 0.201345 0.887115
vt -0.559135 0.112885
vt -0.559135 0.887114
vt 0.201345 0.112885
vt 0.798655 0.112885
vt -0.121126 0.112885
vt -0.121126 0.887115
vt 0.171686 0.887115
vt 0.171686 0.112885
vt 0.790714 -0.064924
vt 0.864331 0.005822
vt 0.184864 0.295949
vt 0.820844 0.823620
vt 0.294420 0.016078
vt 0.029995 0.173394
vt 0.820844 0.176380
vt 0.184864 0.704050
vt 0.138698 0.004786
vt 0.212181 -0.066293
vt 0.922993 0.867441
vt 0.834525 0.928155
vt 0.088191 0.711739
vt 0.233809 0.922208
vt 0.778965 0.694153
vt 0.208274 0.373788
vt -0.116636 0.793508
vt 0.081245 1.081971
vt 0.698740 0.378646
vt 0.303392 0.702139
s 1
f 1/1/1 2/2/1 8/3/1 5/4/1
f 1/2/1 3/5/1 35/6/1 2/1/1
f 4/7/2 42/7/3 3/5/4 1/2/2
f 1/8/2 5/9/5 6/7/5 4/10/2
f 5/11/5 7/12/6 22/10/6 6/10/5
f 8/13/1 9/14/1 7/12/1 5/11/1
f 8/15/7 2/16/8 11/7/9 10/10/10
f 10/7/10 12/7/11 9/14/11 8/13/7
f 11/7/12 14/17/12 13/18/13 10/10/13
f 13/17/14 15/17/14 12/7/14 10/7/14
f 17/19/15 16/20/16 13/18/16 14/17/15
f 16/3/16 19/21/17 15/17/17 13/17/16
f 26/2/18 18/3/18 16/4/18 17/1/18
f 18/4/18 20/22/18 19/21/18 16/3/18
f 21/18/19 15/17/19 19/21/19 20/22/19
f 23/18/20 21/18/21 20/22/21 18/4/20
f 12/7/22 15/17/22 21/18/22 22/10/22
f 6/10/23 22/10/24 21/18/24 23/18/23
f 6/7/23 23/17/23 24/18/25 4/10/25
f 18/23/20 26/24/26 24/18/26 23/17/20
f 24/17/25 25/17/27 42/7/27 4/7/25
f 26/25/26 27/26/28 25/17/29 24/17/26
f 17/27/18 29/28/18 27/26/18 26/25/18
f 29/28/18 30/29/18 28/30/18 27/26/18
f 27/26/28 28/30/30 41/17/31 25/17/29
f 31/31/32 44/31/33 30/29/34 29/28/35
f 14/18/15 32/18/36 29/28/35 17/27/15
f 29/28/35 32/18/36 31/31/32
f 34/32/37 55/32/37 56/31/37 31/31/37 32/18/37 33/10/37
f 11/10/12 33/10/38 32/18/38 14/18/12
f 2/1/8 35/6/39 33/10/40 11/10/9
f 33/10/40 35/6/39 34/32/41
f 3/5/1 38/33/1 36/34/1 35/6/1
f 37/32/42 34/32/41 35/6/39 36/34/42
f 39/35/43 37/32/44 36/34/44 38/33/45
f 42/7/3 40/7/46 38/33/45 3/5/4
f 38/33/45 40/7/46 39/35/43
f 43/36/47 45/36/47 47/35/47 39/35/47 40/7/47 41/17/47
f 25/17/27 41/17/48 40/7/48 42/7/27
f 41/17/31 28/30/30 43/36/49
f 44/31/47 46/31/47 45/36/47 43/36/47
f 44/31/50 43/36/49 28/30/30 30/29/50
f 46/31/1 49/31/1 48/36/1 45/36/1
f 45/36/51 48/36/52 50/35/52 47/35/51
f 50/35/52 48/36/52 49/31/53 51/32/53
f 47/35/18 50/35/18 51/32/18 52/32/18
f 52/32/18 51/32/18 53/32/18 55/32/18
f 53/32/54 51/32/53 49/31/53 54/31/54
f 55/32/55 53/32/55 54/31/55 56/31/55
f 37/32/37 52/32/37 55/32/37 34/32/37
f 31/31/37 56/31/37 46/31/37 44/31/37
f 56/31/1 54/31/1 49/31/1 46/31/1
f 39/35/47 47/35/47 52/32/47 37/32/47
f 12/7/56 22/10/56 7/12/56 9/14/56
f 57/37/1 59/38/1 158/39/1 58/40/1
f 57/40/1 58/37/1 64/41/1 61/42/1
f 60/43/57 87/43/58 59/38/58 57/37/59
f 57/44/59 61/45/60 63/43/61 60/46/57
f 63/46/62 61/47/62 62/32/62 155/32/62
f 64/48/1 65/49/1 149/32/1 62/32/1 61/47/1
f 64/50/63 58/51/64 69/43/64 66/46/65
f 66/43/65 67/43/66 65/49/66 64/48/63
f 68/52/67 125/52/68 67/43/68 66/43/67
f 71/52/69 68/53/67 66/46/67 69/43/69
f 58/40/64 158/39/70 70/46/70 69/46/64
f 73/53/71 71/53/71 69/46/71 70/46/71
f 71/53/71 73/53/71 74/54/71 72/54/71
f 68/53/67 71/52/69 72/55/69 123/56/67
f 157/32/72 76/32/73 75/53/73 73/53/73 70/46/74
f 73/53/73 75/53/73 77/54/73 74/54/73
f 76/32/75 79/32/75 78/53/75 75/53/75
f 75/53/75 78/53/75 80/54/75 77/54/75
f 81/52/73 78/53/73 79/32/73 84/35/73
f 78/53/73 81/52/73 82/57/73 80/54/73
f 93/57/76 82/57/76 81/52/76 83/52/76
f 83/52/76 81/52/76 84/35/76 85/35/76
f 85/35/1 84/35/1 79/32/1 76/32/1
f 86/35/77 85/35/78 76/32/73 157/32/72 158/39/79 59/38/80
f 88/52/73 83/52/73 85/35/78 86/35/77 87/43/81
f 59/38/80 87/43/81 86/35/77
f 89/52/82 88/52/83 87/43/83 60/43/82
f 92/57/82 90/57/83 88/52/83 89/52/82
f 90/57/73 93/57/73 83/52/73 88/52/73
f 90/57/83 92/57/82 103/58/82 91/58/83
f 97/36/84 94/36/78 93/57/73 90/57/73 91/58/74
f 94/36/76 96/36/76 82/57/76 93/57/76
f 95/31/18 156/31/18 96/36/18 94/36/18
f 137/31/85 95/31/73 94/36/78 97/36/84 98/59/86 99/60/87
f 91/58/74 98/59/86 97/36/84
f 101/61/18 99/60/18 98/59/18 100/62/18
f 100/62/88 98/59/89 91/58/90 103/58/91
f 100/37/18 102/41/18 133/42/18 101/40/18
f 102/63/92 100/64/88 103/65/91 104/58/92
f 92/56/82 105/55/93 104/58/93 103/65/82
f 105/54/94 109/54/94 108/31/94 106/31/94 104/65/94
f 102/42/95 104/65/95 106/31/95 107/31/95
f 106/31/18 108/31/18 110/31/18 112/31/18 107/31/18
f 109/54/96 113/54/97 110/31/97 108/31/96
f 112/31/18 110/31/18 111/31/18 138/31/18
f 113/54/97 114/54/98 111/31/98 110/31/97
f 117/54/1 114/54/1 113/54/1 115/54/1
f 115/54/1 113/54/1 109/54/1 105/54/1
f 154/53/96 116/53/99 115/54/99 105/54/96
f 116/53/99 118/53/100 117/54/100 115/54/99
f 118/53/101 120/52/101 119/57/101 117/54/101
f 119/57/1 121/57/1 114/54/1 117/54/1
f 122/57/102 119/57/102 120/52/102 125/52/102
f 122/57/1 126/57/1 121/57/1 119/57/1
f 122/57/68 123/57/67 134/58/67 124/58/68
f 123/57/67 122/57/68 125/52/68 68/52/67
f 129/36/103 127/36/103 126/57/103 122/57/103 124/58/103
f 121/57/104 126/57/104 127/36/104 128/36/104
f 131/36/18 128/36/18 127/36/18 129/36/18 130/36/18
f 124/58/105 132/66/106 130/36/105 129/36/105
f 112/31/18 138/31/18 131/36/18 130/36/18 132/66/18
f 133/41/107 132/66/108 124/58/108 134/58/109
f 107/31/18 112/31/18 132/66/18 133/41/18 102/42/18
f 101/67/110 133/68/107 134/65/109 135/58/111
f 123/56/67 72/55/69 135/58/69 134/65/67
f 135/65/111 136/65/112 99/60/112 101/61/110
f 72/54/71 74/54/71 136/65/71 135/65/71
f 99/60/87 136/65/81 137/31/85
f 74/54/73 77/54/73 95/31/73 137/31/85 136/65/81
f 138/31/18 111/31/18 128/36/18 131/36/18
f 114/54/113 121/57/113 128/36/113 111/31/113
f 120/52/18 141/52/18 139/52/18 125/52/18
f 125/52/103 139/52/103 140/35/103 148/35/103 67/43/103
f 139/52/104 141/52/104 143/35/104 140/35/104
f 118/53/18 142/53/18 141/52/18 120/52/18
f 141/52/113 142/53/113 144/32/113 143/35/113
f 148/35/1 140/35/1 143/35/1 145/35/1 147/35/1
f 145/35/1 143/35/1 144/32/1 146/32/1
f 147/35/1 145/35/1 146/32/1 149/32/1 65/49/1
f 65/49/114 67/43/114 148/35/114 147/35/114
f 146/32/1 144/32/1 150/32/1 149/32/1
f 149/32/1 150/32/1 151/32/1 155/32/1 62/32/1
f 152/53/97 153/53/96 151/32/96 150/32/97
f 142/53/98 152/53/97 150/32/97 144/32/98
f 154/53/18 153/53/18 152/53/18 116/53/18
f 116/53/18 152/53/18 142/53/18 118/53/18
f 155/32/94 151/32/94 153/53/94 154/53/94 63/46/94
f 154/52/93 89/53/82 60/46/82 63/43/93
f 89/53/82 154/52/93 105/55/93 92/56/82
f 80/54/73 82/57/73 96/36/73 156/31/73
f 77/54/75 80/54/75 156/31/75 95/31/75
f 70/46/74 158/39/79 157/32/72
f 159/69/18 169/70/115 160/71/116
f 159/72/18 160/71/116 168/73/117
f 159/74/18 161/75/118 175/76/119
f 159/36/18 162/77/120 161/78/118
f 159/79/18 163/80/121 162/77/120
f 159/81/18 164/82/122 163/80/121
f 159/83/18 165/84/123 164/82/122
f 159/85/18 166/86/124 165/84/123
f 159/87/18 167/88/125 166/86/124
f 159/89/18 168/73/117 167/88/125
f 159/90/18 170/91/126 169/70/115
f 159/92/18 171/93/127 170/91/126
f 159/94/18 172/95/128 171/93/127
f 159/96/18 173/97/129 172/95/128
f 159/98/18 174/99/130 173/97/129
f 159/100/18 175/76/119 174/99/130
f 175/76/119 161/75/118 177/101/131 176/102/132
f 174/99/130 175/76/119 176/102/132 178/103/133
f 176/102/132 177/101/131 180/104/134 179/105/135
f 178/103/133 176/102/132 179/105/135 181/106/136
f 179/105/135 180/104/134 183/107/137 182/108/138
f 181/106/136 179/105/135 182/108/138 184/109/139
f 182/108/138 183/107/137 186/110/140 185/111/141
f 184/109/139 182/108/138 185/111/141 187/112/142
f 185/111/141 186/110/140 189/113/143 188/114/144
f 187/112/142 185/111/141 188/114/144 190/115/145
f 188/114/144 189/113/143 192/116/146 191/117/147
f 190/115/145 188/114/144 191/117/147 193/118/148
f 194/119/1 191/117/147 192/116/146
f 194/120/1 193/118/148 191/117/147
f 194/121/1 192/122/146 196/123/149
f 194/124/1 195/125/150 197/126/151
f 194/127/1 207/128/152 195/125/150
f 194/129/1 196/123/149 198/130/153
f 194/131/1 197/126/151 199/132/154
f 194/133/1 198/130/153 200/134/155
f 194/135/1 199/132/154 201/136/156
f 194/137/1 200/134/155 202/138/157
f 194/139/1 201/136/156 203/140/158
f 194/141/1 202/138/157 204/142/159
f 194/143/1 203/140/158 205/144/160
f 194/145/1 204/142/159 206/146/161
f 194/147/1 205/144/160 193/118/148
f 194/148/1 206/146/161 207/128/152
f 209/149/162 208/150/163 207/128/152 206/146/161
f 208/150/163 211/151/164 195/125/150 207/128/152
f 248/152/165 210/153/166 208/150/163 209/149/162
f 210/153/166 212/154/167 211/151/164 208/150/163
f 212/154/167 214/155/168 213/156/169 211/151/164
f 211/151/164 213/156/169 197/126/151 195/125/150
f 214/155/168 216/157/170 215/158/171 213/156/169
f 213/156/169 215/158/171 199/132/154 197/126/151
f 216/157/170 218/159/172 217/160/173 215/158/171
f 215/158/171 217/160/173 201/136/156 199/132/154
f 218/159/172 220/161/174 219/162/175 217/160/173
f 217/160/173 219/162/175 203/140/158 201/136/156
f 220/161/174 222/163/176 221/164/177 219/162/175
f 219/162/175 221/164/177 205/144/160 203/140/158
f 222/163/176 187/112/142 190/115/145 221/164/177
f 221/164/177 190/115/145 193/118/148 205/144/160
f 224/165/178 223/166/179 222/163/176 220/161/174
f 223/166/179 184/109/139 187/112/142 222/163/176
f 226/167/180 225/168/181 223/166/179 224/165/178
f 225/168/181 181/106/136 184/109/139 223/166/179
f 228/169/182 227/170/183 225/168/181 226/167/180
f 227/170/183 178/103/133 181/106/136 225/168/181
f 172/95/128 173/97/129 227/170/183 228/169/182
f 173/97/129 174/99/130 178/103/133 227/170/183
f 229/171/184 228/169/182 226/167/180 231/172/185
f 171/93/127 172/95/128 228/169/182 229/171/184
f 230/173/186 229/171/184 231/172/185 232/174/187
f 170/91/126 171/93/127 229/171/184 230/173/186
f 232/174/187 231/172/185 233/175/188 234/176/189
f 231/172/185 226/167/180 224/165/178 233/175/188
f 234/176/189 233/175/188 218/159/172 216/157/170
f 233/175/188 224/165/178 220/161/174 218/159/172
f 235/177/190 234/176/189 216/157/170 214/155/168
f 237/178/191 232/174/187 234/176/189 235/177/190
f 236/179/192 235/177/190 214/155/168 212/154/167
f 238/180/193 237/178/191 235/177/190 236/179/192
f 240/181/194 239/182/195 237/178/191 238/180/193
f 239/182/195 230/173/186 232/174/187 237/178/191
f 160/71/116 169/70/115 239/182/195 240/181/194
f 169/70/115 170/91/126 230/173/186 239/182/195
f 168/73/117 160/71/116 240/181/194 241/183/196
f 241/183/196 240/181/194 238/180/193 243/184/197
f 242/185/198 241/183/196 243/184/197 244/186/199
f 167/88/125 168/73/117 241/183/196 242/185/198
f 244/186/199 243/184/197 245/187/200 246/188/201
f 243/184/197 238/180/193 236/179/192 245/187/200
f 246/188/201 245/187/200 210/153/166 248/152/165
f 245/187/200 236/179/192 212/154/167 210/153/166
f 247/189/202 246/188/201 248/152/165 249/190/203
f 263/191/204 244/186/199 246/188/201 247/189/202
f 249/190/203 248/152/165 209/149/162 251/192/205
f 250/193/206 249/190/203 251/192/205 252/194/207
f 260/195/208 247/189/202 249/190/203 250/193/206
f 252/194/207 251/192/205 204/142/159 202/138/157
f 251/192/205 209/149/162 206/146/161 204/142/159
f 253/196/209 252/194/207 202/138/157 200/134/155
f 255/197/210 250/193/206 252/194/207 253/196/209
f 254/198/211 253/196/209 200/134/155 198/130/153
f 256/199/212 255/197/210 253/196/209 254/198/211
f 258/200/213 257/201/214 255/197/210 256/199/212
f 257/201/214 260/195/208 250/193/206 255/197/210
f 268/202/215 259/203/216 257/201/214 258/200/213
f 259/203/216 261/204/217 260/195/208 257/201/214
f 261/204/217 263/191/204 247/189/202 260/195/208
f 265/205/218 262/206/219 261/204/217 259/203/216
f 262/206/219 264/207/220 263/191/204 261/204/217
f 264/207/220 242/185/198 244/186/199 263/191/204
f 165/84/123 166/86/124 264/207/220 262/206/219
f 166/86/124 167/88/125 242/185/198 264/207/220
f 164/82/122 165/84/123 262/206/219 265/205/218
f 266/208/221 265/205/218 259/203/216 268/202/215
f 163/80/121 164/82/122 265/205/218 266/208/221
f 267/209/222 266/208/221 268/202/215 269/210/223
f 162/77/120 163/80/121 266/208/221 267/209/222
f 269/210/223 268/202/215 258/200/213 270/211/224
f 180/212/134 269/210/223 270/211/224 183/213/137
f 177/214/131 267/209/222 269/210/223 180/212/134
f 183/213/137 270/211/224 271/215/225 186/216/140
f 270/211/224 258/200/213 256/199/212 271/215/225
f 186/216/140 271/215/225 272/217/226 189/218/143
f 271/215/225 256/199/212 254/198/211 272/217/226
f 189/218/143 272/217/226 196/123/149 192/122/146
f 272/217/226 254/198/211 198/130/153 196/123/149
f 161/78/118 162/77/120 267/209/222 177/214/131
f 274/219/227 279/219/227 277/220/227 273/220/227
f 275/221/228 304/222/228 291/223/228 290/224/228 289/225/228 288/226/228 274/220/228 273/219/228
f 273/227/229 276/228/229 303/221/229 275/226/229
f 273/220/230 277/220/231 278/229/231 276/229/231
f 277/220/232 280/220/232 281/229/232 278/229/232
f 279/219/233 282/219/233 280/220/233 277/220/233
f 280/220/234 282/219/234 283/230/234 281/229/234
f 284/230/235 283/230/235 282/219/235 279/219/235
f 278/229/236 281/229/236 283/230/236 284/230/236
f 276/229/237 278/229/238 284/230/237 285/230/237
f 285/230/239 284/230/239 279/219/239 274/219/240
f 285/231/241 274/232/242 288/221/241 286/226/242
f 286/221/243 287/222/243 292/230/243 301/229/243 302/225/243 303/226/243 276/233/243 285/234/243
f 288/221/244 289/222/244 287/225/244 286/226/244
f 290/235/245 292/236/246 287/225/245 289/222/247
f 291/219/248 294/219/248 293/220/248 290/220/248
f 290/220/249 293/220/249 295/229/249 292/229/249
f 294/219/250 297/219/250 296/220/250 293/220/250
f 293/220/251 296/220/251 298/229/251 295/229/251
f 297/219/252 299/230/252 298/229/252 296/220/252
f 295/229/253 298/229/253 299/230/253 300/230/253
f 300/230/254 299/230/254 297/219/254 294/219/254
f 301/230/255 300/230/255 294/219/255 291/219/255
f 292/229/256 295/229/256 300/230/256 301/230/257
f 301/237/258 291/238/258 304/225/258 302/222/258
f 303/221/259 302/222/259 304/225/259 275/226/259
f 305/239/260 306/240/260 312/241/260 309/242/260
f 306/243/261 305/244/261 307/245/262 327/246/262
f 307/247/263 305/248/264 308/249/264 331/250/263
f 310/251/265 308/252/265 305/239/266 309/242/265
f 309/253/267 311/254/268 335/255/269 310/256/270
f 309/257/267 312/258/271 314/259/272 311/260/268
f 329/261/273 313/262/273 312/241/273 306/240/274
f 314/263/272 312/264/271 313/265/275 316/266/275
f 311/260/276 314/259/276 315/267/277 336/268/277
f 316/269/278 317/270/279 315/267/279 314/259/278
f 328/271/18 326/272/18 319/273/18 318/274/18 317/275/18 316/266/18 313/265/18 329/276/18
f 320/277/280 315/278/279 317/275/279 318/274/280
f 318/279/280 319/280/281 322/281/282 320/282/280
f 336/283/277 315/284/277 320/282/283 321/285/283
f 321/285/283 320/282/283 322/281/284 323/286/284
f 323/287/285 322/288/285 324/289/285 325/290/285
f 324/291/286 322/292/287 319/273/286 326/272/287
f 325/290/288 324/289/288 327/246/262 307/245/262
f 326/293/289 328/294/290 327/246/290 324/289/291
f 306/295/292 327/296/290 328/271/290 329/276/292
f 331/297/263 330/298/293 325/290/293 307/245/263
f 323/299/294 325/300/294 330/301/294 332/302/294
f 308/249/1 310/256/1 335/255/1 334/303/1 333/304/1 332/302/1 330/301/1 331/250/1
f 332/305/295 333/306/296 321/285/296 323/286/295
f 336/307/297 321/308/296 333/304/296 334/303/298
f 334/309/298 335/310/299 311/260/299 336/268/297
