# Blender 4.2.3 LTS
# www.blender.org
mtllib rightFoot.mtl
o Robot_Right_Foot
v -0.911564 1.600652 0.058013
v -0.911771 1.504218 0.058812
v -0.904177 1.690946 0.029449
v -0.881093 1.600652 0.065893
v -0.887018 1.634115 -0.036493
v -0.887159 1.573821 -0.035996
v -0.918123 1.634124 -0.044516
v -0.882399 1.690570 -0.054352
v -0.873860 1.736376 -0.087419
v -0.913504 1.690578 -0.062375
v -0.904715 1.735487 -0.096321
v -0.892911 1.767381 -0.139365
v -0.879942 1.775906 -0.189728
v -0.861779 1.766011 -0.131538
v -0.848837 1.775897 -0.181705
v -0.871532 1.811606 -0.094090
v -0.890500 1.764209 -0.023434
v -0.850785 1.827418 -0.174314
v -0.841089 1.811535 -0.086104
v -0.860057 1.764138 -0.015448
v -0.820314 1.827418 -0.166433
v -0.838935 1.783662 -0.094418
v -0.855961 1.741319 -0.031301
v -0.820376 1.797855 -0.166195
v -0.536367 1.783789 -0.016356
v -0.517857 1.797855 -0.087945
v -0.538511 1.811677 -0.008079
v -0.553391 1.741432 0.046755
v -0.565632 1.675906 0.094103
v -0.557479 1.764280 0.062577
v -0.571183 1.690946 0.115567
v -0.527036 1.764209 0.070564
v -0.540713 1.690946 0.123447
v -0.508068 1.811606 -0.000092
v -0.510396 1.736376 0.006579
v -0.518935 1.690570 0.039647
v -0.498315 1.766011 -0.037540
v -0.479540 1.737265 0.015481
v -0.487830 1.690561 0.047670
v -0.467182 1.764640 -0.029714
v -0.454268 1.775888 -0.079683
v -0.441375 1.764835 -0.129677
v -0.485373 1.775897 -0.087706
v -0.487321 1.827418 -0.080316
v -0.472480 1.764843 -0.137700
v -0.466645 1.809740 -0.160261
v -0.461192 1.734184 -0.181492
v -0.448536 1.760702 -0.230287
v -0.452869 1.687616 -0.213799
v -0.430086 1.734175 -0.173469
v -0.421764 1.687607 -0.205776
v -0.417410 1.630747 -0.222702
v -0.448515 1.630756 -0.230725
v -0.417551 1.570453 -0.222205
v -0.448656 1.570462 -0.230228
v -0.422170 1.513998 -0.204346
v -0.453275 1.514007 -0.212369
v -0.430709 1.468191 -0.171279
v -0.442139 1.438557 -0.126991
v -0.461814 1.468200 -0.179302
v -0.449447 1.335287 -0.226763
v -0.473244 1.438566 -0.135014
v -0.467764 1.287891 -0.155938
v -0.486185 1.428679 -0.084848
v -0.488511 1.272078 -0.075715
v -0.455080 1.428671 -0.076825
v -0.499078 1.439733 -0.034854
v -0.509186 1.289757 0.004231
v -0.510367 1.470393 0.008937
v -0.467973 1.439724 -0.026831
v -0.479261 1.470384 0.016960
v -0.487374 1.517829 0.048363
v -0.518690 1.516961 0.041245
v -0.492911 1.573826 0.067184
v -0.523694 1.573821 0.058002
v -0.492448 1.634106 0.065529
v -0.523553 1.634115 0.057506
v -0.548100 1.600652 0.152011
v -0.548306 1.504217 0.152810
v -0.578571 1.600652 0.144131
v -0.578700 1.540350 0.144630
v -0.572232 1.595232 0.119622
v -0.572252 1.540059 0.119700
v -0.874755 1.595232 0.041385
v -0.868153 1.675919 0.015859
v -0.874775 1.540059 0.041463
v -0.881222 1.540350 0.066393
v -0.873706 1.690946 0.037330
v -0.540656 1.413275 0.125916
v -0.904120 1.413275 0.031918
v -0.527296 1.338794 0.074256
v -0.890760 1.338794 -0.019742
v -0.872650 1.289757 -0.089767
v -0.873831 1.470393 -0.085061
v -0.882154 1.516961 -0.052754
v -0.862542 1.439733 -0.128852
v -0.904936 1.470401 -0.093084
v -0.913469 1.516093 -0.059872
v -0.893647 1.439742 -0.136875
v -0.880755 1.428689 -0.186869
v -0.867813 1.438575 -0.237035
v -0.849650 1.428680 -0.178846
v -0.851975 1.272078 -0.169713
v -0.836708 1.438566 -0.229012
v -0.825278 1.468200 -0.273300
v -0.831228 1.287891 -0.249937
v -0.812911 1.335287 -0.320761
v -0.799235 1.408551 -0.373645
v -0.791848 1.498845 -0.402208
v -0.435770 1.408551 -0.279647
v -0.816739 1.514007 -0.306368
v -0.765996 1.442383 -0.376467
v -0.761377 1.498845 -0.394328
v -0.772033 1.452767 -0.353124
v -0.463474 1.442383 -0.298229
v -0.469510 1.452767 -0.274886
v -0.458854 1.498845 -0.316091
v -0.458648 1.595279 -0.316889
v -0.465193 1.504264 -0.291582
v -0.428383 1.498845 -0.308210
v -0.428177 1.595279 -0.309009
v -0.435176 1.686221 -0.281947
v -0.465646 1.686221 -0.289827
v -0.471262 1.671691 -0.268115
v -0.479007 1.760702 -0.238168
v -0.497116 1.809740 -0.168142
v -0.483199 1.738243 -0.221955
v -0.785722 1.738243 -0.300192
v -0.499381 1.782058 -0.159385
v -0.801903 1.782059 -0.237623
v -0.799639 1.809740 -0.246379
v -0.830110 1.809740 -0.254260
v -0.781529 1.760702 -0.316405
v -0.812000 1.760702 -0.324285
v -0.768169 1.686221 -0.368065
v -0.798640 1.686221 -0.375945
v -0.761170 1.595279 -0.395127
v -0.773784 1.671691 -0.346352
v -0.767530 1.590431 -0.370533
v -0.767715 1.504264 -0.369819
v -0.465008 1.590431 -0.292296
v -0.791641 1.595279 -0.403007
v -0.811979 1.630756 -0.324723
v -0.812121 1.570462 -0.324227
v -0.843085 1.630764 -0.332746
v -0.816333 1.687616 -0.307797
v -0.847438 1.687625 -0.315820
v -0.824656 1.734184 -0.275490
v -0.855761 1.734193 -0.283513
v -0.835944 1.764844 -0.231698
v -0.867050 1.764853 -0.239721
v -0.843226 1.570471 -0.332250
v -0.847844 1.514016 -0.314391
v -0.856384 1.468209 -0.281323
v -0.517792 1.827418 -0.088196
v -0.917942 1.573817 -0.045178
v -0.867592 0.004228 -0.462900
v -1.020283 0.004227 0.127512
v -0.805022 0.305708 -0.704839
v -0.838149 0.004228 -0.455285
v -0.869186 0.049856 -0.447121
v -1.014767 0.049859 0.115642
v -0.887538 0.077105 -0.418887
v -1.066291 0.413709 -0.412819
v -0.814000 0.322700 -0.666355
v -0.766398 1.029272 -0.593032
v -0.996180 0.585409 -0.501365
v -0.962021 1.207400 -0.330861
v -0.985930 1.315320 -0.194790
v -1.033268 1.207446 -0.060640
v -0.895295 1.588101 -0.176215
v -0.891481 1.648446 -0.177288
v -0.989773 1.083490 0.270024
v -1.061183 0.217401 0.289952
v -0.997824 1.106314 0.306129
v -1.071956 0.195808 0.327317
v -0.589867 1.106314 0.411634
v -0.964883 1.060613 0.315780
v -1.042526 0.193537 0.334985
v -0.924674 1.055008 0.160301
v -0.623357 1.060613 0.404105
v -0.564759 0.193537 0.458544
v -0.583147 1.055008 0.248626
v -0.528763 0.280060 0.319359
v -0.500229 0.187906 0.209023
v -1.006532 0.280070 0.195804
v -0.977997 0.187908 0.085469
v -0.990840 0.004227 0.135127
v -0.853460 0.183461 -0.396079
v -0.812825 0.376078 -0.553203
v -0.375693 0.183461 -0.272520
v -0.335058 0.376078 -0.429643
v -0.360381 0.004227 -0.331726
v -0.330938 0.004227 -0.324112
v -0.513072 0.004228 0.258686
v -0.297785 0.303186 -0.573769
v -0.268368 0.305709 -0.566050
v -0.380674 1.005177 -0.532768
v -0.420847 0.995244 -0.377428
v -0.722933 1.005177 -0.621282
v -0.348311 1.050838 -0.522392
v -0.756269 1.050838 -0.627897
v -0.353616 1.036616 -0.499045
v -0.448467 1.648446 -0.062716
v -0.446610 1.608652 -0.060878
v -0.582968 1.091263 0.388236
v -0.329131 1.314838 -0.024440
v -0.366373 1.207442 0.111727
v -0.297223 1.208253 -0.158699
v -0.195171 0.584077 -0.291671
v -0.275494 0.316914 -0.540984
v -0.220830 0.411851 -0.192397
v -0.316298 0.415173 0.176852
v -0.242981 0.384236 -0.178198
v -0.335063 0.034317 -0.314502
v -0.333787 0.062101 -0.280673
v -0.483015 0.034318 0.257691
v -0.483629 0.004228 0.266301
v -0.529570 0.210048 0.441111
v -0.464733 0.062068 0.226024
v -0.329249 0.387265 0.155237
v -0.458384 0.694034 0.072218
v -0.400626 0.694036 -0.150236
v -0.332034 0.687781 0.058224
v -0.294920 0.687681 -0.088408
v -0.535302 0.195808 0.466106
v -0.341229 0.590846 0.274308
v -0.775552 0.303186 -0.697328
v -0.763107 0.995244 -0.465943
v -1.160023 0.591056 0.063375
v -1.161867 0.413408 -0.043727
v -1.108744 0.386168 -0.048266
v -1.016271 0.077114 0.078791
v -1.022498 0.386445 -0.381291
v -1.023974 0.696199 -0.130999
v -0.990880 0.696292 -0.258788
v -0.928254 0.693350 -0.066724
v -0.878792 0.693356 -0.257678
v -0.579596 1.348653 0.166741
v -0.579596 1.364392 0.166741
v -0.635930 1.100108 0.384568
v -0.607601 1.348653 0.159498
v -0.607601 1.364392 0.159498
v -0.658593 1.123675 0.356671
v -0.908849 1.123675 0.291950
v -0.857857 1.348653 0.094778
v -0.942197 1.100108 0.305362
v -0.885863 1.348653 0.087535
v -0.949638 1.270542 0.334137
v -0.885863 1.364392 0.087535
v -0.643371 1.270543 0.413343
v -0.931215 1.440977 0.349908
v -0.897394 1.611411 0.347649
v -0.885863 1.380131 0.087535
v -0.667131 1.440977 0.418204
v -0.579596 1.380131 0.166741
v -0.695616 1.611411 0.399832
v -0.719858 1.781845 0.362863
v -0.579596 1.395870 0.166741
v -0.579596 1.411609 0.166741
v -0.607601 1.395870 0.159498
v -0.607601 1.411609 0.159498
v -0.607601 1.380131 0.159498
v -0.728232 1.753701 0.343031
v -0.841329 1.753701 0.313782
v -0.857857 1.411609 0.094778
v -0.858268 1.781845 0.327067
v -0.885863 1.411609 0.087535
v -0.885863 1.395870 0.087535
v -0.857857 1.395870 0.094778
v -0.857857 1.380131 0.094778
v -0.857857 1.364392 0.094778
v -0.923004 0.880941 0.165823
v -0.901755 0.848955 0.155680
v -0.955022 1.049793 0.289624
v -0.972565 0.662764 0.357461
v -1.004583 0.831615 0.481262
v -1.050872 0.439119 0.337209
v -1.205061 0.381674 0.586569
v -0.951316 0.630778 0.347318
v -1.029622 0.407133 0.327066
v -1.180979 -0.022677 0.713571
v -1.202229 0.009309 0.723714
v -1.189492 -0.068134 0.921913
v -1.187189 0.101050 0.831397
v -1.210742 -0.036148 0.932056
v -1.208439 0.133036 0.841540
v -1.190616 0.375532 0.858799
v -0.940844 0.375532 0.923394
v -1.169366 0.343547 0.848656
v -0.937053 0.343547 0.908736
v -0.704740 0.343547 0.968817
v -0.691072 0.375532 0.987990
v -0.680784 0.101050 0.962362
v -0.667116 0.133036 0.981535
v -0.722653 -0.068134 1.042646
v -0.708985 -0.036148 1.061819
v -0.629092 -0.022676 0.856299
v -0.574091 0.407133 0.444875
v -0.615424 0.009309 0.875472
v -0.560423 0.439119 0.464048
v -0.638729 0.662764 0.443797
v -0.546458 0.381674 0.756895
v -0.670747 0.831615 0.567598
v -0.652397 0.630778 0.424624
v -0.589169 0.880941 0.252159
v -0.602836 0.848955 0.232986
v -0.621186 1.049793 0.375960
v -0.788104 1.049793 0.332793
v -0.634854 1.017807 0.356787
v -0.784313 1.017807 0.318134
v -0.933772 1.017807 0.279482
v -0.837665 0.831615 0.524430
v -0.369166 0.011084 -0.392295
v -0.369166 0.322666 -0.392295
v -0.805413 0.011084 -0.505117
v -0.681661 0.011084 0.816031
v -0.253367 0.011084 -0.840057
v -0.362894 0.041304 -0.416546
v -0.362894 0.292446 -0.416546
v -0.418901 0.041304 -0.431031
v -0.259638 0.041304 -0.815806
v -0.259638 0.070670 -0.815806
v -0.315646 0.041304 -0.830290
v -0.315646 0.070670 -0.830290
v -0.361673 0.292446 -0.652314
v -0.305666 0.292446 -0.637830
v -0.418901 0.292446 -0.431031
v -0.303068 0.322666 -0.647875
v -0.739316 0.322665 -0.760697
v -0.253367 0.083187 -0.840057
v -0.689614 0.083187 -0.952878
v -0.695886 0.070670 -0.928627
v -0.689614 0.011084 -0.952878
v -0.695886 0.041304 -0.928627
v -0.799142 0.041304 -0.529368
v -0.639879 0.041304 -0.914143
v -0.743135 0.041304 -0.514883
v -0.639879 0.070670 -0.914143
v -0.685907 0.292446 -0.736167
v -0.743135 0.292446 -0.514883
v -0.741914 0.292446 -0.750651
v -0.799142 0.292446 -0.529368
v -0.805414 0.322665 -0.505116
v -1.117908 0.322665 0.703210
v -1.117908 0.011084 0.703210
v -0.681661 0.322665 0.816031
v -1.198311 0.155585 1.014103
v -1.085183 0.301486 0.753717
v -0.734769 0.301486 0.844340
v -1.145202 0.176764 0.985794
v -1.058203 0.344327 0.826352
v -0.793581 0.344327 0.894789
v -1.097849 0.261940 0.979652
v -0.833227 0.261940 1.048088
v -0.794789 0.176764 1.076417
v -0.762063 0.155585 1.126924
v -0.762063 0.011084 1.126924
v -1.198311 0.011084 1.014103
vn -0.9679 -0.0001 -0.2514
vn -0.9679 -0.0002 -0.2514
vn -0.9664 -0.0059 -0.2572
vn -0.9676 -0.0004 -0.2524
vn -0.2504 0.0086 0.9681
vn -0.9679 -0.0009 -0.2515
vn -0.9679 -0.0007 -0.2515
vn -0.2380 0.3106 0.9203
vn -0.2678 -0.0014 0.9635
vn -0.2373 0.3106 0.9204
vn -0.9668 0.0068 -0.2556
vn -0.9681 0.0007 -0.2507
vn -0.2175 0.6065 0.7648
vn -0.9679 -0.0026 -0.2513
vn -0.9678 0.0001 -0.2519
vn -0.9676 0.0002 -0.2524
vn -0.9683 0.0109 -0.2496
vn -0.9692 0.0284 -0.2448
vn -0.9686 0.0163 -0.2481
vn -0.9679 0.0042 -0.2514
vn -0.9677 0.0021 -0.2520
vn -0.9676 0.0001 -0.2523
vn -0.9677 0.0002 -0.2521
vn -0.9682 -0.0023 -0.2503
vn -0.9683 0.0003 -0.2498
vn -0.9683 0.0002 -0.2498
vn -0.9683 0.0002 -0.2497
vn -0.1403 0.8267 0.5449
vn -0.0226 0.9844 0.1745
vn -0.9682 -0.0007 -0.2502
vn -0.9682 -0.0011 -0.2500
vn -0.9668 0.0075 -0.2554
vn -0.9683 0.0007 -0.2497
vn -0.1361 0.8393 0.5264
vn -0.0462 0.9822 0.1819
vn 0.9680 0.0002 0.2509
vn 0.9663 -0.0030 0.2575
vn 0.9680 0.0008 0.2511
vn 0.9663 -0.0030 0.2576
vn 0.9681 -0.0000 0.2504
vn -0.1711 0.7300 0.6617
vn -0.1710 0.7300 0.6616
vn -0.0933 0.9281 0.3605
vn -0.0933 0.9280 0.3606
vn 0.0027 0.9999 -0.0108
vn -0.9681 -0.0000 -0.2504
vn -0.9682 0.0008 -0.2502
vn -0.9664 0.0041 -0.2570
vn -0.9664 0.0040 -0.2571
vn -0.9681 0.0006 -0.2505
vn -0.2222 0.4602 0.8595
vn -0.9682 -0.0000 -0.2503
vn -0.2014 0.5979 0.7758
vn 0.9679 0.0006 0.2515
vn 0.9679 0.0007 0.2515
vn 0.9675 0.0007 0.2530
vn 0.9665 -0.0057 0.2567
vn 0.9664 -0.0059 0.2570
vn 0.9678 0.0009 0.2518
vn -0.2208 0.5887 0.7776
vn -0.1304 0.8515 0.5078
vn 0.9677 -0.0003 0.2520
vn 0.9679 0.0029 0.2514
vn 0.9682 0.0031 0.2503
vn 0.9683 -0.0001 0.2498
vn 0.9683 -0.0002 0.2498
vn 0.9683 -0.0002 0.2497
vn 0.9682 0.0030 0.2503
vn 0.9677 -0.0002 0.2520
vn 0.9678 -0.0017 0.2516
vn 0.9681 -0.0018 0.2505
vn 0.9683 -0.0005 0.2500
vn 0.9660 0.0048 0.2583
vn 0.9616 0.0181 0.2739
vn 0.9659 0.0049 0.2591
vn -0.0290 0.9795 0.1992
vn 0.0525 0.9778 -0.2026
vn 0.9682 0.0007 0.2502
vn 0.9682 -0.0004 0.2502
vn 0.9682 -0.0001 0.2502
vn 0.9681 -0.0006 0.2507
vn 0.9680 -0.0006 0.2508
vn 0.1404 0.8277 -0.5433
vn 0.9679 -0.0007 0.2512
vn 0.9679 -0.0006 0.2514
vn 0.2032 0.5824 -0.7871
vn 0.2388 0.2938 -0.9256
vn 0.2497 -0.0086 -0.9683
vn 0.2373 -0.3106 -0.9204
vn 0.2001 -0.5977 -0.7763
vn 0.1356 -0.8393 -0.5266
vn 0.9681 0.0005 0.2507
vn 0.9680 0.0005 0.2508
vn 0.9681 0.0004 0.2504
vn 0.9682 0.0004 0.2503
vn 0.9680 0.0005 0.2511
vn 0.9679 0.0004 0.2512
vn 0.9682 0.0002 0.2502
vn 0.0466 -0.9823 -0.1816
vn 0.9682 -0.0000 0.2502
vn -0.0525 -0.9778 0.2026
vn 0.9681 -0.0003 0.2504
vn 0.9682 -0.0003 0.2503
vn -0.1404 -0.8277 0.5433
vn -0.1857 -0.5733 0.7980
vn -0.2371 -0.3122 0.9200
vn -0.2678 0.0185 0.9633
vn 0.9679 0.0001 0.2514
vn 0.9679 0.0002 0.2514
vn 0.9678 0.0011 0.2517
vn 0.9665 0.0064 0.2564
vn -0.2472 0.1580 0.9560
vn -0.2504 0.0015 0.9681
vn 0.9682 -0.0000 0.2503
vn 0.0028 0.9999 -0.0109
vn -0.2015 0.5975 0.7761
vn -0.2244 -0.4436 0.8677
vn -0.2243 -0.4442 0.8674
vn -0.2393 -0.2938 0.9254
vn 0.9666 0.0064 0.2563
vn 0.9681 0.0007 0.2506
vn -0.1747 -0.7162 0.6757
vn -0.0983 -0.9198 0.3800
vn -0.9682 0.0003 -0.2503
vn -0.9682 0.0003 -0.2501
vn -0.9682 0.0001 -0.2502
vn -0.9682 -0.0000 -0.2502
vn -0.9664 -0.0059 -0.2569
vn -0.9679 0.0002 -0.2515
vn -0.1824 -0.5912 0.7856
vn -0.9682 -0.0002 -0.2502
vn -0.9681 -0.0004 -0.2504
vn -0.9682 -0.0004 -0.2503
vn 0.1356 -0.8392 -0.5266
vn -0.9680 -0.0005 -0.2508
vn -0.9681 -0.0005 -0.2507
vn 0.1711 -0.7300 -0.6617
vn 0.0933 -0.9280 -0.3607
vn -0.0028 -0.9999 0.0108
vn -0.9679 -0.0004 -0.2512
vn -0.9680 -0.0005 -0.2511
vn 0.2007 -0.5977 -0.7762
vn -0.9679 -0.0001 -0.2515
vn 0.2380 -0.3106 -0.9203
vn 0.0990 0.9184 -0.3830
vn 0.2504 -0.0086 -0.9681
vn 0.9678 -0.0002 0.2516
vn 0.9679 -0.0004 0.2515
vn 0.9679 0.0001 0.2515
vn 0.2393 0.2938 -0.9254
vn 0.2035 0.5824 -0.7870
vn 0.1405 0.8277 -0.5433
vn 0.1747 0.7162 -0.6757
vn 0.2244 0.4439 -0.8675
vn 0.0983 0.9198 -0.3800
vn 0.0524 0.9778 -0.2027
vn 0.2478 0.1443 -0.9580
vn 0.2469 -0.1651 -0.9549
vn 0.2374 -0.3175 -0.9180
vn -0.9678 0.0002 -0.2516
vn -0.9679 0.0004 -0.2515
vn -0.9679 0.0007 -0.2512
vn -0.9679 0.0006 -0.2514
vn -0.9681 0.0006 -0.2507
vn -0.9680 0.0006 -0.2508
vn -0.9683 -0.0002 -0.2499
vn -0.0461 0.9823 0.1814
vn -0.2404 -0.2754 0.9308
vn -0.9668 0.0523 -0.2501
vn -0.0000 -1.0000 -0.0000
vn -0.9754 0.0240 -0.2190
vn -0.9754 0.0239 -0.2191
vn -0.9754 0.0240 -0.2191
vn 0.1654 -0.6396 -0.7507
vn -0.9013 -0.3652 -0.2331
vn -0.8475 -0.4550 0.2732
vn -0.7295 -0.2020 -0.6534
vn -0.7295 -0.2020 -0.6535
vn -0.6366 0.1744 -0.7513
vn -0.9652 0.0895 -0.2458
vn -0.9411 0.2169 -0.2592
vn -0.9491 0.1741 -0.2624
vn -0.9584 0.1188 -0.2594
vn -0.9614 0.1066 -0.2535
vn -0.7422 0.3598 -0.5654
vn -0.8136 0.5229 0.2541
vn -0.8136 0.5230 0.2541
vn -0.9829 0.0267 -0.1823
vn -0.9469 0.0239 -0.3205
vn -0.9469 0.0239 -0.3206
vn -0.8592 0.1922 0.4743
vn -0.8591 0.1922 0.4743
vn -0.9658 0.0734 -0.2487
vn -0.2377 0.0423 0.9704
vn -0.1850 0.6740 0.7152
vn 0.0092 0.9993 -0.0357
vn -0.2503 0.0240 0.9679
vn 0.9700 -0.0867 0.2271
vn -0.0087 -0.9994 0.0338
vn -0.9573 -0.0876 -0.2754
vn -0.9573 -0.0875 -0.2754
vn -0.2620 0.0424 0.9641
vn -0.2620 0.0425 0.9641
vn -0.2497 0.0706 0.9657
vn -0.1574 -0.7776 0.6088
vn -0.0022 -1.0000 0.0087
vn 0.1915 -0.6443 -0.7404
vn 0.2193 -0.6396 -0.7368
vn 0.2229 0.0818 -0.9714
vn 0.2228 0.0818 -0.9714
vn -0.9678 -0.1075 -0.2277
vn 0.0155 -0.9981 -0.0598
vn 0.2502 0.0425 -0.9673
vn 0.1968 0.6183 -0.7609
vn 0.9635 0.0892 0.2524
vn 0.9635 0.0892 0.2526
vn 0.9635 0.0892 0.2523
vn 0.9830 0.0223 0.1824
vn 0.9830 0.0225 0.1821
vn 0.9475 0.0291 0.3185
vn 0.9475 0.0291 0.3186
vn 0.7058 0.3943 0.5886
vn 0.7058 0.3943 0.5885
vn 0.7490 0.5541 -0.3634
vn 0.7489 0.5541 -0.3635
vn 0.7489 0.5541 -0.3634
vn 0.9671 0.0520 0.2489
vn 0.9679 0.0415 0.2478
vn 0.9686 -0.0220 0.2476
vn 0.9682 -0.0009 0.2501
vn 0.9682 -0.0008 0.2501
vn 0.9068 0.1846 -0.3789
vn 0.9646 -0.2410 -0.1070
vn 0.8123 -0.5422 0.2150
vn 0.8589 -0.3657 0.3585
vn 0.8589 -0.3657 0.3586
vn 0.9591 0.0254 0.2819
vn 0.9592 0.0253 0.2816
vn 0.9592 0.0253 0.2818
vn 0.9668 0.0523 0.2500
vn 0.9136 -0.3309 0.2362
vn 0.9746 0.0286 0.2223
vn 0.9745 0.0285 0.2224
vn 0.8359 -0.2230 0.5015
vn 0.9226 -0.3757 0.0871
vn 0.9226 -0.3757 0.0872
vn 0.9668 0.0509 0.2502
vn -0.0294 -0.2726 -0.9617
vn -0.0516 -0.9986 -0.0130
vn -0.9648 -0.0909 -0.2467
vn -0.9648 -0.0910 -0.2466
vn -0.2825 -0.2657 0.9217
vn 0.9653 0.0732 0.2507
vn 0.6501 0.1442 0.7461
vn 0.6501 0.1442 0.7460
vn -0.1426 -0.7347 0.6633
vn 0.2750 0.0822 -0.9579
vn 0.9556 -0.1088 0.2740
vn 0.2487 0.1156 -0.9617
vn -0.1969 -0.7347 0.6492
vn -0.9596 0.0290 -0.2797
vn -0.9596 0.0291 -0.2798
vn -0.9542 -0.2387 0.1806
vn -0.4610 -0.8792 -0.1201
vn -0.6703 -0.4680 -0.5759
vn 0.3873 -0.2916 -0.8746
vn 0.3873 -0.2916 -0.8747
vn 0.9497 -0.1941 0.2458
vn -0.0256 -0.9996 -0.0070
vn -0.9651 0.0789 -0.2497
vn -0.1553 -0.3056 0.9394
vn -0.1553 -0.3057 0.9394
vn 0.2504 -0.0000 -0.9681
vn 0.9592 0.0311 0.2811
vn 0.1856 -0.6711 -0.7177
vn -0.9709 0.0309 -0.2374
vn -0.2467 -0.1718 0.9538
vn -0.2487 -0.1173 0.9615
vn -0.2487 -0.1172 0.9615
vn -0.9757 0.0782 -0.2048
vn -0.2504 -0.0000 0.9681
vn -0.9835 0.0970 -0.1528
vn -0.9835 0.0971 -0.1528
vn -0.2487 0.1172 0.9615
vn -0.2487 0.1173 0.9615
vn 0.9374 0.0784 0.3392
vn 0.9093 0.0971 0.4046
vn 0.9093 0.0972 0.4046
vn 0.8916 0.0995 0.4417
vn -0.2467 0.1718 0.9538
vn 0.2140 0.5193 -0.8274
vn -0.9878 0.0994 -0.1201
vn -0.7583 -0.3244 -0.5655
vn 0.5460 0.5603 -0.6229
vn -0.9048 0.3445 -0.2504
vn -0.2151 0.1625 -0.9630
vn -0.8346 0.3320 -0.4396
vn -0.7337 -0.2930 -0.6131
vn -0.8447 -0.5147 -0.1468
vn 0.7448 0.3069 0.5926
vn -0.9990 -0.0093 -0.0429
vn -0.8897 -0.2100 -0.4054
vn -0.9961 0.0693 0.0544
vn 0.3149 -0.0904 0.9448
vn -0.2263 -0.4278 0.8751
vn -0.1856 0.6711 0.7177
vn -0.1858 0.6704 0.7184
vn -0.1856 0.6712 0.7177
vn -0.7335 -0.0904 0.6737
vn -0.9387 0.3069 0.1572
vn 0.8100 -0.5147 0.2811
vn 0.9389 -0.2930 -0.1806
vn 0.8946 -0.0093 0.4469
vn 0.9747 -0.2100 0.0768
vn 0.6550 0.1625 -0.7380
vn 0.9431 0.3320 0.0202
vn 0.9127 0.3445 0.2196
vn 0.8448 0.0693 0.5305
vn 0.9373 -0.3244 -0.1270
vn -0.1755 0.5602 -0.8095
vn -0.1854 0.6719 0.7170
vn 0.2263 0.4278 -0.8751
vn -0.0000 1.0000 -0.0000
vn -0.1928 -0.6382 0.7454
vn 0.1928 0.6382 -0.7454
vn -0.1156 0.8871 0.4469
vn 0.1399 0.8293 -0.5411
vn -0.8723 0.4876 0.0364
vn -0.2451 0.2046 0.9477
vn 0.7453 0.4876 0.4548
vt 0.500000 1.000000
vt 0.671010 0.969846
vt 0.694444 0.000000
vt 0.750000 0.000000
vt 0.328990 0.969846
vt 0.805556 0.000000
vt 0.178606 0.883022
vt 0.066987 0.750000
vt 0.007596 0.586824
vt 0.007596 0.413176
vt 0.066987 0.250000
vt 0.178606 0.116978
vt 0.328990 0.030154
vt 0.500000 0.000000
vt 0.671010 0.030154
vt 0.821394 0.116978
vt 0.933013 0.250000
vt 0.992404 0.413176
vt 0.992404 0.586824
vt 0.933013 0.750000
vt 0.821394 0.883022
vt 0.861111 0.000000
vt 0.916667 0.000000
vt 0.972222 0.000000
vt 0.861111 1.000000
vt 0.916667 1.000000
vt 0.972222 1.000000
vt 0.805556 1.000000
vt 0.750000 1.000000
vt 0.694444 1.000000
vt 0.638889 0.000000
vt 0.638889 1.000000
vt 0.583333 0.000000
vt 0.583333 1.000000
vt 0.527778 0.000000
vt 0.527778 1.000000
vt 0.361111 0.000000
vt 0.361111 1.000000
vt 0.416667 1.000000
vt 0.416667 0.000000
vt 0.472222 1.000000
vt 0.472222 0.000000
vt 0.305556 0.000000
vt 0.305556 1.000000
vt 0.250000 0.000000
vt 0.250000 1.000000
vt 0.194444 1.000000
vt 0.138889 1.000000
vt 0.083333 1.000000
vt 0.027778 1.000000
vt 0.083333 0.000000
vt 0.138889 0.000000
vt 0.027778 0.000000
vt 1.027778 1.000000
vt 1.027778 0.000000
vt 0.194444 0.000000
vt 0.358174 0.000000
vt 0.641826 0.000000
vt 1.000000 0.139788
vt 0.860213 0.000000
vt 1.636909 0.000000
vt 1.000000 0.860213
vt 0.000000 0.139788
vt 0.000000 0.860213
vt 0.641826 1.000000
vt 0.139787 0.000000
vt -0.248572 0.000000
vt -0.248572 1.000000
vt 0.860213 1.000000
vt 0.139787 1.000000
vt -0.636909 1.000000
vt -0.636909 -0.000000
vt 0.358174 1.000000
vt 1.636909 1.000000
vt 1.000000 0.000000
vt 1.000000 0.250000
vt 0.750000 1.000000
vt 1.000000 1.000000
vt 0.000000 1.000000
vt 0.000000 0.000000
vt 0.250000 1.000000
vt 0.250000 0.000000
vt 0.000000 0.250000
vt 0.500000 1.000000
vt 0.500000 0.000000
vt 0.000000 0.500000
vt 1.000000 0.500000
vt 0.000000 0.750000
vt 1.000000 0.750000
vt 0.465050 1.000000
vt 0.447702 0.000000
vt 1.000000 0.231410
vt 0.000000 0.231410
s 1
f 1/1/1 5/1/2 6/2/3 2/2/4
f 2/3/5 87/3/5 4/4/5 1/4/5
f 3/5/6 8/5/7 5/1/2 1/1/1
f 1/4/8 4/4/8 88/6/8 3/6/8
f 5/1/9 7/1/9 156/2/9 6/2/9
f 8/5/10 10/5/10 7/1/10 5/1/10
f 17/7/11 9/7/12 8/5/7 3/5/6
f 9/7/13 11/7/13 10/5/13 8/5/13
f 156/2/14 7/1/15 10/5/16 11/7/17 12/8/18 13/9/19 151/10/20 149/11/21 147/12/22 145/13/23 152/14/14 153/15/24 154/16/25 101/17/26 100/18/26 99/19/27 97/20/25 98/21/24
f 14/8/28 12/8/28 11/7/28 9/7/28
f 15/9/29 13/9/29 12/8/29 14/8/29
f 18/9/30 15/9/31 14/8/32 16/8/33
f 16/8/33 14/8/32 9/7/12 17/7/11
f 17/22/34 20/22/34 19/23/34 16/23/34
f 16/23/35 19/23/35 21/24/35 18/24/35
f 20/22/36 23/22/37 22/23/38 19/23/39
f 19/23/39 22/23/38 24/24/40 21/24/40
f 23/22/41 28/25/42 25/26/43 22/23/44
f 22/23/44 25/26/43 26/27/45 24/24/45
f 155/27/46 26/27/46 25/26/47 27/26/48
f 27/26/48 25/26/47 28/25/49 30/25/50
f 85/6/51 29/28/51 28/25/42 23/22/41
f 30/25/50 28/25/49 29/28/52 31/28/52
f 34/26/34 27/26/34 30/25/34 32/25/34
f 32/25/53 30/25/53 31/28/53 33/28/53
f 33/5/54 36/5/55 35/7/56 32/7/57
f 32/7/57 35/7/56 37/8/58 34/8/59
f 36/5/60 39/5/60 38/7/60 35/7/60
f 35/7/61 38/7/61 40/8/61 37/8/61
f 76/1/62 74/2/63 72/21/64 71/20/65 70/19/66 66/18/67 59/17/66 58/16/65 56/15/68 54/14/63 52/13/69 51/12/70 50/11/71 42/10/72 41/9/72 40/8/73 38/7/74 39/5/75
f 37/8/76 40/8/76 41/9/76 43/9/76
f 43/9/77 41/9/77 42/10/77 45/10/77
f 44/9/78 43/9/78 45/10/79 46/10/80
f 34/8/59 37/8/58 43/9/78 44/9/78
f 46/10/80 45/10/79 47/11/81 48/11/82
f 45/10/83 42/10/83 50/11/83 47/11/83
f 48/11/82 47/11/81 49/12/84 122/12/85
f 47/11/86 50/11/86 51/12/86 49/12/86
f 49/12/87 51/12/87 52/13/87 53/13/87
f 53/13/88 52/13/88 54/14/88 55/14/88
f 55/14/89 54/14/89 56/15/89 57/15/89
f 57/15/90 56/15/90 58/16/90 60/16/90
f 60/16/91 58/16/91 59/17/91 62/17/91
f 61/16/92 60/16/93 62/17/94 63/17/95
f 110/15/96 57/15/97 60/16/93 61/16/92
f 63/17/95 62/17/94 64/18/98 65/18/98
f 62/17/99 59/17/99 66/18/99 64/18/99
f 65/18/98 64/18/98 67/19/80 68/19/100
f 64/18/101 66/18/101 70/19/101 67/19/101
f 68/19/100 67/19/80 69/20/102 91/20/103
f 67/19/104 70/19/104 71/20/104 69/20/104
f 69/20/105 71/20/105 72/21/105 73/21/105
f 73/21/106 72/21/106 74/2/106 75/2/106
f 75/2/107 74/2/107 76/1/107 77/1/107
f 77/1/10 76/1/10 39/5/10 36/5/10
f 78/1/108 77/1/109 36/5/55 33/5/54
f 79/2/110 75/2/111 77/1/109 78/1/108
f 78/29/5 80/29/5 81/30/5 79/30/5
f 33/28/8 31/28/8 80/29/8 78/29/8
f 31/28/52 29/28/52 82/29/46 80/29/46
f 80/29/46 82/29/46 83/30/46 81/30/46
f 84/4/112 82/29/112 29/28/51 85/6/51
f 86/3/113 83/30/113 82/29/112 84/4/112
f 4/4/40 84/4/40 85/6/114 88/6/114
f 87/3/40 86/3/40 84/4/40 4/4/40
f 81/30/115 83/30/115 86/3/115 87/3/115
f 79/30/5 81/30/5 87/3/5 2/3/5
f 88/6/114 85/6/114 23/22/37 20/22/36
f 3/6/116 88/6/116 20/22/116 17/22/116
f 90/31/117 89/32/118 79/30/119 2/3/119
f 89/21/120 73/21/121 75/2/111 79/2/110
f 92/33/122 91/34/122 89/32/118 90/31/117
f 91/20/103 69/20/102 73/21/121 89/21/120
f 93/35/123 68/36/123 91/34/122 92/33/122
f 92/20/124 94/20/125 96/19/126 93/19/127
f 90/21/128 95/21/129 94/20/125 92/20/124
f 95/21/130 98/21/130 97/20/130 94/20/130
f 94/20/104 97/20/104 99/19/104 96/19/104
f 96/19/101 99/19/101 100/18/101 102/18/101
f 102/18/99 100/18/99 101/17/99 104/17/99
f 103/18/131 102/18/131 104/17/132 106/17/133
f 93/19/127 96/19/126 102/18/131 103/18/131
f 104/17/134 101/17/134 154/16/134 105/16/134
f 106/17/133 104/17/132 105/16/135 107/16/136
f 107/37/137 61/38/137 63/39/138 106/40/138
f 106/40/138 63/39/138 65/41/139 103/42/139
f 107/16/136 105/16/135 111/15/140 108/15/141
f 108/43/142 110/44/142 61/38/137 107/37/137
f 108/15/141 111/15/140 144/14/143 109/14/2
f 109/45/144 113/45/144 112/43/144 108/43/144
f 108/43/144 112/43/144 115/44/144 110/44/144
f 113/45/40 140/45/40 114/43/40 112/43/40
f 112/43/145 114/43/145 116/44/145 115/44/145
f 115/44/46 116/44/46 119/46/46 117/46/46
f 110/44/144 115/44/144 117/46/144 120/46/144
f 117/46/46 119/46/46 141/47/46 118/47/46
f 120/46/146 117/46/146 118/47/146 121/47/146
f 121/13/147 53/13/148 55/14/149 120/14/109
f 120/14/109 55/14/149 57/15/97 110/15/96
f 122/12/85 49/12/84 53/13/148 121/13/147
f 121/47/150 118/47/150 123/48/150 122/48/150
f 122/48/151 123/48/151 125/49/151 48/49/151
f 118/47/46 141/47/46 124/48/46 123/48/46
f 123/48/46 124/48/46 127/49/46 125/49/46
f 48/49/152 125/49/152 126/50/152 46/50/152
f 125/49/46 127/49/46 129/50/46 126/50/46
f 128/51/153 127/49/153 124/48/154 138/52/154
f 130/53/155 129/50/155 127/49/153 128/51/153
f 24/24/45 26/27/45 129/54/155 130/55/155
f 126/54/46 129/54/46 26/27/46 155/27/46
f 21/24/40 24/24/40 130/55/40 131/55/40
f 131/53/40 130/53/40 128/51/40 133/51/40
f 132/53/152 131/53/152 133/51/152 134/51/152
f 18/24/156 21/24/156 131/55/156 132/55/156
f 134/51/151 133/51/151 135/52/151 136/52/151
f 133/51/40 128/51/40 138/52/40 135/52/40
f 136/52/150 135/52/150 137/56/150 142/56/150
f 135/52/40 138/52/40 139/56/40 137/56/40
f 138/52/154 124/48/154 141/47/157 139/56/157
f 137/56/40 139/56/40 140/45/40 113/45/40
f 139/56/157 141/47/157 119/46/158 140/45/158
f 140/45/158 119/46/158 116/44/159 114/43/159
f 142/56/146 137/56/146 113/45/146 109/45/146
f 142/13/160 143/13/161 146/12/162 136/12/163
f 109/14/2 144/14/143 143/13/161 142/13/160
f 144/14/88 152/14/88 145/13/88 143/13/88
f 143/13/87 145/13/87 147/12/87 146/12/87
f 136/12/163 146/12/162 148/11/164 134/11/165
f 146/12/86 147/12/86 149/11/86 148/11/86
f 134/11/165 148/11/164 150/10/126 132/10/166
f 148/11/83 149/11/83 151/10/83 150/10/83
f 132/10/166 150/10/126 15/9/31 18/9/30
f 150/10/77 151/10/77 13/9/77 15/9/77
f 111/15/89 153/15/89 152/14/89 144/14/89
f 105/16/90 154/16/90 153/15/90 111/15/90
f 46/54/156 126/54/156 155/27/156 44/27/156
f 44/27/167 155/27/167 27/26/167 34/26/167
f 103/42/139 65/41/139 68/36/123 93/35/123
f 6/2/168 156/2/168 98/21/168 95/21/168
f 2/2/4 6/2/3 95/21/129 90/21/128
f 158/57/169 162/57/169 161/58/169 157/58/169
f 157/57/170 160/57/170 188/58/170 158/58/170
f 157/58/171 161/58/172 165/59/172 159/59/173
f 159/60/174 228/60/174 160/61/174 157/61/174
f 162/57/175 233/57/175 163/58/175 161/58/175
f 161/58/176 163/58/176 234/58/176 164/58/176
f 161/58/177 164/58/177 167/59/178 165/59/178
f 165/59/179 167/59/179 168/62/179 166/62/179
f 159/59/180 165/59/180 166/62/180 202/62/180
f 164/58/181 231/57/181 230/63/182 170/64/183 169/65/184 168/62/183 167/59/182
f 166/62/185 168/62/185 169/65/185 171/65/185
f 171/65/186 169/65/187 170/64/186 173/64/187
f 172/65/188 171/65/188 173/64/188 175/64/188
f 202/62/189 166/62/190 171/65/189 172/65/189
f 173/64/191 170/64/192 230/63/192 174/63/191
f 175/64/193 173/64/193 174/63/193 176/63/193
f 176/66/194 179/66/194 178/60/194 175/60/194
f 175/67/195 177/68/195 204/65/196 172/58/196
f 175/60/197 178/60/197 181/69/197 177/69/197
f 179/66/198 186/66/198 180/60/198 178/60/198
f 178/60/199 180/60/199 183/69/199 181/69/199
f 181/69/200 183/69/201 184/70/201 182/70/201
f 177/69/202 181/69/203 182/70/203 226/70/202
f 186/66/204 184/70/204 183/69/204 180/60/204
f 182/70/46 184/70/46 185/71/46 195/71/46
f 187/72/205 185/71/205 184/70/205 186/66/205
f 188/72/40 187/72/40 186/66/40 179/66/40
f 160/57/40 189/57/40 187/58/40 188/58/40
f 189/57/206 191/73/206 185/65/206 187/58/206
f 228/60/40 190/60/40 189/61/40 160/61/40
f 191/74/207 189/61/207 190/60/207 192/69/207
f 195/65/46 185/65/46 191/73/46 193/73/46
f 193/74/46 191/74/46 192/69/46 196/69/46
f 194/74/208 193/74/208 196/69/208 197/69/208
f 218/65/170 195/65/170 193/73/170 194/73/170
f 197/69/209 196/69/210 198/70/209 201/70/210
f 196/69/211 192/69/211 199/70/211 198/70/211
f 198/70/212 199/70/212 229/66/212 200/66/212
f 201/70/213 198/70/213 200/66/213 202/66/213
f 172/72/196 204/71/196 201/70/214 202/66/214
f 201/64/215 203/64/216 211/63/217 197/63/215
f 204/73/218 205/73/218 203/64/218 201/64/219
f 177/62/220 206/62/220 205/73/220 204/73/221
f 206/62/222 208/62/223 207/73/223 205/73/223
f 205/73/224 207/73/225 209/64/224 203/64/226
f 210/63/227 209/64/228 207/73/229 208/62/228 227/59/227 213/58/230 212/57/231
f 203/64/232 209/64/232 210/63/232 211/63/232
f 211/63/233 210/63/233 212/57/233 215/57/233
f 213/58/234 221/58/234 214/57/234 212/57/234
f 212/57/235 214/57/236 216/57/235 215/57/235
f 197/63/237 211/63/238 215/57/239 194/57/238
f 194/57/240 215/57/240 217/58/240 218/58/240
f 215/57/241 216/57/241 220/58/241 217/58/241
f 218/58/242 217/58/243 219/59/243 226/59/243
f 217/58/244 213/58/244 227/59/244 219/59/244
f 217/58/245 220/58/246 221/58/245 213/58/245
f 216/57/247 223/57/247 222/58/247 220/58/247
f 220/58/248 222/58/248 224/58/248 221/58/248
f 223/57/249 225/57/249 224/58/249 222/58/249
f 221/58/250 224/58/250 225/57/250 214/57/251
f 214/57/252 225/57/252 223/57/252 216/57/252
f 226/59/253 219/59/253 206/62/253 177/62/253
f 219/59/254 227/59/254 208/62/254 206/62/255
f 226/70/256 182/70/256 195/71/256 218/71/256
f 202/66/257 200/66/257 228/60/257 159/60/257
f 200/66/258 229/66/258 190/60/258 228/60/258
f 229/66/259 199/70/259 192/69/259 190/60/259
f 158/72/260 188/72/260 179/66/260 176/66/260
f 176/63/261 174/63/262 162/57/261 158/57/261
f 174/63/263 230/63/263 231/57/263 162/57/263
f 164/58/264 234/58/264 232/57/264 231/57/264
f 231/57/265 232/57/265 233/57/265 162/57/265
f 232/57/266 235/57/267 237/57/266 233/57/266
f 234/58/268 236/58/268 235/57/268 232/57/268
f 237/57/269 235/57/269 236/58/269 238/58/269
f 233/57/270 237/57/270 238/58/270 163/58/270
f 163/58/271 238/58/271 236/58/272 234/58/271
f 239/75/273 242/75/273 243/76/273 240/76/273
f 240/4/274 251/77/274 241/78/40 239/75/40
f 241/79/275 244/79/275 242/80/275 239/80/275
f 247/78/275 245/78/275 244/79/275 241/79/275
f 248/75/275 246/75/275 245/78/275 247/78/275
f 248/80/46 247/79/46 249/81/276 250/82/276
f 241/80/277 251/83/278 249/76/279 247/75/277
f 250/82/276 249/81/276 252/84/280 254/85/280
f 251/83/278 255/86/281 252/87/281 249/76/279
f 254/85/280 252/84/280 253/77/282 269/4/283
f 255/86/281 257/88/284 253/89/285 252/87/281
f 256/85/286 255/84/286 251/77/274 240/4/274
f 259/82/287 257/81/288 255/84/286 256/85/286
f 260/80/289 258/79/289 257/81/288 259/82/287
f 257/88/284 258/79/290 267/78/290 253/89/285
f 256/87/273 263/87/273 261/89/273 259/89/273
f 259/89/273 261/89/273 262/78/273 260/78/273
f 240/76/273 243/76/273 263/87/273 256/87/273
f 260/75/291 262/75/291 264/78/291 258/78/291
f 258/78/291 264/78/291 265/79/291 267/79/291
f 267/79/291 265/79/291 266/80/291 268/80/291
f 269/4/283 253/77/282 267/78/292 268/75/292
f 268/79/273 266/79/273 270/88/273 269/88/273
f 269/88/273 270/88/273 271/86/273 254/86/273
f 254/86/273 271/86/273 272/83/273 250/83/273
f 250/83/273 272/83/273 246/80/273 248/80/273
f 273/80/293 274/80/293 280/79/293 276/79/293
f 275/75/294 312/75/294 274/80/294 273/80/294
f 273/80/46 276/79/46 277/78/46 275/75/46
f 276/79/295 279/79/295 288/78/295 277/78/295
f 276/79/296 280/79/296 281/79/296 278/79/296
f 276/79/297 278/79/297 279/79/297
f 278/79/298 281/79/298 282/79/298 283/79/298
f 283/79/299 282/79/299 284/79/299 286/79/299
f 286/79/300 284/79/300 285/79/300 287/79/300
f 283/79/301 286/79/301 287/79/301
f 279/79/302 278/79/302 283/79/302 287/79/302
f 288/78/303 279/79/303 287/79/303
f 287/79/304 285/79/304 290/78/304 288/78/304
f 288/79/305 290/79/305 291/90/305 289/84/305
f 277/79/306 288/79/307 289/84/307 313/84/308
f 293/79/305 289/84/305 291/90/305 292/79/305
f 295/79/309 293/78/309 292/78/309 294/79/309
f 297/79/310 295/79/310 294/79/310 296/79/310
f 300/79/311 297/79/311 296/79/311 298/79/311
f 301/79/312 300/79/312 298/79/312 299/79/312
f 300/79/313 295/79/313 297/79/313
f 303/79/314 295/79/314 300/79/314 301/79/314
f 302/79/315 301/79/315 299/79/315 305/79/315
f 302/79/316 303/79/316 301/79/316
f 302/79/317 304/78/317 293/78/317 303/79/317
f 293/78/318 295/79/318 303/79/318
f 306/80/40 308/75/40 304/78/40 302/79/40
f 306/80/319 302/79/319 305/79/319 307/80/319
f 308/75/320 306/80/320 307/80/320 310/75/320
f 308/80/321 309/85/321 313/84/308 304/79/306
f 309/85/322 308/80/322 310/80/322 311/91/322
f 309/85/322 311/91/322 312/80/322 275/80/322
f 275/80/321 277/79/306 313/84/308 309/85/321
f 304/79/306 313/84/308 289/84/307 293/79/307
f 314/75/40 319/75/40 320/78/40 315/78/40
f 315/80/40 347/79/40 317/78/40 314/75/40
f 316/80/170 334/80/170 318/75/170 314/75/170
f 314/80/170 317/79/170 346/78/170 316/75/170
f 318/75/40 322/75/40 319/75/40 314/75/40
f 319/75/273 321/75/273 328/78/273 320/78/273
f 322/75/323 324/75/323 321/75/323 319/75/323
f 331/92/40 323/92/40 322/75/40 318/75/40
f 323/92/281 325/92/281 324/75/281 322/75/281
f 321/75/40 324/75/40 325/92/40 326/78/40 328/78/40
f 327/78/324 326/78/324 325/92/324 323/92/324
f 320/78/170 328/78/170 326/78/170 327/78/170
f 315/78/40 320/78/40 327/78/40 329/78/40
f 329/78/40 327/78/40 323/92/40 331/92/40
f 331/92/325 332/93/325 330/79/325 329/78/325
f 315/78/323 329/78/323 330/79/323 344/79/323
f 318/75/273 334/80/273 332/93/273 331/92/273
f 332/93/46 333/93/46 342/79/46 330/79/46
f 334/80/46 335/80/46 333/93/46 332/93/46
f 316/80/46 336/80/46 335/80/46 334/80/46
f 336/80/323 338/80/323 337/80/323 335/80/323
f 335/80/281 337/80/281 339/93/281 333/93/281
f 341/79/46 340/79/46 339/93/46 337/80/46 338/80/46
f 333/93/324 339/93/324 340/79/324 342/79/324
f 342/79/170 340/79/170 341/79/170 343/79/170
f 330/79/46 342/79/46 343/79/46 344/79/46
f 343/79/273 341/79/273 338/80/273 336/80/273
f 344/79/46 343/79/46 336/80/46 316/80/46
f 316/80/46 346/79/46 345/78/46 344/75/46
f 344/80/323 345/79/323 347/78/323 315/75/323
f 346/75/46 359/75/46 348/78/46 345/78/46
f 345/78/326 349/78/326 350/79/326 347/79/326
f 348/78/326 351/78/326 349/78/326 345/78/326
f 349/78/327 352/78/327 353/79/327 350/79/327
f 351/78/328 354/78/328 352/78/328 349/78/328
f 352/78/326 354/78/326 355/79/326 353/79/326
f 356/79/329 355/79/329 354/78/329 351/78/329
f 350/79/330 353/79/330 355/79/330 356/79/330
f 357/79/326 356/79/326 351/78/326 348/78/326
f 347/79/326 350/79/326 356/79/326 357/79/326
f 358/80/281 357/79/281 348/78/281 359/75/281
f 347/79/40 357/79/40 358/80/40 317/80/40
f 317/80/170 358/80/170 359/75/170 346/75/170
